<?xml version="1.0" encoding="UTF-8" standalone="no" ?>
<!DOCTYPE sesx>
<sesx version="1.9">

  <session appBuild="13.0.8.43" appVersion="13.0" audioChannelType="stereo" bitDepth="32" duration="8347568" sampleRate="48000">
    <tracks>
      <audioTrack automationLaneOpenState="false" id="10001" index="1" select="false" visible="true">
        <trackParameters trackHeight="104" trackHue="160" trackMinimized="false">
          <name>鼓</name>
        </trackParameters>
        <trackAudioParameters audioChannelType="stereo" automationMode="1" monitoring="false" recordArmed="false" solo="false" soloSafe="false">
          <trackOutput outputID="10000" type="trackID"/>
          <trackInput inputID="1"/>
          <component componentGuid="6b471297-0b0a-4afc-b150-0bc35def4d47" componentID="Audition.Fader" id="trackFader" name="volume" powered="true">
            <parameter index="0" name="volume" parameterValue="1"/>
            <parameter index="1" name="static gain" parameterValue="1"/>
          </component>
          <component componentGuid="d1b75b5a-ac96-4b8a-bccc-1b498f9171ee" componentID="Audition.Mute" id="trackMute" name="Mute" powered="true">
            <parameter index="0" parameterValue="0"/>
            <parameter index="1" name="mute" parameterValue="0"/>
          </component>
          <component componentGuid="6042228b-ed37-4504-a891-800d6497e424" componentID="Audition.StereoPanner" id="trackPan" name="StereoPanner" powered="true">
            <parameter index="0" name="声像" parameterValue="0"/>
          </component>
          <component componentGuid="aa818798-0547-42b3-9ec4-e67a773ebfe8" componentID="Audition.EQ" id="trackEQ" name="EQ" powered="false">
            <parameter index="0" name="下限频率" parameterValue="0.000834028352983295917510986328125"/>
            <parameter index="1" name="下限增益" parameterValue="0.5"/>
            <parameter index="2" name="上限频率" parameterValue="0.74979150295257568359375"/>
            <parameter index="3" name="上限频率增益" parameterValue="0.5"/>
            <parameter index="4" name="EQ 频段 1 中置频率" parameterValue="0.00125104258768260478973388671875"/>
            <parameter index="5" name="EQ 频段 1 Q" parameterValue="0.000199989997781813144683837890625"/>
            <parameter index="6" name="EQ 频段 1 增益" parameterValue="0.5"/>
            <parameter index="7" name="EQ 频段 1 启用" parameterValue="1"/>
            <parameter index="8" name="EQ 频段 2 中置频率" parameterValue="0.0075062550604343414306640625"/>
            <parameter index="9" name="EQ 频段 2 Q" parameterValue="0.000199989997781813144683837890625"/>
            <parameter index="10" name="EQ 频段 2 增益" parameterValue="0.5"/>
            <parameter index="11" name="EQ 频段 2 启用" parameterValue="1"/>
            <parameter index="12" name="EQ 频段 3 中置频率" parameterValue="0.0325271077454090118408203125"/>
            <parameter index="13" name="EQ 频段 3 Q" parameterValue="0.000199989997781813144683837890625"/>
            <parameter index="14" name="EQ 频段 3 增益" parameterValue="0.5"/>
            <parameter index="15" name="EQ 频段 3 启用" parameterValue="1"/>
            <parameter index="16" name="EQ 频段 4 中置频率" parameterValue="0.13261051476001739501953125"/>
            <parameter index="17" name="EQ 频段 4 Q" parameterValue="0.000199989997781813144683837890625"/>
            <parameter index="18" name="EQ 频段 4 增益" parameterValue="0.5"/>
            <parameter index="19" name="EQ 频段 4 启用" parameterValue="1"/>
            <parameter index="20" name="EQ 频段 5 中置频率" parameterValue="0.532944142818450927734375"/>
            <parameter index="21" name="EQ 频段 5 Q" parameterValue="0.000199989997781813144683837890625"/>
            <parameter index="22" name="EQ 频段 5 增益" parameterValue="0.5"/>
            <parameter index="23" name="EQ 频段 5 启用" parameterValue="1"/>
            <parameter index="24" name="主控增益" parameterValue="0.666666686534881591796875"/>
            <parameter index="25" name="恒定 Q" parameterValue="1"/>
            <parameter index="26" name="下限滤镜顺序" parameterValue="0"/>
            <parameter index="27" name="上限频率滤镜顺序" parameterValue="0"/>
            <parameter index="28" name="超静音模式" parameterValue="0"/>
            <parameter index="29" name="下限启用" parameterValue="1"/>
            <parameter index="30" name="上限频率启用" parameterValue="1"/>
            <parameter index="31" name="原始采样率" parameterValue="0.25"/>
            <parameter index="32" name="EQ 频段 1 频带宽" parameterValue="0.002499990165233612060546875"/>
            <parameter index="33" name="EQ 频段 2 频段宽度" parameterValue="0.0099999904632568359375"/>
            <parameter index="34" name="EQ 频段 3 频段宽度" parameterValue="0.0399999916553497314453125"/>
            <parameter index="35" name="EQ 频段 4 频段宽度" parameterValue="0.15999998152256011962890625"/>
            <parameter index="36" name="EQ 频段 5 频段宽度" parameterValue="0.63999998569488525390625"/>
            <parameter index="37" name="高通滤波启用" parameterValue="0"/>
            <parameter index="38" name="高通切除频率" parameterValue="0"/>
            <parameter index="39" name="高通斜率" parameterValue="0.4000000059604644775390625"/>
            <parameter index="40" name="低通滤波启用" parameterValue="0"/>
            <parameter index="41" name="低通切除频率" parameterValue="0.833194315433502197265625"/>
            <parameter index="42" name="低通斜率" parameterValue="0.4000000059604644775390625"/>
            <parameter index="43" name="不使用" parameterValue="0"/>
            <parameter index="44" name="下限图示范围" parameterValue="1"/>
          </component>
        </trackAudioParameters>
        <effectsRack preFader="true">
          <component componentGuid="76e1b714-fbcb-4733-ad99-24e10cf68208" componentID="Audition.ComponentGroup" id="rackMix" powered="true">
            <parameter index="0" parameterValue="0"/>
            <parameter index="1" parameterValue="0"/>
          </component>
          <component componentGuid="d8741c55-33cd-4caf-bf7b-8cced703849a" id="rackInput" powered="true">
            <parameter index="0" parameterValue="1"/>
            <parameter index="1" parameterValue="0"/>
          </component>
          <component componentGuid="8874238a-545e-4363-91da-4f32703e927f" id="rackOutput" powered="true">
            <parameter index="0" parameterValue="1"/>
            <parameter index="1" parameterValue="0"/>
          </component>
          <slot powered="true" slotIndex="0">
            <component componentGuid="1d1dd343-72ef-4b3c-bc85-9f3b1906d6c1" componentID="3:5653544e 53485373 3120696d 61676572" editorHeight="523" editorLeft="-1245" editorTop="259" editorWidth="570" name="S1 Imager Stereo" presetName="（自定义）">
              <busConfig><![CDATA[{"in":[{"layout":[100,101],"name":"Stereo In","type":0}],"out":[{"layout":[100,101],"name":"Stereo Out","type":0}]}]]></busConfig>
              <channelMap direction="input">
                <channel index="0" sourceIndex="0"/>
                <channel index="1" sourceIndex="1"/>
              </channelMap>
              <channelMap direction="output">
                <channel index="0" sourceIndex="0"/>
                <channel index="1" sourceIndex="1"/>
              </channelMap>
              <presetChunkData><![CDATA[KAMAAAAAAAAAAAAAAAAAAAAAAwUAAAADAAAAAU5TSFNzZXRBAAAC5VhQc3Q8UHJlc2V0Q2h1bmtYTUxUcmVlIHZlcnNpb249IjIiPgogICAgPFByZXNldCBOYW1lPSIiIEdlbmVyaWNUeXBlPSJTSFVGIj4KICAgICAgICA8UHJlc2V0SGVhZGVyPgogICAgICAgICAgICA8UGx1Z2luTmFtZT5TMSBJbWFnZXI8L1BsdWdpbk5hbWU+CiAgICAgICAgICAgIDxQbHVnaW5TdWJDb21wPk5TSFM8L1BsdWdpblN1YkNvbXA+CiAgICAgICAgICAgIDxQbHVnaW5WZXJzaW9uPjEwLjAuMC4xNjwvUGx1Z2luVmVyc2lvbj4KICAgICAgICAgICAgPEFjdGl2ZVNldHVwPlNFVFVQX0E8L0FjdGl2ZVNldHVwPgogICAgICAgICAgICA8UmVhZE9ubHk+dHJ1ZTwvUmVhZE9ubHk+CiAgICAgICAgPC9QcmVzZXRIZWFkZXI+CiAgICAgICAgPFByZXNldERhdGEgU2V0dXA9IlNFVFVQX0EiPgogICAgICAgICAgICA8UGFyYW1ldGVycyBUeXBlPSJSZWFsV29ybGQiPi0xLjE5OTk5OTk5OTk5OTk5OTk1NTYgMC44NTk5OTk5OTk5OTk5OTk5ODY2OCAxIDY1MCAtMjcuNSAtNTUgKiAqICogKgoqIDAgMCAwIDAgMCAwIDAgPC9QYXJhbWV0ZXJzPgogICAgICAgIDwvUHJlc2V0RGF0YT4KICAgICAgICA8UHJlc2V0RGF0YSBTZXR1cD0iU0VUVVBfQiI+CiAgICAgICAgICAgIDxQYXJhbWV0ZXJzIFR5cGU9IlJlYWxXb3JsZCI+MCAxIDEgNjUwIDAgMCAqICogKiAqCiogMCAwIDAgMCAwIDAgMCA8L1BhcmFtZXRlcnM+CiAgICAgICAgPC9QcmVzZXREYXRhPgogICAgPC9QcmVzZXQ+CjwvUHJlc2V0Q2h1bmtYTUxUcmVlPgoAAAAAPEJ5cGFzcyBWZXJzaW9uPSIxLjAiIEJ5cGFzcz0iMCIvPgo=]]></presetChunkData>
            </component>
          </slot>
        </effectsRack>
        <editParameter parameterIndex="0" slotIndex="4294967280"/>
        <audioClip clipAutoCrossfade="true" crossFadeHeadClipID="-1" crossFadeTailClipID="-1" endPoint="76870" fileID="0" hue="-1" id="0" lockedInTime="false" looped="false" name="鼓" offline="false" select="false" sourceInPoint="1483190" sourceOutPoint="1560060" startPoint="0" zOrder="0">
          <component componentGuid="d6aec9b2-bb5a-4fcf-9a41-50c20f5da49c" componentID="Audition.Fader" id="clipGain" name="volume" powered="true">
            <parameter index="0" name="volume" parameterValue="1"/>
            <parameter index="1" name="static gain" parameterValue="1"/>
          </component>
          <component componentGuid="63f88b49-4b94-4cc5-b24d-62d8d46f45bd" componentID="Audition.Mute" id="clipMute" name="Mute" powered="true">
            <parameter index="0" parameterValue="0"/>
            <parameter index="1" name="mute" parameterValue="0"/>
          </component>
          <component componentGuid="f166417c-7605-4113-9264-8fddf464421e" componentID="Audition.StereoPanner" id="clipPan" name="StereoPanner" powered="true">
            <parameter index="0" name="声像" parameterValue="0"/>
          </component>
          <fadeIn crossFadeLinkType="linkedAsymmetric" endPoint="0" shape="0" startPoint="0" type="cosine"/>
          <fadeOut crossFadeLinkType="linkedAsymmetric" endPoint="76870" shape="18" startPoint="76870" type="log"/>
          <editParameter parameterIndex="0" slotIndex="4294967281"/>
          <editParameter parameterIndex="0" slotIndex="4294967280"/>
          <channelMap>
            <channel index="0" sourceIndex="0"/>
            <channel index="1" sourceIndex="1"/>
          </channelMap>
        </audioClip>
        <audioClip clipAutoCrossfade="true" crossFadeHeadClipID="-1" crossFadeTailClipID="-1" endPoint="150689" fileID="0" hue="-1" id="1" lockedInTime="false" looped="false" name="鼓" offline="false" select="false" sourceInPoint="1559909" sourceOutPoint="1628312" startPoint="82286" zOrder="4">
          <component componentGuid="88b39f87-6875-41ce-9f11-c5b66fcc5ccf" componentID="Audition.Fader" id="clipGain" name="volume" powered="true">
            <parameter index="0" name="volume" parameterValue="1"/>
            <parameter index="1" name="static gain" parameterValue="1"/>
          </component>
          <component componentGuid="5068af06-cc5e-4076-9a45-ce5c1acae477" componentID="Audition.Mute" id="clipMute" name="Mute" powered="true">
            <parameter index="0" parameterValue="0"/>
            <parameter index="1" name="mute" parameterValue="0"/>
          </component>
          <component componentGuid="46e7e94e-bfb8-4b92-bf59-0138dad9fd46" componentID="Audition.StereoPanner" id="clipPan" name="StereoPanner" powered="true">
            <parameter index="0" name="声像" parameterValue="0"/>
          </component>
          <fadeIn crossFadeLinkType="linkedAsymmetric" endPoint="0" shape="0" startPoint="0" type="cosine"/>
          <fadeOut crossFadeLinkType="linkedAsymmetric" endPoint="68403" shape="18" startPoint="68403" type="log"/>
          <editParameter parameterIndex="0" slotIndex="4294967281"/>
          <editParameter parameterIndex="0" slotIndex="4294967280"/>
          <channelMap>
            <channel index="0" sourceIndex="0"/>
            <channel index="1" sourceIndex="1"/>
          </channelMap>
        </audioClip>
        <audioClip clipAutoCrossfade="true" crossFadeHeadClipID="-1" crossFadeTailClipID="-1" endPoint="195475" fileID="0" hue="-1" id="2" lockedInTime="false" looped="false" name="鼓" offline="false" select="false" sourceInPoint="1644996" sourceOutPoint="1675524" startPoint="164947" zOrder="8">
          <component componentGuid="921da1fb-9a01-4a73-b272-1cfb950e9dc2" componentID="Audition.Fader" id="clipGain" name="volume" powered="true">
            <parameter index="0" name="volume" parameterValue="1">
              <parameterKeyframes enableSplines="false" readOnly="false">
                <parameterKeyframe sampleOffset="1671768" select="false" type="linear" value="0.64999997615814208984375"/>
              </parameterKeyframes>
            </parameter>
            <parameter index="1" name="static gain" parameterValue="1"/>
          </component>
          <component componentGuid="a7088fac-7b27-4785-bcab-796aac9d5971" componentID="Audition.Mute" id="clipMute" name="Mute" powered="true">
            <parameter index="0" parameterValue="0"/>
            <parameter index="1" name="mute" parameterValue="0"/>
          </component>
          <component componentGuid="b14c215e-4625-4fda-853d-994f7070b6b8" componentID="Audition.StereoPanner" id="clipPan" name="StereoPanner" powered="true">
            <parameter index="0" name="声像" parameterValue="0"/>
          </component>
          <fadeIn crossFadeLinkType="linkedAsymmetric" endPoint="0" shape="0" startPoint="0" type="cosine"/>
          <fadeOut crossFadeLinkType="linkedAsymmetric" endPoint="30528" shape="18" startPoint="30528" type="log"/>
          <editParameter parameterIndex="0" slotIndex="4294967281"/>
          <editParameter parameterIndex="0" slotIndex="4294967280"/>
          <channelMap>
            <channel index="0" sourceIndex="0"/>
            <channel index="1" sourceIndex="1"/>
          </channelMap>
        </audioClip>
        <audioClip clipAutoCrossfade="true" crossFadeHeadClipID="-1" crossFadeTailClipID="-1" endPoint="382258" fileID="0" hue="-1" id="3" lockedInTime="false" looped="false" name="鼓" offline="false" select="false" sourceInPoint="1689473" sourceOutPoint="1862943" startPoint="208788" zOrder="11">
          <component componentGuid="7bb4f249-99e0-471a-868d-acddfc599506" componentID="Audition.Fader" id="clipGain" name="volume" powered="true">
            <parameter index="0" name="volume" parameterValue="1">
              <parameterKeyframes enableSplines="false" readOnly="false">
                <parameterKeyframe sampleOffset="1671768" select="false" type="linear" value="0.64999997615814208984375"/>
              </parameterKeyframes>
            </parameter>
            <parameter index="1" name="static gain" parameterValue="1"/>
          </component>
          <component componentGuid="d4cf1dce-454b-4c4b-902a-4b5591515c3c" componentID="Audition.Mute" id="clipMute" name="Mute" powered="true">
            <parameter index="0" parameterValue="0"/>
            <parameter index="1" name="mute" parameterValue="0"/>
          </component>
          <component componentGuid="8e5d517f-99a4-4c4c-9887-a8810de3b286" componentID="Audition.StereoPanner" id="clipPan" name="StereoPanner" powered="true">
            <parameter index="0" name="声像" parameterValue="0"/>
          </component>
          <fadeIn crossFadeLinkType="linkedAsymmetric" endPoint="0" shape="0" startPoint="0" type="cosine"/>
          <fadeOut crossFadeLinkType="linkedAsymmetric" endPoint="173470" shape="18" startPoint="173470" type="log"/>
          <editParameter parameterIndex="0" slotIndex="4294967281"/>
          <editParameter parameterIndex="0" slotIndex="4294967280"/>
          <channelMap>
            <channel index="0" sourceIndex="0"/>
            <channel index="1" sourceIndex="1"/>
          </channelMap>
        </audioClip>
        <audioClip clipAutoCrossfade="true" crossFadeHeadClipID="-1" crossFadeTailClipID="-1" endPoint="447775" fileID="0" hue="-1" id="4" lockedInTime="false" looped="false" name="鼓" offline="false" select="false" sourceInPoint="1885476" sourceOutPoint="1925981" startPoint="407270" zOrder="14">
          <component componentGuid="2c69ddb2-c1e0-42a4-8628-b72a594b549c" componentID="Audition.Fader" id="clipGain" name="volume" powered="true">
            <parameter index="0" name="volume" parameterValue="1">
              <parameterKeyframes enableSplines="false" readOnly="false">
                <parameterKeyframe sampleOffset="1671768" select="false" type="linear" value="0.64999997615814208984375"/>
              </parameterKeyframes>
            </parameter>
            <parameter index="1" name="static gain" parameterValue="1"/>
          </component>
          <component componentGuid="b828a962-bbc0-4534-a2b6-816177cd2fc1" componentID="Audition.Mute" id="clipMute" name="Mute" powered="true">
            <parameter index="0" parameterValue="0"/>
            <parameter index="1" name="mute" parameterValue="0"/>
          </component>
          <component componentGuid="86391b7e-a4f9-4af6-94e7-97ea201c0647" componentID="Audition.StereoPanner" id="clipPan" name="StereoPanner" powered="true">
            <parameter index="0" name="声像" parameterValue="0"/>
          </component>
          <fadeIn crossFadeLinkType="linkedAsymmetric" endPoint="0" shape="0" startPoint="0" type="cosine"/>
          <fadeOut crossFadeLinkType="linkedAsymmetric" endPoint="40505" shape="18" startPoint="40505" type="log"/>
          <editParameter parameterIndex="0" slotIndex="4294967281"/>
          <editParameter parameterIndex="0" slotIndex="4294967280"/>
          <channelMap>
            <channel index="0" sourceIndex="0"/>
            <channel index="1" sourceIndex="1"/>
          </channelMap>
        </audioClip>
        <audioClip clipAutoCrossfade="true" crossFadeHeadClipID="-1" crossFadeTailClipID="-1" endPoint="559485" fileID="0" hue="-1" id="5" lockedInTime="false" looped="false" name="鼓" offline="false" select="false" sourceInPoint="1964609" sourceOutPoint="2040373" startPoint="483721" zOrder="17">
          <component componentGuid="7bec4a2c-a85a-425c-a0ec-9bfd4c230a87" componentID="Audition.Fader" id="clipGain" name="volume" powered="true">
            <parameter index="0" name="volume" parameterValue="1">
              <parameterKeyframes enableSplines="false" readOnly="false">
                <parameterKeyframe sampleOffset="1671768" select="false" type="linear" value="0.64999997615814208984375"/>
              </parameterKeyframes>
            </parameter>
            <parameter index="1" name="static gain" parameterValue="1"/>
          </component>
          <component componentGuid="90619384-fbcc-4b29-afc1-a0308bc9e00b" componentID="Audition.Mute" id="clipMute" name="Mute" powered="true">
            <parameter index="0" parameterValue="0"/>
            <parameter index="1" name="mute" parameterValue="0"/>
          </component>
          <component componentGuid="ee808191-8e46-4eac-84a5-bec253117271" componentID="Audition.StereoPanner" id="clipPan" name="StereoPanner" powered="true">
            <parameter index="0" name="声像" parameterValue="0"/>
          </component>
          <fadeIn crossFadeLinkType="linkedAsymmetric" endPoint="0" shape="0" startPoint="0" type="cosine"/>
          <fadeOut crossFadeLinkType="linkedAsymmetric" endPoint="75764" shape="18" startPoint="75764" type="log"/>
          <editParameter parameterIndex="0" slotIndex="4294967281"/>
          <editParameter parameterIndex="0" slotIndex="4294967280"/>
          <channelMap>
            <channel index="0" sourceIndex="0"/>
            <channel index="1" sourceIndex="1"/>
          </channelMap>
        </audioClip>
        <audioClip clipAutoCrossfade="true" crossFadeHeadClipID="-1" crossFadeTailClipID="-1" endPoint="1312983" fileID="0" hue="-1" id="6" lockedInTime="false" looped="false" name="鼓" offline="false" select="false" sourceInPoint="2139035" sourceOutPoint="2793871" startPoint="658147" zOrder="21">
          <component componentGuid="ad1d4160-f034-463b-95c6-9527f5c84563" componentID="Audition.Fader" id="clipGain" name="volume" powered="true">
            <parameter index="0" name="volume" parameterValue="1">
              <parameterKeyframes enableSplines="false" readOnly="false">
                <parameterKeyframe sampleOffset="1671768" select="false" type="linear" value="0.64999997615814208984375"/>
                <parameterKeyframe sampleOffset="2138484" select="false" type="linear" value="0.64999997615814208984375"/>
              </parameterKeyframes>
            </parameter>
            <parameter index="1" name="static gain" parameterValue="1"/>
          </component>
          <component componentGuid="0a602d00-86e9-46b3-8c5a-fc9142c8560f" componentID="Audition.Mute" id="clipMute" name="Mute" powered="true">
            <parameter index="0" parameterValue="0"/>
            <parameter index="1" name="mute" parameterValue="0"/>
          </component>
          <component componentGuid="b783896a-785d-4206-9083-e3af93acc91d" componentID="Audition.StereoPanner" id="clipPan" name="StereoPanner" powered="true">
            <parameter index="0" name="声像" parameterValue="0"/>
          </component>
          <fadeIn crossFadeLinkType="linkedAsymmetric" endPoint="0" shape="0" startPoint="0" type="cosine"/>
          <fadeOut crossFadeLinkType="linkedAsymmetric" endPoint="654836" shape="18" startPoint="654836" type="log"/>
          <editParameter parameterIndex="0" slotIndex="4294967281"/>
          <editParameter parameterIndex="0" slotIndex="4294967280"/>
          <channelMap>
            <channel index="0" sourceIndex="0"/>
            <channel index="1" sourceIndex="1"/>
          </channelMap>
        </audioClip>
        <audioClip clipAutoCrossfade="true" crossFadeHeadClipID="-1" crossFadeTailClipID="-1" endPoint="1393926" fileID="0" hue="-1" id="7" lockedInTime="false" looped="false" name="鼓" offline="false" select="false" sourceInPoint="1483190" sourceOutPoint="1560060" startPoint="1317056" zOrder="1">
          <component componentGuid="6150dcc8-6ccd-49ef-8985-6716eeb75e88" componentID="Audition.Fader" id="clipGain" name="volume" powered="true">
            <parameter index="0" name="volume" parameterValue="1"/>
            <parameter index="1" name="static gain" parameterValue="1"/>
          </component>
          <component componentGuid="940f247c-d235-4d31-83c0-1dfdc2279a5e" componentID="Audition.Mute" id="clipMute" name="Mute" powered="true">
            <parameter index="0" parameterValue="0"/>
            <parameter index="1" name="mute" parameterValue="0"/>
          </component>
          <component componentGuid="e270f844-f2a9-4527-af13-b67f51b3a0e4" componentID="Audition.StereoPanner" id="clipPan" name="StereoPanner" powered="true">
            <parameter index="0" name="声像" parameterValue="0"/>
          </component>
          <fadeIn crossFadeLinkType="linkedAsymmetric" endPoint="0" shape="0" startPoint="0" type="cosine"/>
          <fadeOut crossFadeLinkType="linkedAsymmetric" endPoint="76870" shape="18" startPoint="76870" type="log"/>
          <editParameter parameterIndex="0" slotIndex="4294967281"/>
          <editParameter parameterIndex="0" slotIndex="4294967280"/>
          <channelMap>
            <channel index="0" sourceIndex="0"/>
            <channel index="1" sourceIndex="1"/>
          </channelMap>
        </audioClip>
        <audioClip clipAutoCrossfade="true" crossFadeHeadClipID="-1" crossFadeTailClipID="-1" endPoint="1467745" fileID="0" hue="-1" id="8" lockedInTime="false" looped="false" name="鼓" offline="false" select="false" sourceInPoint="1559909" sourceOutPoint="1628312" startPoint="1399342" zOrder="5">
          <component componentGuid="824b1f66-22c2-40cd-9d33-14d38ec9e5be" componentID="Audition.Fader" id="clipGain" name="volume" powered="true">
            <parameter index="0" name="volume" parameterValue="1"/>
            <parameter index="1" name="static gain" parameterValue="1"/>
          </component>
          <component componentGuid="71015373-cc17-413e-ade6-6b17b9a64192" componentID="Audition.Mute" id="clipMute" name="Mute" powered="true">
            <parameter index="0" parameterValue="0"/>
            <parameter index="1" name="mute" parameterValue="0"/>
          </component>
          <component componentGuid="1e1402b2-97e6-4200-8174-6853de83935e" componentID="Audition.StereoPanner" id="clipPan" name="StereoPanner" powered="true">
            <parameter index="0" name="声像" parameterValue="0"/>
          </component>
          <fadeIn crossFadeLinkType="linkedAsymmetric" endPoint="0" shape="0" startPoint="0" type="cosine"/>
          <fadeOut crossFadeLinkType="linkedAsymmetric" endPoint="68403" shape="18" startPoint="68403" type="log"/>
          <editParameter parameterIndex="0" slotIndex="4294967281"/>
          <editParameter parameterIndex="0" slotIndex="4294967280"/>
          <channelMap>
            <channel index="0" sourceIndex="0"/>
            <channel index="1" sourceIndex="1"/>
          </channelMap>
        </audioClip>
        <audioClip clipAutoCrossfade="true" crossFadeHeadClipID="-1" crossFadeTailClipID="-1" endPoint="1512531" fileID="0" hue="-1" id="9" lockedInTime="false" looped="false" name="鼓" offline="false" select="false" sourceInPoint="1644996" sourceOutPoint="1675524" startPoint="1482003" zOrder="9">
          <component componentGuid="7ee70228-7454-4d48-b180-c5159544496c" componentID="Audition.Fader" id="clipGain" name="volume" powered="true">
            <parameter index="0" name="volume" parameterValue="1">
              <parameterKeyframes enableSplines="false" readOnly="false">
                <parameterKeyframe sampleOffset="1671768" select="false" type="linear" value="0.64999997615814208984375"/>
              </parameterKeyframes>
            </parameter>
            <parameter index="1" name="static gain" parameterValue="1"/>
          </component>
          <component componentGuid="9be872c1-a068-4b41-b4a1-10de58fd3256" componentID="Audition.Mute" id="clipMute" name="Mute" powered="true">
            <parameter index="0" parameterValue="0"/>
            <parameter index="1" name="mute" parameterValue="0"/>
          </component>
          <component componentGuid="bef182aa-110c-4608-8ce1-5b9374240610" componentID="Audition.StereoPanner" id="clipPan" name="StereoPanner" powered="true">
            <parameter index="0" name="声像" parameterValue="0"/>
          </component>
          <fadeIn crossFadeLinkType="linkedAsymmetric" endPoint="0" shape="0" startPoint="0" type="cosine"/>
          <fadeOut crossFadeLinkType="linkedAsymmetric" endPoint="30528" shape="18" startPoint="30528" type="log"/>
          <editParameter parameterIndex="0" slotIndex="4294967281"/>
          <editParameter parameterIndex="0" slotIndex="4294967280"/>
          <channelMap>
            <channel index="0" sourceIndex="0"/>
            <channel index="1" sourceIndex="1"/>
          </channelMap>
        </audioClip>
        <audioClip clipAutoCrossfade="true" crossFadeHeadClipID="-1" crossFadeTailClipID="-1" endPoint="1699314" fileID="0" hue="-1" id="10" lockedInTime="false" looped="false" name="鼓" offline="false" select="false" sourceInPoint="1689473" sourceOutPoint="1862943" startPoint="1525844" zOrder="12">
          <component componentGuid="93a0b84d-8fb9-4788-b05e-21f6b351fe4e" componentID="Audition.Fader" id="clipGain" name="volume" powered="true">
            <parameter index="0" name="volume" parameterValue="1">
              <parameterKeyframes enableSplines="false" readOnly="false">
                <parameterKeyframe sampleOffset="1671768" select="false" type="linear" value="0.64999997615814208984375"/>
              </parameterKeyframes>
            </parameter>
            <parameter index="1" name="static gain" parameterValue="1"/>
          </component>
          <component componentGuid="e7ffecc9-6914-4d7f-b9cf-33a3f33606ec" componentID="Audition.Mute" id="clipMute" name="Mute" powered="true">
            <parameter index="0" parameterValue="0"/>
            <parameter index="1" name="mute" parameterValue="0"/>
          </component>
          <component componentGuid="308b40f3-e883-45a7-9afa-66447457a8ce" componentID="Audition.StereoPanner" id="clipPan" name="StereoPanner" powered="true">
            <parameter index="0" name="声像" parameterValue="0"/>
          </component>
          <fadeIn crossFadeLinkType="linkedAsymmetric" endPoint="0" shape="0" startPoint="0" type="cosine"/>
          <fadeOut crossFadeLinkType="linkedAsymmetric" endPoint="173470" shape="18" startPoint="173470" type="log"/>
          <editParameter parameterIndex="0" slotIndex="4294967281"/>
          <editParameter parameterIndex="0" slotIndex="4294967280"/>
          <channelMap>
            <channel index="0" sourceIndex="0"/>
            <channel index="1" sourceIndex="1"/>
          </channelMap>
        </audioClip>
        <audioClip clipAutoCrossfade="true" crossFadeHeadClipID="-1" crossFadeTailClipID="-1" endPoint="1764831" fileID="0" hue="-1" id="11" lockedInTime="false" looped="false" name="鼓" offline="false" select="false" sourceInPoint="1885476" sourceOutPoint="1925981" startPoint="1724326" zOrder="15">
          <component componentGuid="84d1c79d-f23c-42b4-8a4e-e7a4802235a6" componentID="Audition.Fader" id="clipGain" name="volume" powered="true">
            <parameter index="0" name="volume" parameterValue="1">
              <parameterKeyframes enableSplines="false" readOnly="false">
                <parameterKeyframe sampleOffset="1671768" select="false" type="linear" value="0.64999997615814208984375"/>
              </parameterKeyframes>
            </parameter>
            <parameter index="1" name="static gain" parameterValue="1"/>
          </component>
          <component componentGuid="700817fe-0cb5-4dd7-826f-095b4af4f345" componentID="Audition.Mute" id="clipMute" name="Mute" powered="true">
            <parameter index="0" parameterValue="0"/>
            <parameter index="1" name="mute" parameterValue="0"/>
          </component>
          <component componentGuid="8bd533af-333e-41b7-9e58-426997b84215" componentID="Audition.StereoPanner" id="clipPan" name="StereoPanner" powered="true">
            <parameter index="0" name="声像" parameterValue="0"/>
          </component>
          <fadeIn crossFadeLinkType="linkedAsymmetric" endPoint="0" shape="0" startPoint="0" type="cosine"/>
          <fadeOut crossFadeLinkType="linkedAsymmetric" endPoint="40505" shape="18" startPoint="40505" type="log"/>
          <editParameter parameterIndex="0" slotIndex="4294967281"/>
          <editParameter parameterIndex="0" slotIndex="4294967280"/>
          <channelMap>
            <channel index="0" sourceIndex="0"/>
            <channel index="1" sourceIndex="1"/>
          </channelMap>
        </audioClip>
        <audioClip clipAutoCrossfade="true" crossFadeHeadClipID="-1" crossFadeTailClipID="-1" endPoint="1876541" fileID="0" hue="-1" id="12" lockedInTime="false" looped="false" name="鼓" offline="false" select="false" sourceInPoint="1964609" sourceOutPoint="2040373" startPoint="1800777" zOrder="18">
          <component componentGuid="96ca895c-e8f4-455c-8497-dcfd06432e7d" componentID="Audition.Fader" id="clipGain" name="volume" powered="true">
            <parameter index="0" name="volume" parameterValue="1">
              <parameterKeyframes enableSplines="false" readOnly="false">
                <parameterKeyframe sampleOffset="1671768" select="false" type="linear" value="0.64999997615814208984375"/>
              </parameterKeyframes>
            </parameter>
            <parameter index="1" name="static gain" parameterValue="1"/>
          </component>
          <component componentGuid="9756ff7f-0f49-48b9-ab95-30114b90373a" componentID="Audition.Mute" id="clipMute" name="Mute" powered="true">
            <parameter index="0" parameterValue="0"/>
            <parameter index="1" name="mute" parameterValue="0"/>
          </component>
          <component componentGuid="ae0d33ac-39aa-41e1-a374-d0fb49ff0abf" componentID="Audition.StereoPanner" id="clipPan" name="StereoPanner" powered="true">
            <parameter index="0" name="声像" parameterValue="0"/>
          </component>
          <fadeIn crossFadeLinkType="linkedAsymmetric" endPoint="0" shape="0" startPoint="0" type="cosine"/>
          <fadeOut crossFadeLinkType="linkedAsymmetric" endPoint="75764" shape="18" startPoint="75764" type="log"/>
          <editParameter parameterIndex="0" slotIndex="4294967281"/>
          <editParameter parameterIndex="0" slotIndex="4294967280"/>
          <channelMap>
            <channel index="0" sourceIndex="0"/>
            <channel index="1" sourceIndex="1"/>
          </channelMap>
        </audioClip>
        <audioClip clipAutoCrossfade="true" crossFadeHeadClipID="-1" crossFadeTailClipID="-1" endPoint="2630039" fileID="0" hue="-1" id="13" lockedInTime="false" looped="false" name="鼓" offline="false" select="false" sourceInPoint="2040373" sourceOutPoint="2793871" startPoint="1876541" zOrder="22">
          <component componentGuid="347ce3cc-ca39-4280-8e37-905866b0c6b2" componentID="Audition.Fader" id="clipGain" name="volume" powered="true">
            <parameter index="0" name="volume" parameterValue="1">
              <parameterKeyframes enableSplines="false" readOnly="false">
                <parameterKeyframe sampleOffset="1671768" select="false" type="linear" value="0.64999997615814208984375"/>
              </parameterKeyframes>
            </parameter>
            <parameter index="1" name="static gain" parameterValue="1"/>
          </component>
          <component componentGuid="ebc5ba2c-82ca-4301-8a06-5de557cfce25" componentID="Audition.Mute" id="clipMute" name="Mute" powered="true">
            <parameter index="0" parameterValue="0"/>
            <parameter index="1" name="mute" parameterValue="0"/>
          </component>
          <component componentGuid="a47a346d-a369-480f-9931-82e668977932" componentID="Audition.StereoPanner" id="clipPan" name="StereoPanner" powered="true">
            <parameter index="0" name="声像" parameterValue="0"/>
          </component>
          <fadeIn crossFadeLinkType="linkedAsymmetric" endPoint="0" shape="0" startPoint="0" type="cosine"/>
          <fadeOut crossFadeLinkType="linkedAsymmetric" endPoint="753498" shape="18" startPoint="753498" type="log"/>
          <editParameter parameterIndex="0" slotIndex="4294967281"/>
          <editParameter parameterIndex="0" slotIndex="4294967280"/>
          <channelMap>
            <channel index="0" sourceIndex="0"/>
            <channel index="1" sourceIndex="1"/>
          </channelMap>
        </audioClip>
        <audioClip clipAutoCrossfade="true" crossFadeHeadClipID="-1" crossFadeTailClipID="-1" endPoint="2710614" fileID="0" hue="-1" id="14" lockedInTime="false" looped="false" name="鼓" offline="false" select="false" sourceInPoint="1483190" sourceOutPoint="1560060" startPoint="2633744" zOrder="2">
          <component componentGuid="ea94df1f-3ec4-478e-b877-d0b8c79ba7af" componentID="Audition.Fader" id="clipGain" name="volume" powered="true">
            <parameter index="0" name="volume" parameterValue="1"/>
            <parameter index="1" name="static gain" parameterValue="1"/>
          </component>
          <component componentGuid="3c0f4472-4336-40ed-8622-f17c7e87ab82" componentID="Audition.Mute" id="clipMute" name="Mute" powered="true">
            <parameter index="0" parameterValue="0"/>
            <parameter index="1" name="mute" parameterValue="0"/>
          </component>
          <component componentGuid="d18ab3c1-15a4-47d6-ae5e-34566385123f" componentID="Audition.StereoPanner" id="clipPan" name="StereoPanner" powered="true">
            <parameter index="0" name="声像" parameterValue="0"/>
          </component>
          <fadeIn crossFadeLinkType="linkedAsymmetric" endPoint="0" shape="0" startPoint="0" type="cosine"/>
          <fadeOut crossFadeLinkType="linkedAsymmetric" endPoint="76870" shape="18" startPoint="76870" type="log"/>
          <editParameter parameterIndex="0" slotIndex="4294967281"/>
          <editParameter parameterIndex="0" slotIndex="4294967280"/>
          <channelMap>
            <channel index="0" sourceIndex="0"/>
            <channel index="1" sourceIndex="1"/>
          </channelMap>
        </audioClip>
        <audioClip clipAutoCrossfade="true" crossFadeHeadClipID="-1" crossFadeTailClipID="-1" endPoint="2784433" fileID="0" hue="-1" id="15" lockedInTime="false" looped="false" name="鼓" offline="false" select="false" sourceInPoint="1559909" sourceOutPoint="1628312" startPoint="2716030" zOrder="6">
          <component componentGuid="5f4a0125-374b-486a-8353-33342498a677" componentID="Audition.Fader" id="clipGain" name="volume" powered="true">
            <parameter index="0" name="volume" parameterValue="1"/>
            <parameter index="1" name="static gain" parameterValue="1"/>
          </component>
          <component componentGuid="08054b9f-ffaf-448e-974b-ec82120f3e5b" componentID="Audition.Mute" id="clipMute" name="Mute" powered="true">
            <parameter index="0" parameterValue="0"/>
            <parameter index="1" name="mute" parameterValue="0"/>
          </component>
          <component componentGuid="211ce939-bed9-47e4-9454-7ffa407ac7ec" componentID="Audition.StereoPanner" id="clipPan" name="StereoPanner" powered="true">
            <parameter index="0" name="声像" parameterValue="0"/>
          </component>
          <fadeIn crossFadeLinkType="linkedAsymmetric" endPoint="0" shape="0" startPoint="0" type="cosine"/>
          <fadeOut crossFadeLinkType="linkedAsymmetric" endPoint="68403" shape="18" startPoint="68403" type="log"/>
          <editParameter parameterIndex="0" slotIndex="4294967281"/>
          <editParameter parameterIndex="0" slotIndex="4294967280"/>
          <channelMap>
            <channel index="0" sourceIndex="0"/>
            <channel index="1" sourceIndex="1"/>
          </channelMap>
        </audioClip>
        <audioClip clipAutoCrossfade="true" crossFadeHeadClipID="-1" crossFadeTailClipID="-1" endPoint="2828242" fileID="0" hue="-1" id="16" lockedInTime="false" looped="false" name="鼓" offline="false" select="false" sourceInPoint="1644996" sourceOutPoint="1675524" startPoint="2797714" zOrder="24">
          <component componentGuid="58c9e0b1-ed53-4d68-97c4-7161fd41f526" componentID="Audition.Fader" id="clipGain" name="volume" powered="true">
            <parameter index="0" name="volume" parameterValue="1">
              <parameterKeyframes enableSplines="false" readOnly="false">
                <parameterKeyframe sampleOffset="1671768" select="false" type="linear" value="0.64999997615814208984375"/>
              </parameterKeyframes>
            </parameter>
            <parameter index="1" name="static gain" parameterValue="1"/>
          </component>
          <component componentGuid="c37d18ce-9596-4048-abf7-c2243f0804ed" componentID="Audition.Mute" id="clipMute" name="Mute" powered="true">
            <parameter index="0" parameterValue="0"/>
            <parameter index="1" name="mute" parameterValue="0"/>
          </component>
          <component componentGuid="e54668d1-8895-4495-ae61-05692e4329f4" componentID="Audition.StereoPanner" id="clipPan" name="StereoPanner" powered="true">
            <parameter index="0" name="声像" parameterValue="0"/>
          </component>
          <fadeIn crossFadeLinkType="linkedAsymmetric" endPoint="0" shape="0" startPoint="0" type="cosine"/>
          <fadeOut crossFadeLinkType="linkedAsymmetric" endPoint="30528" shape="18" startPoint="30528" type="log"/>
          <editParameter parameterIndex="0" slotIndex="4294967281"/>
          <editParameter parameterIndex="0" slotIndex="4294967280"/>
          <channelMap>
            <channel index="0" sourceIndex="0"/>
            <channel index="1" sourceIndex="1"/>
          </channelMap>
        </audioClip>
        <audioClip clipAutoCrossfade="true" crossFadeHeadClipID="-1" crossFadeTailClipID="-1" endPoint="3015025" fileID="0" hue="-1" id="17" lockedInTime="false" looped="false" name="鼓" offline="false" select="false" sourceInPoint="1689473" sourceOutPoint="1862943" startPoint="2841555" zOrder="25">
          <component componentGuid="5ff1bf50-f9c5-4910-bb85-2be411f2f111" componentID="Audition.Fader" id="clipGain" name="volume" powered="true">
            <parameter index="0" name="volume" parameterValue="1">
              <parameterKeyframes enableSplines="false" readOnly="false">
                <parameterKeyframe sampleOffset="1671768" select="false" type="linear" value="0.64999997615814208984375"/>
              </parameterKeyframes>
            </parameter>
            <parameter index="1" name="static gain" parameterValue="1"/>
          </component>
          <component componentGuid="a3f4f82d-d271-46e7-8d3e-dae2a399d407" componentID="Audition.Mute" id="clipMute" name="Mute" powered="true">
            <parameter index="0" parameterValue="0"/>
            <parameter index="1" name="mute" parameterValue="0"/>
          </component>
          <component componentGuid="c93adfaa-57ff-4448-ad13-891eada08cf4" componentID="Audition.StereoPanner" id="clipPan" name="StereoPanner" powered="true">
            <parameter index="0" name="声像" parameterValue="0"/>
          </component>
          <fadeIn crossFadeLinkType="linkedAsymmetric" endPoint="0" shape="0" startPoint="0" type="cosine"/>
          <fadeOut crossFadeLinkType="linkedAsymmetric" endPoint="173470" shape="18" startPoint="173470" type="log"/>
          <editParameter parameterIndex="0" slotIndex="4294967281"/>
          <editParameter parameterIndex="0" slotIndex="4294967280"/>
          <channelMap>
            <channel index="0" sourceIndex="0"/>
            <channel index="1" sourceIndex="1"/>
          </channelMap>
        </audioClip>
        <audioClip clipAutoCrossfade="true" crossFadeHeadClipID="-1" crossFadeTailClipID="-1" endPoint="3080542" fileID="0" hue="-1" id="18" lockedInTime="false" looped="false" name="鼓" offline="false" select="false" sourceInPoint="1885476" sourceOutPoint="1925981" startPoint="3040037" zOrder="26">
          <component componentGuid="94fb4816-152d-4a66-9804-2a70bca3928b" componentID="Audition.Fader" id="clipGain" name="volume" powered="true">
            <parameter index="0" name="volume" parameterValue="1">
              <parameterKeyframes enableSplines="false" readOnly="false">
                <parameterKeyframe sampleOffset="1671768" select="false" type="linear" value="0.64999997615814208984375"/>
              </parameterKeyframes>
            </parameter>
            <parameter index="1" name="static gain" parameterValue="1"/>
          </component>
          <component componentGuid="1630c17f-5f84-4d2e-82d7-7b681ad78016" componentID="Audition.Mute" id="clipMute" name="Mute" powered="true">
            <parameter index="0" parameterValue="0"/>
            <parameter index="1" name="mute" parameterValue="0"/>
          </component>
          <component componentGuid="daa25cfa-b2a7-44e3-9998-1385967ce52b" componentID="Audition.StereoPanner" id="clipPan" name="StereoPanner" powered="true">
            <parameter index="0" name="声像" parameterValue="0"/>
          </component>
          <fadeIn crossFadeLinkType="linkedAsymmetric" endPoint="0" shape="0" startPoint="0" type="cosine"/>
          <fadeOut crossFadeLinkType="linkedAsymmetric" endPoint="40505" shape="18" startPoint="40505" type="log"/>
          <editParameter parameterIndex="0" slotIndex="4294967281"/>
          <editParameter parameterIndex="0" slotIndex="4294967280"/>
          <channelMap>
            <channel index="0" sourceIndex="0"/>
            <channel index="1" sourceIndex="1"/>
          </channelMap>
        </audioClip>
        <audioClip clipAutoCrossfade="true" crossFadeHeadClipID="-1" crossFadeTailClipID="-1" endPoint="3193229" fileID="0" hue="-1" id="19" lockedInTime="false" looped="false" name="鼓" offline="false" select="false" sourceInPoint="1964609" sourceOutPoint="2040373" startPoint="3117465" zOrder="19">
          <component componentGuid="a8e57bb6-1172-42b7-8a86-429caf0b5bbb" componentID="Audition.Fader" id="clipGain" name="volume" powered="true">
            <parameter index="0" name="volume" parameterValue="1">
              <parameterKeyframes enableSplines="false" readOnly="false">
                <parameterKeyframe sampleOffset="1671768" select="false" type="linear" value="0.64999997615814208984375"/>
              </parameterKeyframes>
            </parameter>
            <parameter index="1" name="static gain" parameterValue="1"/>
          </component>
          <component componentGuid="b5f8f49d-0e3e-4cad-b71e-a78a073f09d3" componentID="Audition.Mute" id="clipMute" name="Mute" powered="true">
            <parameter index="0" parameterValue="0"/>
            <parameter index="1" name="mute" parameterValue="0"/>
          </component>
          <component componentGuid="389e5f20-cd8c-4ce2-88d5-dc3e2414ae5c" componentID="Audition.StereoPanner" id="clipPan" name="StereoPanner" powered="true">
            <parameter index="0" name="声像" parameterValue="0"/>
          </component>
          <fadeIn crossFadeLinkType="linkedAsymmetric" endPoint="0" shape="0" startPoint="0" type="cosine"/>
          <fadeOut crossFadeLinkType="linkedAsymmetric" endPoint="75764" shape="18" startPoint="75764" type="log"/>
          <editParameter parameterIndex="0" slotIndex="4294967281"/>
          <editParameter parameterIndex="0" slotIndex="4294967280"/>
          <channelMap>
            <channel index="0" sourceIndex="0"/>
            <channel index="1" sourceIndex="1"/>
          </channelMap>
        </audioClip>
        <audioClip clipAutoCrossfade="true" crossFadeHeadClipID="-1" crossFadeTailClipID="-1" endPoint="3946727" fileID="0" hue="-1" id="20" lockedInTime="false" looped="false" name="鼓" offline="false" select="false" sourceInPoint="2040373" sourceOutPoint="2793871" startPoint="3193229" zOrder="23">
          <component componentGuid="3ea1102a-d8c9-4711-a579-6dedc8ac1398" componentID="Audition.Fader" id="clipGain" name="volume" powered="true">
            <parameter index="0" name="volume" parameterValue="1">
              <parameterKeyframes enableSplines="false" readOnly="false">
                <parameterKeyframe sampleOffset="1671768" select="false" type="linear" value="0.64999997615814208984375"/>
              </parameterKeyframes>
            </parameter>
            <parameter index="1" name="static gain" parameterValue="1"/>
          </component>
          <component componentGuid="7cb06b5a-d4c2-4b1c-9fe4-4ce7554fdc29" componentID="Audition.Mute" id="clipMute" name="Mute" powered="true">
            <parameter index="0" parameterValue="0"/>
            <parameter index="1" name="mute" parameterValue="0"/>
          </component>
          <component componentGuid="35ff9936-0f27-43bb-b0ee-7e389e57ab9e" componentID="Audition.StereoPanner" id="clipPan" name="StereoPanner" powered="true">
            <parameter index="0" name="声像" parameterValue="0"/>
          </component>
          <fadeIn crossFadeLinkType="linkedAsymmetric" endPoint="0" shape="0" startPoint="0" type="cosine"/>
          <fadeOut crossFadeLinkType="linkedAsymmetric" endPoint="753498" shape="18" startPoint="753498" type="log"/>
          <editParameter parameterIndex="0" slotIndex="4294967281"/>
          <editParameter parameterIndex="0" slotIndex="4294967280"/>
          <channelMap>
            <channel index="0" sourceIndex="0"/>
            <channel index="1" sourceIndex="1"/>
          </channelMap>
        </audioClip>
        <audioClip clipAutoCrossfade="true" crossFadeHeadClipID="-1" crossFadeTailClipID="-1" endPoint="4026680" fileID="0" hue="-1" id="21" lockedInTime="false" looped="false" name="鼓" offline="false" select="false" sourceInPoint="1483190" sourceOutPoint="1560060" startPoint="3949810" zOrder="3">
          <component componentGuid="6dbde58c-d2de-48f2-a249-9c65aef0514a" componentID="Audition.Fader" id="clipGain" name="volume" powered="true">
            <parameter index="0" name="volume" parameterValue="1"/>
            <parameter index="1" name="static gain" parameterValue="1"/>
          </component>
          <component componentGuid="01da6035-3107-4f4e-b437-ea57f985c64c" componentID="Audition.Mute" id="clipMute" name="Mute" powered="true">
            <parameter index="0" parameterValue="0"/>
            <parameter index="1" name="mute" parameterValue="0"/>
          </component>
          <component componentGuid="287ffa88-f419-41a2-9dcd-c1e54993a0c3" componentID="Audition.StereoPanner" id="clipPan" name="StereoPanner" powered="true">
            <parameter index="0" name="声像" parameterValue="0"/>
          </component>
          <fadeIn crossFadeLinkType="linkedAsymmetric" endPoint="0" shape="0" startPoint="0" type="cosine"/>
          <fadeOut crossFadeLinkType="linkedAsymmetric" endPoint="76870" shape="18" startPoint="76870" type="log"/>
          <editParameter parameterIndex="0" slotIndex="4294967281"/>
          <editParameter parameterIndex="0" slotIndex="4294967280"/>
          <channelMap>
            <channel index="0" sourceIndex="0"/>
            <channel index="1" sourceIndex="1"/>
          </channelMap>
        </audioClip>
        <audioClip clipAutoCrossfade="true" crossFadeHeadClipID="-1" crossFadeTailClipID="-1" endPoint="4100499" fileID="0" hue="-1" id="22" lockedInTime="false" looped="false" name="鼓" offline="false" select="false" sourceInPoint="1559909" sourceOutPoint="1628312" startPoint="4032096" zOrder="7">
          <component componentGuid="e5eb4fd1-898e-4607-8c0d-d89a7dbfb748" componentID="Audition.Fader" id="clipGain" name="volume" powered="true">
            <parameter index="0" name="volume" parameterValue="1"/>
            <parameter index="1" name="static gain" parameterValue="1"/>
          </component>
          <component componentGuid="bfcb7ff2-2042-4881-92d4-304e88992f77" componentID="Audition.Mute" id="clipMute" name="Mute" powered="true">
            <parameter index="0" parameterValue="0"/>
            <parameter index="1" name="mute" parameterValue="0"/>
          </component>
          <component componentGuid="f3d65964-1bf1-4826-b6db-2288b42515ea" componentID="Audition.StereoPanner" id="clipPan" name="StereoPanner" powered="true">
            <parameter index="0" name="声像" parameterValue="0"/>
          </component>
          <fadeIn crossFadeLinkType="linkedAsymmetric" endPoint="0" shape="0" startPoint="0" type="cosine"/>
          <fadeOut crossFadeLinkType="linkedAsymmetric" endPoint="68403" shape="18" startPoint="68403" type="log"/>
          <editParameter parameterIndex="0" slotIndex="4294967281"/>
          <editParameter parameterIndex="0" slotIndex="4294967280"/>
          <channelMap>
            <channel index="0" sourceIndex="0"/>
            <channel index="1" sourceIndex="1"/>
          </channelMap>
        </audioClip>
        <audioClip clipAutoCrossfade="true" crossFadeHeadClipID="-1" crossFadeTailClipID="-1" endPoint="4145285" fileID="0" hue="-1" id="23" lockedInTime="false" looped="false" name="鼓" offline="false" select="false" sourceInPoint="1644996" sourceOutPoint="1675524" startPoint="4114757" zOrder="10">
          <component componentGuid="5f62b5fd-6fbf-4284-b49a-b3a81a7a61f8" componentID="Audition.Fader" id="clipGain" name="volume" powered="true">
            <parameter index="0" name="volume" parameterValue="1">
              <parameterKeyframes enableSplines="false" readOnly="false">
                <parameterKeyframe sampleOffset="1671768" select="false" type="linear" value="0.64999997615814208984375"/>
              </parameterKeyframes>
            </parameter>
            <parameter index="1" name="static gain" parameterValue="1"/>
          </component>
          <component componentGuid="31cc222f-fae0-44b3-a3d5-e5b9a3d4de3d" componentID="Audition.Mute" id="clipMute" name="Mute" powered="true">
            <parameter index="0" parameterValue="0"/>
            <parameter index="1" name="mute" parameterValue="0"/>
          </component>
          <component componentGuid="e1244836-0720-49c5-9550-88cc9a4185c0" componentID="Audition.StereoPanner" id="clipPan" name="StereoPanner" powered="true">
            <parameter index="0" name="声像" parameterValue="0"/>
          </component>
          <fadeIn crossFadeLinkType="linkedAsymmetric" endPoint="0" shape="0" startPoint="0" type="cosine"/>
          <fadeOut crossFadeLinkType="linkedAsymmetric" endPoint="30528" shape="18" startPoint="30528" type="log"/>
          <editParameter parameterIndex="0" slotIndex="4294967281"/>
          <editParameter parameterIndex="0" slotIndex="4294967280"/>
          <channelMap>
            <channel index="0" sourceIndex="0"/>
            <channel index="1" sourceIndex="1"/>
          </channelMap>
        </audioClip>
        <audioClip clipAutoCrossfade="true" crossFadeHeadClipID="-1" crossFadeTailClipID="-1" endPoint="4332068" fileID="0" hue="-1" id="24" lockedInTime="false" looped="false" name="鼓" offline="false" select="false" sourceInPoint="1689473" sourceOutPoint="1862943" startPoint="4158598" zOrder="13">
          <component componentGuid="fc612775-a3e1-488f-82ed-64d7eb0f386f" componentID="Audition.Fader" id="clipGain" name="volume" powered="true">
            <parameter index="0" name="volume" parameterValue="1">
              <parameterKeyframes enableSplines="false" readOnly="false">
                <parameterKeyframe sampleOffset="1671768" select="false" type="linear" value="0.64999997615814208984375"/>
              </parameterKeyframes>
            </parameter>
            <parameter index="1" name="static gain" parameterValue="1"/>
          </component>
          <component componentGuid="c0ae95b8-b45a-47e1-9cd1-855b846a8cd2" componentID="Audition.Mute" id="clipMute" name="Mute" powered="true">
            <parameter index="0" parameterValue="0"/>
            <parameter index="1" name="mute" parameterValue="0"/>
          </component>
          <component componentGuid="99bef320-6da4-4220-8ac3-14449209bb6d" componentID="Audition.StereoPanner" id="clipPan" name="StereoPanner" powered="true">
            <parameter index="0" name="声像" parameterValue="0"/>
          </component>
          <fadeIn crossFadeLinkType="linkedAsymmetric" endPoint="0" shape="0" startPoint="0" type="cosine"/>
          <fadeOut crossFadeLinkType="linkedAsymmetric" endPoint="173470" shape="18" startPoint="173470" type="log"/>
          <editParameter parameterIndex="0" slotIndex="4294967281"/>
          <editParameter parameterIndex="0" slotIndex="4294967280"/>
          <channelMap>
            <channel index="0" sourceIndex="0"/>
            <channel index="1" sourceIndex="1"/>
          </channelMap>
        </audioClip>
        <audioClip clipAutoCrossfade="true" crossFadeHeadClipID="-1" crossFadeTailClipID="-1" endPoint="4397585" fileID="0" hue="-1" id="25" lockedInTime="false" looped="false" name="鼓" offline="false" select="false" sourceInPoint="1885476" sourceOutPoint="1925981" startPoint="4357080" zOrder="16">
          <component componentGuid="871924a7-ce96-404a-9e43-6a99a6f28307" componentID="Audition.Fader" id="clipGain" name="volume" powered="true">
            <parameter index="0" name="volume" parameterValue="1">
              <parameterKeyframes enableSplines="false" readOnly="false">
                <parameterKeyframe sampleOffset="1671768" select="false" type="linear" value="0.64999997615814208984375"/>
              </parameterKeyframes>
            </parameter>
            <parameter index="1" name="static gain" parameterValue="1"/>
          </component>
          <component componentGuid="76fb32c8-913f-4b55-b02c-392a42ddffa0" componentID="Audition.Mute" id="clipMute" name="Mute" powered="true">
            <parameter index="0" parameterValue="0"/>
            <parameter index="1" name="mute" parameterValue="0"/>
          </component>
          <component componentGuid="6d58cfac-b102-4aff-a7d2-2d2eca59e5d1" componentID="Audition.StereoPanner" id="clipPan" name="StereoPanner" powered="true">
            <parameter index="0" name="声像" parameterValue="0"/>
          </component>
          <fadeIn crossFadeLinkType="linkedAsymmetric" endPoint="0" shape="0" startPoint="0" type="cosine"/>
          <fadeOut crossFadeLinkType="linkedAsymmetric" endPoint="40505" shape="18" startPoint="40505" type="log"/>
          <editParameter parameterIndex="0" slotIndex="4294967281"/>
          <editParameter parameterIndex="0" slotIndex="4294967280"/>
          <channelMap>
            <channel index="0" sourceIndex="0"/>
            <channel index="1" sourceIndex="1"/>
          </channelMap>
        </audioClip>
        <audioClip clipAutoCrossfade="true" crossFadeHeadClipID="-1" crossFadeTailClipID="-1" endPoint="4509295" fileID="0" hue="-1" id="26" lockedInTime="false" looped="false" name="鼓" offline="false" select="false" sourceInPoint="1964609" sourceOutPoint="2040373" startPoint="4433531" zOrder="20">
          <component componentGuid="cf125e94-2904-436f-8ea5-7cad3c6e34a2" componentID="Audition.Fader" id="clipGain" name="volume" powered="true">
            <parameter index="0" name="volume" parameterValue="1">
              <parameterKeyframes enableSplines="false" readOnly="false">
                <parameterKeyframe sampleOffset="1671768" select="false" type="linear" value="0.64999997615814208984375"/>
              </parameterKeyframes>
            </parameter>
            <parameter index="1" name="static gain" parameterValue="1"/>
          </component>
          <component componentGuid="f1c87693-92b7-40f7-85ee-ccf21d15ab78" componentID="Audition.Mute" id="clipMute" name="Mute" powered="true">
            <parameter index="0" parameterValue="0"/>
            <parameter index="1" name="mute" parameterValue="0"/>
          </component>
          <component componentGuid="45230515-056f-4d64-8c5b-bbb99eca9fcf" componentID="Audition.StereoPanner" id="clipPan" name="StereoPanner" powered="true">
            <parameter index="0" name="声像" parameterValue="0"/>
          </component>
          <fadeIn crossFadeLinkType="linkedAsymmetric" endPoint="0" shape="0" startPoint="0" type="cosine"/>
          <fadeOut crossFadeLinkType="linkedAsymmetric" endPoint="75764" shape="18" startPoint="75764" type="log"/>
          <editParameter parameterIndex="0" slotIndex="4294967281"/>
          <editParameter parameterIndex="0" slotIndex="4294967280"/>
          <channelMap>
            <channel index="0" sourceIndex="0"/>
            <channel index="1" sourceIndex="1"/>
          </channelMap>
        </audioClip>
        <audioClip clipAutoCrossfade="true" crossFadeHeadClipID="-1" crossFadeTailClipID="-1" endPoint="5292056" fileID="0" hue="-1" id="27" lockedInTime="false" looped="false" name="鼓" offline="false" select="false" sourceInPoint="2040373" sourceOutPoint="2823134" startPoint="4509295" zOrder="27">
          <component componentGuid="00f0466f-8d17-4fcf-b9ba-5f322e8886e6" componentID="Audition.Fader" id="clipGain" name="volume" powered="true">
            <parameter index="0" name="volume" parameterValue="1">
              <parameterKeyframes enableSplines="false" readOnly="false">
                <parameterKeyframe sampleOffset="1671768" select="false" type="linear" value="0.64999997615814208984375"/>
              </parameterKeyframes>
            </parameter>
            <parameter index="1" name="static gain" parameterValue="1"/>
          </component>
          <component componentGuid="3e6763ab-b9cb-4b35-b250-3aedea9d16d2" componentID="Audition.Mute" id="clipMute" name="Mute" powered="true">
            <parameter index="0" parameterValue="0"/>
            <parameter index="1" name="mute" parameterValue="0"/>
          </component>
          <component componentGuid="28c0fe81-949b-4ab4-a984-030eedd6768a" componentID="Audition.StereoPanner" id="clipPan" name="StereoPanner" powered="true">
            <parameter index="0" name="声像" parameterValue="0"/>
          </component>
          <fadeIn crossFadeLinkType="linkedAsymmetric" endPoint="0" shape="0" startPoint="0" type="cosine"/>
          <fadeOut crossFadeLinkType="linkedAsymmetric" endPoint="782761" shape="18" startPoint="782761" type="log"/>
          <editParameter parameterIndex="0" slotIndex="4294967281"/>
          <editParameter parameterIndex="0" slotIndex="4294967280"/>
          <channelMap>
            <channel index="0" sourceIndex="0"/>
            <channel index="1" sourceIndex="1"/>
          </channelMap>
        </audioClip>
      </audioTrack>
      <audioTrack automationLaneOpenState="false" id="10002" index="2" select="false" visible="true">
        <trackParameters trackHeight="104" trackHue="267" trackMinimized="false">
          <name>吉他1</name>
        </trackParameters>
        <trackAudioParameters audioChannelType="stereo" automationMode="1" monitoring="false" recordArmed="false" solo="false" soloSafe="false">
          <trackOutput outputID="10000" type="trackID"/>
          <trackInput inputID="1"/>
          <component componentGuid="cfcf5ddd-6fe3-4b1d-a98c-f220cafd40bc" componentID="Audition.Fader" id="trackFader" name="volume" powered="true">
            <parameter index="0" name="volume" parameterValue="0.7852356433868408203125"/>
            <parameter index="1" name="static gain" parameterValue="1"/>
          </component>
          <component componentGuid="b6eab724-9108-4fe6-baf1-a967316b5aad" componentID="Audition.Mute" id="trackMute" name="Mute" powered="true">
            <parameter index="0" parameterValue="0"/>
            <parameter index="1" name="mute" parameterValue="0"/>
          </component>
          <component componentGuid="c0be2995-4339-4881-9c04-5cabd14d21cf" componentID="Audition.StereoPanner" id="trackPan" name="StereoPanner" powered="true">
            <parameter index="0" name="声像" parameterValue="0"/>
          </component>
          <component componentGuid="828cb45d-70b1-4dad-bcd0-98dfb03c845a" componentID="Audition.EQ" id="trackEQ" name="EQ" powered="false">
            <parameter index="0" name="下限频率" parameterValue="0.000834028352983295917510986328125"/>
            <parameter index="1" name="下限增益" parameterValue="0.5"/>
            <parameter index="2" name="上限频率" parameterValue="0.74979150295257568359375"/>
            <parameter index="3" name="上限频率增益" parameterValue="0.5"/>
            <parameter index="4" name="EQ 频段 1 中置频率" parameterValue="0.00125104258768260478973388671875"/>
            <parameter index="5" name="EQ 频段 1 Q" parameterValue="0.000199989997781813144683837890625"/>
            <parameter index="6" name="EQ 频段 1 增益" parameterValue="0.5"/>
            <parameter index="7" name="EQ 频段 1 启用" parameterValue="1"/>
            <parameter index="8" name="EQ 频段 2 中置频率" parameterValue="0.0075062550604343414306640625"/>
            <parameter index="9" name="EQ 频段 2 Q" parameterValue="0.000199989997781813144683837890625"/>
            <parameter index="10" name="EQ 频段 2 增益" parameterValue="0.5"/>
            <parameter index="11" name="EQ 频段 2 启用" parameterValue="1"/>
            <parameter index="12" name="EQ 频段 3 中置频率" parameterValue="0.0325271077454090118408203125"/>
            <parameter index="13" name="EQ 频段 3 Q" parameterValue="0.000199989997781813144683837890625"/>
            <parameter index="14" name="EQ 频段 3 增益" parameterValue="0.5"/>
            <parameter index="15" name="EQ 频段 3 启用" parameterValue="1"/>
            <parameter index="16" name="EQ 频段 4 中置频率" parameterValue="0.13261051476001739501953125"/>
            <parameter index="17" name="EQ 频段 4 Q" parameterValue="0.000199989997781813144683837890625"/>
            <parameter index="18" name="EQ 频段 4 增益" parameterValue="0.5"/>
            <parameter index="19" name="EQ 频段 4 启用" parameterValue="1"/>
            <parameter index="20" name="EQ 频段 5 中置频率" parameterValue="0.532944142818450927734375"/>
            <parameter index="21" name="EQ 频段 5 Q" parameterValue="0.000199989997781813144683837890625"/>
            <parameter index="22" name="EQ 频段 5 增益" parameterValue="0.5"/>
            <parameter index="23" name="EQ 频段 5 启用" parameterValue="1"/>
            <parameter index="24" name="主控增益" parameterValue="0.666666686534881591796875"/>
            <parameter index="25" name="恒定 Q" parameterValue="1"/>
            <parameter index="26" name="下限滤镜顺序" parameterValue="0"/>
            <parameter index="27" name="上限频率滤镜顺序" parameterValue="0"/>
            <parameter index="28" name="超静音模式" parameterValue="0"/>
            <parameter index="29" name="下限启用" parameterValue="1"/>
            <parameter index="30" name="上限频率启用" parameterValue="1"/>
            <parameter index="31" name="原始采样率" parameterValue="0.25"/>
            <parameter index="32" name="EQ 频段 1 频带宽" parameterValue="0.002499990165233612060546875"/>
            <parameter index="33" name="EQ 频段 2 频段宽度" parameterValue="0.0099999904632568359375"/>
            <parameter index="34" name="EQ 频段 3 频段宽度" parameterValue="0.0399999916553497314453125"/>
            <parameter index="35" name="EQ 频段 4 频段宽度" parameterValue="0.15999998152256011962890625"/>
            <parameter index="36" name="EQ 频段 5 频段宽度" parameterValue="0.63999998569488525390625"/>
            <parameter index="37" name="高通滤波启用" parameterValue="0"/>
            <parameter index="38" name="高通切除频率" parameterValue="0"/>
            <parameter index="39" name="高通斜率" parameterValue="0.4000000059604644775390625"/>
            <parameter index="40" name="低通滤波启用" parameterValue="0"/>
            <parameter index="41" name="低通切除频率" parameterValue="0.833194315433502197265625"/>
            <parameter index="42" name="低通斜率" parameterValue="0.4000000059604644775390625"/>
            <parameter index="43" name="不使用" parameterValue="0"/>
            <parameter index="44" name="下限图示范围" parameterValue="1"/>
          </component>
        </trackAudioParameters>
        <editParameter parameterIndex="0" slotIndex="4294967280"/>
        <audioClip clipAutoCrossfade="true" crossFadeHeadClipID="-1" crossFadeTailClipID="1" endPoint="13973" fileID="1" hue="-1" id="0" lockedInTime="false" looped="false" name="吉他1" offline="false" select="false" sourceInPoint="4158579" sourceOutPoint="4172552" startPoint="0" zOrder="10">
          <component componentGuid="eec7ebe3-b9e4-46e8-a755-b7e4f303f74a" componentID="Audition.Fader" id="clipGain" name="volume" powered="true">
            <parameter index="0" name="volume" parameterValue="1"/>
            <parameter index="1" name="static gain" parameterValue="1"/>
          </component>
          <component componentGuid="6c0d0ccc-950d-49c5-b769-e532943a0c00" componentID="Audition.Mute" id="clipMute" name="Mute" powered="true">
            <parameter index="0" parameterValue="0"/>
            <parameter index="1" name="mute" parameterValue="0"/>
          </component>
          <component componentGuid="7889b896-7e35-4cde-8a93-28206e238a22" componentID="Audition.StereoPanner" id="clipPan" name="StereoPanner" powered="true">
            <parameter index="0" name="声像" parameterValue="0">
              <parameterKeyframes enableSplines="false" readOnly="false">
                <parameterKeyframe sampleOffset="76743" select="false" type="linear" value="0.5"/>
              </parameterKeyframes>
            </parameter>
          </component>
          <fadeIn crossFadeLinkType="linkedAsymmetric" endPoint="0" shape="0" startPoint="0" type="cosine"/>
          <fadeOut crossFadeLinkType="linkedAsymmetric" endPoint="13973" shape="18" startPoint="10185" type="log"/>
          <editParameter parameterIndex="0" slotIndex="4294967280"/>
          <editParameter parameterIndex="0" slotIndex="4294967281"/>
          <channelMap>
            <channel index="0" sourceIndex="0"/>
            <channel index="1" sourceIndex="1"/>
          </channelMap>
        </audioClip>
        <audioClip clipAutoCrossfade="true" crossFadeHeadClipID="0" crossFadeTailClipID="-1" endPoint="61849" fileID="1" hue="-1" id="1" lockedInTime="false" looped="false" name="吉他1" offline="false" select="false" sourceInPoint="4158458" sourceOutPoint="4210122" startPoint="10185" zOrder="6">
          <component componentGuid="d17293ec-38e9-440e-b8fb-b3cc9f9301a4" componentID="Audition.Fader" id="clipGain" name="volume" powered="true">
            <parameter index="0" name="volume" parameterValue="1"/>
            <parameter index="1" name="static gain" parameterValue="1"/>
          </component>
          <component componentGuid="40415a2c-895c-45c7-95a5-4f0c83b21d95" componentID="Audition.Mute" id="clipMute" name="Mute" powered="true">
            <parameter index="0" parameterValue="0"/>
            <parameter index="1" name="mute" parameterValue="0"/>
          </component>
          <component componentGuid="aa970bf3-c770-45e8-998e-ed6adf3cd2a0" componentID="Audition.StereoPanner" id="clipPan" name="StereoPanner" powered="true">
            <parameter index="0" name="声像" parameterValue="0">
              <parameterKeyframes enableSplines="false" readOnly="false">
                <parameterKeyframe sampleOffset="76743" select="false" type="linear" value="0.5"/>
              </parameterKeyframes>
            </parameter>
          </component>
          <fadeIn crossFadeLinkType="linkedAsymmetric" endPoint="3788" shape="19" startPoint="0" type="log"/>
          <fadeOut crossFadeLinkType="linkedAsymmetric" endPoint="51664" shape="0" startPoint="51664" type="cosine"/>
          <editParameter parameterIndex="0" slotIndex="4294967280"/>
          <editParameter parameterIndex="0" slotIndex="4294967281"/>
          <channelMap>
            <channel index="0" sourceIndex="0"/>
            <channel index="1" sourceIndex="1"/>
          </channelMap>
        </audioClip>
        <audioClip clipAutoCrossfade="true" crossFadeHeadClipID="-1" crossFadeTailClipID="3" endPoint="97318" fileID="1" hue="-1" id="2" lockedInTime="false" looped="false" name="吉他1" offline="false" select="false" sourceInPoint="4158579" sourceOutPoint="4172552" startPoint="83345" zOrder="18">
          <component componentGuid="06e66132-773c-47ba-a280-85cddc2eb0ba" componentID="Audition.Fader" id="clipGain" name="volume" powered="true">
            <parameter index="0" name="volume" parameterValue="1"/>
            <parameter index="1" name="static gain" parameterValue="1"/>
          </component>
          <component componentGuid="9e85ab89-e7fd-47fd-a113-ad42755a391a" componentID="Audition.Mute" id="clipMute" name="Mute" powered="true">
            <parameter index="0" parameterValue="0"/>
            <parameter index="1" name="mute" parameterValue="0"/>
          </component>
          <component componentGuid="1780ca3c-2ff1-4824-a198-ac1d40bd26c2" componentID="Audition.StereoPanner" id="clipPan" name="StereoPanner" powered="true">
            <parameter index="0" name="声像" parameterValue="0">
              <parameterKeyframes enableSplines="false" readOnly="false">
                <parameterKeyframe sampleOffset="76743" select="false" type="linear" value="0.5"/>
              </parameterKeyframes>
            </parameter>
          </component>
          <fadeIn crossFadeLinkType="linkedAsymmetric" endPoint="0" shape="0" startPoint="0" type="cosine"/>
          <fadeOut crossFadeLinkType="linkedAsymmetric" endPoint="13973" shape="18" startPoint="10185" type="log"/>
          <editParameter parameterIndex="0" slotIndex="4294967280"/>
          <editParameter parameterIndex="0" slotIndex="4294967281"/>
          <channelMap>
            <channel index="0" sourceIndex="0"/>
            <channel index="1" sourceIndex="1"/>
          </channelMap>
        </audioClip>
        <audioClip clipAutoCrossfade="true" crossFadeHeadClipID="2" crossFadeTailClipID="-1" endPoint="145194" fileID="1" hue="-1" id="3" lockedInTime="false" looped="false" name="吉他1" offline="false" select="false" sourceInPoint="4158458" sourceOutPoint="4210122" startPoint="93530" zOrder="14">
          <component componentGuid="69924f21-843e-49be-b889-9402f8c7933d" componentID="Audition.Fader" id="clipGain" name="volume" powered="true">
            <parameter index="0" name="volume" parameterValue="1"/>
            <parameter index="1" name="static gain" parameterValue="1"/>
          </component>
          <component componentGuid="b75d8ce7-5dc5-4881-9e03-8119579ae4a8" componentID="Audition.Mute" id="clipMute" name="Mute" powered="true">
            <parameter index="0" parameterValue="0"/>
            <parameter index="1" name="mute" parameterValue="0"/>
          </component>
          <component componentGuid="b55e1781-ea11-41aa-a3f1-00785c44654f" componentID="Audition.StereoPanner" id="clipPan" name="StereoPanner" powered="true">
            <parameter index="0" name="声像" parameterValue="0">
              <parameterKeyframes enableSplines="false" readOnly="false">
                <parameterKeyframe sampleOffset="76743" select="false" type="linear" value="0.5"/>
              </parameterKeyframes>
            </parameter>
          </component>
          <fadeIn crossFadeLinkType="linkedAsymmetric" endPoint="3788" shape="19" startPoint="0" type="log"/>
          <fadeOut crossFadeLinkType="linkedAsymmetric" endPoint="51664" shape="0" startPoint="51664" type="cosine"/>
          <editParameter parameterIndex="0" slotIndex="4294967280"/>
          <editParameter parameterIndex="0" slotIndex="4294967281"/>
          <channelMap>
            <channel index="0" sourceIndex="0"/>
            <channel index="1" sourceIndex="1"/>
          </channelMap>
        </audioClip>
        <audioClip clipAutoCrossfade="true" crossFadeHeadClipID="-1" crossFadeTailClipID="5" endPoint="178920" fileID="1" hue="-1" id="4" lockedInTime="false" looped="false" name="吉他1" offline="false" select="false" sourceInPoint="4158579" sourceOutPoint="4172552" startPoint="164947" zOrder="25">
          <component componentGuid="e31afab5-e392-4ec1-b2af-1e158a5e309c" componentID="Audition.Fader" id="clipGain" name="volume" powered="true">
            <parameter index="0" name="volume" parameterValue="1"/>
            <parameter index="1" name="static gain" parameterValue="1"/>
          </component>
          <component componentGuid="e1222ce6-8940-4481-a574-ae44fff64573" componentID="Audition.Mute" id="clipMute" name="Mute" powered="true">
            <parameter index="0" parameterValue="0"/>
            <parameter index="1" name="mute" parameterValue="0"/>
          </component>
          <component componentGuid="d3bca4fd-ff7e-47fd-990d-fd0e88ef078b" componentID="Audition.StereoPanner" id="clipPan" name="StereoPanner" powered="true">
            <parameter index="0" name="声像" parameterValue="0">
              <parameterKeyframes enableSplines="false" readOnly="false">
                <parameterKeyframe sampleOffset="76743" select="false" type="linear" value="0.5"/>
              </parameterKeyframes>
            </parameter>
          </component>
          <fadeIn crossFadeLinkType="linkedAsymmetric" endPoint="0" shape="0" startPoint="0" type="cosine"/>
          <fadeOut crossFadeLinkType="linkedAsymmetric" endPoint="13973" shape="18" startPoint="10185" type="log"/>
          <editParameter parameterIndex="0" slotIndex="4294967280"/>
          <editParameter parameterIndex="0" slotIndex="4294967281"/>
          <channelMap>
            <channel index="0" sourceIndex="0"/>
            <channel index="1" sourceIndex="1"/>
          </channelMap>
        </audioClip>
        <audioClip clipAutoCrossfade="true" crossFadeHeadClipID="4" crossFadeTailClipID="-1" endPoint="226796" fileID="1" hue="-1" id="5" lockedInTime="false" looped="false" name="吉他1" offline="false" select="false" sourceInPoint="4158458" sourceOutPoint="4210122" startPoint="175132" zOrder="22">
          <component componentGuid="63d8d510-4913-4d07-b204-bdc7875a408f" componentID="Audition.Fader" id="clipGain" name="volume" powered="true">
            <parameter index="0" name="volume" parameterValue="1"/>
            <parameter index="1" name="static gain" parameterValue="1"/>
          </component>
          <component componentGuid="496ff8cb-d3f0-40d8-8029-25d9c4db08a0" componentID="Audition.Mute" id="clipMute" name="Mute" powered="true">
            <parameter index="0" parameterValue="0"/>
            <parameter index="1" name="mute" parameterValue="0"/>
          </component>
          <component componentGuid="27757789-f4d8-471b-be6e-492ff233be2e" componentID="Audition.StereoPanner" id="clipPan" name="StereoPanner" powered="true">
            <parameter index="0" name="声像" parameterValue="0">
              <parameterKeyframes enableSplines="false" readOnly="false">
                <parameterKeyframe sampleOffset="76743" select="false" type="linear" value="0.5"/>
              </parameterKeyframes>
            </parameter>
          </component>
          <fadeIn crossFadeLinkType="linkedAsymmetric" endPoint="3788" shape="19" startPoint="0" type="log"/>
          <fadeOut crossFadeLinkType="linkedAsymmetric" endPoint="51664" shape="0" startPoint="51664" type="cosine"/>
          <editParameter parameterIndex="0" slotIndex="4294967280"/>
          <editParameter parameterIndex="0" slotIndex="4294967281"/>
          <channelMap>
            <channel index="0" sourceIndex="0"/>
            <channel index="1" sourceIndex="1"/>
          </channelMap>
        </audioClip>
        <audioClip clipAutoCrossfade="true" crossFadeHeadClipID="-1" crossFadeTailClipID="-1" endPoint="325035" fileID="1" hue="-1" id="6" lockedInTime="false" looped="false" name="吉他1" offline="false" select="false" sourceInPoint="1727101" sourceOutPoint="1806817" startPoint="245319" zOrder="0">
          <component componentGuid="3611e0f8-84c1-47e4-b433-1b74e90e3e12" componentID="Audition.Fader" id="clipGain" name="volume" powered="true">
            <parameter index="0" name="volume" parameterValue="1"/>
            <parameter index="1" name="static gain" parameterValue="1"/>
          </component>
          <component componentGuid="eaef2db9-ed2c-47d0-b52f-fe692a839614" componentID="Audition.Mute" id="clipMute" name="Mute" powered="true">
            <parameter index="0" parameterValue="0"/>
            <parameter index="1" name="mute" parameterValue="0"/>
          </component>
          <component componentGuid="7892a08b-d56f-431a-a6c0-ceb4bbd1a48e" componentID="Audition.StereoPanner" id="clipPan" name="StereoPanner" powered="true">
            <parameter index="0" name="声像" parameterValue="0">
              <parameterKeyframes enableSplines="false" readOnly="false">
                <parameterKeyframe sampleOffset="76743" select="false" type="linear" value="0.5"/>
              </parameterKeyframes>
            </parameter>
          </component>
          <fadeIn crossFadeLinkType="linkedAsymmetric" endPoint="0" shape="0" startPoint="0" type="cosine"/>
          <fadeOut crossFadeLinkType="linkedAsymmetric" endPoint="79716" shape="19" startPoint="79716" type="log"/>
          <editParameter parameterIndex="0" slotIndex="4294967280"/>
          <editParameter parameterIndex="0" slotIndex="4294967281"/>
          <channelMap>
            <channel index="0" sourceIndex="0"/>
            <channel index="1" sourceIndex="1"/>
          </channelMap>
        </audioClip>
        <audioClip clipAutoCrossfade="true" crossFadeHeadClipID="-1" crossFadeTailClipID="8" endPoint="344012" fileID="1" hue="-1" id="7" lockedInTime="false" looped="false" name="吉他1" offline="false" select="false" sourceInPoint="4158579" sourceOutPoint="4172552" startPoint="330039" zOrder="31">
          <component componentGuid="0542f762-82b6-4ad8-9a8e-ad902e3d4cd7" componentID="Audition.Fader" id="clipGain" name="volume" powered="true">
            <parameter index="0" name="volume" parameterValue="1"/>
            <parameter index="1" name="static gain" parameterValue="1"/>
          </component>
          <component componentGuid="bd1baede-baca-4f58-b115-cc60a4e17920" componentID="Audition.Mute" id="clipMute" name="Mute" powered="true">
            <parameter index="0" parameterValue="0"/>
            <parameter index="1" name="mute" parameterValue="0"/>
          </component>
          <component componentGuid="91bc8b49-98dc-4a29-a405-f832e3894b4b" componentID="Audition.StereoPanner" id="clipPan" name="StereoPanner" powered="true">
            <parameter index="0" name="声像" parameterValue="0">
              <parameterKeyframes enableSplines="false" readOnly="false">
                <parameterKeyframe sampleOffset="76743" select="false" type="linear" value="0.5"/>
              </parameterKeyframes>
            </parameter>
          </component>
          <fadeIn crossFadeLinkType="linkedAsymmetric" endPoint="0" shape="0" startPoint="0" type="cosine"/>
          <fadeOut crossFadeLinkType="linkedAsymmetric" endPoint="13973" shape="18" startPoint="10185" type="log"/>
          <editParameter parameterIndex="0" slotIndex="4294967280"/>
          <editParameter parameterIndex="0" slotIndex="4294967281"/>
          <channelMap>
            <channel index="0" sourceIndex="0"/>
            <channel index="1" sourceIndex="1"/>
          </channelMap>
        </audioClip>
        <audioClip clipAutoCrossfade="true" crossFadeHeadClipID="7" crossFadeTailClipID="-1" endPoint="391888" fileID="1" hue="-1" id="8" lockedInTime="false" looped="false" name="吉他1" offline="false" select="false" sourceInPoint="4158458" sourceOutPoint="4210122" startPoint="340224" zOrder="28">
          <component componentGuid="0ef4e028-24ea-4093-aa90-2ce628e58046" componentID="Audition.Fader" id="clipGain" name="volume" powered="true">
            <parameter index="0" name="volume" parameterValue="1"/>
            <parameter index="1" name="static gain" parameterValue="1"/>
          </component>
          <component componentGuid="6dd59a78-4b78-44a4-b188-5b5b840bd8b6" componentID="Audition.Mute" id="clipMute" name="Mute" powered="true">
            <parameter index="0" parameterValue="0"/>
            <parameter index="1" name="mute" parameterValue="0"/>
          </component>
          <component componentGuid="e0b92a9b-8a94-4362-9238-6ebdf9a7c6c6" componentID="Audition.StereoPanner" id="clipPan" name="StereoPanner" powered="true">
            <parameter index="0" name="声像" parameterValue="0">
              <parameterKeyframes enableSplines="false" readOnly="false">
                <parameterKeyframe sampleOffset="76743" select="false" type="linear" value="0.5"/>
              </parameterKeyframes>
            </parameter>
          </component>
          <fadeIn crossFadeLinkType="linkedAsymmetric" endPoint="3788" shape="19" startPoint="0" type="log"/>
          <fadeOut crossFadeLinkType="linkedAsymmetric" endPoint="51664" shape="0" startPoint="51664" type="cosine"/>
          <editParameter parameterIndex="0" slotIndex="4294967280"/>
          <editParameter parameterIndex="0" slotIndex="4294967281"/>
          <channelMap>
            <channel index="0" sourceIndex="0"/>
            <channel index="1" sourceIndex="1"/>
          </channelMap>
        </audioClip>
        <audioClip clipAutoCrossfade="true" crossFadeHeadClipID="-1" crossFadeTailClipID="10" endPoint="425445" fileID="1" hue="-1" id="9" lockedInTime="false" looped="false" name="吉他1" offline="false" select="false" sourceInPoint="4158579" sourceOutPoint="4172552" startPoint="411472" zOrder="37">
          <component componentGuid="abd6b9f0-de12-424c-a745-bb7672b400f1" componentID="Audition.Fader" id="clipGain" name="volume" powered="true">
            <parameter index="0" name="volume" parameterValue="1"/>
            <parameter index="1" name="static gain" parameterValue="1"/>
          </component>
          <component componentGuid="229412be-9271-47af-9af8-11f81e81d635" componentID="Audition.Mute" id="clipMute" name="Mute" powered="true">
            <parameter index="0" parameterValue="0"/>
            <parameter index="1" name="mute" parameterValue="0"/>
          </component>
          <component componentGuid="a3f58b2f-5f22-4615-9f08-2977f8088f02" componentID="Audition.StereoPanner" id="clipPan" name="StereoPanner" powered="true">
            <parameter index="0" name="声像" parameterValue="0">
              <parameterKeyframes enableSplines="false" readOnly="false">
                <parameterKeyframe sampleOffset="76743" select="false" type="linear" value="0.5"/>
              </parameterKeyframes>
            </parameter>
          </component>
          <fadeIn crossFadeLinkType="linkedAsymmetric" endPoint="0" shape="0" startPoint="0" type="cosine"/>
          <fadeOut crossFadeLinkType="linkedAsymmetric" endPoint="13973" shape="18" startPoint="10185" type="log"/>
          <editParameter parameterIndex="0" slotIndex="4294967280"/>
          <editParameter parameterIndex="0" slotIndex="4294967281"/>
          <channelMap>
            <channel index="0" sourceIndex="0"/>
            <channel index="1" sourceIndex="1"/>
          </channelMap>
        </audioClip>
        <audioClip clipAutoCrossfade="true" crossFadeHeadClipID="9" crossFadeTailClipID="-1" endPoint="473321" fileID="1" hue="-1" id="10" lockedInTime="false" looped="false" name="吉他1" offline="false" select="false" sourceInPoint="4158458" sourceOutPoint="4210122" startPoint="421657" zOrder="34">
          <component componentGuid="18081ceb-6c65-485e-b426-a235bbe578cb" componentID="Audition.Fader" id="clipGain" name="volume" powered="true">
            <parameter index="0" name="volume" parameterValue="1"/>
            <parameter index="1" name="static gain" parameterValue="1"/>
          </component>
          <component componentGuid="f76c3a8f-3de6-4697-9b6e-165d969d4ccb" componentID="Audition.Mute" id="clipMute" name="Mute" powered="true">
            <parameter index="0" parameterValue="0"/>
            <parameter index="1" name="mute" parameterValue="0"/>
          </component>
          <component componentGuid="c9b8257d-77de-4003-bcdc-3520ee094be4" componentID="Audition.StereoPanner" id="clipPan" name="StereoPanner" powered="true">
            <parameter index="0" name="声像" parameterValue="0">
              <parameterKeyframes enableSplines="false" readOnly="false">
                <parameterKeyframe sampleOffset="76743" select="false" type="linear" value="0.5"/>
              </parameterKeyframes>
            </parameter>
          </component>
          <fadeIn crossFadeLinkType="linkedAsymmetric" endPoint="3788" shape="19" startPoint="0" type="log"/>
          <fadeOut crossFadeLinkType="linkedAsymmetric" endPoint="51664" shape="0" startPoint="51664" type="cosine"/>
          <editParameter parameterIndex="0" slotIndex="4294967280"/>
          <editParameter parameterIndex="0" slotIndex="4294967281"/>
          <channelMap>
            <channel index="0" sourceIndex="0"/>
            <channel index="1" sourceIndex="1"/>
          </channelMap>
        </audioClip>
        <audioClip clipAutoCrossfade="true" crossFadeHeadClipID="-1" crossFadeTailClipID="12" endPoint="508318" fileID="1" hue="-1" id="11" lockedInTime="false" looped="false" name="吉他1" offline="false" select="false" sourceInPoint="4158579" sourceOutPoint="4172552" startPoint="494345" zOrder="44">
          <component componentGuid="eb3c1bc2-6cf2-4b81-b9e2-4675d5a6d093" componentID="Audition.Fader" id="clipGain" name="volume" powered="true">
            <parameter index="0" name="volume" parameterValue="1"/>
            <parameter index="1" name="static gain" parameterValue="1"/>
          </component>
          <component componentGuid="4a1f8971-aa75-408e-b2ac-ffd6cb6ca0d4" componentID="Audition.Mute" id="clipMute" name="Mute" powered="true">
            <parameter index="0" parameterValue="0"/>
            <parameter index="1" name="mute" parameterValue="0"/>
          </component>
          <component componentGuid="98da8aca-b4dc-4fd0-b9b9-bb0f5f43a5c4" componentID="Audition.StereoPanner" id="clipPan" name="StereoPanner" powered="true">
            <parameter index="0" name="声像" parameterValue="0">
              <parameterKeyframes enableSplines="false" readOnly="false">
                <parameterKeyframe sampleOffset="76743" select="false" type="linear" value="0.5"/>
              </parameterKeyframes>
            </parameter>
          </component>
          <fadeIn crossFadeLinkType="linkedAsymmetric" endPoint="0" shape="0" startPoint="0" type="cosine"/>
          <fadeOut crossFadeLinkType="linkedAsymmetric" endPoint="13973" shape="18" startPoint="10185" type="log"/>
          <editParameter parameterIndex="0" slotIndex="4294967280"/>
          <editParameter parameterIndex="0" slotIndex="4294967281"/>
          <channelMap>
            <channel index="0" sourceIndex="0"/>
            <channel index="1" sourceIndex="1"/>
          </channelMap>
        </audioClip>
        <audioClip clipAutoCrossfade="true" crossFadeHeadClipID="11" crossFadeTailClipID="-1" endPoint="556194" fileID="1" hue="-1" id="12" lockedInTime="false" looped="false" name="吉他1" offline="false" select="false" sourceInPoint="4158458" sourceOutPoint="4210122" startPoint="504530" zOrder="40">
          <component componentGuid="50880afc-d262-4bea-8056-47db239179a4" componentID="Audition.Fader" id="clipGain" name="volume" powered="true">
            <parameter index="0" name="volume" parameterValue="1"/>
            <parameter index="1" name="static gain" parameterValue="1"/>
          </component>
          <component componentGuid="4ac0d445-3f27-49f2-bad6-f98e9deb52a1" componentID="Audition.Mute" id="clipMute" name="Mute" powered="true">
            <parameter index="0" parameterValue="0"/>
            <parameter index="1" name="mute" parameterValue="0"/>
          </component>
          <component componentGuid="963e76a8-b124-4649-b026-dc39146018a0" componentID="Audition.StereoPanner" id="clipPan" name="StereoPanner" powered="true">
            <parameter index="0" name="声像" parameterValue="0">
              <parameterKeyframes enableSplines="false" readOnly="false">
                <parameterKeyframe sampleOffset="76743" select="false" type="linear" value="0.5"/>
              </parameterKeyframes>
            </parameter>
          </component>
          <fadeIn crossFadeLinkType="linkedAsymmetric" endPoint="3788" shape="19" startPoint="0" type="log"/>
          <fadeOut crossFadeLinkType="linkedAsymmetric" endPoint="51664" shape="0" startPoint="51664" type="cosine"/>
          <editParameter parameterIndex="0" slotIndex="4294967280"/>
          <editParameter parameterIndex="0" slotIndex="4294967281"/>
          <channelMap>
            <channel index="0" sourceIndex="0"/>
            <channel index="1" sourceIndex="1"/>
          </channelMap>
        </audioClip>
        <audioClip clipAutoCrossfade="true" crossFadeHeadClipID="-1" crossFadeTailClipID="-1" endPoint="1315550" fileID="1" hue="-1" id="13" lockedInTime="false" looped="false" name="吉他1" offline="false" select="false" sourceInPoint="2057355" sourceOutPoint="2797332" startPoint="575573" zOrder="3">
          <component componentGuid="613482fe-ba4b-457b-963e-1289924fc032" componentID="Audition.Fader" id="clipGain" name="volume" powered="true">
            <parameter index="0" name="volume" parameterValue="1"/>
            <parameter index="1" name="static gain" parameterValue="1"/>
          </component>
          <component componentGuid="f96dc222-9259-4681-b501-d5b9eac7af4f" componentID="Audition.Mute" id="clipMute" name="Mute" powered="true">
            <parameter index="0" parameterValue="0"/>
            <parameter index="1" name="mute" parameterValue="0"/>
          </component>
          <component componentGuid="dad31a41-8a39-4052-a2a8-261486cbb288" componentID="Audition.StereoPanner" id="clipPan" name="StereoPanner" powered="true">
            <parameter index="0" name="声像" parameterValue="0">
              <parameterKeyframes enableSplines="false" readOnly="false">
                <parameterKeyframe sampleOffset="76743" select="false" type="linear" value="0.5"/>
              </parameterKeyframes>
            </parameter>
          </component>
          <fadeIn crossFadeLinkType="linkedAsymmetric" endPoint="0" shape="0" startPoint="0" type="cosine"/>
          <fadeOut crossFadeLinkType="linkedAsymmetric" endPoint="739977" shape="19" startPoint="739977" type="log"/>
          <editParameter parameterIndex="0" slotIndex="4294967280"/>
          <editParameter parameterIndex="0" slotIndex="4294967281"/>
          <channelMap>
            <channel index="0" sourceIndex="0"/>
            <channel index="1" sourceIndex="1"/>
          </channelMap>
        </audioClip>
        <audioClip clipAutoCrossfade="true" crossFadeHeadClipID="-1" crossFadeTailClipID="15" endPoint="1331029" fileID="1" hue="-1" id="14" lockedInTime="false" looped="false" name="吉他1" offline="false" select="false" sourceInPoint="4158579" sourceOutPoint="4172552" startPoint="1317056" zOrder="11">
          <component componentGuid="fa1fe5e6-e416-4f3b-8be3-9f3facb31de7" componentID="Audition.Fader" id="clipGain" name="volume" powered="true">
            <parameter index="0" name="volume" parameterValue="1"/>
            <parameter index="1" name="static gain" parameterValue="1"/>
          </component>
          <component componentGuid="edff21b9-0086-4019-b790-ae03a5432c89" componentID="Audition.Mute" id="clipMute" name="Mute" powered="true">
            <parameter index="0" parameterValue="0"/>
            <parameter index="1" name="mute" parameterValue="0"/>
          </component>
          <component componentGuid="3748f56f-ec43-4cac-939f-ee3f8491d2e8" componentID="Audition.StereoPanner" id="clipPan" name="StereoPanner" powered="true">
            <parameter index="0" name="声像" parameterValue="0">
              <parameterKeyframes enableSplines="false" readOnly="false">
                <parameterKeyframe sampleOffset="76743" select="false" type="linear" value="0.5"/>
              </parameterKeyframes>
            </parameter>
          </component>
          <fadeIn crossFadeLinkType="linkedAsymmetric" endPoint="0" shape="0" startPoint="0" type="cosine"/>
          <fadeOut crossFadeLinkType="linkedAsymmetric" endPoint="13973" shape="18" startPoint="10185" type="log"/>
          <editParameter parameterIndex="0" slotIndex="4294967280"/>
          <editParameter parameterIndex="0" slotIndex="4294967281"/>
          <channelMap>
            <channel index="0" sourceIndex="0"/>
            <channel index="1" sourceIndex="1"/>
          </channelMap>
        </audioClip>
        <audioClip clipAutoCrossfade="true" crossFadeHeadClipID="14" crossFadeTailClipID="-1" endPoint="1378905" fileID="1" hue="-1" id="15" lockedInTime="false" looped="false" name="吉他1" offline="false" select="false" sourceInPoint="4158458" sourceOutPoint="4210122" startPoint="1327241" zOrder="7">
          <component componentGuid="8bd3eed7-d8d9-4af9-a127-a70216582565" componentID="Audition.Fader" id="clipGain" name="volume" powered="true">
            <parameter index="0" name="volume" parameterValue="1"/>
            <parameter index="1" name="static gain" parameterValue="1"/>
          </component>
          <component componentGuid="f3dc96cb-99ce-4e98-a4b1-be0ed030f10b" componentID="Audition.Mute" id="clipMute" name="Mute" powered="true">
            <parameter index="0" parameterValue="0"/>
            <parameter index="1" name="mute" parameterValue="0"/>
          </component>
          <component componentGuid="8fd8e988-5ee0-45e3-a3e6-97c8596fad0b" componentID="Audition.StereoPanner" id="clipPan" name="StereoPanner" powered="true">
            <parameter index="0" name="声像" parameterValue="0">
              <parameterKeyframes enableSplines="false" readOnly="false">
                <parameterKeyframe sampleOffset="76743" select="false" type="linear" value="0.5"/>
              </parameterKeyframes>
            </parameter>
          </component>
          <fadeIn crossFadeLinkType="linkedAsymmetric" endPoint="3788" shape="19" startPoint="0" type="log"/>
          <fadeOut crossFadeLinkType="linkedAsymmetric" endPoint="51664" shape="0" startPoint="51664" type="cosine"/>
          <editParameter parameterIndex="0" slotIndex="4294967280"/>
          <editParameter parameterIndex="0" slotIndex="4294967281"/>
          <channelMap>
            <channel index="0" sourceIndex="0"/>
            <channel index="1" sourceIndex="1"/>
          </channelMap>
        </audioClip>
        <audioClip clipAutoCrossfade="true" crossFadeHeadClipID="-1" crossFadeTailClipID="17" endPoint="1414374" fileID="1" hue="-1" id="16" lockedInTime="false" looped="false" name="吉他1" offline="false" select="false" sourceInPoint="4158579" sourceOutPoint="4172552" startPoint="1400401" zOrder="19">
          <component componentGuid="0f8a4663-7ce0-4be9-a54c-92d82438cf2e" componentID="Audition.Fader" id="clipGain" name="volume" powered="true">
            <parameter index="0" name="volume" parameterValue="1"/>
            <parameter index="1" name="static gain" parameterValue="1"/>
          </component>
          <component componentGuid="06800d29-f338-448b-b470-3d81134a8120" componentID="Audition.Mute" id="clipMute" name="Mute" powered="true">
            <parameter index="0" parameterValue="0"/>
            <parameter index="1" name="mute" parameterValue="0"/>
          </component>
          <component componentGuid="48ab72c9-02a6-4b9e-ace3-8cb6be67a46d" componentID="Audition.StereoPanner" id="clipPan" name="StereoPanner" powered="true">
            <parameter index="0" name="声像" parameterValue="0">
              <parameterKeyframes enableSplines="false" readOnly="false">
                <parameterKeyframe sampleOffset="76743" select="false" type="linear" value="0.5"/>
              </parameterKeyframes>
            </parameter>
          </component>
          <fadeIn crossFadeLinkType="linkedAsymmetric" endPoint="0" shape="0" startPoint="0" type="cosine"/>
          <fadeOut crossFadeLinkType="linkedAsymmetric" endPoint="13973" shape="18" startPoint="10185" type="log"/>
          <editParameter parameterIndex="0" slotIndex="4294967280"/>
          <editParameter parameterIndex="0" slotIndex="4294967281"/>
          <channelMap>
            <channel index="0" sourceIndex="0"/>
            <channel index="1" sourceIndex="1"/>
          </channelMap>
        </audioClip>
        <audioClip clipAutoCrossfade="true" crossFadeHeadClipID="16" crossFadeTailClipID="-1" endPoint="1462250" fileID="1" hue="-1" id="17" lockedInTime="false" looped="false" name="吉他1" offline="false" select="false" sourceInPoint="4158458" sourceOutPoint="4210122" startPoint="1410586" zOrder="15">
          <component componentGuid="0d236e62-b90b-4ebf-b1f3-5020b9ab866c" componentID="Audition.Fader" id="clipGain" name="volume" powered="true">
            <parameter index="0" name="volume" parameterValue="1"/>
            <parameter index="1" name="static gain" parameterValue="1"/>
          </component>
          <component componentGuid="b8408c37-9f37-4ed9-ab49-0532f08f96b4" componentID="Audition.Mute" id="clipMute" name="Mute" powered="true">
            <parameter index="0" parameterValue="0"/>
            <parameter index="1" name="mute" parameterValue="0"/>
          </component>
          <component componentGuid="a57dc0a5-91fa-415e-85b9-39639af36314" componentID="Audition.StereoPanner" id="clipPan" name="StereoPanner" powered="true">
            <parameter index="0" name="声像" parameterValue="0">
              <parameterKeyframes enableSplines="false" readOnly="false">
                <parameterKeyframe sampleOffset="76743" select="false" type="linear" value="0.5"/>
              </parameterKeyframes>
            </parameter>
          </component>
          <fadeIn crossFadeLinkType="linkedAsymmetric" endPoint="3788" shape="19" startPoint="0" type="log"/>
          <fadeOut crossFadeLinkType="linkedAsymmetric" endPoint="51664" shape="0" startPoint="51664" type="cosine"/>
          <editParameter parameterIndex="0" slotIndex="4294967280"/>
          <editParameter parameterIndex="0" slotIndex="4294967281"/>
          <channelMap>
            <channel index="0" sourceIndex="0"/>
            <channel index="1" sourceIndex="1"/>
          </channelMap>
        </audioClip>
        <audioClip clipAutoCrossfade="true" crossFadeHeadClipID="-1" crossFadeTailClipID="19" endPoint="1495976" fileID="1" hue="-1" id="18" lockedInTime="false" looped="false" name="吉他1" offline="false" select="false" sourceInPoint="4158579" sourceOutPoint="4172552" startPoint="1482003" zOrder="26">
          <component componentGuid="36385812-dc32-4095-ac19-d79d8c6c4100" componentID="Audition.Fader" id="clipGain" name="volume" powered="true">
            <parameter index="0" name="volume" parameterValue="1"/>
            <parameter index="1" name="static gain" parameterValue="1"/>
          </component>
          <component componentGuid="f94628cd-6a6d-4d31-8511-fc3969d58b83" componentID="Audition.Mute" id="clipMute" name="Mute" powered="true">
            <parameter index="0" parameterValue="0"/>
            <parameter index="1" name="mute" parameterValue="0"/>
          </component>
          <component componentGuid="d449294e-d606-4086-b3bd-80ce1187b1e0" componentID="Audition.StereoPanner" id="clipPan" name="StereoPanner" powered="true">
            <parameter index="0" name="声像" parameterValue="0">
              <parameterKeyframes enableSplines="false" readOnly="false">
                <parameterKeyframe sampleOffset="76743" select="false" type="linear" value="0.5"/>
              </parameterKeyframes>
            </parameter>
          </component>
          <fadeIn crossFadeLinkType="linkedAsymmetric" endPoint="0" shape="0" startPoint="0" type="cosine"/>
          <fadeOut crossFadeLinkType="linkedAsymmetric" endPoint="13973" shape="18" startPoint="10185" type="log"/>
          <editParameter parameterIndex="0" slotIndex="4294967280"/>
          <editParameter parameterIndex="0" slotIndex="4294967281"/>
          <channelMap>
            <channel index="0" sourceIndex="0"/>
            <channel index="1" sourceIndex="1"/>
          </channelMap>
        </audioClip>
        <audioClip clipAutoCrossfade="true" crossFadeHeadClipID="18" crossFadeTailClipID="-1" endPoint="1543852" fileID="1" hue="-1" id="19" lockedInTime="false" looped="false" name="吉他1" offline="false" select="false" sourceInPoint="4158458" sourceOutPoint="4210122" startPoint="1492188" zOrder="23">
          <component componentGuid="616822cd-8fd6-4848-9681-7aed0677e07b" componentID="Audition.Fader" id="clipGain" name="volume" powered="true">
            <parameter index="0" name="volume" parameterValue="1"/>
            <parameter index="1" name="static gain" parameterValue="1"/>
          </component>
          <component componentGuid="f3ca05f8-b7d6-4b2f-b370-2648eec55531" componentID="Audition.Mute" id="clipMute" name="Mute" powered="true">
            <parameter index="0" parameterValue="0"/>
            <parameter index="1" name="mute" parameterValue="0"/>
          </component>
          <component componentGuid="9232db08-64cb-4b66-bb8a-66036d5d765e" componentID="Audition.StereoPanner" id="clipPan" name="StereoPanner" powered="true">
            <parameter index="0" name="声像" parameterValue="0">
              <parameterKeyframes enableSplines="false" readOnly="false">
                <parameterKeyframe sampleOffset="76743" select="false" type="linear" value="0.5"/>
              </parameterKeyframes>
            </parameter>
          </component>
          <fadeIn crossFadeLinkType="linkedAsymmetric" endPoint="3788" shape="19" startPoint="0" type="log"/>
          <fadeOut crossFadeLinkType="linkedAsymmetric" endPoint="51664" shape="0" startPoint="51664" type="cosine"/>
          <editParameter parameterIndex="0" slotIndex="4294967280"/>
          <editParameter parameterIndex="0" slotIndex="4294967281"/>
          <channelMap>
            <channel index="0" sourceIndex="0"/>
            <channel index="1" sourceIndex="1"/>
          </channelMap>
        </audioClip>
        <audioClip clipAutoCrossfade="true" crossFadeHeadClipID="-1" crossFadeTailClipID="-1" endPoint="1642091" fileID="1" hue="-1" id="20" lockedInTime="false" looped="false" name="吉他1" offline="false" select="false" sourceInPoint="1727101" sourceOutPoint="1806817" startPoint="1562375" zOrder="1">
          <component componentGuid="ec7212d9-a409-41e0-aa77-6c3043b59296" componentID="Audition.Fader" id="clipGain" name="volume" powered="true">
            <parameter index="0" name="volume" parameterValue="1"/>
            <parameter index="1" name="static gain" parameterValue="1"/>
          </component>
          <component componentGuid="88545858-f1ff-4f10-b64e-aafb1b5ee2ad" componentID="Audition.Mute" id="clipMute" name="Mute" powered="true">
            <parameter index="0" parameterValue="0"/>
            <parameter index="1" name="mute" parameterValue="0"/>
          </component>
          <component componentGuid="7c9f3682-8e09-44f2-82e2-00b0d6866a82" componentID="Audition.StereoPanner" id="clipPan" name="StereoPanner" powered="true">
            <parameter index="0" name="声像" parameterValue="0">
              <parameterKeyframes enableSplines="false" readOnly="false">
                <parameterKeyframe sampleOffset="76743" select="false" type="linear" value="0.5"/>
              </parameterKeyframes>
            </parameter>
          </component>
          <fadeIn crossFadeLinkType="linkedAsymmetric" endPoint="0" shape="0" startPoint="0" type="cosine"/>
          <fadeOut crossFadeLinkType="linkedAsymmetric" endPoint="79716" shape="19" startPoint="79716" type="log"/>
          <editParameter parameterIndex="0" slotIndex="4294967280"/>
          <editParameter parameterIndex="0" slotIndex="4294967281"/>
          <channelMap>
            <channel index="0" sourceIndex="0"/>
            <channel index="1" sourceIndex="1"/>
          </channelMap>
        </audioClip>
        <audioClip clipAutoCrossfade="true" crossFadeHeadClipID="-1" crossFadeTailClipID="22" endPoint="1661068" fileID="1" hue="-1" id="21" lockedInTime="false" looped="false" name="吉他1" offline="false" select="false" sourceInPoint="4158579" sourceOutPoint="4172552" startPoint="1647095" zOrder="32">
          <component componentGuid="c884367f-1127-4d95-8666-2192283bbf34" componentID="Audition.Fader" id="clipGain" name="volume" powered="true">
            <parameter index="0" name="volume" parameterValue="1"/>
            <parameter index="1" name="static gain" parameterValue="1"/>
          </component>
          <component componentGuid="983b9f70-3151-4931-a382-e1c6f6f4d022" componentID="Audition.Mute" id="clipMute" name="Mute" powered="true">
            <parameter index="0" parameterValue="0"/>
            <parameter index="1" name="mute" parameterValue="0"/>
          </component>
          <component componentGuid="ff4f62f6-8291-45e9-b37a-88f05d1958d4" componentID="Audition.StereoPanner" id="clipPan" name="StereoPanner" powered="true">
            <parameter index="0" name="声像" parameterValue="0">
              <parameterKeyframes enableSplines="false" readOnly="false">
                <parameterKeyframe sampleOffset="76743" select="false" type="linear" value="0.5"/>
              </parameterKeyframes>
            </parameter>
          </component>
          <fadeIn crossFadeLinkType="linkedAsymmetric" endPoint="0" shape="0" startPoint="0" type="cosine"/>
          <fadeOut crossFadeLinkType="linkedAsymmetric" endPoint="13973" shape="18" startPoint="10185" type="log"/>
          <editParameter parameterIndex="0" slotIndex="4294967280"/>
          <editParameter parameterIndex="0" slotIndex="4294967281"/>
          <channelMap>
            <channel index="0" sourceIndex="0"/>
            <channel index="1" sourceIndex="1"/>
          </channelMap>
        </audioClip>
        <audioClip clipAutoCrossfade="true" crossFadeHeadClipID="21" crossFadeTailClipID="-1" endPoint="1708944" fileID="1" hue="-1" id="22" lockedInTime="false" looped="false" name="吉他1" offline="false" select="false" sourceInPoint="4158458" sourceOutPoint="4210122" startPoint="1657280" zOrder="29">
          <component componentGuid="a169d38b-d2e4-4f0d-8e6c-c1f679577f2b" componentID="Audition.Fader" id="clipGain" name="volume" powered="true">
            <parameter index="0" name="volume" parameterValue="1"/>
            <parameter index="1" name="static gain" parameterValue="1"/>
          </component>
          <component componentGuid="15adbaf9-912f-4970-8cad-b977f7be6884" componentID="Audition.Mute" id="clipMute" name="Mute" powered="true">
            <parameter index="0" parameterValue="0"/>
            <parameter index="1" name="mute" parameterValue="0"/>
          </component>
          <component componentGuid="c9821d12-313f-4bce-91f7-05d53afefcd5" componentID="Audition.StereoPanner" id="clipPan" name="StereoPanner" powered="true">
            <parameter index="0" name="声像" parameterValue="0">
              <parameterKeyframes enableSplines="false" readOnly="false">
                <parameterKeyframe sampleOffset="76743" select="false" type="linear" value="0.5"/>
              </parameterKeyframes>
            </parameter>
          </component>
          <fadeIn crossFadeLinkType="linkedAsymmetric" endPoint="3788" shape="19" startPoint="0" type="log"/>
          <fadeOut crossFadeLinkType="linkedAsymmetric" endPoint="51664" shape="0" startPoint="51664" type="cosine"/>
          <editParameter parameterIndex="0" slotIndex="4294967280"/>
          <editParameter parameterIndex="0" slotIndex="4294967281"/>
          <channelMap>
            <channel index="0" sourceIndex="0"/>
            <channel index="1" sourceIndex="1"/>
          </channelMap>
        </audioClip>
        <audioClip clipAutoCrossfade="true" crossFadeHeadClipID="-1" crossFadeTailClipID="24" endPoint="1742501" fileID="1" hue="-1" id="23" lockedInTime="false" looped="false" name="吉他1" offline="false" select="false" sourceInPoint="4158579" sourceOutPoint="4172552" startPoint="1728528" zOrder="38">
          <component componentGuid="b0b9b8c0-33fb-451c-be73-a6a6b8ea8c1e" componentID="Audition.Fader" id="clipGain" name="volume" powered="true">
            <parameter index="0" name="volume" parameterValue="1"/>
            <parameter index="1" name="static gain" parameterValue="1"/>
          </component>
          <component componentGuid="2b8cd901-1461-4842-91dc-20ab5d715b1e" componentID="Audition.Mute" id="clipMute" name="Mute" powered="true">
            <parameter index="0" parameterValue="0"/>
            <parameter index="1" name="mute" parameterValue="0"/>
          </component>
          <component componentGuid="2ed9dca9-ce85-4958-b864-e1527f8a8ebc" componentID="Audition.StereoPanner" id="clipPan" name="StereoPanner" powered="true">
            <parameter index="0" name="声像" parameterValue="0">
              <parameterKeyframes enableSplines="false" readOnly="false">
                <parameterKeyframe sampleOffset="76743" select="false" type="linear" value="0.5"/>
              </parameterKeyframes>
            </parameter>
          </component>
          <fadeIn crossFadeLinkType="linkedAsymmetric" endPoint="0" shape="0" startPoint="0" type="cosine"/>
          <fadeOut crossFadeLinkType="linkedAsymmetric" endPoint="13973" shape="18" startPoint="10185" type="log"/>
          <editParameter parameterIndex="0" slotIndex="4294967280"/>
          <editParameter parameterIndex="0" slotIndex="4294967281"/>
          <channelMap>
            <channel index="0" sourceIndex="0"/>
            <channel index="1" sourceIndex="1"/>
          </channelMap>
        </audioClip>
        <audioClip clipAutoCrossfade="true" crossFadeHeadClipID="23" crossFadeTailClipID="-1" endPoint="1790377" fileID="1" hue="-1" id="24" lockedInTime="false" looped="false" name="吉他1" offline="false" select="false" sourceInPoint="4158458" sourceOutPoint="4210122" startPoint="1738713" zOrder="35">
          <component componentGuid="6e858e9c-6e8b-4b0d-88ce-ca84a462c752" componentID="Audition.Fader" id="clipGain" name="volume" powered="true">
            <parameter index="0" name="volume" parameterValue="1"/>
            <parameter index="1" name="static gain" parameterValue="1"/>
          </component>
          <component componentGuid="57722ca0-8c1e-469f-8580-4aa4d1f9159c" componentID="Audition.Mute" id="clipMute" name="Mute" powered="true">
            <parameter index="0" parameterValue="0"/>
            <parameter index="1" name="mute" parameterValue="0"/>
          </component>
          <component componentGuid="8db40326-2175-439f-89f2-55310ee40089" componentID="Audition.StereoPanner" id="clipPan" name="StereoPanner" powered="true">
            <parameter index="0" name="声像" parameterValue="0">
              <parameterKeyframes enableSplines="false" readOnly="false">
                <parameterKeyframe sampleOffset="76743" select="false" type="linear" value="0.5"/>
              </parameterKeyframes>
            </parameter>
          </component>
          <fadeIn crossFadeLinkType="linkedAsymmetric" endPoint="3788" shape="19" startPoint="0" type="log"/>
          <fadeOut crossFadeLinkType="linkedAsymmetric" endPoint="51664" shape="0" startPoint="51664" type="cosine"/>
          <editParameter parameterIndex="0" slotIndex="4294967280"/>
          <editParameter parameterIndex="0" slotIndex="4294967281"/>
          <channelMap>
            <channel index="0" sourceIndex="0"/>
            <channel index="1" sourceIndex="1"/>
          </channelMap>
        </audioClip>
        <audioClip clipAutoCrossfade="true" crossFadeHeadClipID="-1" crossFadeTailClipID="26" endPoint="1825374" fileID="1" hue="-1" id="25" lockedInTime="false" looped="false" name="吉他1" offline="false" select="false" sourceInPoint="4158579" sourceOutPoint="4172552" startPoint="1811401" zOrder="45">
          <component componentGuid="05983254-8d1c-4c18-83ce-3be0fbfe2d8e" componentID="Audition.Fader" id="clipGain" name="volume" powered="true">
            <parameter index="0" name="volume" parameterValue="1"/>
            <parameter index="1" name="static gain" parameterValue="1"/>
          </component>
          <component componentGuid="3e5c7a3a-888b-43c1-9ea2-3d1227f8c7ad" componentID="Audition.Mute" id="clipMute" name="Mute" powered="true">
            <parameter index="0" parameterValue="0"/>
            <parameter index="1" name="mute" parameterValue="0"/>
          </component>
          <component componentGuid="a18c1502-166b-4ad3-8740-02c568a25d27" componentID="Audition.StereoPanner" id="clipPan" name="StereoPanner" powered="true">
            <parameter index="0" name="声像" parameterValue="0">
              <parameterKeyframes enableSplines="false" readOnly="false">
                <parameterKeyframe sampleOffset="76743" select="false" type="linear" value="0.5"/>
              </parameterKeyframes>
            </parameter>
          </component>
          <fadeIn crossFadeLinkType="linkedAsymmetric" endPoint="0" shape="0" startPoint="0" type="cosine"/>
          <fadeOut crossFadeLinkType="linkedAsymmetric" endPoint="13973" shape="18" startPoint="10185" type="log"/>
          <editParameter parameterIndex="0" slotIndex="4294967280"/>
          <editParameter parameterIndex="0" slotIndex="4294967281"/>
          <channelMap>
            <channel index="0" sourceIndex="0"/>
            <channel index="1" sourceIndex="1"/>
          </channelMap>
        </audioClip>
        <audioClip clipAutoCrossfade="true" crossFadeHeadClipID="25" crossFadeTailClipID="-1" endPoint="1873250" fileID="1" hue="-1" id="26" lockedInTime="false" looped="false" name="吉他1" offline="false" select="false" sourceInPoint="4158458" sourceOutPoint="4210122" startPoint="1821586" zOrder="41">
          <component componentGuid="a3a72521-4ac0-427d-841a-6a6d36536c2b" componentID="Audition.Fader" id="clipGain" name="volume" powered="true">
            <parameter index="0" name="volume" parameterValue="1"/>
            <parameter index="1" name="static gain" parameterValue="1"/>
          </component>
          <component componentGuid="ad2d1d86-28ce-491a-9d13-4015e26ebeb3" componentID="Audition.Mute" id="clipMute" name="Mute" powered="true">
            <parameter index="0" parameterValue="0"/>
            <parameter index="1" name="mute" parameterValue="0"/>
          </component>
          <component componentGuid="878eb17c-884a-4b52-8cbd-880feecff5f7" componentID="Audition.StereoPanner" id="clipPan" name="StereoPanner" powered="true">
            <parameter index="0" name="声像" parameterValue="0">
              <parameterKeyframes enableSplines="false" readOnly="false">
                <parameterKeyframe sampleOffset="76743" select="false" type="linear" value="0.5"/>
              </parameterKeyframes>
            </parameter>
          </component>
          <fadeIn crossFadeLinkType="linkedAsymmetric" endPoint="3788" shape="19" startPoint="0" type="log"/>
          <fadeOut crossFadeLinkType="linkedAsymmetric" endPoint="51664" shape="0" startPoint="51664" type="cosine"/>
          <editParameter parameterIndex="0" slotIndex="4294967280"/>
          <editParameter parameterIndex="0" slotIndex="4294967281"/>
          <channelMap>
            <channel index="0" sourceIndex="0"/>
            <channel index="1" sourceIndex="1"/>
          </channelMap>
        </audioClip>
        <audioClip clipAutoCrossfade="true" crossFadeHeadClipID="-1" crossFadeTailClipID="-1" endPoint="2632606" fileID="1" hue="-1" id="27" lockedInTime="false" looped="false" name="吉他1" offline="false" select="false" sourceInPoint="2057355" sourceOutPoint="2797332" startPoint="1892629" zOrder="4">
          <component componentGuid="dde6d9aa-71d1-4687-a91b-5a8b86ba9bb2" componentID="Audition.Fader" id="clipGain" name="volume" powered="true">
            <parameter index="0" name="volume" parameterValue="1"/>
            <parameter index="1" name="static gain" parameterValue="1"/>
          </component>
          <component componentGuid="ea97cca2-f0fa-4991-b011-12753c0bcce9" componentID="Audition.Mute" id="clipMute" name="Mute" powered="true">
            <parameter index="0" parameterValue="0"/>
            <parameter index="1" name="mute" parameterValue="0"/>
          </component>
          <component componentGuid="00feb3ba-9564-4522-86af-05f55d8b570e" componentID="Audition.StereoPanner" id="clipPan" name="StereoPanner" powered="true">
            <parameter index="0" name="声像" parameterValue="0">
              <parameterKeyframes enableSplines="false" readOnly="false">
                <parameterKeyframe sampleOffset="76743" select="false" type="linear" value="0.5"/>
              </parameterKeyframes>
            </parameter>
          </component>
          <fadeIn crossFadeLinkType="linkedAsymmetric" endPoint="0" shape="0" startPoint="0" type="cosine"/>
          <fadeOut crossFadeLinkType="linkedAsymmetric" endPoint="739977" shape="19" startPoint="739977" type="log"/>
          <editParameter parameterIndex="0" slotIndex="4294967280"/>
          <editParameter parameterIndex="0" slotIndex="4294967281"/>
          <channelMap>
            <channel index="0" sourceIndex="0"/>
            <channel index="1" sourceIndex="1"/>
          </channelMap>
        </audioClip>
        <audioClip clipAutoCrossfade="true" crossFadeHeadClipID="-1" crossFadeTailClipID="29" endPoint="2647717" fileID="1" hue="-1" id="28" lockedInTime="false" looped="false" name="吉他1" offline="false" select="false" sourceInPoint="4158579" sourceOutPoint="4172552" startPoint="2633744" zOrder="12">
          <component componentGuid="2b29b7de-c6d1-4247-bbc5-1710757633c5" componentID="Audition.Fader" id="clipGain" name="volume" powered="true">
            <parameter index="0" name="volume" parameterValue="1"/>
            <parameter index="1" name="static gain" parameterValue="1"/>
          </component>
          <component componentGuid="6d1f89e0-f0ef-48b9-8160-9e17e943b15d" componentID="Audition.Mute" id="clipMute" name="Mute" powered="true">
            <parameter index="0" parameterValue="0"/>
            <parameter index="1" name="mute" parameterValue="0"/>
          </component>
          <component componentGuid="c1b415c7-7119-488c-9f42-53224d48841a" componentID="Audition.StereoPanner" id="clipPan" name="StereoPanner" powered="true">
            <parameter index="0" name="声像" parameterValue="0">
              <parameterKeyframes enableSplines="false" readOnly="false">
                <parameterKeyframe sampleOffset="76743" select="false" type="linear" value="0.5"/>
              </parameterKeyframes>
            </parameter>
          </component>
          <fadeIn crossFadeLinkType="linkedAsymmetric" endPoint="0" shape="0" startPoint="0" type="cosine"/>
          <fadeOut crossFadeLinkType="linkedAsymmetric" endPoint="13973" shape="18" startPoint="10185" type="log"/>
          <editParameter parameterIndex="0" slotIndex="4294967280"/>
          <editParameter parameterIndex="0" slotIndex="4294967281"/>
          <channelMap>
            <channel index="0" sourceIndex="0"/>
            <channel index="1" sourceIndex="1"/>
          </channelMap>
        </audioClip>
        <audioClip clipAutoCrossfade="true" crossFadeHeadClipID="28" crossFadeTailClipID="-1" endPoint="2695593" fileID="1" hue="-1" id="29" lockedInTime="false" looped="false" name="吉他1" offline="false" select="false" sourceInPoint="4158458" sourceOutPoint="4210122" startPoint="2643929" zOrder="8">
          <component componentGuid="44476c55-8205-4326-9553-64270a397822" componentID="Audition.Fader" id="clipGain" name="volume" powered="true">
            <parameter index="0" name="volume" parameterValue="1"/>
            <parameter index="1" name="static gain" parameterValue="1"/>
          </component>
          <component componentGuid="3d6888ce-82a0-45b8-81cc-161cda265277" componentID="Audition.Mute" id="clipMute" name="Mute" powered="true">
            <parameter index="0" parameterValue="0"/>
            <parameter index="1" name="mute" parameterValue="0"/>
          </component>
          <component componentGuid="bbf22f28-4526-4a50-928f-dacee6cc44d7" componentID="Audition.StereoPanner" id="clipPan" name="StereoPanner" powered="true">
            <parameter index="0" name="声像" parameterValue="0">
              <parameterKeyframes enableSplines="false" readOnly="false">
                <parameterKeyframe sampleOffset="76743" select="false" type="linear" value="0.5"/>
              </parameterKeyframes>
            </parameter>
          </component>
          <fadeIn crossFadeLinkType="linkedAsymmetric" endPoint="3788" shape="19" startPoint="0" type="log"/>
          <fadeOut crossFadeLinkType="linkedAsymmetric" endPoint="51664" shape="0" startPoint="51664" type="cosine"/>
          <editParameter parameterIndex="0" slotIndex="4294967280"/>
          <editParameter parameterIndex="0" slotIndex="4294967281"/>
          <channelMap>
            <channel index="0" sourceIndex="0"/>
            <channel index="1" sourceIndex="1"/>
          </channelMap>
        </audioClip>
        <audioClip clipAutoCrossfade="true" crossFadeHeadClipID="-1" crossFadeTailClipID="31" endPoint="2731062" fileID="1" hue="-1" id="30" lockedInTime="false" looped="false" name="吉他1" offline="false" select="false" sourceInPoint="4158579" sourceOutPoint="4172552" startPoint="2717089" zOrder="20">
          <component componentGuid="88db3d86-56a7-482e-908c-daa2a7cecf93" componentID="Audition.Fader" id="clipGain" name="volume" powered="true">
            <parameter index="0" name="volume" parameterValue="1"/>
            <parameter index="1" name="static gain" parameterValue="1"/>
          </component>
          <component componentGuid="5a35db5b-fd9b-4a5f-b4f2-b8e39595bea9" componentID="Audition.Mute" id="clipMute" name="Mute" powered="true">
            <parameter index="0" parameterValue="0"/>
            <parameter index="1" name="mute" parameterValue="0"/>
          </component>
          <component componentGuid="06b3e1b0-4a3b-43b8-908a-e68495d5a187" componentID="Audition.StereoPanner" id="clipPan" name="StereoPanner" powered="true">
            <parameter index="0" name="声像" parameterValue="0">
              <parameterKeyframes enableSplines="false" readOnly="false">
                <parameterKeyframe sampleOffset="76743" select="false" type="linear" value="0.5"/>
              </parameterKeyframes>
            </parameter>
          </component>
          <fadeIn crossFadeLinkType="linkedAsymmetric" endPoint="0" shape="0" startPoint="0" type="cosine"/>
          <fadeOut crossFadeLinkType="linkedAsymmetric" endPoint="13973" shape="18" startPoint="10185" type="log"/>
          <editParameter parameterIndex="0" slotIndex="4294967280"/>
          <editParameter parameterIndex="0" slotIndex="4294967281"/>
          <channelMap>
            <channel index="0" sourceIndex="0"/>
            <channel index="1" sourceIndex="1"/>
          </channelMap>
        </audioClip>
        <audioClip clipAutoCrossfade="true" crossFadeHeadClipID="30" crossFadeTailClipID="-1" endPoint="2778938" fileID="1" hue="-1" id="31" lockedInTime="false" looped="false" name="吉他1" offline="false" select="false" sourceInPoint="4158458" sourceOutPoint="4210122" startPoint="2727274" zOrder="16">
          <component componentGuid="b643a0a0-320e-465b-8f34-e8ce9ae1373a" componentID="Audition.Fader" id="clipGain" name="volume" powered="true">
            <parameter index="0" name="volume" parameterValue="1"/>
            <parameter index="1" name="static gain" parameterValue="1"/>
          </component>
          <component componentGuid="94346745-6030-4b76-9ab8-3b3bed3dea67" componentID="Audition.Mute" id="clipMute" name="Mute" powered="true">
            <parameter index="0" parameterValue="0"/>
            <parameter index="1" name="mute" parameterValue="0"/>
          </component>
          <component componentGuid="e0348762-200e-4d7d-872a-85894b7aafd8" componentID="Audition.StereoPanner" id="clipPan" name="StereoPanner" powered="true">
            <parameter index="0" name="声像" parameterValue="0">
              <parameterKeyframes enableSplines="false" readOnly="false">
                <parameterKeyframe sampleOffset="76743" select="false" type="linear" value="0.5"/>
              </parameterKeyframes>
            </parameter>
          </component>
          <fadeIn crossFadeLinkType="linkedAsymmetric" endPoint="3788" shape="19" startPoint="0" type="log"/>
          <fadeOut crossFadeLinkType="linkedAsymmetric" endPoint="51664" shape="0" startPoint="51664" type="cosine"/>
          <editParameter parameterIndex="0" slotIndex="4294967280"/>
          <editParameter parameterIndex="0" slotIndex="4294967281"/>
          <channelMap>
            <channel index="0" sourceIndex="0"/>
            <channel index="1" sourceIndex="1"/>
          </channelMap>
        </audioClip>
        <audioClip clipAutoCrossfade="true" crossFadeHeadClipID="-1" crossFadeTailClipID="33" endPoint="2811581" fileID="1" hue="-1" id="32" lockedInTime="false" looped="false" name="吉他1" offline="false" select="false" sourceInPoint="4158579" sourceOutPoint="4172552" startPoint="2797608" zOrder="50">
          <component componentGuid="0c2746b4-207c-4e67-a2da-5a830d992ff3" componentID="Audition.Fader" id="clipGain" name="volume" powered="true">
            <parameter index="0" name="volume" parameterValue="1"/>
            <parameter index="1" name="static gain" parameterValue="1"/>
          </component>
          <component componentGuid="f1761b6a-2396-4662-9f04-cbcf57e468fe" componentID="Audition.Mute" id="clipMute" name="Mute" powered="true">
            <parameter index="0" parameterValue="0"/>
            <parameter index="1" name="mute" parameterValue="0"/>
          </component>
          <component componentGuid="f8d7c8d2-49a3-4986-8c2b-0b91253f6151" componentID="Audition.StereoPanner" id="clipPan" name="StereoPanner" powered="true">
            <parameter index="0" name="声像" parameterValue="0">
              <parameterKeyframes enableSplines="false" readOnly="false">
                <parameterKeyframe sampleOffset="76743" select="false" type="linear" value="0.5"/>
              </parameterKeyframes>
            </parameter>
          </component>
          <fadeIn crossFadeLinkType="linkedAsymmetric" endPoint="0" shape="0" startPoint="0" type="cosine"/>
          <fadeOut crossFadeLinkType="linkedAsymmetric" endPoint="13973" shape="18" startPoint="10185" type="log"/>
          <editParameter parameterIndex="0" slotIndex="4294967280"/>
          <editParameter parameterIndex="0" slotIndex="4294967281"/>
          <channelMap>
            <channel index="0" sourceIndex="0"/>
            <channel index="1" sourceIndex="1"/>
          </channelMap>
        </audioClip>
        <audioClip clipAutoCrossfade="true" crossFadeHeadClipID="32" crossFadeTailClipID="-1" endPoint="2859457" fileID="1" hue="-1" id="33" lockedInTime="false" looped="false" name="吉他1" offline="false" select="false" sourceInPoint="4158458" sourceOutPoint="4210122" startPoint="2807793" zOrder="49">
          <component componentGuid="758d66b9-21b8-42f7-b38d-b9c96029ee92" componentID="Audition.Fader" id="clipGain" name="volume" powered="true">
            <parameter index="0" name="volume" parameterValue="1"/>
            <parameter index="1" name="static gain" parameterValue="1"/>
          </component>
          <component componentGuid="b8a62d62-6ec7-4206-8e10-0891a5be8f48" componentID="Audition.Mute" id="clipMute" name="Mute" powered="true">
            <parameter index="0" parameterValue="0"/>
            <parameter index="1" name="mute" parameterValue="0"/>
          </component>
          <component componentGuid="85b130f4-1102-42f5-be6b-deb72c0351ec" componentID="Audition.StereoPanner" id="clipPan" name="StereoPanner" powered="true">
            <parameter index="0" name="声像" parameterValue="0">
              <parameterKeyframes enableSplines="false" readOnly="false">
                <parameterKeyframe sampleOffset="76743" select="false" type="linear" value="0.5"/>
              </parameterKeyframes>
            </parameter>
          </component>
          <fadeIn crossFadeLinkType="linkedAsymmetric" endPoint="3788" shape="19" startPoint="0" type="log"/>
          <fadeOut crossFadeLinkType="linkedAsymmetric" endPoint="51664" shape="0" startPoint="51664" type="cosine"/>
          <editParameter parameterIndex="0" slotIndex="4294967280"/>
          <editParameter parameterIndex="0" slotIndex="4294967281"/>
          <channelMap>
            <channel index="0" sourceIndex="0"/>
            <channel index="1" sourceIndex="1"/>
          </channelMap>
        </audioClip>
        <audioClip clipAutoCrossfade="true" crossFadeHeadClipID="-1" crossFadeTailClipID="-1" endPoint="2957696" fileID="1" hue="-1" id="34" lockedInTime="false" looped="false" name="吉他1" offline="false" select="false" sourceInPoint="1727101" sourceOutPoint="1806817" startPoint="2877980" zOrder="48">
          <component componentGuid="ab6133e6-2210-4239-b80f-92f0c01e0a98" componentID="Audition.Fader" id="clipGain" name="volume" powered="true">
            <parameter index="0" name="volume" parameterValue="1"/>
            <parameter index="1" name="static gain" parameterValue="1"/>
          </component>
          <component componentGuid="e3de073e-4064-4259-ac61-e598d0694fb4" componentID="Audition.Mute" id="clipMute" name="Mute" powered="true">
            <parameter index="0" parameterValue="0"/>
            <parameter index="1" name="mute" parameterValue="0"/>
          </component>
          <component componentGuid="03fef7ed-af01-41b3-8b51-a3b24fc56ea2" componentID="Audition.StereoPanner" id="clipPan" name="StereoPanner" powered="true">
            <parameter index="0" name="声像" parameterValue="0">
              <parameterKeyframes enableSplines="false" readOnly="false">
                <parameterKeyframe sampleOffset="76743" select="false" type="linear" value="0.5"/>
              </parameterKeyframes>
            </parameter>
          </component>
          <fadeIn crossFadeLinkType="linkedAsymmetric" endPoint="0" shape="0" startPoint="0" type="cosine"/>
          <fadeOut crossFadeLinkType="linkedAsymmetric" endPoint="79716" shape="19" startPoint="79716" type="log"/>
          <editParameter parameterIndex="0" slotIndex="4294967280"/>
          <editParameter parameterIndex="0" slotIndex="4294967281"/>
          <channelMap>
            <channel index="0" sourceIndex="0"/>
            <channel index="1" sourceIndex="1"/>
          </channelMap>
        </audioClip>
        <audioClip clipAutoCrossfade="true" crossFadeHeadClipID="-1" crossFadeTailClipID="36" endPoint="2976673" fileID="1" hue="-1" id="35" lockedInTime="false" looped="false" name="吉他1" offline="false" select="false" sourceInPoint="4158579" sourceOutPoint="4172552" startPoint="2962700" zOrder="52">
          <component componentGuid="89603351-0e8c-4d5f-aa80-6830e1d5d857" componentID="Audition.Fader" id="clipGain" name="volume" powered="true">
            <parameter index="0" name="volume" parameterValue="1"/>
            <parameter index="1" name="static gain" parameterValue="1"/>
          </component>
          <component componentGuid="170859c5-c289-4970-a293-7b04d5b5244d" componentID="Audition.Mute" id="clipMute" name="Mute" powered="true">
            <parameter index="0" parameterValue="0"/>
            <parameter index="1" name="mute" parameterValue="0"/>
          </component>
          <component componentGuid="b49a4e97-834c-481b-ba10-c3da64855e4a" componentID="Audition.StereoPanner" id="clipPan" name="StereoPanner" powered="true">
            <parameter index="0" name="声像" parameterValue="0">
              <parameterKeyframes enableSplines="false" readOnly="false">
                <parameterKeyframe sampleOffset="76743" select="false" type="linear" value="0.5"/>
              </parameterKeyframes>
            </parameter>
          </component>
          <fadeIn crossFadeLinkType="linkedAsymmetric" endPoint="0" shape="0" startPoint="0" type="cosine"/>
          <fadeOut crossFadeLinkType="linkedAsymmetric" endPoint="13973" shape="18" startPoint="10185" type="log"/>
          <editParameter parameterIndex="0" slotIndex="4294967280"/>
          <editParameter parameterIndex="0" slotIndex="4294967281"/>
          <channelMap>
            <channel index="0" sourceIndex="0"/>
            <channel index="1" sourceIndex="1"/>
          </channelMap>
        </audioClip>
        <audioClip clipAutoCrossfade="true" crossFadeHeadClipID="35" crossFadeTailClipID="-1" endPoint="3024549" fileID="1" hue="-1" id="36" lockedInTime="false" looped="false" name="吉他1" offline="false" select="false" sourceInPoint="4158458" sourceOutPoint="4210122" startPoint="2972885" zOrder="51">
          <component componentGuid="51fa2efc-9f6d-4cd0-9c4c-7858624d6bd7" componentID="Audition.Fader" id="clipGain" name="volume" powered="true">
            <parameter index="0" name="volume" parameterValue="1"/>
            <parameter index="1" name="static gain" parameterValue="1"/>
          </component>
          <component componentGuid="f1ae14a3-91a6-4e68-a8f1-ae949fddea64" componentID="Audition.Mute" id="clipMute" name="Mute" powered="true">
            <parameter index="0" parameterValue="0"/>
            <parameter index="1" name="mute" parameterValue="0"/>
          </component>
          <component componentGuid="8846e647-9327-4402-a712-380934552a2c" componentID="Audition.StereoPanner" id="clipPan" name="StereoPanner" powered="true">
            <parameter index="0" name="声像" parameterValue="0">
              <parameterKeyframes enableSplines="false" readOnly="false">
                <parameterKeyframe sampleOffset="76743" select="false" type="linear" value="0.5"/>
              </parameterKeyframes>
            </parameter>
          </component>
          <fadeIn crossFadeLinkType="linkedAsymmetric" endPoint="3788" shape="19" startPoint="0" type="log"/>
          <fadeOut crossFadeLinkType="linkedAsymmetric" endPoint="51664" shape="0" startPoint="51664" type="cosine"/>
          <editParameter parameterIndex="0" slotIndex="4294967280"/>
          <editParameter parameterIndex="0" slotIndex="4294967281"/>
          <channelMap>
            <channel index="0" sourceIndex="0"/>
            <channel index="1" sourceIndex="1"/>
          </channelMap>
        </audioClip>
        <audioClip clipAutoCrossfade="true" crossFadeHeadClipID="-1" crossFadeTailClipID="38" endPoint="3058106" fileID="1" hue="-1" id="37" lockedInTime="false" looped="false" name="吉他1" offline="false" select="false" sourceInPoint="4158579" sourceOutPoint="4172552" startPoint="3044133" zOrder="54">
          <component componentGuid="80ece5a9-05bc-453c-b9ff-94e3d6ffa8ca" componentID="Audition.Fader" id="clipGain" name="volume" powered="true">
            <parameter index="0" name="volume" parameterValue="1"/>
            <parameter index="1" name="static gain" parameterValue="1"/>
          </component>
          <component componentGuid="dfa72add-27f3-49cf-aa2b-4d7c651dc3e2" componentID="Audition.Mute" id="clipMute" name="Mute" powered="true">
            <parameter index="0" parameterValue="0"/>
            <parameter index="1" name="mute" parameterValue="0"/>
          </component>
          <component componentGuid="c85573c5-eee9-4a34-9210-70d9dd519d2f" componentID="Audition.StereoPanner" id="clipPan" name="StereoPanner" powered="true">
            <parameter index="0" name="声像" parameterValue="0">
              <parameterKeyframes enableSplines="false" readOnly="false">
                <parameterKeyframe sampleOffset="76743" select="false" type="linear" value="0.5"/>
              </parameterKeyframes>
            </parameter>
          </component>
          <fadeIn crossFadeLinkType="linkedAsymmetric" endPoint="0" shape="0" startPoint="0" type="cosine"/>
          <fadeOut crossFadeLinkType="linkedAsymmetric" endPoint="13973" shape="18" startPoint="10185" type="log"/>
          <editParameter parameterIndex="0" slotIndex="4294967280"/>
          <editParameter parameterIndex="0" slotIndex="4294967281"/>
          <channelMap>
            <channel index="0" sourceIndex="0"/>
            <channel index="1" sourceIndex="1"/>
          </channelMap>
        </audioClip>
        <audioClip clipAutoCrossfade="true" crossFadeHeadClipID="37" crossFadeTailClipID="-1" endPoint="3105982" fileID="1" hue="-1" id="38" lockedInTime="false" looped="false" name="吉他1" offline="false" select="false" sourceInPoint="4158458" sourceOutPoint="4210122" startPoint="3054318" zOrder="53">
          <component componentGuid="b0a13dac-5863-46a6-9ade-a42f715e4830" componentID="Audition.Fader" id="clipGain" name="volume" powered="true">
            <parameter index="0" name="volume" parameterValue="1"/>
            <parameter index="1" name="static gain" parameterValue="1"/>
          </component>
          <component componentGuid="d481fee1-c0b6-4b7b-9e86-2663135c1205" componentID="Audition.Mute" id="clipMute" name="Mute" powered="true">
            <parameter index="0" parameterValue="0"/>
            <parameter index="1" name="mute" parameterValue="0"/>
          </component>
          <component componentGuid="02ef1a5c-a7bb-4149-b58b-3a8cccfa713f" componentID="Audition.StereoPanner" id="clipPan" name="StereoPanner" powered="true">
            <parameter index="0" name="声像" parameterValue="0">
              <parameterKeyframes enableSplines="false" readOnly="false">
                <parameterKeyframe sampleOffset="76743" select="false" type="linear" value="0.5"/>
              </parameterKeyframes>
            </parameter>
          </component>
          <fadeIn crossFadeLinkType="linkedAsymmetric" endPoint="3788" shape="19" startPoint="0" type="log"/>
          <fadeOut crossFadeLinkType="linkedAsymmetric" endPoint="51664" shape="0" startPoint="51664" type="cosine"/>
          <editParameter parameterIndex="0" slotIndex="4294967280"/>
          <editParameter parameterIndex="0" slotIndex="4294967281"/>
          <channelMap>
            <channel index="0" sourceIndex="0"/>
            <channel index="1" sourceIndex="1"/>
          </channelMap>
        </audioClip>
        <audioClip clipAutoCrossfade="true" crossFadeHeadClipID="-1" crossFadeTailClipID="40" endPoint="3142062" fileID="1" hue="-1" id="39" lockedInTime="false" looped="false" name="吉他1" offline="false" select="false" sourceInPoint="4158579" sourceOutPoint="4172552" startPoint="3128089" zOrder="46">
          <component componentGuid="23ee402a-5e99-4f64-8d55-4e67fdb810c4" componentID="Audition.Fader" id="clipGain" name="volume" powered="true">
            <parameter index="0" name="volume" parameterValue="1"/>
            <parameter index="1" name="static gain" parameterValue="1"/>
          </component>
          <component componentGuid="7cf00801-b921-466e-93f6-622a2380c932" componentID="Audition.Mute" id="clipMute" name="Mute" powered="true">
            <parameter index="0" parameterValue="0"/>
            <parameter index="1" name="mute" parameterValue="0"/>
          </component>
          <component componentGuid="a1abd11c-1db8-4db2-9a72-835d665787db" componentID="Audition.StereoPanner" id="clipPan" name="StereoPanner" powered="true">
            <parameter index="0" name="声像" parameterValue="0">
              <parameterKeyframes enableSplines="false" readOnly="false">
                <parameterKeyframe sampleOffset="76743" select="false" type="linear" value="0.5"/>
              </parameterKeyframes>
            </parameter>
          </component>
          <fadeIn crossFadeLinkType="linkedAsymmetric" endPoint="0" shape="0" startPoint="0" type="cosine"/>
          <fadeOut crossFadeLinkType="linkedAsymmetric" endPoint="13973" shape="18" startPoint="10185" type="log"/>
          <editParameter parameterIndex="0" slotIndex="4294967280"/>
          <editParameter parameterIndex="0" slotIndex="4294967281"/>
          <channelMap>
            <channel index="0" sourceIndex="0"/>
            <channel index="1" sourceIndex="1"/>
          </channelMap>
        </audioClip>
        <audioClip clipAutoCrossfade="true" crossFadeHeadClipID="39" crossFadeTailClipID="-1" endPoint="3189938" fileID="1" hue="-1" id="40" lockedInTime="false" looped="false" name="吉他1" offline="false" select="false" sourceInPoint="4158458" sourceOutPoint="4210122" startPoint="3138274" zOrder="42">
          <component componentGuid="77d2880a-1594-4d1c-ba6b-8c0fb6199ee7" componentID="Audition.Fader" id="clipGain" name="volume" powered="true">
            <parameter index="0" name="volume" parameterValue="1"/>
            <parameter index="1" name="static gain" parameterValue="1"/>
          </component>
          <component componentGuid="7c21098b-0923-476c-8b88-5ec333cb1ae1" componentID="Audition.Mute" id="clipMute" name="Mute" powered="true">
            <parameter index="0" parameterValue="0"/>
            <parameter index="1" name="mute" parameterValue="0"/>
          </component>
          <component componentGuid="68c450f9-9f6d-4211-b48a-5ccb5207095f" componentID="Audition.StereoPanner" id="clipPan" name="StereoPanner" powered="true">
            <parameter index="0" name="声像" parameterValue="0">
              <parameterKeyframes enableSplines="false" readOnly="false">
                <parameterKeyframe sampleOffset="76743" select="false" type="linear" value="0.5"/>
              </parameterKeyframes>
            </parameter>
          </component>
          <fadeIn crossFadeLinkType="linkedAsymmetric" endPoint="3788" shape="19" startPoint="0" type="log"/>
          <fadeOut crossFadeLinkType="linkedAsymmetric" endPoint="51664" shape="0" startPoint="51664" type="cosine"/>
          <editParameter parameterIndex="0" slotIndex="4294967280"/>
          <editParameter parameterIndex="0" slotIndex="4294967281"/>
          <channelMap>
            <channel index="0" sourceIndex="0"/>
            <channel index="1" sourceIndex="1"/>
          </channelMap>
        </audioClip>
        <audioClip clipAutoCrossfade="true" crossFadeHeadClipID="-1" crossFadeTailClipID="-1" endPoint="3949294" fileID="1" hue="-1" id="41" lockedInTime="false" looped="false" name="吉他1" offline="false" select="false" sourceInPoint="2057355" sourceOutPoint="2797332" startPoint="3209317" zOrder="5">
          <component componentGuid="02ffb484-9fe8-417f-8222-365184e99198" componentID="Audition.Fader" id="clipGain" name="volume" powered="true">
            <parameter index="0" name="volume" parameterValue="1"/>
            <parameter index="1" name="static gain" parameterValue="1"/>
          </component>
          <component componentGuid="af526f4a-ef8b-45f7-b669-8f4aa2e84da3" componentID="Audition.Mute" id="clipMute" name="Mute" powered="true">
            <parameter index="0" parameterValue="0"/>
            <parameter index="1" name="mute" parameterValue="0"/>
          </component>
          <component componentGuid="85464cb2-bd3f-4b3d-919a-d06ef82db6f7" componentID="Audition.StereoPanner" id="clipPan" name="StereoPanner" powered="true">
            <parameter index="0" name="声像" parameterValue="0">
              <parameterKeyframes enableSplines="false" readOnly="false">
                <parameterKeyframe sampleOffset="76743" select="false" type="linear" value="0.5"/>
              </parameterKeyframes>
            </parameter>
          </component>
          <fadeIn crossFadeLinkType="linkedAsymmetric" endPoint="0" shape="0" startPoint="0" type="cosine"/>
          <fadeOut crossFadeLinkType="linkedAsymmetric" endPoint="739977" shape="19" startPoint="739977" type="log"/>
          <editParameter parameterIndex="0" slotIndex="4294967280"/>
          <editParameter parameterIndex="0" slotIndex="4294967281"/>
          <channelMap>
            <channel index="0" sourceIndex="0"/>
            <channel index="1" sourceIndex="1"/>
          </channelMap>
        </audioClip>
        <audioClip clipAutoCrossfade="true" crossFadeHeadClipID="-1" crossFadeTailClipID="43" endPoint="3963783" fileID="1" hue="-1" id="42" lockedInTime="false" looped="false" name="吉他1" offline="false" select="false" sourceInPoint="4158579" sourceOutPoint="4172552" startPoint="3949810" zOrder="13">
          <component componentGuid="94742fd2-f047-485e-8c82-5e9b7ef09842" componentID="Audition.Fader" id="clipGain" name="volume" powered="true">
            <parameter index="0" name="volume" parameterValue="1"/>
            <parameter index="1" name="static gain" parameterValue="1"/>
          </component>
          <component componentGuid="4de7ec6e-6ced-4416-a2d1-48a1ac4152a7" componentID="Audition.Mute" id="clipMute" name="Mute" powered="true">
            <parameter index="0" parameterValue="0"/>
            <parameter index="1" name="mute" parameterValue="0"/>
          </component>
          <component componentGuid="5cda09a9-cee0-4c40-8fb3-64a7b653e1b8" componentID="Audition.StereoPanner" id="clipPan" name="StereoPanner" powered="true">
            <parameter index="0" name="声像" parameterValue="0">
              <parameterKeyframes enableSplines="false" readOnly="false">
                <parameterKeyframe sampleOffset="76743" select="false" type="linear" value="0.5"/>
              </parameterKeyframes>
            </parameter>
          </component>
          <fadeIn crossFadeLinkType="linkedAsymmetric" endPoint="0" shape="0" startPoint="0" type="cosine"/>
          <fadeOut crossFadeLinkType="linkedAsymmetric" endPoint="13973" shape="18" startPoint="10185" type="log"/>
          <editParameter parameterIndex="0" slotIndex="4294967280"/>
          <editParameter parameterIndex="0" slotIndex="4294967281"/>
          <channelMap>
            <channel index="0" sourceIndex="0"/>
            <channel index="1" sourceIndex="1"/>
          </channelMap>
        </audioClip>
        <audioClip clipAutoCrossfade="true" crossFadeHeadClipID="42" crossFadeTailClipID="-1" endPoint="4011659" fileID="1" hue="-1" id="43" lockedInTime="false" looped="false" name="吉他1" offline="false" select="false" sourceInPoint="4158458" sourceOutPoint="4210122" startPoint="3959995" zOrder="9">
          <component componentGuid="b556eb1a-30a9-4300-86ee-f37e255c2d52" componentID="Audition.Fader" id="clipGain" name="volume" powered="true">
            <parameter index="0" name="volume" parameterValue="1"/>
            <parameter index="1" name="static gain" parameterValue="1"/>
          </component>
          <component componentGuid="f0836394-be6a-4700-899e-f7c29ed469a3" componentID="Audition.Mute" id="clipMute" name="Mute" powered="true">
            <parameter index="0" parameterValue="0"/>
            <parameter index="1" name="mute" parameterValue="0"/>
          </component>
          <component componentGuid="9d48db4b-4a6f-49cf-83c7-2c760f5f622d" componentID="Audition.StereoPanner" id="clipPan" name="StereoPanner" powered="true">
            <parameter index="0" name="声像" parameterValue="0">
              <parameterKeyframes enableSplines="false" readOnly="false">
                <parameterKeyframe sampleOffset="76743" select="false" type="linear" value="0.5"/>
              </parameterKeyframes>
            </parameter>
          </component>
          <fadeIn crossFadeLinkType="linkedAsymmetric" endPoint="3788" shape="19" startPoint="0" type="log"/>
          <fadeOut crossFadeLinkType="linkedAsymmetric" endPoint="51664" shape="0" startPoint="51664" type="cosine"/>
          <editParameter parameterIndex="0" slotIndex="4294967280"/>
          <editParameter parameterIndex="0" slotIndex="4294967281"/>
          <channelMap>
            <channel index="0" sourceIndex="0"/>
            <channel index="1" sourceIndex="1"/>
          </channelMap>
        </audioClip>
        <audioClip clipAutoCrossfade="true" crossFadeHeadClipID="-1" crossFadeTailClipID="45" endPoint="4047128" fileID="1" hue="-1" id="44" lockedInTime="false" looped="false" name="吉他1" offline="false" select="false" sourceInPoint="4158579" sourceOutPoint="4172552" startPoint="4033155" zOrder="21">
          <component componentGuid="8bfea3ce-a0eb-4025-86b2-c697a6227791" componentID="Audition.Fader" id="clipGain" name="volume" powered="true">
            <parameter index="0" name="volume" parameterValue="1"/>
            <parameter index="1" name="static gain" parameterValue="1"/>
          </component>
          <component componentGuid="928346a3-85cf-477a-88af-4e8309594677" componentID="Audition.Mute" id="clipMute" name="Mute" powered="true">
            <parameter index="0" parameterValue="0"/>
            <parameter index="1" name="mute" parameterValue="0"/>
          </component>
          <component componentGuid="0f0a2ea7-6a7b-450f-b22e-9e2c51a1218a" componentID="Audition.StereoPanner" id="clipPan" name="StereoPanner" powered="true">
            <parameter index="0" name="声像" parameterValue="0">
              <parameterKeyframes enableSplines="false" readOnly="false">
                <parameterKeyframe sampleOffset="76743" select="false" type="linear" value="0.5"/>
              </parameterKeyframes>
            </parameter>
          </component>
          <fadeIn crossFadeLinkType="linkedAsymmetric" endPoint="0" shape="0" startPoint="0" type="cosine"/>
          <fadeOut crossFadeLinkType="linkedAsymmetric" endPoint="13973" shape="18" startPoint="10185" type="log"/>
          <editParameter parameterIndex="0" slotIndex="4294967280"/>
          <editParameter parameterIndex="0" slotIndex="4294967281"/>
          <channelMap>
            <channel index="0" sourceIndex="0"/>
            <channel index="1" sourceIndex="1"/>
          </channelMap>
        </audioClip>
        <audioClip clipAutoCrossfade="true" crossFadeHeadClipID="44" crossFadeTailClipID="-1" endPoint="4095004" fileID="1" hue="-1" id="45" lockedInTime="false" looped="false" name="吉他1" offline="false" select="false" sourceInPoint="4158458" sourceOutPoint="4210122" startPoint="4043340" zOrder="17">
          <component componentGuid="5ec6da60-98ef-45bf-9c91-c0f89b340786" componentID="Audition.Fader" id="clipGain" name="volume" powered="true">
            <parameter index="0" name="volume" parameterValue="1"/>
            <parameter index="1" name="static gain" parameterValue="1"/>
          </component>
          <component componentGuid="f8498712-d488-42f1-988a-fb2bfc76d346" componentID="Audition.Mute" id="clipMute" name="Mute" powered="true">
            <parameter index="0" parameterValue="0"/>
            <parameter index="1" name="mute" parameterValue="0"/>
          </component>
          <component componentGuid="1c7d043a-6cf6-438d-95ec-2b887f26c394" componentID="Audition.StereoPanner" id="clipPan" name="StereoPanner" powered="true">
            <parameter index="0" name="声像" parameterValue="0">
              <parameterKeyframes enableSplines="false" readOnly="false">
                <parameterKeyframe sampleOffset="76743" select="false" type="linear" value="0.5"/>
              </parameterKeyframes>
            </parameter>
          </component>
          <fadeIn crossFadeLinkType="linkedAsymmetric" endPoint="3788" shape="19" startPoint="0" type="log"/>
          <fadeOut crossFadeLinkType="linkedAsymmetric" endPoint="51664" shape="0" startPoint="51664" type="cosine"/>
          <editParameter parameterIndex="0" slotIndex="4294967280"/>
          <editParameter parameterIndex="0" slotIndex="4294967281"/>
          <channelMap>
            <channel index="0" sourceIndex="0"/>
            <channel index="1" sourceIndex="1"/>
          </channelMap>
        </audioClip>
        <audioClip clipAutoCrossfade="true" crossFadeHeadClipID="-1" crossFadeTailClipID="47" endPoint="4128730" fileID="1" hue="-1" id="46" lockedInTime="false" looped="false" name="吉他1" offline="false" select="false" sourceInPoint="4158579" sourceOutPoint="4172552" startPoint="4114757" zOrder="27">
          <component componentGuid="527a5ffe-a564-4a4d-9ee2-dd73920d786f" componentID="Audition.Fader" id="clipGain" name="volume" powered="true">
            <parameter index="0" name="volume" parameterValue="1"/>
            <parameter index="1" name="static gain" parameterValue="1"/>
          </component>
          <component componentGuid="4705ed86-f029-4cba-a905-9a374f0f6de9" componentID="Audition.Mute" id="clipMute" name="Mute" powered="true">
            <parameter index="0" parameterValue="0"/>
            <parameter index="1" name="mute" parameterValue="0"/>
          </component>
          <component componentGuid="98cd8127-477d-483d-8a3e-dff5253d0360" componentID="Audition.StereoPanner" id="clipPan" name="StereoPanner" powered="true">
            <parameter index="0" name="声像" parameterValue="0">
              <parameterKeyframes enableSplines="false" readOnly="false">
                <parameterKeyframe sampleOffset="76743" select="false" type="linear" value="0.5"/>
              </parameterKeyframes>
            </parameter>
          </component>
          <fadeIn crossFadeLinkType="linkedAsymmetric" endPoint="0" shape="0" startPoint="0" type="cosine"/>
          <fadeOut crossFadeLinkType="linkedAsymmetric" endPoint="13973" shape="18" startPoint="10185" type="log"/>
          <editParameter parameterIndex="0" slotIndex="4294967280"/>
          <editParameter parameterIndex="0" slotIndex="4294967281"/>
          <channelMap>
            <channel index="0" sourceIndex="0"/>
            <channel index="1" sourceIndex="1"/>
          </channelMap>
        </audioClip>
        <audioClip clipAutoCrossfade="true" crossFadeHeadClipID="46" crossFadeTailClipID="-1" endPoint="4176606" fileID="1" hue="-1" id="47" lockedInTime="false" looped="false" name="吉他1" offline="false" select="false" sourceInPoint="4158458" sourceOutPoint="4210122" startPoint="4124942" zOrder="24">
          <component componentGuid="b4ff9ba9-6cb7-4618-b97e-db7f463acc88" componentID="Audition.Fader" id="clipGain" name="volume" powered="true">
            <parameter index="0" name="volume" parameterValue="1"/>
            <parameter index="1" name="static gain" parameterValue="1"/>
          </component>
          <component componentGuid="b40fc4cc-d941-412f-aa61-3d0af1bbd641" componentID="Audition.Mute" id="clipMute" name="Mute" powered="true">
            <parameter index="0" parameterValue="0"/>
            <parameter index="1" name="mute" parameterValue="0"/>
          </component>
          <component componentGuid="7ae81b4d-ac56-4276-a35f-c0d8cb573819" componentID="Audition.StereoPanner" id="clipPan" name="StereoPanner" powered="true">
            <parameter index="0" name="声像" parameterValue="0">
              <parameterKeyframes enableSplines="false" readOnly="false">
                <parameterKeyframe sampleOffset="76743" select="false" type="linear" value="0.5"/>
              </parameterKeyframes>
            </parameter>
          </component>
          <fadeIn crossFadeLinkType="linkedAsymmetric" endPoint="3788" shape="19" startPoint="0" type="log"/>
          <fadeOut crossFadeLinkType="linkedAsymmetric" endPoint="51664" shape="0" startPoint="51664" type="cosine"/>
          <editParameter parameterIndex="0" slotIndex="4294967280"/>
          <editParameter parameterIndex="0" slotIndex="4294967281"/>
          <channelMap>
            <channel index="0" sourceIndex="0"/>
            <channel index="1" sourceIndex="1"/>
          </channelMap>
        </audioClip>
        <audioClip clipAutoCrossfade="true" crossFadeHeadClipID="-1" crossFadeTailClipID="-1" endPoint="4274845" fileID="1" hue="-1" id="48" lockedInTime="false" looped="false" name="吉他1" offline="false" select="false" sourceInPoint="1727101" sourceOutPoint="1806817" startPoint="4195129" zOrder="2">
          <component componentGuid="000c6016-28ed-4492-950a-92749c3fa92c" componentID="Audition.Fader" id="clipGain" name="volume" powered="true">
            <parameter index="0" name="volume" parameterValue="1"/>
            <parameter index="1" name="static gain" parameterValue="1"/>
          </component>
          <component componentGuid="1884a208-01d0-4e6e-8f5e-654a59195498" componentID="Audition.Mute" id="clipMute" name="Mute" powered="true">
            <parameter index="0" parameterValue="0"/>
            <parameter index="1" name="mute" parameterValue="0"/>
          </component>
          <component componentGuid="e527665e-f5d4-4543-97f3-64870b746c5e" componentID="Audition.StereoPanner" id="clipPan" name="StereoPanner" powered="true">
            <parameter index="0" name="声像" parameterValue="0">
              <parameterKeyframes enableSplines="false" readOnly="false">
                <parameterKeyframe sampleOffset="76743" select="false" type="linear" value="0.5"/>
              </parameterKeyframes>
            </parameter>
          </component>
          <fadeIn crossFadeLinkType="linkedAsymmetric" endPoint="0" shape="0" startPoint="0" type="cosine"/>
          <fadeOut crossFadeLinkType="linkedAsymmetric" endPoint="79716" shape="19" startPoint="79716" type="log"/>
          <editParameter parameterIndex="0" slotIndex="4294967280"/>
          <editParameter parameterIndex="0" slotIndex="4294967281"/>
          <channelMap>
            <channel index="0" sourceIndex="0"/>
            <channel index="1" sourceIndex="1"/>
          </channelMap>
        </audioClip>
        <audioClip clipAutoCrossfade="true" crossFadeHeadClipID="-1" crossFadeTailClipID="50" endPoint="4293822" fileID="1" hue="-1" id="49" lockedInTime="false" looped="false" name="吉他1" offline="false" select="false" sourceInPoint="4158579" sourceOutPoint="4172552" startPoint="4279849" zOrder="33">
          <component componentGuid="9635cd3d-5056-4958-a40b-c58051706b9f" componentID="Audition.Fader" id="clipGain" name="volume" powered="true">
            <parameter index="0" name="volume" parameterValue="1"/>
            <parameter index="1" name="static gain" parameterValue="1"/>
          </component>
          <component componentGuid="70e255d8-83d1-45d0-9ab8-d18eb6cc1213" componentID="Audition.Mute" id="clipMute" name="Mute" powered="true">
            <parameter index="0" parameterValue="0"/>
            <parameter index="1" name="mute" parameterValue="0"/>
          </component>
          <component componentGuid="f5e3e54a-a381-455b-b152-0f5b05ecc872" componentID="Audition.StereoPanner" id="clipPan" name="StereoPanner" powered="true">
            <parameter index="0" name="声像" parameterValue="0">
              <parameterKeyframes enableSplines="false" readOnly="false">
                <parameterKeyframe sampleOffset="76743" select="false" type="linear" value="0.5"/>
              </parameterKeyframes>
            </parameter>
          </component>
          <fadeIn crossFadeLinkType="linkedAsymmetric" endPoint="0" shape="0" startPoint="0" type="cosine"/>
          <fadeOut crossFadeLinkType="linkedAsymmetric" endPoint="13973" shape="18" startPoint="10185" type="log"/>
          <editParameter parameterIndex="0" slotIndex="4294967280"/>
          <editParameter parameterIndex="0" slotIndex="4294967281"/>
          <channelMap>
            <channel index="0" sourceIndex="0"/>
            <channel index="1" sourceIndex="1"/>
          </channelMap>
        </audioClip>
        <audioClip clipAutoCrossfade="true" crossFadeHeadClipID="49" crossFadeTailClipID="-1" endPoint="4341698" fileID="1" hue="-1" id="50" lockedInTime="false" looped="false" name="吉他1" offline="false" select="false" sourceInPoint="4158458" sourceOutPoint="4210122" startPoint="4290034" zOrder="30">
          <component componentGuid="9b2a66f0-322c-4a5e-88e8-cdbc045b3142" componentID="Audition.Fader" id="clipGain" name="volume" powered="true">
            <parameter index="0" name="volume" parameterValue="1"/>
            <parameter index="1" name="static gain" parameterValue="1"/>
          </component>
          <component componentGuid="e4188f9b-a4e7-446b-b492-4d3a649ae981" componentID="Audition.Mute" id="clipMute" name="Mute" powered="true">
            <parameter index="0" parameterValue="0"/>
            <parameter index="1" name="mute" parameterValue="0"/>
          </component>
          <component componentGuid="e49e6909-7bbc-4431-9b08-a9653cbd441c" componentID="Audition.StereoPanner" id="clipPan" name="StereoPanner" powered="true">
            <parameter index="0" name="声像" parameterValue="0">
              <parameterKeyframes enableSplines="false" readOnly="false">
                <parameterKeyframe sampleOffset="76743" select="false" type="linear" value="0.5"/>
              </parameterKeyframes>
            </parameter>
          </component>
          <fadeIn crossFadeLinkType="linkedAsymmetric" endPoint="3788" shape="19" startPoint="0" type="log"/>
          <fadeOut crossFadeLinkType="linkedAsymmetric" endPoint="51664" shape="0" startPoint="51664" type="cosine"/>
          <editParameter parameterIndex="0" slotIndex="4294967280"/>
          <editParameter parameterIndex="0" slotIndex="4294967281"/>
          <channelMap>
            <channel index="0" sourceIndex="0"/>
            <channel index="1" sourceIndex="1"/>
          </channelMap>
        </audioClip>
        <audioClip clipAutoCrossfade="true" crossFadeHeadClipID="-1" crossFadeTailClipID="52" endPoint="4375255" fileID="1" hue="-1" id="51" lockedInTime="false" looped="false" name="吉他1" offline="false" select="false" sourceInPoint="4158579" sourceOutPoint="4172552" startPoint="4361282" zOrder="39">
          <component componentGuid="ed24af88-b6f4-4e72-8f9f-4871cc26b2b7" componentID="Audition.Fader" id="clipGain" name="volume" powered="true">
            <parameter index="0" name="volume" parameterValue="1"/>
            <parameter index="1" name="static gain" parameterValue="1"/>
          </component>
          <component componentGuid="06d8c16c-371e-44dd-8cda-f67a770a1536" componentID="Audition.Mute" id="clipMute" name="Mute" powered="true">
            <parameter index="0" parameterValue="0"/>
            <parameter index="1" name="mute" parameterValue="0"/>
          </component>
          <component componentGuid="b3c03d6b-4597-4a71-aeb4-148482483783" componentID="Audition.StereoPanner" id="clipPan" name="StereoPanner" powered="true">
            <parameter index="0" name="声像" parameterValue="0">
              <parameterKeyframes enableSplines="false" readOnly="false">
                <parameterKeyframe sampleOffset="76743" select="false" type="linear" value="0.5"/>
              </parameterKeyframes>
            </parameter>
          </component>
          <fadeIn crossFadeLinkType="linkedAsymmetric" endPoint="0" shape="0" startPoint="0" type="cosine"/>
          <fadeOut crossFadeLinkType="linkedAsymmetric" endPoint="13973" shape="18" startPoint="10185" type="log"/>
          <editParameter parameterIndex="0" slotIndex="4294967280"/>
          <editParameter parameterIndex="0" slotIndex="4294967281"/>
          <channelMap>
            <channel index="0" sourceIndex="0"/>
            <channel index="1" sourceIndex="1"/>
          </channelMap>
        </audioClip>
        <audioClip clipAutoCrossfade="true" crossFadeHeadClipID="51" crossFadeTailClipID="-1" endPoint="4423131" fileID="1" hue="-1" id="52" lockedInTime="false" looped="false" name="吉他1" offline="false" select="false" sourceInPoint="4158458" sourceOutPoint="4210122" startPoint="4371467" zOrder="36">
          <component componentGuid="4689ecb7-9a66-4f11-b9d3-bf76a190b9a7" componentID="Audition.Fader" id="clipGain" name="volume" powered="true">
            <parameter index="0" name="volume" parameterValue="1"/>
            <parameter index="1" name="static gain" parameterValue="1"/>
          </component>
          <component componentGuid="73c74922-791e-451e-a95a-f79078c29529" componentID="Audition.Mute" id="clipMute" name="Mute" powered="true">
            <parameter index="0" parameterValue="0"/>
            <parameter index="1" name="mute" parameterValue="0"/>
          </component>
          <component componentGuid="8e333edb-12d9-4dbe-88b6-4bb0c92fe12e" componentID="Audition.StereoPanner" id="clipPan" name="StereoPanner" powered="true">
            <parameter index="0" name="声像" parameterValue="0">
              <parameterKeyframes enableSplines="false" readOnly="false">
                <parameterKeyframe sampleOffset="76743" select="false" type="linear" value="0.5"/>
              </parameterKeyframes>
            </parameter>
          </component>
          <fadeIn crossFadeLinkType="linkedAsymmetric" endPoint="3788" shape="19" startPoint="0" type="log"/>
          <fadeOut crossFadeLinkType="linkedAsymmetric" endPoint="51664" shape="0" startPoint="51664" type="cosine"/>
          <editParameter parameterIndex="0" slotIndex="4294967280"/>
          <editParameter parameterIndex="0" slotIndex="4294967281"/>
          <channelMap>
            <channel index="0" sourceIndex="0"/>
            <channel index="1" sourceIndex="1"/>
          </channelMap>
        </audioClip>
        <audioClip clipAutoCrossfade="true" crossFadeHeadClipID="-1" crossFadeTailClipID="54" endPoint="4458128" fileID="1" hue="-1" id="53" lockedInTime="false" looped="false" name="吉他1" offline="false" select="false" sourceInPoint="4158579" sourceOutPoint="4172552" startPoint="4444155" zOrder="47">
          <component componentGuid="f52d48d8-d135-4a87-88dc-cb40a36cafb3" componentID="Audition.Fader" id="clipGain" name="volume" powered="true">
            <parameter index="0" name="volume" parameterValue="1"/>
            <parameter index="1" name="static gain" parameterValue="1"/>
          </component>
          <component componentGuid="10a89be8-d197-4c1a-8060-9d9ed4772725" componentID="Audition.Mute" id="clipMute" name="Mute" powered="true">
            <parameter index="0" parameterValue="0"/>
            <parameter index="1" name="mute" parameterValue="0"/>
          </component>
          <component componentGuid="25407297-44b5-4839-9d25-0d536a1f85d9" componentID="Audition.StereoPanner" id="clipPan" name="StereoPanner" powered="true">
            <parameter index="0" name="声像" parameterValue="0">
              <parameterKeyframes enableSplines="false" readOnly="false">
                <parameterKeyframe sampleOffset="76743" select="false" type="linear" value="0.5"/>
              </parameterKeyframes>
            </parameter>
          </component>
          <fadeIn crossFadeLinkType="linkedAsymmetric" endPoint="0" shape="0" startPoint="0" type="cosine"/>
          <fadeOut crossFadeLinkType="linkedAsymmetric" endPoint="13973" shape="18" startPoint="10185" type="log"/>
          <editParameter parameterIndex="0" slotIndex="4294967280"/>
          <editParameter parameterIndex="0" slotIndex="4294967281"/>
          <channelMap>
            <channel index="0" sourceIndex="0"/>
            <channel index="1" sourceIndex="1"/>
          </channelMap>
        </audioClip>
        <audioClip clipAutoCrossfade="true" crossFadeHeadClipID="53" crossFadeTailClipID="-1" endPoint="4506004" fileID="1" hue="-1" id="54" lockedInTime="false" looped="false" name="吉他1" offline="false" select="false" sourceInPoint="4158458" sourceOutPoint="4210122" startPoint="4454340" zOrder="43">
          <component componentGuid="c8bbc237-38ad-46c4-8c12-b2db09b80c84" componentID="Audition.Fader" id="clipGain" name="volume" powered="true">
            <parameter index="0" name="volume" parameterValue="1"/>
            <parameter index="1" name="static gain" parameterValue="1"/>
          </component>
          <component componentGuid="d425a38f-ad86-4eea-8a8d-64ba1fd31b49" componentID="Audition.Mute" id="clipMute" name="Mute" powered="true">
            <parameter index="0" parameterValue="0"/>
            <parameter index="1" name="mute" parameterValue="0"/>
          </component>
          <component componentGuid="833325ea-02f5-4959-83b9-a7d80a064f9a" componentID="Audition.StereoPanner" id="clipPan" name="StereoPanner" powered="true">
            <parameter index="0" name="声像" parameterValue="0">
              <parameterKeyframes enableSplines="false" readOnly="false">
                <parameterKeyframe sampleOffset="76743" select="false" type="linear" value="0.5"/>
              </parameterKeyframes>
            </parameter>
          </component>
          <fadeIn crossFadeLinkType="linkedAsymmetric" endPoint="3788" shape="19" startPoint="0" type="log"/>
          <fadeOut crossFadeLinkType="linkedAsymmetric" endPoint="51664" shape="0" startPoint="51664" type="cosine"/>
          <editParameter parameterIndex="0" slotIndex="4294967280"/>
          <editParameter parameterIndex="0" slotIndex="4294967281"/>
          <channelMap>
            <channel index="0" sourceIndex="0"/>
            <channel index="1" sourceIndex="1"/>
          </channelMap>
        </audioClip>
        <audioClip clipAutoCrossfade="true" crossFadeHeadClipID="-1" crossFadeTailClipID="-1" endPoint="5292056" fileID="1" hue="-1" id="55" lockedInTime="false" looped="false" name="吉他1" offline="false" select="false" sourceInPoint="2057355" sourceOutPoint="2824028" startPoint="4525383" zOrder="55">
          <component componentGuid="6ff3a51b-8e36-4621-bf5b-ae7ac9402cff" componentID="Audition.Fader" id="clipGain" name="volume" powered="true">
            <parameter index="0" name="volume" parameterValue="1"/>
            <parameter index="1" name="static gain" parameterValue="1"/>
          </component>
          <component componentGuid="599f60cc-76cc-4706-9705-520ffef3ead2" componentID="Audition.Mute" id="clipMute" name="Mute" powered="true">
            <parameter index="0" parameterValue="0"/>
            <parameter index="1" name="mute" parameterValue="0"/>
          </component>
          <component componentGuid="69ce4f88-5f74-4880-8ed2-b0908bfb450c" componentID="Audition.StereoPanner" id="clipPan" name="StereoPanner" powered="true">
            <parameter index="0" name="声像" parameterValue="0">
              <parameterKeyframes enableSplines="false" readOnly="false">
                <parameterKeyframe sampleOffset="76743" select="false" type="linear" value="0.5"/>
              </parameterKeyframes>
            </parameter>
          </component>
          <fadeIn crossFadeLinkType="linkedAsymmetric" endPoint="0" shape="0" startPoint="0" type="cosine"/>
          <fadeOut crossFadeLinkType="linkedAsymmetric" endPoint="766673" shape="19" startPoint="766673" type="log"/>
          <editParameter parameterIndex="0" slotIndex="4294967280"/>
          <editParameter parameterIndex="0" slotIndex="4294967281"/>
          <channelMap>
            <channel index="0" sourceIndex="0"/>
            <channel index="1" sourceIndex="1"/>
          </channelMap>
        </audioClip>
      </audioTrack>
      <audioTrack automationLaneOpenState="false" id="10005" index="3" select="false" visible="true">
        <trackParameters trackHeight="104" trackHue="294" trackMinimized="false">
          <name>手风琴</name>
        </trackParameters>
        <trackAudioParameters audioChannelType="stereo" automationMode="1" monitoring="false" recordArmed="false" solo="false" soloSafe="false">
          <trackOutput outputID="10000" type="trackID"/>
          <trackInput inputID="1"/>
          <component componentGuid="290a017f-eaf4-45ff-85ec-0b6c321461df" componentID="Audition.Fader" id="trackFader" name="volume" powered="true">
            <parameter index="0" name="volume" parameterValue="1.9952619075775146484375"/>
            <parameter index="1" name="static gain" parameterValue="1"/>
          </component>
          <component componentGuid="1f1540c9-50a0-409e-9ee0-a2c13a35fff0" componentID="Audition.Mute" id="trackMute" name="Mute" powered="true">
            <parameter index="0" parameterValue="0"/>
            <parameter index="1" name="mute" parameterValue="0"/>
          </component>
          <component componentGuid="792cde64-7973-4d77-9daa-32eeb6cab921" componentID="Audition.StereoPanner" id="trackPan" name="StereoPanner" powered="true">
            <parameter index="0" name="声像" parameterValue="0"/>
          </component>
          <component componentGuid="8c5fa70f-5877-4812-aec0-1825acc18d4b" componentID="Audition.EQ" id="trackEQ" name="EQ" powered="false">
            <parameter index="0" name="下限频率" parameterValue="0.000834028352983295917510986328125"/>
            <parameter index="1" name="下限增益" parameterValue="0.5"/>
            <parameter index="2" name="上限频率" parameterValue="0.74979150295257568359375"/>
            <parameter index="3" name="上限频率增益" parameterValue="0.5"/>
            <parameter index="4" name="EQ 频段 1 中置频率" parameterValue="0.00125104258768260478973388671875"/>
            <parameter index="5" name="EQ 频段 1 Q" parameterValue="0.000199989997781813144683837890625"/>
            <parameter index="6" name="EQ 频段 1 增益" parameterValue="0.5"/>
            <parameter index="7" name="EQ 频段 1 启用" parameterValue="1"/>
            <parameter index="8" name="EQ 频段 2 中置频率" parameterValue="0.0075062550604343414306640625"/>
            <parameter index="9" name="EQ 频段 2 Q" parameterValue="0.000199989997781813144683837890625"/>
            <parameter index="10" name="EQ 频段 2 增益" parameterValue="0.5"/>
            <parameter index="11" name="EQ 频段 2 启用" parameterValue="1"/>
            <parameter index="12" name="EQ 频段 3 中置频率" parameterValue="0.0325271077454090118408203125"/>
            <parameter index="13" name="EQ 频段 3 Q" parameterValue="0.000199989997781813144683837890625"/>
            <parameter index="14" name="EQ 频段 3 增益" parameterValue="0.5"/>
            <parameter index="15" name="EQ 频段 3 启用" parameterValue="1"/>
            <parameter index="16" name="EQ 频段 4 中置频率" parameterValue="0.13261051476001739501953125"/>
            <parameter index="17" name="EQ 频段 4 Q" parameterValue="0.000199989997781813144683837890625"/>
            <parameter index="18" name="EQ 频段 4 增益" parameterValue="0.5"/>
            <parameter index="19" name="EQ 频段 4 启用" parameterValue="1"/>
            <parameter index="20" name="EQ 频段 5 中置频率" parameterValue="0.532944142818450927734375"/>
            <parameter index="21" name="EQ 频段 5 Q" parameterValue="0.000199989997781813144683837890625"/>
            <parameter index="22" name="EQ 频段 5 增益" parameterValue="0.5"/>
            <parameter index="23" name="EQ 频段 5 启用" parameterValue="1"/>
            <parameter index="24" name="主控增益" parameterValue="0.666666686534881591796875"/>
            <parameter index="25" name="恒定 Q" parameterValue="1"/>
            <parameter index="26" name="下限滤镜顺序" parameterValue="0"/>
            <parameter index="27" name="上限频率滤镜顺序" parameterValue="0"/>
            <parameter index="28" name="超静音模式" parameterValue="0"/>
            <parameter index="29" name="下限启用" parameterValue="1"/>
            <parameter index="30" name="上限频率启用" parameterValue="1"/>
            <parameter index="31" name="原始采样率" parameterValue="0.25"/>
            <parameter index="32" name="EQ 频段 1 频带宽" parameterValue="0.002499990165233612060546875"/>
            <parameter index="33" name="EQ 频段 2 频段宽度" parameterValue="0.0099999904632568359375"/>
            <parameter index="34" name="EQ 频段 3 频段宽度" parameterValue="0.0399999916553497314453125"/>
            <parameter index="35" name="EQ 频段 4 频段宽度" parameterValue="0.15999998152256011962890625"/>
            <parameter index="36" name="EQ 频段 5 频段宽度" parameterValue="0.63999998569488525390625"/>
            <parameter index="37" name="高通滤波启用" parameterValue="0"/>
            <parameter index="38" name="高通切除频率" parameterValue="0"/>
            <parameter index="39" name="高通斜率" parameterValue="0.4000000059604644775390625"/>
            <parameter index="40" name="低通滤波启用" parameterValue="0"/>
            <parameter index="41" name="低通切除频率" parameterValue="0.833194315433502197265625"/>
            <parameter index="42" name="低通斜率" parameterValue="0.4000000059604644775390625"/>
            <parameter index="43" name="不使用" parameterValue="0"/>
            <parameter index="44" name="下限图示范围" parameterValue="1"/>
          </component>
        </trackAudioParameters>
        <effectsRack preFader="true">
          <component componentGuid="60fbf1ac-68fb-4cb8-8f70-6ca81490e1cf" componentID="Audition.ComponentGroup" id="rackMix" powered="true">
            <parameter index="0" parameterValue="0"/>
            <parameter index="1" parameterValue="0"/>
          </component>
          <component componentGuid="63988b4a-68f0-4845-b157-c7aec59a51e6" id="rackInput" powered="true">
            <parameter index="0" parameterValue="1"/>
            <parameter index="1" parameterValue="0"/>
          </component>
          <component componentGuid="0535653e-eda9-4d08-ba20-96ac1c8c95a0" id="rackOutput" powered="true">
            <parameter index="0" parameterValue="1"/>
            <parameter index="1" parameterValue="0"/>
          </component>
          <slot powered="true" slotIndex="0">
            <component componentGuid="075263d6-8080-4be6-a7ab-d113ed06a29e" componentID="2:1314080851 WaveShell1-VST 10.0_x64" editorHeight="523" editorLeft="-1245" editorTop="259" editorWidth="570" name="S1 Imager Stereo" presetName="（自定义）">
              <busConfig><![CDATA[{"in":[{"layout":[100,101],"name":"Stereo In","type":0}],"out":[{"layout":[100,101],"name":"Stereo Out","type":0}]}]]></busConfig>
              <channelMap direction="input">
                <channel index="0" sourceIndex="0"/>
                <channel index="1" sourceIndex="1"/>
              </channelMap>
              <channelMap direction="output">
                <channel index="0" sourceIndex="0"/>
                <channel index="1" sourceIndex="1"/>
              </channelMap>
              <presetChunkData><![CDATA[AAADAwAAAAMAAAABTlNIU3NldEEAAALjWFBzdDxQcmVzZXRDaHVua1hNTFRyZWUgdmVyc2lvbj0iMiI+CiAgICA8UHJlc2V0IE5hbWU9IiIgR2VuZXJpY1R5cGU9IlNIVUYiPgogICAgICAgIDxQcmVzZXRIZWFkZXI+CiAgICAgICAgICAgIDxQbHVnaW5OYW1lPlMxIEltYWdlcjwvUGx1Z2luTmFtZT4KICAgICAgICAgICAgPFBsdWdpblN1YkNvbXA+TlNIUzwvUGx1Z2luU3ViQ29tcD4KICAgICAgICAgICAgPFBsdWdpblZlcnNpb24+MTAuMC4wLjE2PC9QbHVnaW5WZXJzaW9uPgogICAgICAgICAgICA8QWN0aXZlU2V0dXA+U0VUVVBfQTwvQWN0aXZlU2V0dXA+CiAgICAgICAgICAgIDxSZWFkT25seT50cnVlPC9SZWFkT25seT4KICAgICAgICA8L1ByZXNldEhlYWRlcj4KICAgICAgICA8UHJlc2V0RGF0YSBTZXR1cD0iU0VUVVBfQSI+CiAgICAgICAgICAgIDxQYXJhbWV0ZXJzIFR5cGU9IlJlYWxXb3JsZCI+LTUuOTAwMDAwMDAwMDAwMDAwMzU1MyAwLjM5MDAwMDAwMDAwMDAwMDAxMzMyIDEgNjUwIC0yMCAtNDAgKiAqICogKgoqIDAgMCAwIDAgMCAwIDAgPC9QYXJhbWV0ZXJzPgogICAgICAgIDwvUHJlc2V0RGF0YT4KICAgICAgICA8UHJlc2V0RGF0YSBTZXR1cD0iU0VUVVBfQiI+CiAgICAgICAgICAgIDxQYXJhbWV0ZXJzIFR5cGU9IlJlYWxXb3JsZCI+MCAxIDEgNjUwIDAgMCAqICogKiAqCiogMCAwIDAgMCAwIDAgMCA8L1BhcmFtZXRlcnM+CiAgICAgICAgPC9QcmVzZXREYXRhPgogICAgPC9QcmVzZXQ+CjwvUHJlc2V0Q2h1bmtYTUxUcmVlPgoAIPSv]]></presetChunkData>
            </component>
          </slot>
        </effectsRack>
        <editParameter parameterIndex="0" slotIndex="4294967280"/>
        <audioClip clipAutoCrossfade="true" crossFadeHeadClipID="-1" crossFadeTailClipID="-1" endPoint="81279" fileID="2" hue="-1" id="0" lockedInTime="false" looped="false" name="手风琴" offline="false" select="false" sourceInPoint="1482660" sourceOutPoint="1563939" startPoint="0" zOrder="0">
          <component componentGuid="fce9eb51-83a3-4974-b127-dba70b96164d" componentID="Audition.Fader" id="clipGain" name="volume" powered="true">
            <parameter index="0" name="volume" parameterValue="1"/>
            <parameter index="1" name="static gain" parameterValue="1"/>
          </component>
          <component componentGuid="b568d0e1-9b6d-4d91-95bd-485529ac5779" componentID="Audition.Mute" id="clipMute" name="Mute" powered="true">
            <parameter index="0" parameterValue="0"/>
            <parameter index="1" name="mute" parameterValue="0"/>
          </component>
          <component componentGuid="c10a1224-7cca-4b70-a8e0-62a369a8d721" componentID="Audition.StereoPanner" id="clipPan" name="StereoPanner" powered="true">
            <parameter index="0" name="声像" parameterValue="0"/>
          </component>
          <fadeIn crossFadeLinkType="linkedAsymmetric" endPoint="0" shape="0" startPoint="0" type="cosine"/>
          <fadeOut crossFadeLinkType="linkedAsymmetric" endPoint="81279" shape="19" startPoint="81279" type="log"/>
          <editParameter parameterIndex="0" slotIndex="4294967280"/>
          <editParameter parameterIndex="0" slotIndex="4294967281"/>
          <channelMap>
            <channel index="0" sourceIndex="0"/>
            <channel index="1" sourceIndex="1"/>
          </channelMap>
        </audioClip>
        <audioClip clipAutoCrossfade="true" crossFadeHeadClipID="-1" crossFadeTailClipID="-1" endPoint="553860" fileID="2" hue="-1" id="1" lockedInTime="false" looped="false" name="手风琴" offline="false" select="false" sourceInPoint="1563939" sourceOutPoint="2035134" startPoint="82665" zOrder="4">
          <component componentGuid="4227e936-520a-4b75-af3e-d94a54b22352" componentID="Audition.Fader" id="clipGain" name="volume" powered="true">
            <parameter index="0" name="volume" parameterValue="1"/>
            <parameter index="1" name="static gain" parameterValue="1"/>
          </component>
          <component componentGuid="d1943f60-3d9a-41ee-9c0d-015c4502c32e" componentID="Audition.Mute" id="clipMute" name="Mute" powered="true">
            <parameter index="0" parameterValue="0"/>
            <parameter index="1" name="mute" parameterValue="0"/>
          </component>
          <component componentGuid="966e9b7e-0bf8-4d70-b47f-a8b833e088ad" componentID="Audition.StereoPanner" id="clipPan" name="StereoPanner" powered="true">
            <parameter index="0" name="声像" parameterValue="0"/>
          </component>
          <fadeIn crossFadeLinkType="linkedAsymmetric" endPoint="0" shape="0" startPoint="0" type="cosine"/>
          <fadeOut crossFadeLinkType="linkedAsymmetric" endPoint="471195" shape="19" startPoint="471195" type="log"/>
          <editParameter parameterIndex="0" slotIndex="4294967280"/>
          <editParameter parameterIndex="0" slotIndex="4294967281"/>
          <channelMap>
            <channel index="0" sourceIndex="0"/>
            <channel index="1" sourceIndex="1"/>
          </channelMap>
        </audioClip>
        <audioClip clipAutoCrossfade="true" crossFadeHeadClipID="-1" crossFadeTailClipID="-1" endPoint="1312808" fileID="2" hue="-1" id="2" lockedInTime="false" looped="false" name="手风琴" offline="false" select="false" sourceInPoint="2047455" sourceOutPoint="2796894" startPoint="563369" zOrder="8">
          <component componentGuid="6fbd4d8d-a3a6-4bdb-935e-b170b0948060" componentID="Audition.Fader" id="clipGain" name="volume" powered="true">
            <parameter index="0" name="volume" parameterValue="1"/>
            <parameter index="1" name="static gain" parameterValue="1"/>
          </component>
          <component componentGuid="a77a952e-3b35-4798-95b6-03bc9cc80cac" componentID="Audition.Mute" id="clipMute" name="Mute" powered="true">
            <parameter index="0" parameterValue="0"/>
            <parameter index="1" name="mute" parameterValue="0"/>
          </component>
          <component componentGuid="0291cf92-74d9-4668-ab8a-7186818d15dc" componentID="Audition.StereoPanner" id="clipPan" name="StereoPanner" powered="true">
            <parameter index="0" name="声像" parameterValue="0"/>
          </component>
          <fadeIn crossFadeLinkType="linkedAsymmetric" endPoint="0" shape="0" startPoint="0" type="cosine"/>
          <fadeOut crossFadeLinkType="linkedAsymmetric" endPoint="749439" shape="19" startPoint="749439" type="log"/>
          <editParameter parameterIndex="0" slotIndex="4294967281"/>
          <editParameter parameterIndex="0" slotIndex="4294967280"/>
          <channelMap>
            <channel index="0" sourceIndex="0"/>
            <channel index="1" sourceIndex="1"/>
          </channelMap>
        </audioClip>
        <audioClip clipAutoCrossfade="true" crossFadeHeadClipID="-1" crossFadeTailClipID="-1" endPoint="1398335" fileID="2" hue="-1" id="3" lockedInTime="false" looped="false" name="手风琴" offline="false" select="false" sourceInPoint="1482660" sourceOutPoint="1563939" startPoint="1317056" zOrder="1">
          <component componentGuid="09fab121-1add-4f4b-b468-02bbf851390b" componentID="Audition.Fader" id="clipGain" name="volume" powered="true">
            <parameter index="0" name="volume" parameterValue="1"/>
            <parameter index="1" name="static gain" parameterValue="1"/>
          </component>
          <component componentGuid="0657ce83-9f3c-49c2-9aff-568c025ef25e" componentID="Audition.Mute" id="clipMute" name="Mute" powered="true">
            <parameter index="0" parameterValue="0"/>
            <parameter index="1" name="mute" parameterValue="0"/>
          </component>
          <component componentGuid="6fa6a0d4-a9ee-441c-9389-8cf0e92649d8" componentID="Audition.StereoPanner" id="clipPan" name="StereoPanner" powered="true">
            <parameter index="0" name="声像" parameterValue="0"/>
          </component>
          <fadeIn crossFadeLinkType="linkedAsymmetric" endPoint="0" shape="0" startPoint="0" type="cosine"/>
          <fadeOut crossFadeLinkType="linkedAsymmetric" endPoint="81279" shape="19" startPoint="81279" type="log"/>
          <editParameter parameterIndex="0" slotIndex="4294967280"/>
          <editParameter parameterIndex="0" slotIndex="4294967281"/>
          <channelMap>
            <channel index="0" sourceIndex="0"/>
            <channel index="1" sourceIndex="1"/>
          </channelMap>
        </audioClip>
        <audioClip clipAutoCrossfade="true" crossFadeHeadClipID="-1" crossFadeTailClipID="-1" endPoint="1870916" fileID="2" hue="-1" id="4" lockedInTime="false" looped="false" name="手风琴" offline="false" select="false" sourceInPoint="1563939" sourceOutPoint="2035134" startPoint="1399721" zOrder="5">
          <component componentGuid="466b83b6-275b-45e0-9d14-fed4165d9964" componentID="Audition.Fader" id="clipGain" name="volume" powered="true">
            <parameter index="0" name="volume" parameterValue="1"/>
            <parameter index="1" name="static gain" parameterValue="1"/>
          </component>
          <component componentGuid="bb8ec5a5-8d58-4cff-9ca9-7b3f55c8a865" componentID="Audition.Mute" id="clipMute" name="Mute" powered="true">
            <parameter index="0" parameterValue="0"/>
            <parameter index="1" name="mute" parameterValue="0"/>
          </component>
          <component componentGuid="42addb76-979e-40ff-bc9e-0341828a6eba" componentID="Audition.StereoPanner" id="clipPan" name="StereoPanner" powered="true">
            <parameter index="0" name="声像" parameterValue="0"/>
          </component>
          <fadeIn crossFadeLinkType="linkedAsymmetric" endPoint="0" shape="0" startPoint="0" type="cosine"/>
          <fadeOut crossFadeLinkType="linkedAsymmetric" endPoint="471195" shape="19" startPoint="471195" type="log"/>
          <editParameter parameterIndex="0" slotIndex="4294967280"/>
          <editParameter parameterIndex="0" slotIndex="4294967281"/>
          <channelMap>
            <channel index="0" sourceIndex="0"/>
            <channel index="1" sourceIndex="1"/>
          </channelMap>
        </audioClip>
        <audioClip clipAutoCrossfade="true" crossFadeHeadClipID="-1" crossFadeTailClipID="-1" endPoint="2629864" fileID="2" hue="-1" id="5" lockedInTime="false" looped="false" name="手风琴" offline="false" select="false" sourceInPoint="2047455" sourceOutPoint="2796894" startPoint="1880425" zOrder="9">
          <component componentGuid="daaab4c1-cbfb-478a-b230-ea39a4e23e08" componentID="Audition.Fader" id="clipGain" name="volume" powered="true">
            <parameter index="0" name="volume" parameterValue="1"/>
            <parameter index="1" name="static gain" parameterValue="1"/>
          </component>
          <component componentGuid="c719d769-4c59-4ea7-8aaf-421db5cc26ed" componentID="Audition.Mute" id="clipMute" name="Mute" powered="true">
            <parameter index="0" parameterValue="0"/>
            <parameter index="1" name="mute" parameterValue="0"/>
          </component>
          <component componentGuid="2c059812-75d0-4457-acf6-8953baec48f9" componentID="Audition.StereoPanner" id="clipPan" name="StereoPanner" powered="true">
            <parameter index="0" name="声像" parameterValue="0"/>
          </component>
          <fadeIn crossFadeLinkType="linkedAsymmetric" endPoint="0" shape="0" startPoint="0" type="cosine"/>
          <fadeOut crossFadeLinkType="linkedAsymmetric" endPoint="749439" shape="19" startPoint="749439" type="log"/>
          <editParameter parameterIndex="0" slotIndex="4294967281"/>
          <editParameter parameterIndex="0" slotIndex="4294967280"/>
          <channelMap>
            <channel index="0" sourceIndex="0"/>
            <channel index="1" sourceIndex="1"/>
          </channelMap>
        </audioClip>
        <audioClip clipAutoCrossfade="true" crossFadeHeadClipID="-1" crossFadeTailClipID="-1" endPoint="2715023" fileID="2" hue="-1" id="6" lockedInTime="false" looped="false" name="手风琴" offline="false" select="false" sourceInPoint="1482660" sourceOutPoint="1563939" startPoint="2633744" zOrder="2">
          <component componentGuid="45c2da04-aabc-46fc-ae05-d1234482a613" componentID="Audition.Fader" id="clipGain" name="volume" powered="true">
            <parameter index="0" name="volume" parameterValue="1"/>
            <parameter index="1" name="static gain" parameterValue="1"/>
          </component>
          <component componentGuid="3ca694ea-dcf1-49d5-bf22-00cc4b952725" componentID="Audition.Mute" id="clipMute" name="Mute" powered="true">
            <parameter index="0" parameterValue="0"/>
            <parameter index="1" name="mute" parameterValue="0"/>
          </component>
          <component componentGuid="0d0746eb-cad5-42c1-aead-5ea539190da9" componentID="Audition.StereoPanner" id="clipPan" name="StereoPanner" powered="true">
            <parameter index="0" name="声像" parameterValue="0"/>
          </component>
          <fadeIn crossFadeLinkType="linkedAsymmetric" endPoint="0" shape="0" startPoint="0" type="cosine"/>
          <fadeOut crossFadeLinkType="linkedAsymmetric" endPoint="81279" shape="19" startPoint="81279" type="log"/>
          <editParameter parameterIndex="0" slotIndex="4294967280"/>
          <editParameter parameterIndex="0" slotIndex="4294967281"/>
          <channelMap>
            <channel index="0" sourceIndex="0"/>
            <channel index="1" sourceIndex="1"/>
          </channelMap>
        </audioClip>
        <audioClip clipAutoCrossfade="true" crossFadeHeadClipID="-1" crossFadeTailClipID="-1" endPoint="3187604" fileID="2" hue="-1" id="7" lockedInTime="false" looped="false" name="手风琴" offline="false" select="false" sourceInPoint="1563939" sourceOutPoint="2035134" startPoint="2716409" zOrder="6">
          <component componentGuid="c7f18634-4e5e-4447-988a-69a46c2bec8d" componentID="Audition.Fader" id="clipGain" name="volume" powered="true">
            <parameter index="0" name="volume" parameterValue="1"/>
            <parameter index="1" name="static gain" parameterValue="1"/>
          </component>
          <component componentGuid="e6cb9524-d253-4682-9f02-173cb6f04ab6" componentID="Audition.Mute" id="clipMute" name="Mute" powered="true">
            <parameter index="0" parameterValue="0"/>
            <parameter index="1" name="mute" parameterValue="0"/>
          </component>
          <component componentGuid="7700702f-479c-49a8-bd0d-0b5ebafd57b9" componentID="Audition.StereoPanner" id="clipPan" name="StereoPanner" powered="true">
            <parameter index="0" name="声像" parameterValue="0"/>
          </component>
          <fadeIn crossFadeLinkType="linkedAsymmetric" endPoint="0" shape="0" startPoint="0" type="cosine"/>
          <fadeOut crossFadeLinkType="linkedAsymmetric" endPoint="471195" shape="19" startPoint="471195" type="log"/>
          <editParameter parameterIndex="0" slotIndex="4294967280"/>
          <editParameter parameterIndex="0" slotIndex="4294967281"/>
          <channelMap>
            <channel index="0" sourceIndex="0"/>
            <channel index="1" sourceIndex="1"/>
          </channelMap>
        </audioClip>
        <audioClip clipAutoCrossfade="true" crossFadeHeadClipID="-1" crossFadeTailClipID="-1" endPoint="3946552" fileID="2" hue="-1" id="8" lockedInTime="false" looped="false" name="手风琴" offline="false" select="false" sourceInPoint="2047455" sourceOutPoint="2796894" startPoint="3197113" zOrder="10">
          <component componentGuid="667de966-2f32-4dbe-ae4a-a6f74bada326" componentID="Audition.Fader" id="clipGain" name="volume" powered="true">
            <parameter index="0" name="volume" parameterValue="1"/>
            <parameter index="1" name="static gain" parameterValue="1"/>
          </component>
          <component componentGuid="17cd60d7-45a0-48d6-a38f-19a577f5515f" componentID="Audition.Mute" id="clipMute" name="Mute" powered="true">
            <parameter index="0" parameterValue="0"/>
            <parameter index="1" name="mute" parameterValue="0"/>
          </component>
          <component componentGuid="5a81b63c-5dde-47f0-af72-85e301aa8ab3" componentID="Audition.StereoPanner" id="clipPan" name="StereoPanner" powered="true">
            <parameter index="0" name="声像" parameterValue="0"/>
          </component>
          <fadeIn crossFadeLinkType="linkedAsymmetric" endPoint="0" shape="0" startPoint="0" type="cosine"/>
          <fadeOut crossFadeLinkType="linkedAsymmetric" endPoint="749439" shape="19" startPoint="749439" type="log"/>
          <editParameter parameterIndex="0" slotIndex="4294967281"/>
          <editParameter parameterIndex="0" slotIndex="4294967280"/>
          <channelMap>
            <channel index="0" sourceIndex="0"/>
            <channel index="1" sourceIndex="1"/>
          </channelMap>
        </audioClip>
        <audioClip clipAutoCrossfade="true" crossFadeHeadClipID="-1" crossFadeTailClipID="-1" endPoint="4031089" fileID="2" hue="-1" id="9" lockedInTime="false" looped="false" name="手风琴" offline="false" select="false" sourceInPoint="1482660" sourceOutPoint="1563939" startPoint="3949810" zOrder="3">
          <component componentGuid="c39776c6-625a-4f9c-bbb7-ed50b7a35fc9" componentID="Audition.Fader" id="clipGain" name="volume" powered="true">
            <parameter index="0" name="volume" parameterValue="1"/>
            <parameter index="1" name="static gain" parameterValue="1"/>
          </component>
          <component componentGuid="50431050-eecb-400f-985a-e6ee84daf89b" componentID="Audition.Mute" id="clipMute" name="Mute" powered="true">
            <parameter index="0" parameterValue="0"/>
            <parameter index="1" name="mute" parameterValue="0"/>
          </component>
          <component componentGuid="cfbad024-05ec-4b24-a050-06b5045622fc" componentID="Audition.StereoPanner" id="clipPan" name="StereoPanner" powered="true">
            <parameter index="0" name="声像" parameterValue="0"/>
          </component>
          <fadeIn crossFadeLinkType="linkedAsymmetric" endPoint="0" shape="0" startPoint="0" type="cosine"/>
          <fadeOut crossFadeLinkType="linkedAsymmetric" endPoint="81279" shape="19" startPoint="81279" type="log"/>
          <editParameter parameterIndex="0" slotIndex="4294967280"/>
          <editParameter parameterIndex="0" slotIndex="4294967281"/>
          <channelMap>
            <channel index="0" sourceIndex="0"/>
            <channel index="1" sourceIndex="1"/>
          </channelMap>
        </audioClip>
        <audioClip clipAutoCrossfade="true" crossFadeHeadClipID="-1" crossFadeTailClipID="-1" endPoint="4503670" fileID="2" hue="-1" id="10" lockedInTime="false" looped="false" name="手风琴" offline="false" select="false" sourceInPoint="1563939" sourceOutPoint="2035134" startPoint="4032475" zOrder="7">
          <component componentGuid="7e791350-32ee-4296-b98b-94cde75f0c08" componentID="Audition.Fader" id="clipGain" name="volume" powered="true">
            <parameter index="0" name="volume" parameterValue="1"/>
            <parameter index="1" name="static gain" parameterValue="1"/>
          </component>
          <component componentGuid="45de6536-7a96-48bd-9b02-918f30a73f6c" componentID="Audition.Mute" id="clipMute" name="Mute" powered="true">
            <parameter index="0" parameterValue="0"/>
            <parameter index="1" name="mute" parameterValue="0"/>
          </component>
          <component componentGuid="24ef2687-ab3a-4bce-b28b-c9110881e238" componentID="Audition.StereoPanner" id="clipPan" name="StereoPanner" powered="true">
            <parameter index="0" name="声像" parameterValue="0"/>
          </component>
          <fadeIn crossFadeLinkType="linkedAsymmetric" endPoint="0" shape="0" startPoint="0" type="cosine"/>
          <fadeOut crossFadeLinkType="linkedAsymmetric" endPoint="471195" shape="19" startPoint="471195" type="log"/>
          <editParameter parameterIndex="0" slotIndex="4294967280"/>
          <editParameter parameterIndex="0" slotIndex="4294967281"/>
          <channelMap>
            <channel index="0" sourceIndex="0"/>
            <channel index="1" sourceIndex="1"/>
          </channelMap>
        </audioClip>
        <audioClip clipAutoCrossfade="true" crossFadeHeadClipID="-1" crossFadeTailClipID="-1" endPoint="5304241" fileID="2" hue="-1" id="11" lockedInTime="false" looped="false" name="手风琴" offline="false" select="false" sourceInPoint="2047455" sourceOutPoint="2838517" startPoint="4513179" zOrder="11">
          <component componentGuid="4fd317c2-51f0-4c7f-98c4-4e670f8553bc" componentID="Audition.Fader" id="clipGain" name="volume" powered="true">
            <parameter index="0" name="volume" parameterValue="1"/>
            <parameter index="1" name="static gain" parameterValue="1"/>
          </component>
          <component componentGuid="8a95e0c8-d699-4399-b86c-50d89dc4b4f2" componentID="Audition.Mute" id="clipMute" name="Mute" powered="true">
            <parameter index="0" parameterValue="0"/>
            <parameter index="1" name="mute" parameterValue="0"/>
          </component>
          <component componentGuid="e75e2983-0868-404a-b1c9-3bba5beb6a9e" componentID="Audition.StereoPanner" id="clipPan" name="StereoPanner" powered="true">
            <parameter index="0" name="声像" parameterValue="0"/>
          </component>
          <fadeIn crossFadeLinkType="linkedAsymmetric" endPoint="0" shape="0" startPoint="0" type="cosine"/>
          <fadeOut crossFadeLinkType="linkedAsymmetric" endPoint="791062" shape="19" startPoint="791062" type="log"/>
          <editParameter parameterIndex="0" slotIndex="4294967281"/>
          <editParameter parameterIndex="0" slotIndex="4294967280"/>
          <channelMap>
            <channel index="0" sourceIndex="0"/>
            <channel index="1" sourceIndex="1"/>
          </channelMap>
        </audioClip>
      </audioTrack>
      <audioTrack automationLaneOpenState="false" id="10006" index="4" select="false" visible="true">
        <trackParameters trackHeight="104" trackHue="92" trackMinimized="false">
          <name>轨道 6</name>
        </trackParameters>
        <trackAudioParameters audioChannelType="stereo" automationMode="1" monitoring="false" recordArmed="false" solo="false" soloSafe="false">
          <trackOutput outputID="10000" type="trackID"/>
          <trackInput inputID="2"/>
          <component componentGuid="00777752-c51c-4b69-a298-5e2f0856d0cd" componentID="Audition.Fader" id="trackFader" name="volume" powered="true">
            <parameter index="0" name="volume" parameterValue="1"/>
            <parameter index="1" name="static gain" parameterValue="1"/>
          </component>
          <component componentGuid="3bd4a612-69bd-4088-bdb9-f73bb703af0c" componentID="Audition.Mute" id="trackMute" name="Mute" powered="true">
            <parameter index="0" parameterValue="0"/>
            <parameter index="1" name="mute" parameterValue="0"/>
          </component>
          <component componentGuid="afa9baab-9509-4389-ac2e-600006572ec6" componentID="Audition.StereoPanner" id="trackPan" name="StereoPanner" powered="true">
            <parameter index="0" name="声像" parameterValue="0"/>
          </component>
          <component componentGuid="8e41bee8-0b2d-4bd6-a042-9e92f8f8148e" componentID="Audition.EQ" id="trackEQ" name="EQ" powered="false">
            <parameter index="0" name="下限频率" parameterValue="0.000834028352983295917510986328125"/>
            <parameter index="1" name="下限增益" parameterValue="0.5"/>
            <parameter index="2" name="上限频率" parameterValue="0.74979150295257568359375"/>
            <parameter index="3" name="上限频率增益" parameterValue="0.5"/>
            <parameter index="4" name="EQ 频段 1 中置频率" parameterValue="0.00125104258768260478973388671875"/>
            <parameter index="5" name="EQ 频段 1 Q" parameterValue="0.000199989997781813144683837890625"/>
            <parameter index="6" name="EQ 频段 1 增益" parameterValue="0.5"/>
            <parameter index="7" name="EQ 频段 1 启用" parameterValue="1"/>
            <parameter index="8" name="EQ 频段 2 中置频率" parameterValue="0.0075062550604343414306640625"/>
            <parameter index="9" name="EQ 频段 2 Q" parameterValue="0.000199989997781813144683837890625"/>
            <parameter index="10" name="EQ 频段 2 增益" parameterValue="0.5"/>
            <parameter index="11" name="EQ 频段 2 启用" parameterValue="1"/>
            <parameter index="12" name="EQ 频段 3 中置频率" parameterValue="0.0325271077454090118408203125"/>
            <parameter index="13" name="EQ 频段 3 Q" parameterValue="0.000199989997781813144683837890625"/>
            <parameter index="14" name="EQ 频段 3 增益" parameterValue="0.5"/>
            <parameter index="15" name="EQ 频段 3 启用" parameterValue="1"/>
            <parameter index="16" name="EQ 频段 4 中置频率" parameterValue="0.13261051476001739501953125"/>
            <parameter index="17" name="EQ 频段 4 Q" parameterValue="0.000199989997781813144683837890625"/>
            <parameter index="18" name="EQ 频段 4 增益" parameterValue="0.5"/>
            <parameter index="19" name="EQ 频段 4 启用" parameterValue="1"/>
            <parameter index="20" name="EQ 频段 5 中置频率" parameterValue="0.532944142818450927734375"/>
            <parameter index="21" name="EQ 频段 5 Q" parameterValue="0.000199989997781813144683837890625"/>
            <parameter index="22" name="EQ 频段 5 增益" parameterValue="0.5"/>
            <parameter index="23" name="EQ 频段 5 启用" parameterValue="1"/>
            <parameter index="24" name="主控增益" parameterValue="0.666666686534881591796875"/>
            <parameter index="25" name="恒定 Q" parameterValue="1"/>
            <parameter index="26" name="下限滤镜顺序" parameterValue="0"/>
            <parameter index="27" name="上限频率滤镜顺序" parameterValue="0"/>
            <parameter index="28" name="超静音模式" parameterValue="0"/>
            <parameter index="29" name="下限启用" parameterValue="1"/>
            <parameter index="30" name="上限频率启用" parameterValue="1"/>
            <parameter index="31" name="原始采样率" parameterValue="0.25"/>
            <parameter index="32" name="EQ 频段 1 频带宽" parameterValue="0.002499990165233612060546875"/>
            <parameter index="33" name="EQ 频段 2 频段宽度" parameterValue="0.0099999904632568359375"/>
            <parameter index="34" name="EQ 频段 3 频段宽度" parameterValue="0.0399999916553497314453125"/>
            <parameter index="35" name="EQ 频段 4 频段宽度" parameterValue="0.15999998152256011962890625"/>
            <parameter index="36" name="EQ 频段 5 频段宽度" parameterValue="0.63999998569488525390625"/>
            <parameter index="37" name="高通滤波启用" parameterValue="0"/>
            <parameter index="38" name="高通切除频率" parameterValue="0"/>
            <parameter index="39" name="高通斜率" parameterValue="0.4000000059604644775390625"/>
            <parameter index="40" name="低通滤波启用" parameterValue="0"/>
            <parameter index="41" name="低通切除频率" parameterValue="0.833194315433502197265625"/>
            <parameter index="42" name="低通斜率" parameterValue="0.4000000059604644775390625"/>
            <parameter index="43" name="不使用" parameterValue="0"/>
            <parameter index="44" name="下限图示范围" parameterValue="1"/>
          </component>
        </trackAudioParameters>
        <effectsRack preFader="true">
          <component componentGuid="109fa006-096d-4020-b1e9-ec14ea325733" componentID="Audition.ComponentGroup" id="rackMix" powered="true">
            <parameter index="0" parameterValue="0"/>
            <parameter index="1" parameterValue="0"/>
          </component>
          <component componentGuid="e3cd5428-4ef2-41d8-a05e-ef2228f51cc0" id="rackInput" powered="true">
            <parameter index="0" parameterValue="1"/>
            <parameter index="1" parameterValue="0"/>
          </component>
          <component componentGuid="597f7c1b-8438-48a0-b992-cfa43d37c818" id="rackOutput" powered="true">
            <parameter index="0" parameterValue="1"/>
            <parameter index="1" parameterValue="0"/>
          </component>
          <slot powered="true" slotIndex="0">
            <component componentGuid="365c5ce6-c7a8-4a90-9a33-3c867e04593f" componentID="4f327230-f04c-4c34-9ea5-a998b4459221" name="FFT 滤波器" presetName="（自定义）">
              <busConfig><![CDATA[{"in":[{"layout":[100,101],"name":"","type":0}],"out":[{"layout":[100,101],"name":"","type":0}]}]]></busConfig>
              <channelMap direction="input">
                <channel index="0" sourceIndex="0"/>
                <channel index="1" sourceIndex="1"/>
              </channelMap>
              <channelMap direction="output">
                <channel index="0" sourceIndex="0"/>
                <channel index="1" sourceIndex="1"/>
              </channelMap>
              <presetChunkData><![CDATA[AIA7RwAAAAAQP3w9AADAPgAAAAAOdFo6AACAPwAAAAAAAIA/AACAQA50WjoAAAAAOlgFPLeUND8RN3w/lbQ2PwAAgD8AAAAA]]></presetChunkData>
            </component>
          </slot>
          <slot powered="true" slotIndex="1">
            <component componentGuid="2a6c19d3-9612-413e-8c6b-3cc7a02b1193" componentID="2:1414016307 TH3-64" name="TH3-64" presetName="（自定义）">
              <busConfig><![CDATA[{"in":[{"layout":[100,101],"name":"Stereo In","type":0}],"out":[{"layout":[100,101],"name":"Stereo Out","type":0}]}]]></busConfig>
              <channelMap direction="input">
                <channel index="0" sourceIndex="0"/>
                <channel index="1" sourceIndex="1"/>
              </channelMap>
              <channelMap direction="output">
                <channel index="0" sourceIndex="0"/>
                <channel index="1" sourceIndex="1"/>
              </channelMap>
              <presetChunkData><![CDATA[VkMyIQ8KAAA8c2V0dXAgdmVyc2lvbj0iMSIgdmlld3BvcnRfY2VudHJlX3g9IjQzMyIgdmlld3BvcnRfY2VudHJlX3k9IjI2MSIgdmlld3BvcnRfem9vbT0iMSIgc2V0dXBfYnBtPSIxMjAiIHNldHVwX2RpcnR5PSIxIiBzb3VyY2VfcHJlc2V0X25hbWU9IiIgc291cmNlX3ByZXNldF9pZD0iIiBjb3JlX2JwbT0iMTIwIiBicG1fc291cmNlPSIwIj48cmFpbD48ZWZmZWN0IGlkPSJDQUJfVklCUk8iIHRoM19lZmZlY3RJZD0iMTAwMDA4Ij48cGFyYW1ldGVycz48cGFyYW1ldGVyIG5hbWU9InBvd2VyIiB1c2VyX3ZhbHVlPSIxIi8+PHBhcmFtZXRlciBuYW1lPSJtaWMsMCxtb2RlbCIgdXNlcl92YWx1ZT0iMCIvPjxwYXJhbWV0ZXIgbmFtZT0ibWljLDAseCIgdXNlcl92YWx1ZT0iMC41Ii8+PHBhcmFtZXRlciBuYW1lPSJtaWMsMCx5IiB1c2VyX3ZhbHVlPSIwLjUiLz48cGFyYW1ldGVyIG5hbWU9Im1pYywwLGRpc3QiIHVzZXJfdmFsdWU9IjAiLz48cGFyYW1ldGVyIG5hbWU9Im1pYywwLHNwayIgdXNlcl92YWx1ZT0iMCIvPjxwYXJhbWV0ZXIgbmFtZT0ibWljLDAscGhhc2UiIHVzZXJfdmFsdWU9IjAiLz48cGFyYW1ldGVyIG5hbWU9Im1pYywxLG1vZGVsIiB1c2VyX3ZhbHVlPSIwIi8+PHBhcmFtZXRlciBuYW1lPSJtaWMsMSx4IiB1c2VyX3ZhbHVlPSIwLjc1Ii8+PHBhcmFtZXRlciBuYW1lPSJtaWMsMSx5IiB1c2VyX3ZhbHVlPSIwLjUiLz48cGFyYW1ldGVyIG5hbWU9Im1pYywxLGRpc3QiIHVzZXJfdmFsdWU9IjAiLz48cGFyYW1ldGVyIG5hbWU9Im1pYywxLHNwayIgdXNlcl92YWx1ZT0iMSIvPjxwYXJhbWV0ZXIgbmFtZT0ibWljLDEscGhhc2UiIHVzZXJfdmFsdWU9IjAiLz48cGFyYW1ldGVyIG5hbWU9ImFtYmllbmNlIiB1c2VyX3ZhbHVlPSIwIi8+PHBhcmFtZXRlciBuYW1lPSJsZXYsbWljMCIgdXNlcl92YWx1ZT0iMCIvPjxwYXJhbWV0ZXIgbmFtZT0ibGV2LG1pYzEiIHVzZXJfdmFsdWU9Ii0xMDAwIi8+PHBhcmFtZXRlciBuYW1lPSJsZXYscmVhciIgdXNlcl92YWx1ZT0iLTEwMDAiLz48cGFyYW1ldGVyIG5hbWU9Imxldiw0NWRlZyIgdXNlcl92YWx1ZT0iLTEwMDAiLz48cGFyYW1ldGVyIG5hbWU9InJlc3BpcmUiIHVzZXJfdmFsdWU9IjEiLz48cGFyYW1ldGVyIG5hbWU9ImhwZiIgdXNlcl92YWx1ZT0iMCIvPjxwYXJhbWV0ZXIgbmFtZT0ibHBmIiB1c2VyX3ZhbHVlPSIwIi8+PC9wYXJhbWV0ZXJzPjwvZWZmZWN0PjwvcmFpbD48c3BlY2lhbF9lZmZlY3RzPjxlZmZlY3QgaWQ9IlRBX01BU1RFUiIgdGgzX2VmZmVjdElkPSIxMDAwIj48cGFyYW1ldGVycz48cGFyYW1ldGVyIG5hbWU9ImhpZ2hfbG93IiB1c2VyX3ZhbHVlPSIwIi8+PHBhcmFtZXRlciBuYW1lPSJvdXRfbGV2ZWwiIHVzZXJfdmFsdWU9IjAiLz48cGFyYW1ldGVyIG5hbWU9ImdhdGVfdHJlc2giIHVzZXJfdmFsdWU9Ii0xMDAwIi8+PHBhcmFtZXRlciBuYW1lPSJsb3ciIHVzZXJfdmFsdWU9IjAiLz48cGFyYW1ldGVyIG5hbWU9ImhpZ2giIHVzZXJfdmFsdWU9IjAiLz48cGFyYW1ldGVyIG5hbWU9InJldmVyYl9vZmYiIHVzZXJfdmFsdWU9IjAiLz48cGFyYW1ldGVyIG5hbWU9ImRlbGF5X29mZiIgdXNlcl92YWx1ZT0iMCIvPjxwYXJhbWV0ZXIgbmFtZT0iaW5wdXRfbW9kZSIgdXNlcl92YWx1ZT0iMCIvPjxwYXJhbWV0ZXIgbmFtZT0idHVuZXItcG93ZXIiIHVzZXJfdmFsdWU9IjAiLz48cGFyYW1ldGVyIG5hbWU9InR1bmVyLW11dGUiIHVzZXJfdmFsdWU9IjAiLz48cGFyYW1ldGVyIG5hbWU9IndOZXdFZGl0b3IiIHVzZXJfdmFsdWU9IjEwNjAiLz48cGFyYW1ldGVyIG5hbWU9ImhOZXdFZGl0b3IiIHVzZXJfdmFsdWU9IjU4MCIvPjxwYXJhbWV0ZXIgbmFtZT0ibWF4TmV3RWRpdG9yIiB1c2VyX3ZhbHVlPSIwIi8+PHBhcmFtZXRlciBuYW1lPSJwTmV3RWRpdG9yIiB1c2VyX3ZhbHVlPSIxIi8+PHBhcmFtZXRlciBuYW1lPSJjTmV3RWRpdG9yIiB1c2VyX3ZhbHVlPSIxIi8+PHBhcmFtZXRlciBuYW1lPSJvdmVydmlld1Zpc2libGUiIHVzZXJfdmFsdWU9IjEiLz48L3BhcmFtZXRlcnM+PC9lZmZlY3Q+PGVmZmVjdCBpZD0iVEFfTE9PUEVSIiB0aDNfZWZmZWN0SWQ9IjIwMDAiPjxwYXJhbWV0ZXJzPjxwYXJhbWV0ZXIgbmFtZT0icG93ZXIiIHVzZXJfdmFsdWU9IjEiLz48cGFyYW1ldGVyIG5hbWU9InNzeW5jIiB1c2VyX3ZhbHVlPSIwIi8+PHBhcmFtZXRlciBuYW1lPSJyZWNfcGFuIiB1c2VyX3ZhbHVlPSIwIi8+PHBhcmFtZXRlciBuYW1lPSJyZWNfdm9sdW1lIiB1c2VyX3ZhbHVlPSIwIi8+PHBhcmFtZXRlciBuYW1lPSJwbGF5X3ZvbHVtZSIgdXNlcl92YWx1ZT0iMCIvPjxwYXJhbWV0ZXIgbmFtZT0ibWV0cm9ub21lIiB1c2VyX3ZhbHVlPSIwIi8+PHBhcmFtZXRlciBuYW1lPSJyZXZlcnNlIiB1c2VyX3ZhbHVlPSIwIi8+PHBhcmFtZXRlciBuYW1lPSJhdXRvc3RhcnQiIHVzZXJfdmFsdWU9IjAiLz48L3BhcmFtZXRlcnM+PC9lZmZlY3Q+PC9zcGVjaWFsX2VmZmVjdHM+PG1pZGlfYmluZGluZ3MvPjxhdXRvbWF0aW9uX3Nsb3RzPjxzbG90Lz48c2xvdC8+PHNsb3QvPjxzbG90Lz48c2xvdC8+PHNsb3QvPjxzbG90Lz48c2xvdC8+PC9hdXRvbWF0aW9uX3Nsb3RzPjwvc2V0dXA+AA==]]></presetChunkData>
            </component>
          </slot>
          <slot powered="true" slotIndex="2">
            <component componentGuid="fb6a29a2-f2b0-412f-bd53-bd9d888a2469" componentID="2:1314080851 WaveShell1-VST 10.0_x64" editorHeight="523" editorLeft="-1245" editorTop="259" editorWidth="570" name="S1 Imager Stereo" presetName="（自定义）">
              <busConfig><![CDATA[{"in":[{"layout":[100,101],"name":"Stereo In","type":0}],"out":[{"layout":[100,101],"name":"Stereo Out","type":0}]}]]></busConfig>
              <channelMap direction="input">
                <channel index="0" sourceIndex="0"/>
                <channel index="1" sourceIndex="1"/>
              </channelMap>
              <channelMap direction="output">
                <channel index="0" sourceIndex="0"/>
                <channel index="1" sourceIndex="1"/>
              </channelMap>
              <presetChunkData><![CDATA[AAADAQAAAAMAAAABTlNIU3NldEEAAALhWFBzdDxQcmVzZXRDaHVua1hNTFRyZWUgdmVyc2lvbj0iMiI+CiAgICA8UHJlc2V0IE5hbWU9IiIgR2VuZXJpY1R5cGU9IlNIVUYiPgogICAgICAgIDxQcmVzZXRIZWFkZXI+CiAgICAgICAgICAgIDxQbHVnaW5OYW1lPlMxIEltYWdlcjwvUGx1Z2luTmFtZT4KICAgICAgICAgICAgPFBsdWdpblN1YkNvbXA+TlNIUzwvUGx1Z2luU3ViQ29tcD4KICAgICAgICAgICAgPFBsdWdpblZlcnNpb24+MTAuMC4wLjE2PC9QbHVnaW5WZXJzaW9uPgogICAgICAgICAgICA8QWN0aXZlU2V0dXA+U0VUVVBfQTwvQWN0aXZlU2V0dXA+CiAgICAgICAgICAgIDxSZWFkT25seT50cnVlPC9SZWFkT25seT4KICAgICAgICA8L1ByZXNldEhlYWRlcj4KICAgICAgICA8UHJlc2V0RGF0YSBTZXR1cD0iU0VUVVBfQSI+CiAgICAgICAgICAgIDxQYXJhbWV0ZXJzIFR5cGU9IlJlYWxXb3JsZCI+LTYuMjk5OTk5OTk5OTk5OTk5ODIyNCAwLjM0MDAwMDAwMDAwMDAwMDAyNDQyIDEgNjUwIDE1IDMwICogKiAqICoKKiAwIDAgMCAwIDAgMCAwIDwvUGFyYW1ldGVycz4KICAgICAgICA8L1ByZXNldERhdGE+CiAgICAgICAgPFByZXNldERhdGEgU2V0dXA9IlNFVFVQX0IiPgogICAgICAgICAgICA8UGFyYW1ldGVycyBUeXBlPSJSZWFsV29ybGQiPjAgMSAxIDY1MCAwIDAgKiAqICogKgoqIDAgMCAwIDAgMCAwIDAgPC9QYXJhbWV0ZXJzPgogICAgICAgIDwvUHJlc2V0RGF0YT4KICAgIDwvUHJlc2V0Pgo8L1ByZXNldENodW5rWE1MVHJlZT4KAAAAtg==]]></presetChunkData>
            </component>
          </slot>
          <slot powered="true" slotIndex="3">
            <component componentGuid="1f9503eb-ef5d-4954-b73d-2c38b2689609" componentID="e0b23f05-f1a7-4ef7-9b50-7ec3e3002058" editorHeight="378" editorLeft="730" editorTop="331" editorWidth="461" name="强制限幅" presetName="（自定义）">
              <busConfig><![CDATA[{"in":[{"layout":[100,101],"name":"","type":0}],"out":[{"layout":[100,101],"name":"","type":0}]}]]></busConfig>
              <channelMap direction="input">
                <channel index="0" sourceIndex="0"/>
                <channel index="1" sourceIndex="1"/>
              </channelMap>
              <channelMap direction="output">
                <channel index="0" sourceIndex="0"/>
                <channel index="1" sourceIndex="1"/>
              </channelMap>
              <parameter index="0" name="最大振幅" parameterValue="1"/>
              <parameter index="1" name="输入增强" parameterValue="0.7666666507720947265625"/>
              <parameter index="2" name="预测时间" parameterValue="0.13333301246166229248046875"/>
              <parameter index="3" name="释放时间" parameterValue="0.375"/>
              <parameter index="4" name="链接声道" parameterValue="1"/>
              <parameter index="5" name="衰减至天花板" parameterValue="1"/>
              <parameter index="6" name="限制实际峰值" parameterValue="0"/>
            </component>
          </slot>
        </effectsRack>
        <editParameter parameterIndex="0" slotIndex="4294967280"/>
        <audioClip clipAutoCrossfade="true" crossFadeHeadClipID="-1" crossFadeTailClipID="-1" endPoint="82665" fileID="3" hue="-1" id="0" lockedInTime="false" looped="false" name="小提琴" offline="false" select="false" sourceInPoint="1483175" sourceOutPoint="1565840" startPoint="0" zOrder="7">
          <component componentGuid="878a996f-30a0-4ab4-b0eb-6587f60e7c44" componentID="Audition.Fader" id="clipGain" name="volume" powered="true">
            <parameter index="0" name="volume" parameterValue="1.86180150508880615234375"/>
            <parameter index="1" name="static gain" parameterValue="1"/>
          </component>
          <component componentGuid="b6ba457a-621b-4bac-acc3-ea22b8023480" componentID="Audition.Mute" id="clipMute" name="Mute" powered="true">
            <parameter index="0" parameterValue="0"/>
            <parameter index="1" name="mute" parameterValue="0"/>
          </component>
          <component componentGuid="1b877329-7e95-42c2-902b-40e1f2ee26d4" componentID="Audition.StereoPanner" id="clipPan" name="StereoPanner" powered="true">
            <parameter index="0" name="声像" parameterValue="0"/>
          </component>
          <fadeIn crossFadeLinkType="linkedAsymmetric" endPoint="0" shape="0" startPoint="0" type="cosine"/>
          <fadeOut crossFadeLinkType="linkedAsymmetric" endPoint="82665" shape="19" startPoint="82665" type="log"/>
          <editParameter parameterIndex="0" slotIndex="4294967281"/>
          <editParameter parameterIndex="0" slotIndex="4294967280"/>
          <channelMap>
            <channel index="0" sourceIndex="0"/>
            <channel index="1" sourceIndex="1"/>
          </channelMap>
        </audioClip>
        <audioClip clipAutoCrossfade="true" crossFadeHeadClipID="-1" crossFadeTailClipID="-1" endPoint="162322" fileID="3" hue="-1" id="1" lockedInTime="false" looped="false" name="小提琴" offline="false" select="false" sourceInPoint="1564722" sourceOutPoint="1643699" startPoint="83345" zOrder="3">
          <component componentGuid="6ca2ffde-22a5-4e74-b53e-72dc1237997e" componentID="Audition.Fader" id="clipGain" name="volume" powered="true">
            <parameter index="0" name="volume" parameterValue="1.86180150508880615234375"/>
            <parameter index="1" name="static gain" parameterValue="1"/>
          </component>
          <component componentGuid="444e82ef-9c79-4e6a-a5a6-4f41a2d07662" componentID="Audition.Mute" id="clipMute" name="Mute" powered="true">
            <parameter index="0" parameterValue="0"/>
            <parameter index="1" name="mute" parameterValue="0"/>
          </component>
          <component componentGuid="b419ba9a-ddee-4655-bd1e-c518c39725bf" componentID="Audition.StereoPanner" id="clipPan" name="StereoPanner" powered="true">
            <parameter index="0" name="声像" parameterValue="0"/>
          </component>
          <fadeIn crossFadeLinkType="linkedAsymmetric" endPoint="0" shape="0" startPoint="0" type="cosine"/>
          <fadeOut crossFadeLinkType="linkedAsymmetric" endPoint="78977" shape="19" startPoint="78977" type="log"/>
          <editParameter parameterIndex="0" slotIndex="4294967281"/>
          <editParameter parameterIndex="0" slotIndex="4294967280"/>
          <channelMap>
            <channel index="0" sourceIndex="0"/>
            <channel index="1" sourceIndex="1"/>
          </channelMap>
        </audioClip>
        <audioClip clipAutoCrossfade="true" crossFadeHeadClipID="-1" crossFadeTailClipID="-1" endPoint="325533" fileID="3" hue="-1" id="2" lockedInTime="false" looped="false" name="小提琴" offline="false" select="false" sourceInPoint="1648958" sourceOutPoint="1809544" startPoint="164947" zOrder="11">
          <component componentGuid="1c3513c6-e1b2-4222-a296-98a754fc0caa" componentID="Audition.Fader" id="clipGain" name="volume" powered="true">
            <parameter index="0" name="volume" parameterValue="1.86180150508880615234375"/>
            <parameter index="1" name="static gain" parameterValue="1"/>
          </component>
          <component componentGuid="9c0c3136-0f11-4b39-b17e-5630eba545b3" componentID="Audition.Mute" id="clipMute" name="Mute" powered="true">
            <parameter index="0" parameterValue="0"/>
            <parameter index="1" name="mute" parameterValue="0"/>
          </component>
          <component componentGuid="454b720c-3569-4e86-b796-29337fa9b12e" componentID="Audition.StereoPanner" id="clipPan" name="StereoPanner" powered="true">
            <parameter index="0" name="声像" parameterValue="0"/>
          </component>
          <fadeIn crossFadeLinkType="linkedAsymmetric" endPoint="0" shape="0" startPoint="0" type="cosine"/>
          <fadeOut crossFadeLinkType="linkedAsymmetric" endPoint="160586" shape="19" startPoint="160586" type="log"/>
          <editParameter parameterIndex="0" slotIndex="4294967281"/>
          <editParameter parameterIndex="0" slotIndex="4294967280"/>
          <channelMap>
            <channel index="0" sourceIndex="0"/>
            <channel index="1" sourceIndex="1"/>
          </channelMap>
        </audioClip>
        <audioClip clipAutoCrossfade="true" crossFadeHeadClipID="-1" crossFadeTailClipID="-1" endPoint="559485" fileID="3" hue="-1" id="3" lockedInTime="false" looped="false" name="小提琴" offline="false" select="false" sourceInPoint="1811387" sourceOutPoint="2040833" startPoint="330039" zOrder="14">
          <component componentGuid="9ff0d3e5-45ab-478d-a3c4-39ec27bfcfc6" componentID="Audition.Fader" id="clipGain" name="volume" powered="true">
            <parameter index="0" name="volume" parameterValue="1.86180150508880615234375"/>
            <parameter index="1" name="static gain" parameterValue="1"/>
          </component>
          <component componentGuid="ad12117c-a77f-428c-9bf0-8c1b05b4a074" componentID="Audition.Mute" id="clipMute" name="Mute" powered="true">
            <parameter index="0" parameterValue="0"/>
            <parameter index="1" name="mute" parameterValue="0"/>
          </component>
          <component componentGuid="3075f76f-984b-4264-9c31-fc1d5f0bcb8d" componentID="Audition.StereoPanner" id="clipPan" name="StereoPanner" powered="true">
            <parameter index="0" name="声像" parameterValue="0"/>
          </component>
          <fadeIn crossFadeLinkType="linkedAsymmetric" endPoint="0" shape="0" startPoint="0" type="cosine"/>
          <fadeOut crossFadeLinkType="linkedAsymmetric" endPoint="229446" shape="18" startPoint="229446" type="log"/>
          <editParameter parameterIndex="0" slotIndex="4294967281"/>
          <editParameter parameterIndex="0" slotIndex="4294967280"/>
          <channelMap>
            <channel index="0" sourceIndex="0"/>
            <channel index="1" sourceIndex="1"/>
          </channelMap>
        </audioClip>
        <audioClip clipAutoCrossfade="true" crossFadeHeadClipID="-1" crossFadeTailClipID="5" endPoint="567045" fileID="3" hue="-1" id="4" lockedInTime="false" looped="false" name="小提琴" offline="false" select="false" sourceInPoint="2040833" sourceOutPoint="2048393" startPoint="559485" zOrder="16">
          <component componentGuid="7e62ff01-cbdb-4b1b-a963-a803774e0b67" componentID="Audition.Fader" id="clipGain" name="volume" powered="true">
            <parameter index="0" name="volume" parameterValue="1.86180150508880615234375"/>
            <parameter index="1" name="static gain" parameterValue="1"/>
          </component>
          <component componentGuid="cc039627-99d4-42d8-9739-1eda88aca625" componentID="Audition.Mute" id="clipMute" name="Mute" powered="true">
            <parameter index="0" parameterValue="0"/>
            <parameter index="1" name="mute" parameterValue="0"/>
          </component>
          <component componentGuid="e0ec1de0-532b-4c41-bb3b-df4dc7a7c778" componentID="Audition.StereoPanner" id="clipPan" name="StereoPanner" powered="true">
            <parameter index="0" name="声像" parameterValue="0"/>
          </component>
          <fadeIn crossFadeLinkType="linkedAsymmetric" endPoint="0" shape="0" startPoint="0" type="cosine"/>
          <fadeOut crossFadeLinkType="linkedAsymmetric" endPoint="7560" shape="18" startPoint="6696" type="log"/>
          <editParameter parameterIndex="0" slotIndex="4294967281"/>
          <editParameter parameterIndex="0" slotIndex="4294967280"/>
          <channelMap>
            <channel index="0" sourceIndex="0"/>
            <channel index="1" sourceIndex="1"/>
          </channelMap>
        </audioClip>
        <audioClip clipAutoCrossfade="true" crossFadeHeadClipID="4" crossFadeTailClipID="-1" endPoint="1316571" fileID="4" hue="-1" id="5" lockedInTime="false" looped="false" name="小提琴_solo" offline="false" select="false" sourceInPoint="2050504" sourceOutPoint="2800894" startPoint="566181" zOrder="0">
          <component componentGuid="e6e80d69-a707-4d39-b15e-2b0a9bde57a9" componentID="Audition.Fader" id="clipGain" name="volume" powered="true">
            <parameter index="0" name="volume" parameterValue="1"/>
            <parameter index="1" name="static gain" parameterValue="1"/>
          </component>
          <component componentGuid="adade45a-659d-4eff-9b61-3f3f8b2d5a44" componentID="Audition.Mute" id="clipMute" name="Mute" powered="true">
            <parameter index="0" parameterValue="0"/>
            <parameter index="1" name="mute" parameterValue="0"/>
          </component>
          <component componentGuid="04eb884d-a140-4382-8857-b02f3a0e9ba5" componentID="Audition.StereoPanner" id="clipPan" name="StereoPanner" powered="true">
            <parameter index="0" name="声像" parameterValue="0"/>
          </component>
          <fadeIn crossFadeLinkType="linkedAsymmetric" endPoint="864" shape="19" startPoint="0" type="log"/>
          <fadeOut crossFadeLinkType="linkedAsymmetric" endPoint="750390" shape="19" startPoint="750390" type="log"/>
          <editParameter parameterIndex="0" slotIndex="4294967281"/>
          <editParameter parameterIndex="0" slotIndex="4294967280"/>
          <channelMap>
            <channel index="0" sourceIndex="0"/>
            <channel index="1" sourceIndex="1"/>
          </channelMap>
        </audioClip>
        <audioClip clipAutoCrossfade="true" crossFadeHeadClipID="-1" crossFadeTailClipID="-1" endPoint="1399721" fileID="3" hue="-1" id="6" lockedInTime="false" looped="false" name="小提琴" offline="false" select="false" sourceInPoint="1483175" sourceOutPoint="1565840" startPoint="1317056" zOrder="8">
          <component componentGuid="283bad62-9677-4319-ba19-ce0d6030124f" componentID="Audition.Fader" id="clipGain" name="volume" powered="true">
            <parameter index="0" name="volume" parameterValue="1.86180150508880615234375"/>
            <parameter index="1" name="static gain" parameterValue="1"/>
          </component>
          <component componentGuid="e2664c6f-1305-4bd0-a15d-f4d269b781f7" componentID="Audition.Mute" id="clipMute" name="Mute" powered="true">
            <parameter index="0" parameterValue="0"/>
            <parameter index="1" name="mute" parameterValue="0"/>
          </component>
          <component componentGuid="e8706173-b224-4fe3-8bf0-08a771667c12" componentID="Audition.StereoPanner" id="clipPan" name="StereoPanner" powered="true">
            <parameter index="0" name="声像" parameterValue="0"/>
          </component>
          <fadeIn crossFadeLinkType="linkedAsymmetric" endPoint="0" shape="0" startPoint="0" type="cosine"/>
          <fadeOut crossFadeLinkType="linkedAsymmetric" endPoint="82665" shape="19" startPoint="82665" type="log"/>
          <editParameter parameterIndex="0" slotIndex="4294967281"/>
          <editParameter parameterIndex="0" slotIndex="4294967280"/>
          <channelMap>
            <channel index="0" sourceIndex="0"/>
            <channel index="1" sourceIndex="1"/>
          </channelMap>
        </audioClip>
        <audioClip clipAutoCrossfade="true" crossFadeHeadClipID="-1" crossFadeTailClipID="-1" endPoint="1479378" fileID="3" hue="-1" id="7" lockedInTime="false" looped="false" name="小提琴" offline="false" select="false" sourceInPoint="1564722" sourceOutPoint="1643699" startPoint="1400401" zOrder="4">
          <component componentGuid="3f6aa4b5-4dbe-4f78-9db8-d3658575878c" componentID="Audition.Fader" id="clipGain" name="volume" powered="true">
            <parameter index="0" name="volume" parameterValue="1.86180150508880615234375"/>
            <parameter index="1" name="static gain" parameterValue="1"/>
          </component>
          <component componentGuid="74701e12-6328-48bb-8993-98af62ac3fed" componentID="Audition.Mute" id="clipMute" name="Mute" powered="true">
            <parameter index="0" parameterValue="0"/>
            <parameter index="1" name="mute" parameterValue="0"/>
          </component>
          <component componentGuid="5331842c-6715-4b27-9f2a-2c692b8d28e1" componentID="Audition.StereoPanner" id="clipPan" name="StereoPanner" powered="true">
            <parameter index="0" name="声像" parameterValue="0"/>
          </component>
          <fadeIn crossFadeLinkType="linkedAsymmetric" endPoint="0" shape="0" startPoint="0" type="cosine"/>
          <fadeOut crossFadeLinkType="linkedAsymmetric" endPoint="78977" shape="19" startPoint="78977" type="log"/>
          <editParameter parameterIndex="0" slotIndex="4294967281"/>
          <editParameter parameterIndex="0" slotIndex="4294967280"/>
          <channelMap>
            <channel index="0" sourceIndex="0"/>
            <channel index="1" sourceIndex="1"/>
          </channelMap>
        </audioClip>
        <audioClip clipAutoCrossfade="true" crossFadeHeadClipID="-1" crossFadeTailClipID="-1" endPoint="1642589" fileID="3" hue="-1" id="8" lockedInTime="false" looped="false" name="小提琴" offline="false" select="false" sourceInPoint="1648958" sourceOutPoint="1809544" startPoint="1482003" zOrder="12">
          <component componentGuid="31f0f477-3c3e-4be5-9842-0b1f95d73239" componentID="Audition.Fader" id="clipGain" name="volume" powered="true">
            <parameter index="0" name="volume" parameterValue="1.86180150508880615234375"/>
            <parameter index="1" name="static gain" parameterValue="1"/>
          </component>
          <component componentGuid="53dff78e-5d34-41eb-945a-81cdac1357c7" componentID="Audition.Mute" id="clipMute" name="Mute" powered="true">
            <parameter index="0" parameterValue="0"/>
            <parameter index="1" name="mute" parameterValue="0"/>
          </component>
          <component componentGuid="89fb185f-6296-41cf-ade4-aecd030ad211" componentID="Audition.StereoPanner" id="clipPan" name="StereoPanner" powered="true">
            <parameter index="0" name="声像" parameterValue="0"/>
          </component>
          <fadeIn crossFadeLinkType="linkedAsymmetric" endPoint="0" shape="0" startPoint="0" type="cosine"/>
          <fadeOut crossFadeLinkType="linkedAsymmetric" endPoint="160586" shape="19" startPoint="160586" type="log"/>
          <editParameter parameterIndex="0" slotIndex="4294967281"/>
          <editParameter parameterIndex="0" slotIndex="4294967280"/>
          <channelMap>
            <channel index="0" sourceIndex="0"/>
            <channel index="1" sourceIndex="1"/>
          </channelMap>
        </audioClip>
        <audioClip clipAutoCrossfade="true" crossFadeHeadClipID="-1" crossFadeTailClipID="-1" endPoint="1876541" fileID="3" hue="-1" id="9" lockedInTime="false" looped="false" name="小提琴" offline="false" select="false" sourceInPoint="1811387" sourceOutPoint="2040833" startPoint="1647095" zOrder="15">
          <component componentGuid="2dab4214-c0a3-4945-8b92-d0da71bf07d0" componentID="Audition.Fader" id="clipGain" name="volume" powered="true">
            <parameter index="0" name="volume" parameterValue="1.86180150508880615234375"/>
            <parameter index="1" name="static gain" parameterValue="1"/>
          </component>
          <component componentGuid="64d4b785-c6e6-457d-9b3d-57f330fc0bf4" componentID="Audition.Mute" id="clipMute" name="Mute" powered="true">
            <parameter index="0" parameterValue="0"/>
            <parameter index="1" name="mute" parameterValue="0"/>
          </component>
          <component componentGuid="aaf70d1d-c3c0-455f-81b7-acc98d058374" componentID="Audition.StereoPanner" id="clipPan" name="StereoPanner" powered="true">
            <parameter index="0" name="声像" parameterValue="0"/>
          </component>
          <fadeIn crossFadeLinkType="linkedAsymmetric" endPoint="0" shape="0" startPoint="0" type="cosine"/>
          <fadeOut crossFadeLinkType="linkedAsymmetric" endPoint="229446" shape="18" startPoint="229446" type="log"/>
          <editParameter parameterIndex="0" slotIndex="4294967281"/>
          <editParameter parameterIndex="0" slotIndex="4294967280"/>
          <channelMap>
            <channel index="0" sourceIndex="0"/>
            <channel index="1" sourceIndex="1"/>
          </channelMap>
        </audioClip>
        <audioClip clipAutoCrossfade="true" crossFadeHeadClipID="-1" crossFadeTailClipID="11" endPoint="1884101" fileID="3" hue="-1" id="10" lockedInTime="false" looped="false" name="小提琴" offline="false" select="false" sourceInPoint="2040833" sourceOutPoint="2048393" startPoint="1876541" zOrder="17">
          <component componentGuid="e70d8e4d-48e9-41c2-8fb8-c8f9e8148771" componentID="Audition.Fader" id="clipGain" name="volume" powered="true">
            <parameter index="0" name="volume" parameterValue="1.86180150508880615234375"/>
            <parameter index="1" name="static gain" parameterValue="1"/>
          </component>
          <component componentGuid="f28faa81-5a80-4c9a-ab07-51989ea87d9f" componentID="Audition.Mute" id="clipMute" name="Mute" powered="true">
            <parameter index="0" parameterValue="0"/>
            <parameter index="1" name="mute" parameterValue="0"/>
          </component>
          <component componentGuid="48aa8646-73ea-41a8-8c06-4bfb6ad6c8a6" componentID="Audition.StereoPanner" id="clipPan" name="StereoPanner" powered="true">
            <parameter index="0" name="声像" parameterValue="0"/>
          </component>
          <fadeIn crossFadeLinkType="linkedAsymmetric" endPoint="0" shape="0" startPoint="0" type="cosine"/>
          <fadeOut crossFadeLinkType="linkedAsymmetric" endPoint="7560" shape="18" startPoint="6696" type="log"/>
          <editParameter parameterIndex="0" slotIndex="4294967281"/>
          <editParameter parameterIndex="0" slotIndex="4294967280"/>
          <channelMap>
            <channel index="0" sourceIndex="0"/>
            <channel index="1" sourceIndex="1"/>
          </channelMap>
        </audioClip>
        <audioClip clipAutoCrossfade="true" crossFadeHeadClipID="10" crossFadeTailClipID="-1" endPoint="2633627" fileID="4" hue="-1" id="11" lockedInTime="false" looped="false" name="小提琴_solo" offline="false" select="false" sourceInPoint="2050504" sourceOutPoint="2800894" startPoint="1883237" zOrder="1">
          <component componentGuid="3264da6d-c128-42bd-aca7-cf59c62159d6" componentID="Audition.Fader" id="clipGain" name="volume" powered="true">
            <parameter index="0" name="volume" parameterValue="1"/>
            <parameter index="1" name="static gain" parameterValue="1"/>
          </component>
          <component componentGuid="c45de6a3-2550-486a-a436-4083188cde30" componentID="Audition.Mute" id="clipMute" name="Mute" powered="true">
            <parameter index="0" parameterValue="0"/>
            <parameter index="1" name="mute" parameterValue="0"/>
          </component>
          <component componentGuid="2aeae0a4-ccd4-4e5b-b30c-0d2e50ce5c92" componentID="Audition.StereoPanner" id="clipPan" name="StereoPanner" powered="true">
            <parameter index="0" name="声像" parameterValue="0"/>
          </component>
          <fadeIn crossFadeLinkType="linkedAsymmetric" endPoint="864" shape="19" startPoint="0" type="log"/>
          <fadeOut crossFadeLinkType="linkedAsymmetric" endPoint="750390" shape="19" startPoint="750390" type="log"/>
          <editParameter parameterIndex="0" slotIndex="4294967281"/>
          <editParameter parameterIndex="0" slotIndex="4294967280"/>
          <channelMap>
            <channel index="0" sourceIndex="0"/>
            <channel index="1" sourceIndex="1"/>
          </channelMap>
        </audioClip>
        <audioClip clipAutoCrossfade="true" crossFadeHeadClipID="-1" crossFadeTailClipID="-1" endPoint="2716409" fileID="3" hue="-1" id="12" lockedInTime="false" looped="false" name="小提琴" offline="false" select="false" sourceInPoint="1483175" sourceOutPoint="1565840" startPoint="2633744" zOrder="9">
          <component componentGuid="f3fce3cd-bc31-446a-945b-a8596f2d1481" componentID="Audition.Fader" id="clipGain" name="volume" powered="true">
            <parameter index="0" name="volume" parameterValue="1.86180150508880615234375"/>
            <parameter index="1" name="static gain" parameterValue="1"/>
          </component>
          <component componentGuid="234e2071-36e6-43ec-b9c0-ba4bf6b2d813" componentID="Audition.Mute" id="clipMute" name="Mute" powered="true">
            <parameter index="0" parameterValue="0"/>
            <parameter index="1" name="mute" parameterValue="0"/>
          </component>
          <component componentGuid="f6ca3e34-afcc-4776-83ef-afe31e122dde" componentID="Audition.StereoPanner" id="clipPan" name="StereoPanner" powered="true">
            <parameter index="0" name="声像" parameterValue="0"/>
          </component>
          <fadeIn crossFadeLinkType="linkedAsymmetric" endPoint="0" shape="0" startPoint="0" type="cosine"/>
          <fadeOut crossFadeLinkType="linkedAsymmetric" endPoint="82665" shape="19" startPoint="82665" type="log"/>
          <editParameter parameterIndex="0" slotIndex="4294967281"/>
          <editParameter parameterIndex="0" slotIndex="4294967280"/>
          <channelMap>
            <channel index="0" sourceIndex="0"/>
            <channel index="1" sourceIndex="1"/>
          </channelMap>
        </audioClip>
        <audioClip clipAutoCrossfade="true" crossFadeHeadClipID="-1" crossFadeTailClipID="-1" endPoint="2796066" fileID="3" hue="-1" id="13" lockedInTime="false" looped="false" name="小提琴" offline="false" select="false" sourceInPoint="1564722" sourceOutPoint="1643699" startPoint="2717089" zOrder="5">
          <component componentGuid="7c2c51ca-c919-43f5-8ef1-52d6b8fa4271" componentID="Audition.Fader" id="clipGain" name="volume" powered="true">
            <parameter index="0" name="volume" parameterValue="1.86180150508880615234375"/>
            <parameter index="1" name="static gain" parameterValue="1"/>
          </component>
          <component componentGuid="db5f6a63-42ed-45aa-952b-83a9b22c835a" componentID="Audition.Mute" id="clipMute" name="Mute" powered="true">
            <parameter index="0" parameterValue="0"/>
            <parameter index="1" name="mute" parameterValue="0"/>
          </component>
          <component componentGuid="4a08e47c-1be8-4513-98c4-856c887b6c53" componentID="Audition.StereoPanner" id="clipPan" name="StereoPanner" powered="true">
            <parameter index="0" name="声像" parameterValue="0"/>
          </component>
          <fadeIn crossFadeLinkType="linkedAsymmetric" endPoint="0" shape="0" startPoint="0" type="cosine"/>
          <fadeOut crossFadeLinkType="linkedAsymmetric" endPoint="78977" shape="19" startPoint="78977" type="log"/>
          <editParameter parameterIndex="0" slotIndex="4294967281"/>
          <editParameter parameterIndex="0" slotIndex="4294967280"/>
          <channelMap>
            <channel index="0" sourceIndex="0"/>
            <channel index="1" sourceIndex="1"/>
          </channelMap>
        </audioClip>
        <audioClip clipAutoCrossfade="true" crossFadeHeadClipID="-1" crossFadeTailClipID="-1" endPoint="2958300" fileID="3" hue="-1" id="14" lockedInTime="false" looped="false" name="小提琴" offline="false" select="false" sourceInPoint="1648958" sourceOutPoint="1809544" startPoint="2797714" zOrder="18">
          <component componentGuid="83e2e760-34a8-4da0-ae0e-1afdd3e77136" componentID="Audition.Fader" id="clipGain" name="volume" powered="true">
            <parameter index="0" name="volume" parameterValue="1.86180150508880615234375"/>
            <parameter index="1" name="static gain" parameterValue="1"/>
          </component>
          <component componentGuid="8fe5b3f1-3f9c-403c-89f5-65647e7a9f0d" componentID="Audition.Mute" id="clipMute" name="Mute" powered="true">
            <parameter index="0" parameterValue="0"/>
            <parameter index="1" name="mute" parameterValue="0"/>
          </component>
          <component componentGuid="866d3db4-ba1c-40ea-a658-2d1336a0d812" componentID="Audition.StereoPanner" id="clipPan" name="StereoPanner" powered="true">
            <parameter index="0" name="声像" parameterValue="0"/>
          </component>
          <fadeIn crossFadeLinkType="linkedAsymmetric" endPoint="0" shape="0" startPoint="0" type="cosine"/>
          <fadeOut crossFadeLinkType="linkedAsymmetric" endPoint="160586" shape="19" startPoint="160586" type="log"/>
          <editParameter parameterIndex="0" slotIndex="4294967281"/>
          <editParameter parameterIndex="0" slotIndex="4294967280"/>
          <channelMap>
            <channel index="0" sourceIndex="0"/>
            <channel index="1" sourceIndex="1"/>
          </channelMap>
        </audioClip>
        <audioClip clipAutoCrossfade="true" crossFadeHeadClipID="-1" crossFadeTailClipID="-1" endPoint="3192252" fileID="3" hue="-1" id="15" lockedInTime="false" looped="false" name="小提琴" offline="false" select="false" sourceInPoint="1811387" sourceOutPoint="2040833" startPoint="2962806" zOrder="19">
          <component componentGuid="a0f75dc2-1f0a-4cf3-b59d-957a980437de" componentID="Audition.Fader" id="clipGain" name="volume" powered="true">
            <parameter index="0" name="volume" parameterValue="1.86180150508880615234375"/>
            <parameter index="1" name="static gain" parameterValue="1"/>
          </component>
          <component componentGuid="9beafd8f-a334-4282-9199-65ea9998235c" componentID="Audition.Mute" id="clipMute" name="Mute" powered="true">
            <parameter index="0" parameterValue="0"/>
            <parameter index="1" name="mute" parameterValue="0"/>
          </component>
          <component componentGuid="9ca9f366-3539-4cbb-995d-2c9964af3d5d" componentID="Audition.StereoPanner" id="clipPan" name="StereoPanner" powered="true">
            <parameter index="0" name="声像" parameterValue="0"/>
          </component>
          <fadeIn crossFadeLinkType="linkedAsymmetric" endPoint="0" shape="0" startPoint="0" type="cosine"/>
          <fadeOut crossFadeLinkType="linkedAsymmetric" endPoint="229446" shape="18" startPoint="229446" type="log"/>
          <editParameter parameterIndex="0" slotIndex="4294967281"/>
          <editParameter parameterIndex="0" slotIndex="4294967280"/>
          <channelMap>
            <channel index="0" sourceIndex="0"/>
            <channel index="1" sourceIndex="1"/>
          </channelMap>
        </audioClip>
        <audioClip clipAutoCrossfade="true" crossFadeHeadClipID="-1" crossFadeTailClipID="17" endPoint="3950315" fileID="4" hue="-1" id="16" lockedInTime="false" looped="false" name="小提琴_solo" offline="false" select="false" sourceInPoint="2050504" sourceOutPoint="2800894" startPoint="3199925" zOrder="2">
          <component componentGuid="a7cccc45-b33a-46e8-9559-a89678891a02" componentID="Audition.Fader" id="clipGain" name="volume" powered="true">
            <parameter index="0" name="volume" parameterValue="1"/>
            <parameter index="1" name="static gain" parameterValue="1"/>
          </component>
          <component componentGuid="313ffebc-dcc1-4b30-9134-d174947e5597" componentID="Audition.Mute" id="clipMute" name="Mute" powered="true">
            <parameter index="0" parameterValue="0"/>
            <parameter index="1" name="mute" parameterValue="0"/>
          </component>
          <component componentGuid="6a3c029d-bbfc-4a09-b6a1-b31bd0f21e0c" componentID="Audition.StereoPanner" id="clipPan" name="StereoPanner" powered="true">
            <parameter index="0" name="声像" parameterValue="0"/>
          </component>
          <fadeIn crossFadeLinkType="linkedAsymmetric" endPoint="0" shape="19" startPoint="0" type="log"/>
          <fadeOut crossFadeLinkType="linkedAsymmetric" endPoint="750390" shape="18" startPoint="749885" type="log"/>
          <editParameter parameterIndex="0" slotIndex="4294967281"/>
          <editParameter parameterIndex="0" slotIndex="4294967280"/>
          <channelMap>
            <channel index="0" sourceIndex="0"/>
            <channel index="1" sourceIndex="1"/>
          </channelMap>
        </audioClip>
        <audioClip clipAutoCrossfade="true" crossFadeHeadClipID="16" crossFadeTailClipID="-1" endPoint="4032475" fileID="3" hue="-1" id="17" lockedInTime="false" looped="false" name="小提琴" offline="false" select="false" sourceInPoint="1483175" sourceOutPoint="1565840" startPoint="3949810" zOrder="10">
          <component componentGuid="38ffb7d3-ac16-45c0-85b2-2ad1f33d4fe0" componentID="Audition.Fader" id="clipGain" name="volume" powered="true">
            <parameter index="0" name="volume" parameterValue="1.86180150508880615234375"/>
            <parameter index="1" name="static gain" parameterValue="1"/>
          </component>
          <component componentGuid="02185096-333d-464b-9162-c71cd57be1bb" componentID="Audition.Mute" id="clipMute" name="Mute" powered="true">
            <parameter index="0" parameterValue="0"/>
            <parameter index="1" name="mute" parameterValue="0"/>
          </component>
          <component componentGuid="13c70a38-15b4-4025-96a3-4c758bd94e8c" componentID="Audition.StereoPanner" id="clipPan" name="StereoPanner" powered="true">
            <parameter index="0" name="声像" parameterValue="0"/>
          </component>
          <fadeIn crossFadeLinkType="linkedAsymmetric" endPoint="505" shape="19" startPoint="0" type="log"/>
          <fadeOut crossFadeLinkType="linkedAsymmetric" endPoint="82665" shape="19" startPoint="82665" type="log"/>
          <editParameter parameterIndex="0" slotIndex="4294967281"/>
          <editParameter parameterIndex="0" slotIndex="4294967280"/>
          <channelMap>
            <channel index="0" sourceIndex="0"/>
            <channel index="1" sourceIndex="1"/>
          </channelMap>
        </audioClip>
        <audioClip clipAutoCrossfade="true" crossFadeHeadClipID="-1" crossFadeTailClipID="-1" endPoint="4112132" fileID="3" hue="-1" id="18" lockedInTime="false" looped="false" name="小提琴" offline="false" select="false" sourceInPoint="1564722" sourceOutPoint="1643699" startPoint="4033155" zOrder="6">
          <component componentGuid="be4b31da-e628-457a-93f2-176db692bd45" componentID="Audition.Fader" id="clipGain" name="volume" powered="true">
            <parameter index="0" name="volume" parameterValue="1.86180150508880615234375"/>
            <parameter index="1" name="static gain" parameterValue="1"/>
          </component>
          <component componentGuid="ffb70055-adc6-4d6b-b600-96ebf03980e8" componentID="Audition.Mute" id="clipMute" name="Mute" powered="true">
            <parameter index="0" parameterValue="0"/>
            <parameter index="1" name="mute" parameterValue="0"/>
          </component>
          <component componentGuid="d1568b08-8d7b-44d7-a5bc-5f39a9ac83f7" componentID="Audition.StereoPanner" id="clipPan" name="StereoPanner" powered="true">
            <parameter index="0" name="声像" parameterValue="0"/>
          </component>
          <fadeIn crossFadeLinkType="linkedAsymmetric" endPoint="0" shape="0" startPoint="0" type="cosine"/>
          <fadeOut crossFadeLinkType="linkedAsymmetric" endPoint="78977" shape="19" startPoint="78977" type="log"/>
          <editParameter parameterIndex="0" slotIndex="4294967281"/>
          <editParameter parameterIndex="0" slotIndex="4294967280"/>
          <channelMap>
            <channel index="0" sourceIndex="0"/>
            <channel index="1" sourceIndex="1"/>
          </channelMap>
        </audioClip>
        <audioClip clipAutoCrossfade="true" crossFadeHeadClipID="-1" crossFadeTailClipID="-1" endPoint="4275343" fileID="3" hue="-1" id="19" lockedInTime="false" looped="false" name="小提琴" offline="false" select="false" sourceInPoint="1648958" sourceOutPoint="1809544" startPoint="4114757" zOrder="13">
          <component componentGuid="630b01d8-99db-4140-af6e-7864dd072d1f" componentID="Audition.Fader" id="clipGain" name="volume" powered="true">
            <parameter index="0" name="volume" parameterValue="1.86180150508880615234375"/>
            <parameter index="1" name="static gain" parameterValue="1"/>
          </component>
          <component componentGuid="b444c264-9145-4e0e-b1e6-1231a719f1cb" componentID="Audition.Mute" id="clipMute" name="Mute" powered="true">
            <parameter index="0" parameterValue="0"/>
            <parameter index="1" name="mute" parameterValue="0"/>
          </component>
          <component componentGuid="5f04c325-1848-4242-8828-31cd8b2858b6" componentID="Audition.StereoPanner" id="clipPan" name="StereoPanner" powered="true">
            <parameter index="0" name="声像" parameterValue="0"/>
          </component>
          <fadeIn crossFadeLinkType="linkedAsymmetric" endPoint="0" shape="0" startPoint="0" type="cosine"/>
          <fadeOut crossFadeLinkType="linkedAsymmetric" endPoint="160586" shape="19" startPoint="160586" type="log"/>
          <editParameter parameterIndex="0" slotIndex="4294967281"/>
          <editParameter parameterIndex="0" slotIndex="4294967280"/>
          <channelMap>
            <channel index="0" sourceIndex="0"/>
            <channel index="1" sourceIndex="1"/>
          </channelMap>
        </audioClip>
        <audioClip clipAutoCrossfade="true" crossFadeHeadClipID="-1" crossFadeTailClipID="-1" endPoint="4509295" fileID="3" hue="-1" id="20" lockedInTime="false" looped="false" name="小提琴" offline="false" select="false" sourceInPoint="1811387" sourceOutPoint="2040833" startPoint="4279849" zOrder="21">
          <component componentGuid="06863c10-b721-4b88-87f4-e76958b9d6e6" componentID="Audition.Fader" id="clipGain" name="volume" powered="true">
            <parameter index="0" name="volume" parameterValue="1.86180150508880615234375"/>
            <parameter index="1" name="static gain" parameterValue="1"/>
          </component>
          <component componentGuid="002bae7e-8e3a-4bde-a49d-2f19fe4a6e0a" componentID="Audition.Mute" id="clipMute" name="Mute" powered="true">
            <parameter index="0" parameterValue="0"/>
            <parameter index="1" name="mute" parameterValue="0"/>
          </component>
          <component componentGuid="8191b740-43b2-44f0-bae6-b8d189f4b7ca" componentID="Audition.StereoPanner" id="clipPan" name="StereoPanner" powered="true">
            <parameter index="0" name="声像" parameterValue="0"/>
          </component>
          <fadeIn crossFadeLinkType="linkedAsymmetric" endPoint="0" shape="0" startPoint="0" type="cosine"/>
          <fadeOut crossFadeLinkType="linkedAsymmetric" endPoint="229446" shape="18" startPoint="229446" type="log"/>
          <editParameter parameterIndex="0" slotIndex="4294967280"/>
          <editParameter parameterIndex="0" slotIndex="4294967281"/>
          <channelMap>
            <channel index="0" sourceIndex="0"/>
            <channel index="1" sourceIndex="1"/>
          </channelMap>
        </audioClip>
        <audioClip clipAutoCrossfade="true" crossFadeHeadClipID="-1" crossFadeTailClipID="22" endPoint="5277450" fileID="4" hue="-1" id="21" lockedInTime="false" looped="false" name="小提琴_solo" offline="false" select="false" sourceInPoint="2050504" sourceOutPoint="2811963" startPoint="4515991" zOrder="20">
          <component componentGuid="f58bc55c-8d70-4cdd-b4c6-f71402298bb2" componentID="Audition.Fader" id="clipGain" name="volume" powered="true">
            <parameter index="0" name="volume" parameterValue="0.03781305253505706787109375">
              <parameterKeyframes enableSplines="false" readOnly="false">
                <parameterKeyframe sampleOffset="2139397" select="false" type="linear" value="0.149999916553497314453125"/>
                <parameterKeyframe sampleOffset="2144979" select="false" type="linear" value="0.64999997615814208984375"/>
              </parameterKeyframes>
            </parameter>
            <parameter index="1" name="static gain" parameterValue="1"/>
          </component>
          <component componentGuid="8d85b7c9-fada-436b-ab28-8975b4e1ada9" componentID="Audition.Mute" id="clipMute" name="Mute" powered="true">
            <parameter index="0" parameterValue="0"/>
            <parameter index="1" name="mute" parameterValue="0"/>
          </component>
          <component componentGuid="d7744a7d-ca08-4dcb-a447-75975cf6f7e2" componentID="Audition.StereoPanner" id="clipPan" name="StereoPanner" powered="true">
            <parameter index="0" name="声像" parameterValue="0"/>
          </component>
          <fadeIn crossFadeLinkType="linkedAsymmetric" endPoint="0" shape="19" startPoint="0" type="log"/>
          <fadeOut crossFadeLinkType="linkedAsymmetric" endPoint="761459" shape="19" startPoint="751186" type="log"/>
          <editParameter parameterIndex="0" slotIndex="4294967281"/>
          <editParameter parameterIndex="0" slotIndex="4294967280"/>
          <channelMap>
            <channel index="0" sourceIndex="0"/>
            <channel index="1" sourceIndex="1"/>
          </channelMap>
        </audioClip>
        <audioClip clipAutoCrossfade="true" crossFadeHeadClipID="21" crossFadeTailClipID="-1" endPoint="5304241" fileID="3" hue="-1" id="22" lockedInTime="false" looped="false" name="小提琴" offline="false" select="false" sourceInPoint="2802064" sourceOutPoint="2839128" startPoint="5267177" zOrder="56">
          <component componentGuid="42273dad-0dc7-4698-812a-ef2f358508ff" componentID="Audition.Fader" id="clipGain" name="volume" powered="true">
            <parameter index="0" name="volume" parameterValue="1.86180150508880615234375">
              <parameterKeyframes enableSplines="false" readOnly="false">
                <parameterKeyframe sampleOffset="2801758" select="false" type="linear" value="0.80789470672607421875"/>
              </parameterKeyframes>
            </parameter>
            <parameter index="1" name="static gain" parameterValue="1"/>
          </component>
          <component componentGuid="dcbfe05d-7aa2-4a32-bd17-c5af8bd76d33" componentID="Audition.Mute" id="clipMute" name="Mute" powered="true">
            <parameter index="0" parameterValue="0"/>
            <parameter index="1" name="mute" parameterValue="0"/>
          </component>
          <component componentGuid="d6786e5e-0ae3-47df-81a3-dc32c289d454" componentID="Audition.StereoPanner" id="clipPan" name="StereoPanner" powered="true">
            <parameter index="0" name="声像" parameterValue="0"/>
          </component>
          <fadeIn crossFadeLinkType="linkedAsymmetric" endPoint="10273" shape="18" startPoint="0" type="log"/>
          <fadeOut crossFadeLinkType="linkedAsymmetric" endPoint="37064" shape="18" startPoint="37064" type="log"/>
          <editParameter parameterIndex="0" slotIndex="4294967281"/>
          <editParameter parameterIndex="0" slotIndex="4294967280"/>
          <channelMap>
            <channel index="0" sourceIndex="0"/>
            <channel index="1" sourceIndex="1"/>
          </channelMap>
        </audioClip>
      </audioTrack>
      <audioTrack automationLaneOpenState="false" id="10020" index="5" select="false" visible="true">
        <trackParameters trackHeight="104" trackHue="32" trackMinimized="false">
          <name/>
        </trackParameters>
        <trackAudioParameters audioChannelType="stereo" automationMode="1" monitoring="false" recordArmed="false" solo="false" soloSafe="false">
          <trackOutput outputID="10000" type="trackID"/>
          <trackInput inputID="1"/>
          <component componentGuid="a1a1f0d1-cab2-4c63-a35f-3815db9ca426" componentID="Audition.Fader" id="trackFader" name="volume" powered="true">
            <parameter index="0" name="volume" parameterValue="1"/>
            <parameter index="1" name="static gain" parameterValue="1"/>
          </component>
          <component componentGuid="fca85229-f7c4-476f-826c-18de35c8d393" componentID="Audition.Mute" id="trackMute" name="Mute" powered="true">
            <parameter index="0" parameterValue="0"/>
            <parameter index="1" name="mute" parameterValue="0"/>
          </component>
          <component componentGuid="db0f12ba-616a-4fbf-9863-175aad4c7e47" componentID="Audition.StereoPanner" id="trackPan" name="StereoPanner" powered="true">
            <parameter index="0" name="声像" parameterValue="0"/>
          </component>
          <component componentGuid="6d043c9d-f187-40ba-ae52-79a4099d3cab" componentID="Audition.EQ" id="trackEQ" name="EQ" powered="false">
            <parameter index="0" name="下限频率" parameterValue="0.000834028352983295917510986328125"/>
            <parameter index="1" name="下限增益" parameterValue="0.5"/>
            <parameter index="2" name="上限频率" parameterValue="0.74979150295257568359375"/>
            <parameter index="3" name="上限频率增益" parameterValue="0.5"/>
            <parameter index="4" name="EQ 频段 1 中置频率" parameterValue="0.00125104258768260478973388671875"/>
            <parameter index="5" name="EQ 频段 1 Q" parameterValue="0.000199989997781813144683837890625"/>
            <parameter index="6" name="EQ 频段 1 增益" parameterValue="0.5"/>
            <parameter index="7" name="EQ 频段 1 启用" parameterValue="1"/>
            <parameter index="8" name="EQ 频段 2 中置频率" parameterValue="0.0075062550604343414306640625"/>
            <parameter index="9" name="EQ 频段 2 Q" parameterValue="0.000199989997781813144683837890625"/>
            <parameter index="10" name="EQ 频段 2 增益" parameterValue="0.5"/>
            <parameter index="11" name="EQ 频段 2 启用" parameterValue="1"/>
            <parameter index="12" name="EQ 频段 3 中置频率" parameterValue="0.0325271077454090118408203125"/>
            <parameter index="13" name="EQ 频段 3 Q" parameterValue="0.000199989997781813144683837890625"/>
            <parameter index="14" name="EQ 频段 3 增益" parameterValue="0.5"/>
            <parameter index="15" name="EQ 频段 3 启用" parameterValue="1"/>
            <parameter index="16" name="EQ 频段 4 中置频率" parameterValue="0.13261051476001739501953125"/>
            <parameter index="17" name="EQ 频段 4 Q" parameterValue="0.000199989997781813144683837890625"/>
            <parameter index="18" name="EQ 频段 4 增益" parameterValue="0.5"/>
            <parameter index="19" name="EQ 频段 4 启用" parameterValue="1"/>
            <parameter index="20" name="EQ 频段 5 中置频率" parameterValue="0.532944142818450927734375"/>
            <parameter index="21" name="EQ 频段 5 Q" parameterValue="0.000199989997781813144683837890625"/>
            <parameter index="22" name="EQ 频段 5 增益" parameterValue="0.5"/>
            <parameter index="23" name="EQ 频段 5 启用" parameterValue="1"/>
            <parameter index="24" name="主控增益" parameterValue="0.666666686534881591796875"/>
            <parameter index="25" name="恒定 Q" parameterValue="1"/>
            <parameter index="26" name="下限滤镜顺序" parameterValue="0"/>
            <parameter index="27" name="上限频率滤镜顺序" parameterValue="0"/>
            <parameter index="28" name="超静音模式" parameterValue="0"/>
            <parameter index="29" name="下限启用" parameterValue="1"/>
            <parameter index="30" name="上限频率启用" parameterValue="1"/>
            <parameter index="31" name="原始采样率" parameterValue="0.25"/>
            <parameter index="32" name="EQ 频段 1 频带宽" parameterValue="0.002499990165233612060546875"/>
            <parameter index="33" name="EQ 频段 2 频段宽度" parameterValue="0.0099999904632568359375"/>
            <parameter index="34" name="EQ 频段 3 频段宽度" parameterValue="0.0399999916553497314453125"/>
            <parameter index="35" name="EQ 频段 4 频段宽度" parameterValue="0.15999998152256011962890625"/>
            <parameter index="36" name="EQ 频段 5 频段宽度" parameterValue="0.63999998569488525390625"/>
            <parameter index="37" name="高通滤波启用" parameterValue="0"/>
            <parameter index="38" name="高通切除频率" parameterValue="0"/>
            <parameter index="39" name="高通斜率" parameterValue="0.4000000059604644775390625"/>
            <parameter index="40" name="低通滤波启用" parameterValue="0"/>
            <parameter index="41" name="低通切除频率" parameterValue="0.833194315433502197265625"/>
            <parameter index="42" name="低通斜率" parameterValue="0.4000000059604644775390625"/>
            <parameter index="43" name="不使用" parameterValue="0"/>
            <parameter index="44" name="下限图示范围" parameterValue="1"/>
          </component>
        </trackAudioParameters>
        <effectsRack preFader="true">
          <component componentGuid="6f27be5a-ae3f-44e9-a3fa-c32287ef6f98" componentID="Audition.ComponentGroup" id="rackMix" powered="true">
            <parameter index="0" parameterValue="0"/>
            <parameter index="1" parameterValue="0"/>
          </component>
          <component componentGuid="78e73b7a-756e-4338-a716-22f142b727f3" id="rackInput" powered="true">
            <parameter index="0" parameterValue="1"/>
            <parameter index="1" parameterValue="0"/>
          </component>
          <component componentGuid="ccc5f6ec-f0cd-4513-8ae4-8b7c6320b1f1" id="rackOutput" powered="true">
            <parameter index="0" parameterValue="1"/>
            <parameter index="1" parameterValue="0"/>
          </component>
          <slot powered="true" slotIndex="0">
            <component componentGuid="09401370-5b90-4d02-818c-20f4c0f3c85d" componentID="4f327230-f04c-4c34-9ea5-a998b4459221" editorHeight="530" editorLeft="-1248" editorTop="255" editorWidth="576" name="FFT 滤波器" presetName="（自定义）">
              <busConfig><![CDATA[{"in":[{"layout":[100,101],"name":"","type":0}],"out":[{"layout":[100,101],"name":"","type":0}]}]]></busConfig>
              <channelMap direction="input">
                <channel index="0" sourceIndex="0"/>
                <channel index="1" sourceIndex="1"/>
              </channelMap>
              <channelMap direction="output">
                <channel index="0" sourceIndex="0"/>
                <channel index="1" sourceIndex="1"/>
              </channelMap>
              <presetChunkData><![CDATA[AIA7RwAAAAAQP3w9AADAPgAAAAAOdFo6AACAPwAAAAAAAIA/AACAQA50WjoAAAAAOlgFPLeUND8RN3w/lbQ2PwAAgD8AAAAA]]></presetChunkData>
            </component>
          </slot>
          <slot powered="true" slotIndex="1">
            <component componentGuid="cbf54e92-575b-4d87-98b5-be3ea30d59ae" componentID="3792d46f-5036-4be6-ab5a-177622246a5d" editorHeight="489" editorLeft="-672" editorTop="275" editorWidth="531" name="图形均衡器（10 段）" presetName="（自定义）">
              <busConfig><![CDATA[{"in":[{"layout":[100,101],"name":"","type":0}],"out":[{"layout":[100,101],"name":"","type":0}]}]]></busConfig>
              <channelMap direction="input">
                <channel index="0" sourceIndex="0"/>
                <channel index="1" sourceIndex="1"/>
              </channelMap>
              <channelMap direction="output">
                <channel index="0" sourceIndex="0"/>
                <channel index="1" sourceIndex="1"/>
              </channelMap>
              <parameter index="0" name="精度" parameterValue="0.12099699676036834716796875"/>
              <parameter index="1" name="主控增益" parameterValue="0.5"/>
              <parameter index="2" name="范围" parameterValue="0.3924050629138946533203125"/>
              <parameter index="3" name="重置" parameterValue="0"/>
              <parameter index="4" name="EQ 频段 1" parameterValue="0.4038247168064117431640625"/>
              <parameter index="5" name="EQ 频段 2" parameterValue="0.406422078609466552734375"/>
              <parameter index="6" name="EQ 频段 3" parameterValue="0.4116882979869842529296875"/>
              <parameter index="7" name="EQ 频段 4" parameterValue="0.4350649416446685791015625"/>
              <parameter index="8" name="EQ 频段 5" parameterValue="0.5"/>
              <parameter index="9" name="EQ 频段 6" parameterValue="0.5"/>
              <parameter index="10" name="EQ 频段 7" parameterValue="0.48831164836883544921875"/>
              <parameter index="11" name="EQ 频段 8" parameterValue="0.48701298236846923828125"/>
              <parameter index="12" name="EQ 频段 9" parameterValue="0.50064933300018310546875"/>
              <parameter index="13" name="EQ 频段 10" parameterValue="0.5051233768463134765625"/>
              <parameter index="14" name="正在处理" parameterValue="0"/>
            </component>
          </slot>
          <slot powered="true" slotIndex="2">
            <component componentGuid="c44e8ac4-5071-4a6d-9bb0-e9a0661f13a3" componentID="2:1414016307 TH3-64" editorHeight="752" editorLeft="-1513" editorTop="144" editorWidth="1106" name="TH3-64" presetName="（自定义）">
              <busConfig><![CDATA[{"in":[{"layout":[100,101],"name":"Stereo In","type":0}],"out":[{"layout":[100,101],"name":"Stereo Out","type":0}]}]]></busConfig>
              <channelMap direction="input">
                <channel index="0" sourceIndex="0"/>
                <channel index="1" sourceIndex="1"/>
              </channelMap>
              <channelMap direction="output">
                <channel index="0" sourceIndex="0"/>
                <channel index="1" sourceIndex="1"/>
              </channelMap>
              <presetChunkData><![CDATA[VkMyIQ8KAAA8c2V0dXAgdmVyc2lvbj0iMSIgdmlld3BvcnRfY2VudHJlX3g9IjQzMyIgdmlld3BvcnRfY2VudHJlX3k9IjI2MSIgdmlld3BvcnRfem9vbT0iMSIgc2V0dXBfYnBtPSIxMjAiIHNldHVwX2RpcnR5PSIxIiBzb3VyY2VfcHJlc2V0X25hbWU9IiIgc291cmNlX3ByZXNldF9pZD0iIiBjb3JlX2JwbT0iMTIwIiBicG1fc291cmNlPSIwIj48cmFpbD48ZWZmZWN0IGlkPSJDQUJfVklCUk8iIHRoM19lZmZlY3RJZD0iMTAwMDA4Ij48cGFyYW1ldGVycz48cGFyYW1ldGVyIG5hbWU9InBvd2VyIiB1c2VyX3ZhbHVlPSIxIi8+PHBhcmFtZXRlciBuYW1lPSJtaWMsMCxtb2RlbCIgdXNlcl92YWx1ZT0iMCIvPjxwYXJhbWV0ZXIgbmFtZT0ibWljLDAseCIgdXNlcl92YWx1ZT0iMC41Ii8+PHBhcmFtZXRlciBuYW1lPSJtaWMsMCx5IiB1c2VyX3ZhbHVlPSIwLjUiLz48cGFyYW1ldGVyIG5hbWU9Im1pYywwLGRpc3QiIHVzZXJfdmFsdWU9IjAiLz48cGFyYW1ldGVyIG5hbWU9Im1pYywwLHNwayIgdXNlcl92YWx1ZT0iMCIvPjxwYXJhbWV0ZXIgbmFtZT0ibWljLDAscGhhc2UiIHVzZXJfdmFsdWU9IjAiLz48cGFyYW1ldGVyIG5hbWU9Im1pYywxLG1vZGVsIiB1c2VyX3ZhbHVlPSIwIi8+PHBhcmFtZXRlciBuYW1lPSJtaWMsMSx4IiB1c2VyX3ZhbHVlPSIwLjc1Ii8+PHBhcmFtZXRlciBuYW1lPSJtaWMsMSx5IiB1c2VyX3ZhbHVlPSIwLjUiLz48cGFyYW1ldGVyIG5hbWU9Im1pYywxLGRpc3QiIHVzZXJfdmFsdWU9IjAiLz48cGFyYW1ldGVyIG5hbWU9Im1pYywxLHNwayIgdXNlcl92YWx1ZT0iMSIvPjxwYXJhbWV0ZXIgbmFtZT0ibWljLDEscGhhc2UiIHVzZXJfdmFsdWU9IjAiLz48cGFyYW1ldGVyIG5hbWU9ImFtYmllbmNlIiB1c2VyX3ZhbHVlPSIwIi8+PHBhcmFtZXRlciBuYW1lPSJsZXYsbWljMCIgdXNlcl92YWx1ZT0iMCIvPjxwYXJhbWV0ZXIgbmFtZT0ibGV2LG1pYzEiIHVzZXJfdmFsdWU9Ii0xMDAwIi8+PHBhcmFtZXRlciBuYW1lPSJsZXYscmVhciIgdXNlcl92YWx1ZT0iLTEwMDAiLz48cGFyYW1ldGVyIG5hbWU9Imxldiw0NWRlZyIgdXNlcl92YWx1ZT0iLTEwMDAiLz48cGFyYW1ldGVyIG5hbWU9InJlc3BpcmUiIHVzZXJfdmFsdWU9IjEiLz48cGFyYW1ldGVyIG5hbWU9ImhwZiIgdXNlcl92YWx1ZT0iMCIvPjxwYXJhbWV0ZXIgbmFtZT0ibHBmIiB1c2VyX3ZhbHVlPSIwIi8+PC9wYXJhbWV0ZXJzPjwvZWZmZWN0PjwvcmFpbD48c3BlY2lhbF9lZmZlY3RzPjxlZmZlY3QgaWQ9IlRBX01BU1RFUiIgdGgzX2VmZmVjdElkPSIxMDAwIj48cGFyYW1ldGVycz48cGFyYW1ldGVyIG5hbWU9ImhpZ2hfbG93IiB1c2VyX3ZhbHVlPSIwIi8+PHBhcmFtZXRlciBuYW1lPSJvdXRfbGV2ZWwiIHVzZXJfdmFsdWU9IjAiLz48cGFyYW1ldGVyIG5hbWU9ImdhdGVfdHJlc2giIHVzZXJfdmFsdWU9Ii0xMDAwIi8+PHBhcmFtZXRlciBuYW1lPSJsb3ciIHVzZXJfdmFsdWU9IjAiLz48cGFyYW1ldGVyIG5hbWU9ImhpZ2giIHVzZXJfdmFsdWU9IjAiLz48cGFyYW1ldGVyIG5hbWU9InJldmVyYl9vZmYiIHVzZXJfdmFsdWU9IjAiLz48cGFyYW1ldGVyIG5hbWU9ImRlbGF5X29mZiIgdXNlcl92YWx1ZT0iMCIvPjxwYXJhbWV0ZXIgbmFtZT0iaW5wdXRfbW9kZSIgdXNlcl92YWx1ZT0iMCIvPjxwYXJhbWV0ZXIgbmFtZT0idHVuZXItcG93ZXIiIHVzZXJfdmFsdWU9IjAiLz48cGFyYW1ldGVyIG5hbWU9InR1bmVyLW11dGUiIHVzZXJfdmFsdWU9IjAiLz48cGFyYW1ldGVyIG5hbWU9IndOZXdFZGl0b3IiIHVzZXJfdmFsdWU9IjEwNjAiLz48cGFyYW1ldGVyIG5hbWU9ImhOZXdFZGl0b3IiIHVzZXJfdmFsdWU9IjU4MCIvPjxwYXJhbWV0ZXIgbmFtZT0ibWF4TmV3RWRpdG9yIiB1c2VyX3ZhbHVlPSIwIi8+PHBhcmFtZXRlciBuYW1lPSJwTmV3RWRpdG9yIiB1c2VyX3ZhbHVlPSIxIi8+PHBhcmFtZXRlciBuYW1lPSJjTmV3RWRpdG9yIiB1c2VyX3ZhbHVlPSIxIi8+PHBhcmFtZXRlciBuYW1lPSJvdmVydmlld1Zpc2libGUiIHVzZXJfdmFsdWU9IjEiLz48L3BhcmFtZXRlcnM+PC9lZmZlY3Q+PGVmZmVjdCBpZD0iVEFfTE9PUEVSIiB0aDNfZWZmZWN0SWQ9IjIwMDAiPjxwYXJhbWV0ZXJzPjxwYXJhbWV0ZXIgbmFtZT0icG93ZXIiIHVzZXJfdmFsdWU9IjEiLz48cGFyYW1ldGVyIG5hbWU9InNzeW5jIiB1c2VyX3ZhbHVlPSIwIi8+PHBhcmFtZXRlciBuYW1lPSJyZWNfcGFuIiB1c2VyX3ZhbHVlPSIwIi8+PHBhcmFtZXRlciBuYW1lPSJyZWNfdm9sdW1lIiB1c2VyX3ZhbHVlPSIwIi8+PHBhcmFtZXRlciBuYW1lPSJwbGF5X3ZvbHVtZSIgdXNlcl92YWx1ZT0iMCIvPjxwYXJhbWV0ZXIgbmFtZT0ibWV0cm9ub21lIiB1c2VyX3ZhbHVlPSIwIi8+PHBhcmFtZXRlciBuYW1lPSJyZXZlcnNlIiB1c2VyX3ZhbHVlPSIwIi8+PHBhcmFtZXRlciBuYW1lPSJhdXRvc3RhcnQiIHVzZXJfdmFsdWU9IjAiLz48L3BhcmFtZXRlcnM+PC9lZmZlY3Q+PC9zcGVjaWFsX2VmZmVjdHM+PG1pZGlfYmluZGluZ3MvPjxhdXRvbWF0aW9uX3Nsb3RzPjxzbG90Lz48c2xvdC8+PHNsb3QvPjxzbG90Lz48c2xvdC8+PHNsb3QvPjxzbG90Lz48c2xvdC8+PC9hdXRvbWF0aW9uX3Nsb3RzPjwvc2V0dXA+AA==]]></presetChunkData>
            </component>
          </slot>
          <slot powered="true" slotIndex="3">
            <component componentGuid="4f3224bf-017f-475c-95f2-1782ff02a841" componentID="e0b23f05-f1a7-4ef7-9b50-7ec3e3002058" editorHeight="378" editorLeft="-1190" editorTop="331" editorWidth="461" name="强制限幅" presetName="（自定义）">
              <busConfig><![CDATA[{"in":[{"layout":[100,101],"name":"","type":0}],"out":[{"layout":[100,101],"name":"","type":0}]}]]></busConfig>
              <channelMap direction="input">
                <channel index="0" sourceIndex="0"/>
                <channel index="1" sourceIndex="1"/>
              </channelMap>
              <channelMap direction="output">
                <channel index="0" sourceIndex="0"/>
                <channel index="1" sourceIndex="1"/>
              </channelMap>
              <parameter index="0" name="最大振幅" parameterValue="0.99800002574920654296875"/>
              <parameter index="1" name="输入增强" parameterValue="0.76466667652130126953125"/>
              <parameter index="2" name="预测时间" parameterValue="0.13333301246166229248046875"/>
              <parameter index="3" name="释放时间" parameterValue="0.375"/>
              <parameter index="4" name="链接声道" parameterValue="1"/>
              <parameter index="5" name="衰减至天花板" parameterValue="1"/>
              <parameter index="6" name="限制实际峰值" parameterValue="0"/>
            </component>
          </slot>
        </effectsRack>
        <editParameter parameterIndex="0" slotIndex="4294967280"/>
        <audioClip clipAutoCrossfade="true" crossFadeHeadClipID="-1" crossFadeTailClipID="-1" endPoint="4608581" fileID="4" hue="-1" id="0" lockedInTime="false" looped="false" name="小提琴_solo" offline="false" select="false" sourceInPoint="1483478" sourceOutPoint="2142024" startPoint="3950035" zOrder="0">
          <component componentGuid="b54976c4-e308-4d0a-b40a-ac69ce521fab" componentID="Audition.Fader" id="clipGain" name="volume" powered="true">
            <parameter index="0" name="volume" parameterValue="1"/>
            <parameter index="1" name="static gain" parameterValue="1"/>
          </component>
          <component componentGuid="a41c3394-2bad-45f1-a7bc-d7ce259a4885" componentID="Audition.Mute" id="clipMute" name="Mute" powered="true">
            <parameter index="0" parameterValue="0"/>
            <parameter index="1" name="mute" parameterValue="0"/>
          </component>
          <component componentGuid="35f5d3f1-0fba-4c41-beeb-ba9497ad9e1e" componentID="Audition.StereoPanner" id="clipPan" name="StereoPanner" powered="true">
            <parameter index="0" name="声像" parameterValue="0"/>
          </component>
          <fadeIn crossFadeLinkType="linkedAsymmetric" endPoint="0" shape="18" startPoint="0" type="log"/>
          <fadeOut crossFadeLinkType="linkedAsymmetric" endPoint="658546" shape="0" startPoint="658546" type="cosine"/>
          <editParameter parameterIndex="0" slotIndex="4294967281"/>
          <editParameter parameterIndex="0" slotIndex="4294967280"/>
          <channelMap>
            <channel index="0" sourceIndex="0"/>
            <channel index="1" sourceIndex="1"/>
          </channelMap>
        </audioClip>
      </audioTrack>
      <audioTrack automationLaneOpenState="false" id="10021" index="6" select="false" visible="true">
        <trackParameters trackHeight="104" trackHue="160" trackMinimized="false">
          <name>吉他solo1</name>
        </trackParameters>
        <trackAudioParameters audioChannelType="stereo" automationMode="1" monitoring="false" recordArmed="false" solo="false" soloSafe="false">
          <trackOutput outputID="10000" type="trackID"/>
          <trackInput inputID="1"/>
          <component componentGuid="ec4aad86-b6ad-4aba-8132-9332b9736fc6" componentID="Audition.Fader" id="trackFader" name="volume" powered="true">
            <parameter index="0" name="volume" parameterValue="1.1481535434722900390625"/>
            <parameter index="1" name="static gain" parameterValue="1"/>
          </component>
          <component componentGuid="faed38ca-cd76-4e0c-906c-1874740e8dba" componentID="Audition.Mute" id="trackMute" name="Mute" powered="true">
            <parameter index="0" parameterValue="0"/>
            <parameter index="1" name="mute" parameterValue="0"/>
          </component>
          <component componentGuid="a8db60cd-63e8-448a-94e9-31a8fa6b2519" componentID="Audition.StereoPanner" id="trackPan" name="StereoPanner" powered="true">
            <parameter index="0" name="声像" parameterValue="0"/>
          </component>
          <component componentGuid="1bc2a430-88f8-485a-8944-bb64d4a7475a" componentID="Audition.EQ" id="trackEQ" name="EQ" powered="false">
            <parameter index="0" name="下限频率" parameterValue="0.000834028352983295917510986328125"/>
            <parameter index="1" name="下限增益" parameterValue="0.5"/>
            <parameter index="2" name="上限频率" parameterValue="0.74979150295257568359375"/>
            <parameter index="3" name="上限频率增益" parameterValue="0.5"/>
            <parameter index="4" name="EQ 频段 1 中置频率" parameterValue="0.00125104258768260478973388671875"/>
            <parameter index="5" name="EQ 频段 1 Q" parameterValue="0.000199989997781813144683837890625"/>
            <parameter index="6" name="EQ 频段 1 增益" parameterValue="0.5"/>
            <parameter index="7" name="EQ 频段 1 启用" parameterValue="1"/>
            <parameter index="8" name="EQ 频段 2 中置频率" parameterValue="0.0075062550604343414306640625"/>
            <parameter index="9" name="EQ 频段 2 Q" parameterValue="0.000199989997781813144683837890625"/>
            <parameter index="10" name="EQ 频段 2 增益" parameterValue="0.5"/>
            <parameter index="11" name="EQ 频段 2 启用" parameterValue="1"/>
            <parameter index="12" name="EQ 频段 3 中置频率" parameterValue="0.0325271077454090118408203125"/>
            <parameter index="13" name="EQ 频段 3 Q" parameterValue="0.000199989997781813144683837890625"/>
            <parameter index="14" name="EQ 频段 3 增益" parameterValue="0.5"/>
            <parameter index="15" name="EQ 频段 3 启用" parameterValue="1"/>
            <parameter index="16" name="EQ 频段 4 中置频率" parameterValue="0.13261051476001739501953125"/>
            <parameter index="17" name="EQ 频段 4 Q" parameterValue="0.000199989997781813144683837890625"/>
            <parameter index="18" name="EQ 频段 4 增益" parameterValue="0.5"/>
            <parameter index="19" name="EQ 频段 4 启用" parameterValue="1"/>
            <parameter index="20" name="EQ 频段 5 中置频率" parameterValue="0.532944142818450927734375"/>
            <parameter index="21" name="EQ 频段 5 Q" parameterValue="0.000199989997781813144683837890625"/>
            <parameter index="22" name="EQ 频段 5 增益" parameterValue="0.5"/>
            <parameter index="23" name="EQ 频段 5 启用" parameterValue="1"/>
            <parameter index="24" name="主控增益" parameterValue="0.666666686534881591796875"/>
            <parameter index="25" name="恒定 Q" parameterValue="1"/>
            <parameter index="26" name="下限滤镜顺序" parameterValue="0"/>
            <parameter index="27" name="上限频率滤镜顺序" parameterValue="0"/>
            <parameter index="28" name="超静音模式" parameterValue="0"/>
            <parameter index="29" name="下限启用" parameterValue="1"/>
            <parameter index="30" name="上限频率启用" parameterValue="1"/>
            <parameter index="31" name="原始采样率" parameterValue="0.25"/>
            <parameter index="32" name="EQ 频段 1 频带宽" parameterValue="0.002499990165233612060546875"/>
            <parameter index="33" name="EQ 频段 2 频段宽度" parameterValue="0.0099999904632568359375"/>
            <parameter index="34" name="EQ 频段 3 频段宽度" parameterValue="0.0399999916553497314453125"/>
            <parameter index="35" name="EQ 频段 4 频段宽度" parameterValue="0.15999998152256011962890625"/>
            <parameter index="36" name="EQ 频段 5 频段宽度" parameterValue="0.63999998569488525390625"/>
            <parameter index="37" name="高通滤波启用" parameterValue="0"/>
            <parameter index="38" name="高通切除频率" parameterValue="0"/>
            <parameter index="39" name="高通斜率" parameterValue="0.4000000059604644775390625"/>
            <parameter index="40" name="低通滤波启用" parameterValue="0"/>
            <parameter index="41" name="低通切除频率" parameterValue="0.833194315433502197265625"/>
            <parameter index="42" name="低通斜率" parameterValue="0.4000000059604644775390625"/>
            <parameter index="43" name="不使用" parameterValue="0"/>
            <parameter index="44" name="下限图示范围" parameterValue="1"/>
          </component>
        </trackAudioParameters>
        <editParameter parameterIndex="0" slotIndex="4294967280"/>
        <audioClip clipAutoCrossfade="true" crossFadeHeadClipID="-1" crossFadeTailClipID="1" endPoint="2957696" fileID="5" hue="-1" id="0" lockedInTime="false" looped="false" name="吉他1" offline="false" select="false" sourceInPoint="95997" sourceOutPoint="423654" startPoint="2630039" zOrder="0">
          <component componentGuid="de431fe2-cba9-4d80-a395-7b5d6b47d4d4" componentID="Audition.Fader" id="clipGain" name="volume" powered="true">
            <parameter index="0" name="volume" parameterValue="1"/>
            <parameter index="1" name="static gain" parameterValue="5.18800067901611328125"/>
          </component>
          <component componentGuid="16518e0b-f0fb-44e5-bdaa-5944be6bec41" componentID="Audition.Mute" id="clipMute" name="Mute" powered="true">
            <parameter index="0" parameterValue="0"/>
            <parameter index="1" name="mute" parameterValue="0"/>
          </component>
          <component componentGuid="4fdf30ac-3f48-4263-89e6-c8f1e9b904bb" componentID="Audition.StereoPanner" id="clipPan" name="StereoPanner" powered="true">
            <parameter index="0" name="声像" parameterValue="0">
              <parameterKeyframes enableSplines="false" readOnly="false">
                <parameterKeyframe sampleOffset="543640" select="false" type="linear" value="0.5"/>
              </parameterKeyframes>
            </parameter>
          </component>
          <fadeIn crossFadeLinkType="linkedAsymmetric" endPoint="0" shape="0" startPoint="0" type="cosine"/>
          <fadeOut crossFadeLinkType="linkedAsymmetric" endPoint="327657" shape="19" startPoint="325112" type="log"/>
          <editParameter parameterIndex="0" slotIndex="4294967280"/>
          <editParameter parameterIndex="0" slotIndex="4294967281"/>
          <channelMap>
            <channel index="0" sourceIndex="0"/>
            <channel index="1" sourceIndex="1"/>
          </channelMap>
        </audioClip>
        <audioClip clipAutoCrossfade="true" crossFadeHeadClipID="0" crossFadeTailClipID="-1" endPoint="3302684" fileID="5" hue="-1" id="1" lockedInTime="false" looped="false" name="吉他1" offline="false" select="false" sourceInPoint="416519" sourceOutPoint="764052" startPoint="2955151" zOrder="1">
          <component componentGuid="1074057b-a920-48cf-81fe-f1d40f4c115d" componentID="Audition.Fader" id="clipGain" name="volume" powered="true">
            <parameter index="0" name="volume" parameterValue="1"/>
            <parameter index="1" name="static gain" parameterValue="5.18800067901611328125"/>
          </component>
          <component componentGuid="7f144638-dc39-494e-970d-8b25c821f60b" componentID="Audition.Mute" id="clipMute" name="Mute" powered="true">
            <parameter index="0" parameterValue="0"/>
            <parameter index="1" name="mute" parameterValue="0"/>
          </component>
          <component componentGuid="d7dbb601-fda8-4488-8c9e-57bf42668f5f" componentID="Audition.StereoPanner" id="clipPan" name="StereoPanner" powered="true">
            <parameter index="0" name="声像" parameterValue="0">
              <parameterKeyframes enableSplines="false" readOnly="false">
                <parameterKeyframe sampleOffset="543640" select="false" type="linear" value="0.5"/>
              </parameterKeyframes>
            </parameter>
          </component>
          <fadeIn crossFadeLinkType="linkedAsymmetric" endPoint="2545" shape="18" startPoint="0" type="log"/>
          <fadeOut crossFadeLinkType="linkedAsymmetric" endPoint="347533" shape="0" startPoint="347533" type="cosine"/>
          <editParameter parameterIndex="0" slotIndex="4294967280"/>
          <editParameter parameterIndex="0" slotIndex="4294967281"/>
          <channelMap>
            <channel index="0" sourceIndex="0"/>
            <channel index="1" sourceIndex="1"/>
          </channelMap>
        </audioClip>
        <audioClip clipAutoCrossfade="true" crossFadeHeadClipID="-1" crossFadeTailClipID="-1" endPoint="5266286" fileID="3" hue="-1" id="2" lockedInTime="false" looped="false" name="小提琴" offline="false" select="false" sourceInPoint="3361168" sourceOutPoint="4082975" startPoint="4544479" zOrder="2">
          <component componentGuid="d88d2301-507d-4290-86b4-52f18948b0ae" componentID="Audition.Fader" id="clipGain" name="volume" powered="true">
            <parameter index="0" name="volume" parameterValue="1.0000000036274937255387218471014421083964407444000244140625e-15">
              <parameterKeyframes enableSplines="false" readOnly="false">
                <parameterKeyframe sampleOffset="3299767" select="false" type="linear" value="0"/>
                <parameterKeyframe sampleOffset="4115214" select="false" type="linear" value="0"/>
                <parameterKeyframe sampleOffset="4115666" select="false" type="linear" value="0.8157894611358642578125"/>
              </parameterKeyframes>
            </parameter>
            <parameter index="1" name="static gain" parameterValue="1"/>
          </component>
          <component componentGuid="263817af-8c32-4d74-a6ab-3c4ae89d16c0" componentID="Audition.Mute" id="clipMute" name="Mute" powered="true">
            <parameter index="0" parameterValue="0"/>
            <parameter index="1" name="mute" parameterValue="0"/>
          </component>
          <component componentGuid="4bbb69a7-afa7-489e-ba5f-827e0467ed7f" componentID="Audition.StereoPanner" id="clipPan" name="StereoPanner" powered="true">
            <parameter index="0" name="声像" parameterValue="0"/>
          </component>
          <fadeIn crossFadeLinkType="linkedAsymmetric" endPoint="0" shape="0" startPoint="0" type="cosine"/>
          <fadeOut crossFadeLinkType="linkedAsymmetric" endPoint="721807" shape="18" startPoint="721807" type="log"/>
          <editParameter parameterIndex="0" slotIndex="4294967280"/>
          <editParameter parameterIndex="0" slotIndex="4294967281"/>
          <channelMap>
            <channel index="0" sourceIndex="0"/>
            <channel index="1" sourceIndex="1"/>
          </channelMap>
        </audioClip>
      </audioTrack>
      <audioTrack automationLaneOpenState="false" id="10022" index="7" select="false" visible="true">
        <trackParameters trackHeight="104" trackHue="267" trackMinimized="false">
          <name>吉他solo2</name>
        </trackParameters>
        <trackAudioParameters audioChannelType="stereo" automationMode="1" monitoring="false" recordArmed="false" solo="false" soloSafe="false">
          <trackOutput outputID="10000" type="trackID"/>
          <trackInput inputID="1"/>
          <component componentGuid="9edd5f55-a1ab-491f-a067-45e929e45f10" componentID="Audition.Fader" id="trackFader" name="volume" powered="true">
            <parameter index="0" name="volume" parameterValue="1"/>
            <parameter index="1" name="static gain" parameterValue="1"/>
          </component>
          <component componentGuid="c5d780a5-3c61-4620-ac13-45935ebe5988" componentID="Audition.Mute" id="trackMute" name="Mute" powered="true">
            <parameter index="0" parameterValue="0"/>
            <parameter index="1" name="mute" parameterValue="1"/>
          </component>
          <component componentGuid="3fe5b1da-ec4c-4fae-86e0-f78cf838f9f4" componentID="Audition.StereoPanner" id="trackPan" name="StereoPanner" powered="true">
            <parameter index="0" name="声像" parameterValue="0"/>
          </component>
          <component componentGuid="aba0b705-2749-4ed5-8826-63dfd815af6a" componentID="Audition.EQ" id="trackEQ" name="EQ" powered="false">
            <parameter index="0" name="下限频率" parameterValue="0.000834028352983295917510986328125"/>
            <parameter index="1" name="下限增益" parameterValue="0.5"/>
            <parameter index="2" name="上限频率" parameterValue="0.74979150295257568359375"/>
            <parameter index="3" name="上限频率增益" parameterValue="0.5"/>
            <parameter index="4" name="EQ 频段 1 中置频率" parameterValue="0.00125104258768260478973388671875"/>
            <parameter index="5" name="EQ 频段 1 Q" parameterValue="0.000199989997781813144683837890625"/>
            <parameter index="6" name="EQ 频段 1 增益" parameterValue="0.5"/>
            <parameter index="7" name="EQ 频段 1 启用" parameterValue="1"/>
            <parameter index="8" name="EQ 频段 2 中置频率" parameterValue="0.0075062550604343414306640625"/>
            <parameter index="9" name="EQ 频段 2 Q" parameterValue="0.000199989997781813144683837890625"/>
            <parameter index="10" name="EQ 频段 2 增益" parameterValue="0.5"/>
            <parameter index="11" name="EQ 频段 2 启用" parameterValue="1"/>
            <parameter index="12" name="EQ 频段 3 中置频率" parameterValue="0.0325271077454090118408203125"/>
            <parameter index="13" name="EQ 频段 3 Q" parameterValue="0.000199989997781813144683837890625"/>
            <parameter index="14" name="EQ 频段 3 增益" parameterValue="0.5"/>
            <parameter index="15" name="EQ 频段 3 启用" parameterValue="1"/>
            <parameter index="16" name="EQ 频段 4 中置频率" parameterValue="0.13261051476001739501953125"/>
            <parameter index="17" name="EQ 频段 4 Q" parameterValue="0.000199989997781813144683837890625"/>
            <parameter index="18" name="EQ 频段 4 增益" parameterValue="0.5"/>
            <parameter index="19" name="EQ 频段 4 启用" parameterValue="1"/>
            <parameter index="20" name="EQ 频段 5 中置频率" parameterValue="0.532944142818450927734375"/>
            <parameter index="21" name="EQ 频段 5 Q" parameterValue="0.000199989997781813144683837890625"/>
            <parameter index="22" name="EQ 频段 5 增益" parameterValue="0.5"/>
            <parameter index="23" name="EQ 频段 5 启用" parameterValue="1"/>
            <parameter index="24" name="主控增益" parameterValue="0.666666686534881591796875"/>
            <parameter index="25" name="恒定 Q" parameterValue="1"/>
            <parameter index="26" name="下限滤镜顺序" parameterValue="0"/>
            <parameter index="27" name="上限频率滤镜顺序" parameterValue="0"/>
            <parameter index="28" name="超静音模式" parameterValue="0"/>
            <parameter index="29" name="下限启用" parameterValue="1"/>
            <parameter index="30" name="上限频率启用" parameterValue="1"/>
            <parameter index="31" name="原始采样率" parameterValue="0.25"/>
            <parameter index="32" name="EQ 频段 1 频带宽" parameterValue="0.002499990165233612060546875"/>
            <parameter index="33" name="EQ 频段 2 频段宽度" parameterValue="0.0099999904632568359375"/>
            <parameter index="34" name="EQ 频段 3 频段宽度" parameterValue="0.0399999916553497314453125"/>
            <parameter index="35" name="EQ 频段 4 频段宽度" parameterValue="0.15999998152256011962890625"/>
            <parameter index="36" name="EQ 频段 5 频段宽度" parameterValue="0.63999998569488525390625"/>
            <parameter index="37" name="高通滤波启用" parameterValue="0"/>
            <parameter index="38" name="高通切除频率" parameterValue="0"/>
            <parameter index="39" name="高通斜率" parameterValue="0.4000000059604644775390625"/>
            <parameter index="40" name="低通滤波启用" parameterValue="0"/>
            <parameter index="41" name="低通切除频率" parameterValue="0.833194315433502197265625"/>
            <parameter index="42" name="低通斜率" parameterValue="0.4000000059604644775390625"/>
            <parameter index="43" name="不使用" parameterValue="0"/>
            <parameter index="44" name="下限图示范围" parameterValue="1"/>
          </component>
        </trackAudioParameters>
        <editParameter parameterIndex="0" slotIndex="4294967280"/>
        <audioClip clipAutoCrossfade="true" crossFadeHeadClipID="-1" crossFadeTailClipID="-1" endPoint="3444933" fileID="6" hue="-1" id="0" lockedInTime="false" looped="false" name="吉他2" offline="false" select="false" sourceInPoint="112999" sourceOutPoint="923767" startPoint="2634165" zOrder="0">
          <component componentGuid="14221303-ed3d-4175-a2ea-55f2a7a7ea9b" componentID="Audition.Fader" id="clipGain" name="volume" powered="true">
            <parameter index="0" name="volume" parameterValue="1"/>
            <parameter index="1" name="static gain" parameterValue="9.99999713897705078125"/>
          </component>
          <component componentGuid="02c46f40-bf13-4344-b31e-5e9f6ccfa70d" componentID="Audition.Mute" id="clipMute" name="Mute" powered="true">
            <parameter index="0" parameterValue="0"/>
            <parameter index="1" name="mute" parameterValue="0"/>
          </component>
          <component componentGuid="3e90a5f3-cc17-4934-8647-d5feecff47ef" componentID="Audition.StereoPanner" id="clipPan" name="StereoPanner" powered="true">
            <parameter index="0" name="声像" parameterValue="0"/>
          </component>
          <fadeIn crossFadeLinkType="linkedAsymmetric" endPoint="0" shape="0" startPoint="0" type="cosine"/>
          <fadeOut crossFadeLinkType="linkedAsymmetric" endPoint="810768" shape="0" startPoint="810768" type="cosine"/>
          <editParameter parameterIndex="0" slotIndex="4294967280"/>
          <editParameter parameterIndex="0" slotIndex="4294967281"/>
          <channelMap>
            <channel index="0" sourceIndex="0"/>
            <channel index="1" sourceIndex="1"/>
          </channelMap>
        </audioClip>
      </audioTrack>
      <audioTrack automationLaneOpenState="false" id="10028" index="8" select="false" visible="true">
        <trackParameters trackHeight="104" trackHue="182" trackMinimized="false">
          <name>鼓solo</name>
        </trackParameters>
        <trackAudioParameters audioChannelType="stereo" automationMode="1" monitoring="false" recordArmed="false" solo="false" soloSafe="false">
          <trackOutput outputID="10000" type="trackID"/>
          <trackInput inputID="1"/>
          <component componentGuid="97c73ea9-290c-411f-b608-3785fa02a9d9" componentID="Audition.Fader" id="trackFader" name="volume" powered="true">
            <parameter index="0" name="volume" parameterValue="3.5481345653533935546875"/>
            <parameter index="1" name="static gain" parameterValue="1"/>
          </component>
          <component componentGuid="822768c3-7eae-4533-ad40-d9b00caa1f31" componentID="Audition.Mute" id="trackMute" name="Mute" powered="true">
            <parameter index="0" parameterValue="0"/>
            <parameter index="1" name="mute" parameterValue="0"/>
          </component>
          <component componentGuid="d103cc02-fa65-441b-a91f-76a8df61b6a6" componentID="Audition.StereoPanner" id="trackPan" name="StereoPanner" powered="true">
            <parameter index="0" name="声像" parameterValue="0"/>
          </component>
          <component componentGuid="e4c0b604-ede2-4dc7-8dca-9aa42927ca4f" componentID="Audition.EQ" id="trackEQ" name="EQ" powered="false">
            <parameter index="0" name="下限频率" parameterValue="0.000834028352983295917510986328125"/>
            <parameter index="1" name="下限增益" parameterValue="0.5"/>
            <parameter index="2" name="上限频率" parameterValue="0.74979150295257568359375"/>
            <parameter index="3" name="上限频率增益" parameterValue="0.5"/>
            <parameter index="4" name="EQ 频段 1 中置频率" parameterValue="0.00125104258768260478973388671875"/>
            <parameter index="5" name="EQ 频段 1 Q" parameterValue="0.000199989997781813144683837890625"/>
            <parameter index="6" name="EQ 频段 1 增益" parameterValue="0.5"/>
            <parameter index="7" name="EQ 频段 1 启用" parameterValue="1"/>
            <parameter index="8" name="EQ 频段 2 中置频率" parameterValue="0.0075062550604343414306640625"/>
            <parameter index="9" name="EQ 频段 2 Q" parameterValue="0.000199989997781813144683837890625"/>
            <parameter index="10" name="EQ 频段 2 增益" parameterValue="0.5"/>
            <parameter index="11" name="EQ 频段 2 启用" parameterValue="1"/>
            <parameter index="12" name="EQ 频段 3 中置频率" parameterValue="0.0325271077454090118408203125"/>
            <parameter index="13" name="EQ 频段 3 Q" parameterValue="0.000199989997781813144683837890625"/>
            <parameter index="14" name="EQ 频段 3 增益" parameterValue="0.5"/>
            <parameter index="15" name="EQ 频段 3 启用" parameterValue="1"/>
            <parameter index="16" name="EQ 频段 4 中置频率" parameterValue="0.13261051476001739501953125"/>
            <parameter index="17" name="EQ 频段 4 Q" parameterValue="0.000199989997781813144683837890625"/>
            <parameter index="18" name="EQ 频段 4 增益" parameterValue="0.5"/>
            <parameter index="19" name="EQ 频段 4 启用" parameterValue="1"/>
            <parameter index="20" name="EQ 频段 5 中置频率" parameterValue="0.532944142818450927734375"/>
            <parameter index="21" name="EQ 频段 5 Q" parameterValue="0.000199989997781813144683837890625"/>
            <parameter index="22" name="EQ 频段 5 增益" parameterValue="0.5"/>
            <parameter index="23" name="EQ 频段 5 启用" parameterValue="1"/>
            <parameter index="24" name="主控增益" parameterValue="0.666666686534881591796875"/>
            <parameter index="25" name="恒定 Q" parameterValue="1"/>
            <parameter index="26" name="下限滤镜顺序" parameterValue="0"/>
            <parameter index="27" name="上限频率滤镜顺序" parameterValue="0"/>
            <parameter index="28" name="超静音模式" parameterValue="0"/>
            <parameter index="29" name="下限启用" parameterValue="1"/>
            <parameter index="30" name="上限频率启用" parameterValue="1"/>
            <parameter index="31" name="原始采样率" parameterValue="0.25"/>
            <parameter index="32" name="EQ 频段 1 频带宽" parameterValue="0.002499990165233612060546875"/>
            <parameter index="33" name="EQ 频段 2 频段宽度" parameterValue="0.0099999904632568359375"/>
            <parameter index="34" name="EQ 频段 3 频段宽度" parameterValue="0.0399999916553497314453125"/>
            <parameter index="35" name="EQ 频段 4 频段宽度" parameterValue="0.15999998152256011962890625"/>
            <parameter index="36" name="EQ 频段 5 频段宽度" parameterValue="0.63999998569488525390625"/>
            <parameter index="37" name="高通滤波启用" parameterValue="0"/>
            <parameter index="38" name="高通切除频率" parameterValue="0"/>
            <parameter index="39" name="高通斜率" parameterValue="0.4000000059604644775390625"/>
            <parameter index="40" name="低通滤波启用" parameterValue="0"/>
            <parameter index="41" name="低通切除频率" parameterValue="0.833194315433502197265625"/>
            <parameter index="42" name="低通斜率" parameterValue="0.4000000059604644775390625"/>
            <parameter index="43" name="不使用" parameterValue="0"/>
            <parameter index="44" name="下限图示范围" parameterValue="1"/>
          </component>
        </trackAudioParameters>
        <editParameter parameterIndex="0" slotIndex="4294967280"/>
        <audioClip clipAutoCrossfade="true" crossFadeHeadClipID="-1" crossFadeTailClipID="-1" endPoint="812531" fileID="7" hue="-1" id="0" lockedInTime="false" looped="false" name="鼓solo_1 48000 1" offline="false" select="false" sourceInPoint="542758" sourceOutPoint="1355289" startPoint="0" zOrder="0">
          <component componentGuid="d3e56f18-6c32-4c83-afe4-926363b28645" componentID="Audition.Fader" id="clipGain" name="volume" powered="true">
            <parameter index="0" name="volume" parameterValue="1"/>
            <parameter index="1" name="static gain" parameterValue="1"/>
          </component>
          <component componentGuid="10cee1fd-cfbe-4686-975b-a3073e39d8a2" componentID="Audition.Mute" id="clipMute" name="Mute" powered="true">
            <parameter index="0" parameterValue="0"/>
            <parameter index="1" name="mute" parameterValue="0"/>
          </component>
          <component componentGuid="1e10ba06-81db-41af-ab48-0b9ea25bcd5e" componentID="Audition.StereoPanner" id="clipPan" name="StereoPanner" powered="true">
            <parameter index="0" name="声像" parameterValue="0"/>
          </component>
          <fadeIn crossFadeLinkType="linkedAsymmetric" endPoint="0" shape="0" startPoint="0" type="cosine"/>
          <fadeOut crossFadeLinkType="linkedAsymmetric" endPoint="812531" shape="0" startPoint="812531" type="cosine"/>
          <editParameter parameterIndex="0" slotIndex="4294967280"/>
          <editParameter parameterIndex="0" slotIndex="4294967281"/>
          <channelMap>
            <channel index="0" sourceIndex="0"/>
            <channel index="1" sourceIndex="1"/>
          </channelMap>
        </audioClip>
      </audioTrack>
      <audioTrack automationLaneOpenState="false" id="10029" index="9" select="true" visible="true">
        <trackParameters trackHeight="104" trackHue="294" trackMinimized="false">
          <name>  </name>
        </trackParameters>
        <trackAudioParameters audioChannelType="stereo" automationMode="1" monitoring="false" recordArmed="false" solo="false" soloSafe="false">
          <trackOutput outputID="10000" type="trackID"/>
          <trackInput inputID="1"/>
          <component componentGuid="f693ad9f-7162-4b6d-bacf-323dfdd91353" componentID="Audition.Fader" id="trackFader" name="volume" powered="true">
            <parameter index="0" name="volume" parameterValue="2.5409724712371826171875"/>
            <parameter index="1" name="static gain" parameterValue="1"/>
          </component>
          <component componentGuid="a04f7a52-b327-48e5-8488-9d637cfdaaa5" componentID="Audition.Mute" id="trackMute" name="Mute" powered="true">
            <parameter index="0" parameterValue="0"/>
            <parameter index="1" name="mute" parameterValue="0"/>
          </component>
          <component componentGuid="986f873e-43ec-46e0-a056-4ae073915d6c" componentID="Audition.StereoPanner" id="trackPan" name="StereoPanner" powered="true">
            <parameter index="0" name="声像" parameterValue="0"/>
          </component>
          <component componentGuid="47e497ad-b846-41c2-bff7-7d95733ee33f" componentID="Audition.EQ" id="trackEQ" name="EQ" powered="false">
            <parameter index="0" name="下限频率" parameterValue="0.000834028352983295917510986328125"/>
            <parameter index="1" name="下限增益" parameterValue="0.5"/>
            <parameter index="2" name="上限频率" parameterValue="0.74979150295257568359375"/>
            <parameter index="3" name="上限频率增益" parameterValue="0.5"/>
            <parameter index="4" name="EQ 频段 1 中置频率" parameterValue="0.00125104258768260478973388671875"/>
            <parameter index="5" name="EQ 频段 1 Q" parameterValue="0.000199989997781813144683837890625"/>
            <parameter index="6" name="EQ 频段 1 增益" parameterValue="0.5"/>
            <parameter index="7" name="EQ 频段 1 启用" parameterValue="1"/>
            <parameter index="8" name="EQ 频段 2 中置频率" parameterValue="0.0075062550604343414306640625"/>
            <parameter index="9" name="EQ 频段 2 Q" parameterValue="0.000199989997781813144683837890625"/>
            <parameter index="10" name="EQ 频段 2 增益" parameterValue="0.5"/>
            <parameter index="11" name="EQ 频段 2 启用" parameterValue="1"/>
            <parameter index="12" name="EQ 频段 3 中置频率" parameterValue="0.0325271077454090118408203125"/>
            <parameter index="13" name="EQ 频段 3 Q" parameterValue="0.000199989997781813144683837890625"/>
            <parameter index="14" name="EQ 频段 3 增益" parameterValue="0.5"/>
            <parameter index="15" name="EQ 频段 3 启用" parameterValue="1"/>
            <parameter index="16" name="EQ 频段 4 中置频率" parameterValue="0.13261051476001739501953125"/>
            <parameter index="17" name="EQ 频段 4 Q" parameterValue="0.000199989997781813144683837890625"/>
            <parameter index="18" name="EQ 频段 4 增益" parameterValue="0.5"/>
            <parameter index="19" name="EQ 频段 4 启用" parameterValue="1"/>
            <parameter index="20" name="EQ 频段 5 中置频率" parameterValue="0.532944142818450927734375"/>
            <parameter index="21" name="EQ 频段 5 Q" parameterValue="0.000199989997781813144683837890625"/>
            <parameter index="22" name="EQ 频段 5 增益" parameterValue="0.5"/>
            <parameter index="23" name="EQ 频段 5 启用" parameterValue="1"/>
            <parameter index="24" name="主控增益" parameterValue="0.666666686534881591796875"/>
            <parameter index="25" name="恒定 Q" parameterValue="1"/>
            <parameter index="26" name="下限滤镜顺序" parameterValue="0"/>
            <parameter index="27" name="上限频率滤镜顺序" parameterValue="0"/>
            <parameter index="28" name="超静音模式" parameterValue="0"/>
            <parameter index="29" name="下限启用" parameterValue="1"/>
            <parameter index="30" name="上限频率启用" parameterValue="1"/>
            <parameter index="31" name="原始采样率" parameterValue="0.25"/>
            <parameter index="32" name="EQ 频段 1 频带宽" parameterValue="0.002499990165233612060546875"/>
            <parameter index="33" name="EQ 频段 2 频段宽度" parameterValue="0.0099999904632568359375"/>
            <parameter index="34" name="EQ 频段 3 频段宽度" parameterValue="0.0399999916553497314453125"/>
            <parameter index="35" name="EQ 频段 4 频段宽度" parameterValue="0.15999998152256011962890625"/>
            <parameter index="36" name="EQ 频段 5 频段宽度" parameterValue="0.63999998569488525390625"/>
            <parameter index="37" name="高通滤波启用" parameterValue="0"/>
            <parameter index="38" name="高通切除频率" parameterValue="0"/>
            <parameter index="39" name="高通斜率" parameterValue="0.4000000059604644775390625"/>
            <parameter index="40" name="低通滤波启用" parameterValue="0"/>
            <parameter index="41" name="低通切除频率" parameterValue="0.833194315433502197265625"/>
            <parameter index="42" name="低通斜率" parameterValue="0.4000000059604644775390625"/>
            <parameter index="43" name="不使用" parameterValue="0"/>
            <parameter index="44" name="下限图示范围" parameterValue="1"/>
          </component>
        </trackAudioParameters>
        <effectsRack preFader="true">
          <component componentGuid="93e403a2-26cb-4122-94c4-dba53111e56e" componentID="Audition.ComponentGroup" id="rackMix" powered="true">
            <parameter index="0" parameterValue="0"/>
            <parameter index="1" parameterValue="0"/>
          </component>
          <component componentGuid="448539d5-6bad-4225-a778-9fedfbfdac9a" id="rackInput" powered="true">
            <parameter index="0" parameterValue="1"/>
            <parameter index="1" parameterValue="0"/>
          </component>
          <component componentGuid="b7cb8f77-e838-4f13-9dbd-75fc67c22d5c" id="rackOutput" powered="true">
            <parameter index="0" parameterValue="1"/>
            <parameter index="1" parameterValue="0"/>
          </component>
          <slot powered="true" slotIndex="0">
            <component componentGuid="262fbc6d-d7af-40a3-9a55-294836900338" componentID="e0b23f05-f1a7-4ef7-9b50-7ec3e3002058" editorHeight="378" editorLeft="730" editorTop="331" editorWidth="461" name="强制限幅" presetName="（自定义）">
              <busConfig><![CDATA[{"in":[{"layout":[100,101],"name":"","type":0}],"out":[{"layout":[100,101],"name":"","type":0}]}]]></busConfig>
              <channelMap direction="input">
                <channel index="0" sourceIndex="0"/>
                <channel index="1" sourceIndex="1"/>
              </channelMap>
              <channelMap direction="output">
                <channel index="0" sourceIndex="0"/>
                <channel index="1" sourceIndex="1"/>
              </channelMap>
              <parameter index="0" name="最大振幅" parameterValue="0.99500000476837158203125"/>
              <parameter index="1" name="输入增强" parameterValue="0.666666686534881591796875"/>
              <parameter index="2" name="预测时间" parameterValue="0.13333301246166229248046875"/>
              <parameter index="3" name="释放时间" parameterValue="0.375"/>
              <parameter index="4" name="链接声道" parameterValue="1"/>
              <parameter index="5" name="衰减至天花板" parameterValue="1"/>
              <parameter index="6" name="限制实际峰值" parameterValue="0"/>
            </component>
          </slot>
        </effectsRack>
        <editParameter parameterIndex="0" slotIndex="4294967280"/>
        <audioClip clipAutoCrossfade="true" crossFadeHeadClipID="-1" crossFadeTailClipID="-1" endPoint="2226642" fileID="8" hue="-1" id="0" lockedInTime="false" looped="false" name="手风琴solo_1 48000 1" offline="false" select="false" sourceInPoint="605600" sourceOutPoint="1515112" startPoint="1317130" zOrder="0">
          <component componentGuid="b46521e2-4a0c-4edb-8c0b-de50897a9762" componentID="Audition.Fader" id="clipGain" name="volume" powered="true">
            <parameter index="0" name="volume" parameterValue="1"/>
            <parameter index="1" name="static gain" parameterValue="1"/>
          </component>
          <component componentGuid="40fe89da-2ccf-445a-82ef-7697a7857db8" componentID="Audition.Mute" id="clipMute" name="Mute" powered="true">
            <parameter index="0" parameterValue="0"/>
            <parameter index="1" name="mute" parameterValue="0"/>
          </component>
          <component componentGuid="73ec8b27-1c5e-462c-85f9-103c9f3d555d" componentID="Audition.StereoPanner" id="clipPan" name="StereoPanner" powered="true">
            <parameter index="0" name="声像" parameterValue="0"/>
          </component>
          <fadeIn crossFadeLinkType="linkedAsymmetric" endPoint="0" shape="0" startPoint="0" type="cosine"/>
          <fadeOut crossFadeLinkType="linkedAsymmetric" endPoint="909512" shape="0" startPoint="909512" type="cosine"/>
          <editParameter parameterIndex="0" slotIndex="4294967280"/>
          <editParameter parameterIndex="0" slotIndex="4294967281"/>
          <channelMap>
            <channel index="0" sourceIndex="0"/>
            <channel index="1" sourceIndex="1"/>
          </channelMap>
        </audioClip>
      </audioTrack>
      <masterTrack automationLaneOpenState="false" id="10000" index="10" select="false" visible="true">
        <trackParameters trackHeight="104" trackHue="-1" trackMinimized="false">
          <name>主</name>
        </trackParameters>
        <trackAudioParameters audioChannelType="stereo" automationMode="1" monitoring="false" recordArmed="false" solo="false" soloSafe="true">
          <trackOutput outputID="1" type="hardwareOutput"/>
          <trackInput inputID="-1"/>
          <component componentGuid="574fcfcd-def5-4f35-a0df-c74a254e098d" componentID="Audition.Fader" id="trackFader" name="volume" powered="true">
            <parameter index="0" name="volume" parameterValue="1"/>
            <parameter index="1" name="static gain" parameterValue="1"/>
          </component>
          <component componentGuid="f687726a-261a-4f22-9e3a-1e2f275b1c28" componentID="Audition.Mute" id="trackMute" name="Mute" powered="true">
            <parameter index="0" parameterValue="0"/>
            <parameter index="1" name="mute" parameterValue="0"/>
          </component>
          <component componentGuid="e3da7a47-99e7-4d40-8413-5c58f51b9229" componentID="Audition.StereoPanner" id="trackPan" name="StereoPanner" powered="true">
            <parameter index="0" name="声像" parameterValue="0"/>
          </component>
          <component componentGuid="00182eb1-2e3c-442e-9a8f-21d9e8f58ed3" componentID="Audition.EQ" id="trackEQ" name="EQ" powered="false">
            <parameter index="0" name="下限频率" parameterValue="0.000834028352983295917510986328125"/>
            <parameter index="1" name="下限增益" parameterValue="0.5"/>
            <parameter index="2" name="上限频率" parameterValue="0.74979150295257568359375"/>
            <parameter index="3" name="上限频率增益" parameterValue="0.5"/>
            <parameter index="4" name="EQ 频段 1 中置频率" parameterValue="0.00125104258768260478973388671875"/>
            <parameter index="5" name="EQ 频段 1 Q" parameterValue="0.000199989997781813144683837890625"/>
            <parameter index="6" name="EQ 频段 1 增益" parameterValue="0.5"/>
            <parameter index="7" name="EQ 频段 1 启用" parameterValue="1"/>
            <parameter index="8" name="EQ 频段 2 中置频率" parameterValue="0.0075062550604343414306640625"/>
            <parameter index="9" name="EQ 频段 2 Q" parameterValue="0.000199989997781813144683837890625"/>
            <parameter index="10" name="EQ 频段 2 增益" parameterValue="0.5"/>
            <parameter index="11" name="EQ 频段 2 启用" parameterValue="1"/>
            <parameter index="12" name="EQ 频段 3 中置频率" parameterValue="0.0325271077454090118408203125"/>
            <parameter index="13" name="EQ 频段 3 Q" parameterValue="0.000199989997781813144683837890625"/>
            <parameter index="14" name="EQ 频段 3 增益" parameterValue="0.5"/>
            <parameter index="15" name="EQ 频段 3 启用" parameterValue="1"/>
            <parameter index="16" name="EQ 频段 4 中置频率" parameterValue="0.13261051476001739501953125"/>
            <parameter index="17" name="EQ 频段 4 Q" parameterValue="0.000199989997781813144683837890625"/>
            <parameter index="18" name="EQ 频段 4 增益" parameterValue="0.5"/>
            <parameter index="19" name="EQ 频段 4 启用" parameterValue="1"/>
            <parameter index="20" name="EQ 频段 5 中置频率" parameterValue="0.532944142818450927734375"/>
            <parameter index="21" name="EQ 频段 5 Q" parameterValue="0.000199989997781813144683837890625"/>
            <parameter index="22" name="EQ 频段 5 增益" parameterValue="0.5"/>
            <parameter index="23" name="EQ 频段 5 启用" parameterValue="1"/>
            <parameter index="24" name="主控增益" parameterValue="0.666666686534881591796875"/>
            <parameter index="25" name="恒定 Q" parameterValue="1"/>
            <parameter index="26" name="下限滤镜顺序" parameterValue="0"/>
            <parameter index="27" name="上限频率滤镜顺序" parameterValue="0"/>
            <parameter index="28" name="超静音模式" parameterValue="0"/>
            <parameter index="29" name="下限启用" parameterValue="1"/>
            <parameter index="30" name="上限频率启用" parameterValue="1"/>
            <parameter index="31" name="原始采样率" parameterValue="0.25"/>
            <parameter index="32" name="EQ 频段 1 频带宽" parameterValue="0.002499990165233612060546875"/>
            <parameter index="33" name="EQ 频段 2 频段宽度" parameterValue="0.0099999904632568359375"/>
            <parameter index="34" name="EQ 频段 3 频段宽度" parameterValue="0.0399999916553497314453125"/>
            <parameter index="35" name="EQ 频段 4 频段宽度" parameterValue="0.15999998152256011962890625"/>
            <parameter index="36" name="EQ 频段 5 频段宽度" parameterValue="0.63999998569488525390625"/>
            <parameter index="37" name="高通滤波启用" parameterValue="0"/>
            <parameter index="38" name="高通切除频率" parameterValue="0"/>
            <parameter index="39" name="高通斜率" parameterValue="0.4000000059604644775390625"/>
            <parameter index="40" name="低通滤波启用" parameterValue="0"/>
            <parameter index="41" name="低通切除频率" parameterValue="0.833194315433502197265625"/>
            <parameter index="42" name="低通斜率" parameterValue="0.4000000059604644775390625"/>
            <parameter index="43" name="不使用" parameterValue="0"/>
            <parameter index="44" name="下限图示范围" parameterValue="1"/>
          </component>
        </trackAudioParameters>
        <effectsRack preFader="true">
          <component componentGuid="430bb2a4-90fd-42c4-af85-fd05a8e3e9e1" componentID="Audition.ComponentGroup" id="rackMix" powered="true">
            <parameter index="0" parameterValue="0"/>
            <parameter index="1" parameterValue="0"/>
          </component>
          <component componentGuid="556ca3c4-6d2c-4fe2-851d-486d6ca9b695" id="rackInput" powered="true">
            <parameter index="0" parameterValue="1"/>
            <parameter index="1" parameterValue="0"/>
          </component>
          <component componentGuid="a21a9ba6-887f-46cc-a4ea-17f779970b1c" id="rackOutput" powered="true">
            <parameter index="0" parameterValue="1"/>
            <parameter index="1" parameterValue="0"/>
          </component>
          <slot powered="true" slotIndex="0">
            <component componentGuid="781ed437-69f1-4ddb-951e-559aac91c0e4" componentID="e0b23f05-f1a7-4ef7-9b50-7ec3e3002058" editorHeight="378" editorLeft="-1190" editorTop="331" editorWidth="461" name="强制限幅" presetName="（自定义）">
              <busConfig><![CDATA[{"in":[{"layout":[100,101],"name":"","type":0}],"out":[{"layout":[100,101],"name":"","type":0}]}]]></busConfig>
              <channelMap direction="input">
                <channel index="0" sourceIndex="0"/>
                <channel index="1" sourceIndex="1"/>
              </channelMap>
              <channelMap direction="output">
                <channel index="0" sourceIndex="0"/>
                <channel index="1" sourceIndex="1"/>
              </channelMap>
              <parameter index="0" name="最大振幅" parameterValue="0.99800002574920654296875"/>
              <parameter index="1" name="输入增强" parameterValue="0.666666686534881591796875"/>
              <parameter index="2" name="预测时间" parameterValue="0.13333301246166229248046875"/>
              <parameter index="3" name="释放时间" parameterValue="0.375"/>
              <parameter index="4" name="链接声道" parameterValue="1"/>
              <parameter index="5" name="衰减至天花板" parameterValue="1"/>
              <parameter index="6" name="限制实际峰值" parameterValue="0"/>
            </component>
          </slot>
        </effectsRack>
        <editParameter parameterIndex="0" slotIndex="4294967280"/>
      </masterTrack>
    </tracks>
    <sessionState ctiPosition="2733607" smpteStart="0">
      <selectionState selectionDuration="0" selectionStart="2733607"/>
      <viewState horizontalViewDuration="1508169" horizontalViewStart="1685618" trackControlsWidth="224" verticalScrollOffset="-244"/>
      <timeFormatState beatsPerBar="2" beatsPerMinute="140" customFrameRate="12" linkToDefaultTimeSettings="true" noteLength="4" subdivisions="16" timeCodeDropFrame="false" timeCodeFrameRate="12" timeCodeNTSC="false" timeFormat="timeFormatBarsAndBeats"/>
      <mixingOptionState defaultPanModeLogarithmic="false" panPower="-3" playOverlappingClips="false"/>
    </sessionState>
    <xmpMetadata><![CDATA[<?xpacket begin="﻿" id="W5M0MpCehiHzreSzNTczkc9d"?>
<x:xmpmeta xmlns:x="adobe:ns:meta/" x:xmptk="Adobe XMP Core 6.0-c002 79.164360, 2020/02/13-01:07:22        ">
   <rdf:RDF xmlns:rdf="http://www.w3.org/1999/02/22-rdf-syntax-ns#">
      <rdf:Description rdf:about=""
            xmlns:xmp="http://ns.adobe.com/xap/1.0/"
            xmlns:xmpMM="http://ns.adobe.com/xap/1.0/mm/"
            xmlns:stEvt="http://ns.adobe.com/xap/1.0/sType/ResourceEvent#"
            xmlns:dc="http://purl.org/dc/elements/1.1/"
            xmlns:AEScart="http://ns.adobe.com/aes/cart/"
            xmlns:xmpDM="http://ns.adobe.com/xmp/1.0/DynamicMedia/">
         <xmp:CreatorTool>Adobe Audition 13.0 (Windows)</xmp:CreatorTool>
         <xmp:CreateDate>2020-09-26T16:10:31-07:00</xmp:CreateDate>
         <xmp:MetadataDate>2020-10-10T11:37:21-07:00</xmp:MetadataDate>
         <xmp:ModifyDate>2020-10-10T11:37:21-07:00</xmp:ModifyDate>
         <xmpMM:InstanceID>xmp.iid:2bceb1b9-118b-944f-b45c-31bb860a3a16</xmpMM:InstanceID>
         <xmpMM:DocumentID>xmp.did:d7e0d021-d313-0b4f-9afd-e6d9187279e7</xmpMM:DocumentID>
         <xmpMM:OriginalDocumentID>xmp.did:d7e0d021-d313-0b4f-9afd-e6d9187279e7</xmpMM:OriginalDocumentID>
         <xmpMM:History>
            <rdf:Seq>
               <rdf:li rdf:parseType="Resource">
                  <stEvt:action>saved</stEvt:action>
                  <stEvt:instanceID>xmp.iid:d7e0d021-d313-0b4f-9afd-e6d9187279e7</stEvt:instanceID>
                  <stEvt:when>2020-09-26T16:10:31-07:00</stEvt:when>
                  <stEvt:softwareAgent>Adobe Audition 13.0 (Windows)</stEvt:softwareAgent>
                  <stEvt:changed>/metadata</stEvt:changed>
               </rdf:li>
               <rdf:li rdf:parseType="Resource">
                  <stEvt:action>saved</stEvt:action>
                  <stEvt:instanceID>xmp.iid:a13d1660-8866-c145-8096-ff83e0674c7e</stEvt:instanceID>
                  <stEvt:when>2020-09-26T16:34:25-07:00</stEvt:when>
                  <stEvt:softwareAgent>Adobe Audition 13.0 (Windows)</stEvt:softwareAgent>
                  <stEvt:changed>/metadata</stEvt:changed>
               </rdf:li>
               <rdf:li rdf:parseType="Resource">
                  <stEvt:action>saved</stEvt:action>
                  <stEvt:instanceID>xmp.iid:7c54b658-fb69-2344-985f-3d2a6453fb2b</stEvt:instanceID>
                  <stEvt:when>2020-09-26T16:34:25-07:00</stEvt:when>
                  <stEvt:softwareAgent>Adobe Audition 13.0 (Windows)</stEvt:softwareAgent>
                  <stEvt:changed>/</stEvt:changed>
               </rdf:li>
               <rdf:li rdf:parseType="Resource">
                  <stEvt:action>saved</stEvt:action>
                  <stEvt:instanceID>xmp.iid:3b55effd-97bd-e948-bedb-ae5243134bb4</stEvt:instanceID>
                  <stEvt:when>2020-09-26T16:34:28-07:00</stEvt:when>
                  <stEvt:softwareAgent>Adobe Audition 13.0 (Windows)</stEvt:softwareAgent>
                  <stEvt:changed>/metadata</stEvt:changed>
               </rdf:li>
               <rdf:li rdf:parseType="Resource">
                  <stEvt:action>saved</stEvt:action>
                  <stEvt:instanceID>xmp.iid:c6ec13a1-9caa-d549-9b53-354cd76c3f53</stEvt:instanceID>
                  <stEvt:when>2020-09-26T16:34:28-07:00</stEvt:when>
                  <stEvt:softwareAgent>Adobe Audition 13.0 (Windows)</stEvt:softwareAgent>
                  <stEvt:changed>/</stEvt:changed>
               </rdf:li>
               <rdf:li rdf:parseType="Resource">
                  <stEvt:action>saved</stEvt:action>
                  <stEvt:instanceID>xmp.iid:4779f9f1-11dd-0d4c-bbd9-75cbb84d7d27</stEvt:instanceID>
                  <stEvt:when>2020-09-26T16:42:49-07:00</stEvt:when>
                  <stEvt:softwareAgent>Adobe Audition 13.0 (Windows)</stEvt:softwareAgent>
                  <stEvt:changed>/metadata</stEvt:changed>
               </rdf:li>
               <rdf:li rdf:parseType="Resource">
                  <stEvt:action>saved</stEvt:action>
                  <stEvt:instanceID>xmp.iid:a755893d-42ba-e445-82c7-be56d9a5cb6b</stEvt:instanceID>
                  <stEvt:when>2020-09-26T16:42:49-07:00</stEvt:when>
                  <stEvt:softwareAgent>Adobe Audition 13.0 (Windows)</stEvt:softwareAgent>
                  <stEvt:changed>/</stEvt:changed>
               </rdf:li>
               <rdf:li rdf:parseType="Resource">
                  <stEvt:action>saved</stEvt:action>
                  <stEvt:instanceID>xmp.iid:c67bfa7b-b68d-d546-ae8c-f5638850655c</stEvt:instanceID>
                  <stEvt:when>2020-09-26T16:46:33-07:00</stEvt:when>
                  <stEvt:softwareAgent>Adobe Audition 13.0 (Windows)</stEvt:softwareAgent>
                  <stEvt:changed>/metadata</stEvt:changed>
               </rdf:li>
               <rdf:li rdf:parseType="Resource">
                  <stEvt:action>saved</stEvt:action>
                  <stEvt:instanceID>xmp.iid:0c65fe03-3df0-954b-b42e-745338f43cec</stEvt:instanceID>
                  <stEvt:when>2020-09-26T16:46:33-07:00</stEvt:when>
                  <stEvt:softwareAgent>Adobe Audition 13.0 (Windows)</stEvt:softwareAgent>
                  <stEvt:changed>/</stEvt:changed>
               </rdf:li>
               <rdf:li rdf:parseType="Resource">
                  <stEvt:action>saved</stEvt:action>
                  <stEvt:instanceID>xmp.iid:165484a9-0b03-774d-9112-c7d1dab14f95</stEvt:instanceID>
                  <stEvt:when>2020-09-26T18:58:22-07:00</stEvt:when>
                  <stEvt:softwareAgent>Adobe Audition 13.0 (Windows)</stEvt:softwareAgent>
                  <stEvt:changed>/metadata</stEvt:changed>
               </rdf:li>
               <rdf:li rdf:parseType="Resource">
                  <stEvt:action>saved</stEvt:action>
                  <stEvt:instanceID>xmp.iid:0ca1d295-d30b-c447-b1db-883d5a5f8ca5</stEvt:instanceID>
                  <stEvt:when>2020-09-26T18:58:22-07:00</stEvt:when>
                  <stEvt:softwareAgent>Adobe Audition 13.0 (Windows)</stEvt:softwareAgent>
                  <stEvt:changed>/</stEvt:changed>
               </rdf:li>
               <rdf:li rdf:parseType="Resource">
                  <stEvt:action>saved</stEvt:action>
                  <stEvt:instanceID>xmp.iid:6f19d58f-706a-d543-970e-49cdd68df780</stEvt:instanceID>
                  <stEvt:when>2020-09-26T19:10:22-07:00</stEvt:when>
                  <stEvt:softwareAgent>Adobe Audition 13.0 (Windows)</stEvt:softwareAgent>
                  <stEvt:changed>/metadata</stEvt:changed>
               </rdf:li>
               <rdf:li rdf:parseType="Resource">
                  <stEvt:action>saved</stEvt:action>
                  <stEvt:instanceID>xmp.iid:0ef4a5bf-7cae-b84b-9a38-7b74c6289f0f</stEvt:instanceID>
                  <stEvt:when>2020-09-26T19:10:22-07:00</stEvt:when>
                  <stEvt:softwareAgent>Adobe Audition 13.0 (Windows)</stEvt:softwareAgent>
                  <stEvt:changed>/</stEvt:changed>
               </rdf:li>
               <rdf:li rdf:parseType="Resource">
                  <stEvt:action>saved</stEvt:action>
                  <stEvt:instanceID>xmp.iid:3fb7be93-279a-c043-a3f7-7cc052a36a47</stEvt:instanceID>
                  <stEvt:when>2020-09-26T19:12:50-07:00</stEvt:when>
                  <stEvt:softwareAgent>Adobe Audition 13.0 (Windows)</stEvt:softwareAgent>
                  <stEvt:changed>/metadata</stEvt:changed>
               </rdf:li>
               <rdf:li rdf:parseType="Resource">
                  <stEvt:action>saved</stEvt:action>
                  <stEvt:instanceID>xmp.iid:dbb2e889-636a-3f4f-a030-99dc19e11fb8</stEvt:instanceID>
                  <stEvt:when>2020-09-26T19:12:50-07:00</stEvt:when>
                  <stEvt:softwareAgent>Adobe Audition 13.0 (Windows)</stEvt:softwareAgent>
                  <stEvt:changed>/</stEvt:changed>
               </rdf:li>
               <rdf:li rdf:parseType="Resource">
                  <stEvt:action>saved</stEvt:action>
                  <stEvt:instanceID>xmp.iid:d5c261be-be26-1d4c-836e-235d4758f5d9</stEvt:instanceID>
                  <stEvt:when>2020-09-26T19:20:19-07:00</stEvt:when>
                  <stEvt:softwareAgent>Adobe Audition 13.0 (Windows)</stEvt:softwareAgent>
                  <stEvt:changed>/metadata</stEvt:changed>
               </rdf:li>
               <rdf:li rdf:parseType="Resource">
                  <stEvt:action>saved</stEvt:action>
                  <stEvt:instanceID>xmp.iid:637949f3-a15e-d649-b073-04b779223e97</stEvt:instanceID>
                  <stEvt:when>2020-09-26T19:20:19-07:00</stEvt:when>
                  <stEvt:softwareAgent>Adobe Audition 13.0 (Windows)</stEvt:softwareAgent>
                  <stEvt:changed>/</stEvt:changed>
               </rdf:li>
               <rdf:li rdf:parseType="Resource">
                  <stEvt:action>saved</stEvt:action>
                  <stEvt:instanceID>xmp.iid:aa7f86d5-11d0-d34f-86ec-76334cf27155</stEvt:instanceID>
                  <stEvt:when>2020-10-04T15:05:16-07:00</stEvt:when>
                  <stEvt:softwareAgent>Adobe Audition 13.0 (Windows)</stEvt:softwareAgent>
                  <stEvt:changed>/metadata</stEvt:changed>
               </rdf:li>
               <rdf:li rdf:parseType="Resource">
                  <stEvt:action>saved</stEvt:action>
                  <stEvt:instanceID>xmp.iid:57656e9b-6bf3-784c-970c-0dec5439a429</stEvt:instanceID>
                  <stEvt:when>2020-10-04T15:05:16-07:00</stEvt:when>
                  <stEvt:softwareAgent>Adobe Audition 13.0 (Windows)</stEvt:softwareAgent>
                  <stEvt:changed>/</stEvt:changed>
               </rdf:li>
               <rdf:li rdf:parseType="Resource">
                  <stEvt:action>saved</stEvt:action>
                  <stEvt:instanceID>xmp.iid:44fa3d57-7d8b-bc48-b14e-34fdfb6cc8d0</stEvt:instanceID>
                  <stEvt:when>2020-10-04T21:03:03-07:00</stEvt:when>
                  <stEvt:softwareAgent>Adobe Audition 13.0 (Windows)</stEvt:softwareAgent>
                  <stEvt:changed>/metadata</stEvt:changed>
               </rdf:li>
               <rdf:li rdf:parseType="Resource">
                  <stEvt:action>saved</stEvt:action>
                  <stEvt:instanceID>xmp.iid:2baa4bcb-0a9b-bf41-9233-a010f72420c6</stEvt:instanceID>
                  <stEvt:when>2020-10-04T21:03:03-07:00</stEvt:when>
                  <stEvt:softwareAgent>Adobe Audition 13.0 (Windows)</stEvt:softwareAgent>
                  <stEvt:changed>/</stEvt:changed>
               </rdf:li>
               <rdf:li rdf:parseType="Resource">
                  <stEvt:action>saved</stEvt:action>
                  <stEvt:instanceID>xmp.iid:a6c96608-5827-fb4e-83c5-1c28265af163</stEvt:instanceID>
                  <stEvt:when>2020-10-04T21:18:19-07:00</stEvt:when>
                  <stEvt:softwareAgent>Adobe Audition 13.0 (Windows)</stEvt:softwareAgent>
                  <stEvt:changed>/metadata</stEvt:changed>
               </rdf:li>
               <rdf:li rdf:parseType="Resource">
                  <stEvt:action>saved</stEvt:action>
                  <stEvt:instanceID>xmp.iid:34a3eac1-dabd-474c-af9c-f3e8f838704d</stEvt:instanceID>
                  <stEvt:when>2020-10-04T21:18:19-07:00</stEvt:when>
                  <stEvt:softwareAgent>Adobe Audition 13.0 (Windows)</stEvt:softwareAgent>
                  <stEvt:changed>/</stEvt:changed>
               </rdf:li>
               <rdf:li rdf:parseType="Resource">
                  <stEvt:action>saved</stEvt:action>
                  <stEvt:instanceID>xmp.iid:8f90288a-63a1-364f-a217-19628e29f1cd</stEvt:instanceID>
                  <stEvt:when>2020-10-04T21:34:02-07:00</stEvt:when>
                  <stEvt:softwareAgent>Adobe Audition 13.0 (Windows)</stEvt:softwareAgent>
                  <stEvt:changed>/metadata</stEvt:changed>
               </rdf:li>
               <rdf:li rdf:parseType="Resource">
                  <stEvt:action>saved</stEvt:action>
                  <stEvt:instanceID>xmp.iid:b0996eb5-aaba-2d44-989d-7a8f5c69cffd</stEvt:instanceID>
                  <stEvt:when>2020-10-04T21:34:02-07:00</stEvt:when>
                  <stEvt:softwareAgent>Adobe Audition 13.0 (Windows)</stEvt:softwareAgent>
                  <stEvt:changed>/</stEvt:changed>
               </rdf:li>
               <rdf:li rdf:parseType="Resource">
                  <stEvt:action>saved</stEvt:action>
                  <stEvt:instanceID>xmp.iid:d1c848c9-98b1-4645-90fb-8d9a98f6636f</stEvt:instanceID>
                  <stEvt:when>2020-10-04T21:35:51-07:00</stEvt:when>
                  <stEvt:softwareAgent>Adobe Audition 13.0 (Windows)</stEvt:softwareAgent>
                  <stEvt:changed>/metadata</stEvt:changed>
               </rdf:li>
               <rdf:li rdf:parseType="Resource">
                  <stEvt:action>saved</stEvt:action>
                  <stEvt:instanceID>xmp.iid:172e99b4-e458-0d4b-b284-3c40379c27f7</stEvt:instanceID>
                  <stEvt:when>2020-10-04T21:35:51-07:00</stEvt:when>
                  <stEvt:softwareAgent>Adobe Audition 13.0 (Windows)</stEvt:softwareAgent>
                  <stEvt:changed>/</stEvt:changed>
               </rdf:li>
               <rdf:li rdf:parseType="Resource">
                  <stEvt:action>saved</stEvt:action>
                  <stEvt:instanceID>xmp.iid:ebb78d86-36f9-8c40-8d27-63d48b8c7359</stEvt:instanceID>
                  <stEvt:when>2020-10-04T21:39:36-07:00</stEvt:when>
                  <stEvt:softwareAgent>Adobe Audition 13.0 (Windows)</stEvt:softwareAgent>
                  <stEvt:changed>/metadata</stEvt:changed>
               </rdf:li>
               <rdf:li rdf:parseType="Resource">
                  <stEvt:action>saved</stEvt:action>
                  <stEvt:instanceID>xmp.iid:2c9adc86-b531-e040-ae69-1ceb1a417a40</stEvt:instanceID>
                  <stEvt:when>2020-10-04T21:39:36-07:00</stEvt:when>
                  <stEvt:softwareAgent>Adobe Audition 13.0 (Windows)</stEvt:softwareAgent>
                  <stEvt:changed>/</stEvt:changed>
               </rdf:li>
               <rdf:li rdf:parseType="Resource">
                  <stEvt:action>saved</stEvt:action>
                  <stEvt:instanceID>xmp.iid:70c3817e-8657-d343-9cdd-a7b1601e3dae</stEvt:instanceID>
                  <stEvt:when>2020-10-04T21:40:35-07:00</stEvt:when>
                  <stEvt:softwareAgent>Adobe Audition 13.0 (Windows)</stEvt:softwareAgent>
                  <stEvt:changed>/metadata</stEvt:changed>
               </rdf:li>
               <rdf:li rdf:parseType="Resource">
                  <stEvt:action>saved</stEvt:action>
                  <stEvt:instanceID>xmp.iid:cff7f034-c82f-d445-96fe-aed381a15ab1</stEvt:instanceID>
                  <stEvt:when>2020-10-04T21:40:35-07:00</stEvt:when>
                  <stEvt:softwareAgent>Adobe Audition 13.0 (Windows)</stEvt:softwareAgent>
                  <stEvt:changed>/</stEvt:changed>
               </rdf:li>
               <rdf:li rdf:parseType="Resource">
                  <stEvt:action>saved</stEvt:action>
                  <stEvt:instanceID>xmp.iid:f6232f87-7d00-e446-9178-d26b7274d372</stEvt:instanceID>
                  <stEvt:when>2020-10-04T21:52:47-07:00</stEvt:when>
                  <stEvt:softwareAgent>Adobe Audition 13.0 (Windows)</stEvt:softwareAgent>
                  <stEvt:changed>/metadata</stEvt:changed>
               </rdf:li>
               <rdf:li rdf:parseType="Resource">
                  <stEvt:action>saved</stEvt:action>
                  <stEvt:instanceID>xmp.iid:a31f9a11-72d0-7346-adb2-4d944be57d42</stEvt:instanceID>
                  <stEvt:when>2020-10-04T21:52:47-07:00</stEvt:when>
                  <stEvt:softwareAgent>Adobe Audition 13.0 (Windows)</stEvt:softwareAgent>
                  <stEvt:changed>/</stEvt:changed>
               </rdf:li>
               <rdf:li rdf:parseType="Resource">
                  <stEvt:action>saved</stEvt:action>
                  <stEvt:instanceID>xmp.iid:bb317576-b274-ab4a-8268-32969b831d5f</stEvt:instanceID>
                  <stEvt:when>2020-10-04T22:00:24-07:00</stEvt:when>
                  <stEvt:softwareAgent>Adobe Audition 13.0 (Windows)</stEvt:softwareAgent>
                  <stEvt:changed>/metadata</stEvt:changed>
               </rdf:li>
               <rdf:li rdf:parseType="Resource">
                  <stEvt:action>saved</stEvt:action>
                  <stEvt:instanceID>xmp.iid:726ede56-5b04-d04f-983e-b92c25f7a957</stEvt:instanceID>
                  <stEvt:when>2020-10-04T22:00:24-07:00</stEvt:when>
                  <stEvt:softwareAgent>Adobe Audition 13.0 (Windows)</stEvt:softwareAgent>
                  <stEvt:changed>/</stEvt:changed>
               </rdf:li>
               <rdf:li rdf:parseType="Resource">
                  <stEvt:action>saved</stEvt:action>
                  <stEvt:instanceID>xmp.iid:813cc541-40a0-dc4a-adc0-8302f778141c</stEvt:instanceID>
                  <stEvt:when>2020-10-04T22:38:17-07:00</stEvt:when>
                  <stEvt:softwareAgent>Adobe Audition 13.0 (Windows)</stEvt:softwareAgent>
                  <stEvt:changed>/metadata</stEvt:changed>
               </rdf:li>
               <rdf:li rdf:parseType="Resource">
                  <stEvt:action>saved</stEvt:action>
                  <stEvt:instanceID>xmp.iid:b88dcea9-2f79-b446-b8b3-b17efbfa5ced</stEvt:instanceID>
                  <stEvt:when>2020-10-04T22:38:17-07:00</stEvt:when>
                  <stEvt:softwareAgent>Adobe Audition 13.0 (Windows)</stEvt:softwareAgent>
                  <stEvt:changed>/</stEvt:changed>
               </rdf:li>
               <rdf:li rdf:parseType="Resource">
                  <stEvt:action>saved</stEvt:action>
                  <stEvt:instanceID>xmp.iid:19a29b35-85e6-b541-b3e5-8c0fb7e3f0b5</stEvt:instanceID>
                  <stEvt:when>2020-10-04T22:38:27-07:00</stEvt:when>
                  <stEvt:softwareAgent>Adobe Audition 13.0 (Windows)</stEvt:softwareAgent>
                  <stEvt:changed>/metadata</stEvt:changed>
               </rdf:li>
               <rdf:li rdf:parseType="Resource">
                  <stEvt:action>saved</stEvt:action>
                  <stEvt:instanceID>xmp.iid:12de4114-7406-a34f-a86f-2d2269d5148c</stEvt:instanceID>
                  <stEvt:when>2020-10-04T22:38:27-07:00</stEvt:when>
                  <stEvt:softwareAgent>Adobe Audition 13.0 (Windows)</stEvt:softwareAgent>
                  <stEvt:changed>/</stEvt:changed>
               </rdf:li>
               <rdf:li rdf:parseType="Resource">
                  <stEvt:action>saved</stEvt:action>
                  <stEvt:instanceID>xmp.iid:b1df71f7-6567-f24d-8426-177a4adf5172</stEvt:instanceID>
                  <stEvt:when>2020-10-04T22:42:35-07:00</stEvt:when>
                  <stEvt:softwareAgent>Adobe Audition 13.0 (Windows)</stEvt:softwareAgent>
                  <stEvt:changed>/metadata</stEvt:changed>
               </rdf:li>
               <rdf:li rdf:parseType="Resource">
                  <stEvt:action>saved</stEvt:action>
                  <stEvt:instanceID>xmp.iid:f2916e5f-9011-0645-a5b8-6188a5173737</stEvt:instanceID>
                  <stEvt:when>2020-10-04T22:42:35-07:00</stEvt:when>
                  <stEvt:softwareAgent>Adobe Audition 13.0 (Windows)</stEvt:softwareAgent>
                  <stEvt:changed>/</stEvt:changed>
               </rdf:li>
               <rdf:li rdf:parseType="Resource">
                  <stEvt:action>saved</stEvt:action>
                  <stEvt:instanceID>xmp.iid:a8186e7a-b4dc-834f-9552-9fe5bf845a30</stEvt:instanceID>
                  <stEvt:when>2020-10-06T19:52:27-07:00</stEvt:when>
                  <stEvt:softwareAgent>Adobe Audition 13.0 (Windows)</stEvt:softwareAgent>
                  <stEvt:changed>/metadata</stEvt:changed>
               </rdf:li>
               <rdf:li rdf:parseType="Resource">
                  <stEvt:action>saved</stEvt:action>
                  <stEvt:instanceID>xmp.iid:9b7ec24a-3561-784c-ace8-b2025774dfe6</stEvt:instanceID>
                  <stEvt:when>2020-10-06T19:52:27-07:00</stEvt:when>
                  <stEvt:softwareAgent>Adobe Audition 13.0 (Windows)</stEvt:softwareAgent>
                  <stEvt:changed>/</stEvt:changed>
               </rdf:li>
               <rdf:li rdf:parseType="Resource">
                  <stEvt:action>saved</stEvt:action>
                  <stEvt:instanceID>xmp.iid:b1af8224-937b-7e49-86a2-b67b1b583329</stEvt:instanceID>
                  <stEvt:when>2020-10-08T22:58:38-07:00</stEvt:when>
                  <stEvt:softwareAgent>Adobe Audition 13.0 (Windows)</stEvt:softwareAgent>
                  <stEvt:changed>/metadata</stEvt:changed>
               </rdf:li>
               <rdf:li rdf:parseType="Resource">
                  <stEvt:action>saved</stEvt:action>
                  <stEvt:instanceID>xmp.iid:ebe7a2b4-0c14-a841-8696-32a9642769c5</stEvt:instanceID>
                  <stEvt:when>2020-10-08T22:58:38-07:00</stEvt:when>
                  <stEvt:softwareAgent>Adobe Audition 13.0 (Windows)</stEvt:softwareAgent>
                  <stEvt:changed>/</stEvt:changed>
               </rdf:li>
               <rdf:li rdf:parseType="Resource">
                  <stEvt:action>saved</stEvt:action>
                  <stEvt:instanceID>xmp.iid:5d35fb4e-9d56-6245-b9e2-d2a04f42e6d9</stEvt:instanceID>
                  <stEvt:when>2020-10-08T23:03:31-07:00</stEvt:when>
                  <stEvt:softwareAgent>Adobe Audition 13.0 (Windows)</stEvt:softwareAgent>
                  <stEvt:changed>/metadata</stEvt:changed>
               </rdf:li>
               <rdf:li rdf:parseType="Resource">
                  <stEvt:action>saved</stEvt:action>
                  <stEvt:instanceID>xmp.iid:0b0a70ed-de5d-f946-a1a1-71f43b96f8da</stEvt:instanceID>
                  <stEvt:when>2020-10-08T23:03:31-07:00</stEvt:when>
                  <stEvt:softwareAgent>Adobe Audition 13.0 (Windows)</stEvt:softwareAgent>
                  <stEvt:changed>/</stEvt:changed>
               </rdf:li>
               <rdf:li rdf:parseType="Resource">
                  <stEvt:action>saved</stEvt:action>
                  <stEvt:instanceID>xmp.iid:f0afd4ea-0829-ff41-8848-a478e5c0b12c</stEvt:instanceID>
                  <stEvt:when>2020-10-08T23:17:24-07:00</stEvt:when>
                  <stEvt:softwareAgent>Adobe Audition 13.0 (Windows)</stEvt:softwareAgent>
                  <stEvt:changed>/metadata</stEvt:changed>
               </rdf:li>
               <rdf:li rdf:parseType="Resource">
                  <stEvt:action>saved</stEvt:action>
                  <stEvt:instanceID>xmp.iid:3bf9a50d-3f09-df44-9d2e-b76989b264a0</stEvt:instanceID>
                  <stEvt:when>2020-10-08T23:17:24-07:00</stEvt:when>
                  <stEvt:softwareAgent>Adobe Audition 13.0 (Windows)</stEvt:softwareAgent>
                  <stEvt:changed>/</stEvt:changed>
               </rdf:li>
               <rdf:li rdf:parseType="Resource">
                  <stEvt:action>saved</stEvt:action>
                  <stEvt:instanceID>xmp.iid:170b1f55-a0ea-7e4f-bd5a-7ff41c3d1faa</stEvt:instanceID>
                  <stEvt:when>2020-10-08T23:17:28-07:00</stEvt:when>
                  <stEvt:softwareAgent>Adobe Audition 13.0 (Windows)</stEvt:softwareAgent>
                  <stEvt:changed>/metadata</stEvt:changed>
               </rdf:li>
               <rdf:li rdf:parseType="Resource">
                  <stEvt:action>saved</stEvt:action>
                  <stEvt:instanceID>xmp.iid:97d7bb37-f0db-8e41-8336-0fb7ae3182fb</stEvt:instanceID>
                  <stEvt:when>2020-10-08T23:17:28-07:00</stEvt:when>
                  <stEvt:softwareAgent>Adobe Audition 13.0 (Windows)</stEvt:softwareAgent>
                  <stEvt:changed>/</stEvt:changed>
               </rdf:li>
               <rdf:li rdf:parseType="Resource">
                  <stEvt:action>saved</stEvt:action>
                  <stEvt:instanceID>xmp.iid:0d93cf55-a76a-154d-adb3-f5202bd50a08</stEvt:instanceID>
                  <stEvt:when>2020-10-08T23:17:29-07:00</stEvt:when>
                  <stEvt:softwareAgent>Adobe Audition 13.0 (Windows)</stEvt:softwareAgent>
                  <stEvt:changed>/metadata</stEvt:changed>
               </rdf:li>
               <rdf:li rdf:parseType="Resource">
                  <stEvt:action>saved</stEvt:action>
                  <stEvt:instanceID>xmp.iid:ca7ff2b6-5db7-1b4d-99aa-b880fdfced05</stEvt:instanceID>
                  <stEvt:when>2020-10-08T23:17:29-07:00</stEvt:when>
                  <stEvt:softwareAgent>Adobe Audition 13.0 (Windows)</stEvt:softwareAgent>
                  <stEvt:changed>/</stEvt:changed>
               </rdf:li>
               <rdf:li rdf:parseType="Resource">
                  <stEvt:action>saved</stEvt:action>
                  <stEvt:instanceID>xmp.iid:c3534ef1-ed3f-0c4e-b155-4f4ac35feb05</stEvt:instanceID>
                  <stEvt:when>2020-10-08T23:22:45-07:00</stEvt:when>
                  <stEvt:softwareAgent>Adobe Audition 13.0 (Windows)</stEvt:softwareAgent>
                  <stEvt:changed>/metadata</stEvt:changed>
               </rdf:li>
               <rdf:li rdf:parseType="Resource">
                  <stEvt:action>saved</stEvt:action>
                  <stEvt:instanceID>xmp.iid:0626b317-b10c-7d4d-b83c-ab1daeddec28</stEvt:instanceID>
                  <stEvt:when>2020-10-08T23:22:45-07:00</stEvt:when>
                  <stEvt:softwareAgent>Adobe Audition 13.0 (Windows)</stEvt:softwareAgent>
                  <stEvt:changed>/</stEvt:changed>
               </rdf:li>
               <rdf:li rdf:parseType="Resource">
                  <stEvt:action>saved</stEvt:action>
                  <stEvt:instanceID>xmp.iid:2b65e5f5-d8ce-574d-8fdf-0452bc4b8666</stEvt:instanceID>
                  <stEvt:when>2020-10-08T23:22:46-07:00</stEvt:when>
                  <stEvt:softwareAgent>Adobe Audition 13.0 (Windows)</stEvt:softwareAgent>
                  <stEvt:changed>/metadata</stEvt:changed>
               </rdf:li>
               <rdf:li rdf:parseType="Resource">
                  <stEvt:action>saved</stEvt:action>
                  <stEvt:instanceID>xmp.iid:6d67fef3-3f7d-ad4c-8723-2ef6af736da1</stEvt:instanceID>
                  <stEvt:when>2020-10-08T23:22:46-07:00</stEvt:when>
                  <stEvt:softwareAgent>Adobe Audition 13.0 (Windows)</stEvt:softwareAgent>
                  <stEvt:changed>/</stEvt:changed>
               </rdf:li>
               <rdf:li rdf:parseType="Resource">
                  <stEvt:action>saved</stEvt:action>
                  <stEvt:instanceID>xmp.iid:d72946ea-9aea-1a47-996f-dd487dd75b74</stEvt:instanceID>
                  <stEvt:when>2020-10-09T18:00:26-07:00</stEvt:when>
                  <stEvt:softwareAgent>Adobe Audition 13.0 (Windows)</stEvt:softwareAgent>
                  <stEvt:changed>/metadata</stEvt:changed>
               </rdf:li>
               <rdf:li rdf:parseType="Resource">
                  <stEvt:action>saved</stEvt:action>
                  <stEvt:instanceID>xmp.iid:b24e4558-4163-304d-8744-26de70b2be6e</stEvt:instanceID>
                  <stEvt:when>2020-10-09T18:00:26-07:00</stEvt:when>
                  <stEvt:softwareAgent>Adobe Audition 13.0 (Windows)</stEvt:softwareAgent>
                  <stEvt:changed>/</stEvt:changed>
               </rdf:li>
               <rdf:li rdf:parseType="Resource">
                  <stEvt:action>saved</stEvt:action>
                  <stEvt:instanceID>xmp.iid:eb487e0a-37d2-7e41-95f2-148fa0375225</stEvt:instanceID>
                  <stEvt:when>2020-10-09T18:06:15-07:00</stEvt:when>
                  <stEvt:softwareAgent>Adobe Audition 13.0 (Windows)</stEvt:softwareAgent>
                  <stEvt:changed>/metadata</stEvt:changed>
               </rdf:li>
               <rdf:li rdf:parseType="Resource">
                  <stEvt:action>saved</stEvt:action>
                  <stEvt:instanceID>xmp.iid:1fe765ff-b035-174a-8b80-bd86dbbfb42d</stEvt:instanceID>
                  <stEvt:when>2020-10-09T18:06:15-07:00</stEvt:when>
                  <stEvt:softwareAgent>Adobe Audition 13.0 (Windows)</stEvt:softwareAgent>
                  <stEvt:changed>/</stEvt:changed>
               </rdf:li>
               <rdf:li rdf:parseType="Resource">
                  <stEvt:action>saved</stEvt:action>
                  <stEvt:instanceID>xmp.iid:c45b9472-a42b-3d4b-a897-d1871c275606</stEvt:instanceID>
                  <stEvt:when>2020-10-09T18:20:09-07:00</stEvt:when>
                  <stEvt:softwareAgent>Adobe Audition 13.0 (Windows)</stEvt:softwareAgent>
                  <stEvt:changed>/metadata</stEvt:changed>
               </rdf:li>
               <rdf:li rdf:parseType="Resource">
                  <stEvt:action>saved</stEvt:action>
                  <stEvt:instanceID>xmp.iid:13e23572-16d7-4040-a177-a74fae24ca6e</stEvt:instanceID>
                  <stEvt:when>2020-10-09T18:20:09-07:00</stEvt:when>
                  <stEvt:softwareAgent>Adobe Audition 13.0 (Windows)</stEvt:softwareAgent>
                  <stEvt:changed>/</stEvt:changed>
               </rdf:li>
               <rdf:li rdf:parseType="Resource">
                  <stEvt:action>saved</stEvt:action>
                  <stEvt:instanceID>xmp.iid:67f73037-b514-b147-b928-9cdda40c021f</stEvt:instanceID>
                  <stEvt:when>2020-10-09T18:20:10-07:00</stEvt:when>
                  <stEvt:softwareAgent>Adobe Audition 13.0 (Windows)</stEvt:softwareAgent>
                  <stEvt:changed>/metadata</stEvt:changed>
               </rdf:li>
               <rdf:li rdf:parseType="Resource">
                  <stEvt:action>saved</stEvt:action>
                  <stEvt:instanceID>xmp.iid:b28b827e-f609-5e41-8e01-d7ef4252fcc6</stEvt:instanceID>
                  <stEvt:when>2020-10-09T18:20:10-07:00</stEvt:when>
                  <stEvt:softwareAgent>Adobe Audition 13.0 (Windows)</stEvt:softwareAgent>
                  <stEvt:changed>/</stEvt:changed>
               </rdf:li>
               <rdf:li rdf:parseType="Resource">
                  <stEvt:action>saved</stEvt:action>
                  <stEvt:instanceID>xmp.iid:84f8653c-03ed-c245-948d-2ba9c533fadb</stEvt:instanceID>
                  <stEvt:when>2020-10-09T18:20:41-07:00</stEvt:when>
                  <stEvt:softwareAgent>Adobe Audition 13.0 (Windows)</stEvt:softwareAgent>
                  <stEvt:changed>/metadata</stEvt:changed>
               </rdf:li>
               <rdf:li rdf:parseType="Resource">
                  <stEvt:action>saved</stEvt:action>
                  <stEvt:instanceID>xmp.iid:e2b0772d-3dc1-e14d-bc4b-fba515682e57</stEvt:instanceID>
                  <stEvt:when>2020-10-09T18:20:41-07:00</stEvt:when>
                  <stEvt:softwareAgent>Adobe Audition 13.0 (Windows)</stEvt:softwareAgent>
                  <stEvt:changed>/</stEvt:changed>
               </rdf:li>
               <rdf:li rdf:parseType="Resource">
                  <stEvt:action>saved</stEvt:action>
                  <stEvt:instanceID>xmp.iid:601b99a9-5a0a-bf48-abc5-e1d0642bd647</stEvt:instanceID>
                  <stEvt:when>2020-10-09T20:56:42-07:00</stEvt:when>
                  <stEvt:softwareAgent>Adobe Audition 13.0 (Windows)</stEvt:softwareAgent>
                  <stEvt:changed>/metadata</stEvt:changed>
               </rdf:li>
               <rdf:li rdf:parseType="Resource">
                  <stEvt:action>saved</stEvt:action>
                  <stEvt:instanceID>xmp.iid:3e7edd46-ee44-bf45-b6bb-fc0080d746b4</stEvt:instanceID>
                  <stEvt:when>2020-10-09T20:56:42-07:00</stEvt:when>
                  <stEvt:softwareAgent>Adobe Audition 13.0 (Windows)</stEvt:softwareAgent>
                  <stEvt:changed>/</stEvt:changed>
               </rdf:li>
               <rdf:li rdf:parseType="Resource">
                  <stEvt:action>saved</stEvt:action>
                  <stEvt:instanceID>xmp.iid:74b0f9a2-3d40-db40-b5bf-86c4746a41c8</stEvt:instanceID>
                  <stEvt:when>2020-10-09T21:02-07:00</stEvt:when>
                  <stEvt:softwareAgent>Adobe Audition 13.0 (Windows)</stEvt:softwareAgent>
                  <stEvt:changed>/metadata</stEvt:changed>
               </rdf:li>
               <rdf:li rdf:parseType="Resource">
                  <stEvt:action>saved</stEvt:action>
                  <stEvt:instanceID>xmp.iid:37078b61-bf6a-3845-af22-8bb318cb0d8e</stEvt:instanceID>
                  <stEvt:when>2020-10-09T21:02-07:00</stEvt:when>
                  <stEvt:softwareAgent>Adobe Audition 13.0 (Windows)</stEvt:softwareAgent>
                  <stEvt:changed>/</stEvt:changed>
               </rdf:li>
               <rdf:li rdf:parseType="Resource">
                  <stEvt:action>saved</stEvt:action>
                  <stEvt:instanceID>xmp.iid:575ce6c5-4ee7-2c4c-a8b4-d0a4cec94610</stEvt:instanceID>
                  <stEvt:when>2020-10-09T21:06:50-07:00</stEvt:when>
                  <stEvt:softwareAgent>Adobe Audition 13.0 (Windows)</stEvt:softwareAgent>
                  <stEvt:changed>/metadata</stEvt:changed>
               </rdf:li>
               <rdf:li rdf:parseType="Resource">
                  <stEvt:action>saved</stEvt:action>
                  <stEvt:instanceID>xmp.iid:ccd763c3-adc2-2349-be82-0484a62f8c26</stEvt:instanceID>
                  <stEvt:when>2020-10-09T21:06:50-07:00</stEvt:when>
                  <stEvt:softwareAgent>Adobe Audition 13.0 (Windows)</stEvt:softwareAgent>
                  <stEvt:changed>/</stEvt:changed>
               </rdf:li>
               <rdf:li rdf:parseType="Resource">
                  <stEvt:action>saved</stEvt:action>
                  <stEvt:instanceID>xmp.iid:5aefd415-d6ab-e74d-905a-045a5dabda24</stEvt:instanceID>
                  <stEvt:when>2020-10-09T21:22:53-07:00</stEvt:when>
                  <stEvt:softwareAgent>Adobe Audition 13.0 (Windows)</stEvt:softwareAgent>
                  <stEvt:changed>/metadata</stEvt:changed>
               </rdf:li>
               <rdf:li rdf:parseType="Resource">
                  <stEvt:action>saved</stEvt:action>
                  <stEvt:instanceID>xmp.iid:49eaa6b5-fae9-7b40-938a-334d23eebd9a</stEvt:instanceID>
                  <stEvt:when>2020-10-09T21:22:53-07:00</stEvt:when>
                  <stEvt:softwareAgent>Adobe Audition 13.0 (Windows)</stEvt:softwareAgent>
                  <stEvt:changed>/</stEvt:changed>
               </rdf:li>
               <rdf:li rdf:parseType="Resource">
                  <stEvt:action>saved</stEvt:action>
                  <stEvt:instanceID>xmp.iid:44df2b71-dbb1-0744-83f6-2b865cb4a4f5</stEvt:instanceID>
                  <stEvt:when>2020-10-09T21:30:24-07:00</stEvt:when>
                  <stEvt:softwareAgent>Adobe Audition 13.0 (Windows)</stEvt:softwareAgent>
                  <stEvt:changed>/metadata</stEvt:changed>
               </rdf:li>
               <rdf:li rdf:parseType="Resource">
                  <stEvt:action>saved</stEvt:action>
                  <stEvt:instanceID>xmp.iid:20bef395-efd2-8444-a24b-00a1b8b780f5</stEvt:instanceID>
                  <stEvt:when>2020-10-09T21:30:24-07:00</stEvt:when>
                  <stEvt:softwareAgent>Adobe Audition 13.0 (Windows)</stEvt:softwareAgent>
                  <stEvt:changed>/</stEvt:changed>
               </rdf:li>
               <rdf:li rdf:parseType="Resource">
                  <stEvt:action>saved</stEvt:action>
                  <stEvt:instanceID>xmp.iid:135253de-4b40-0a4c-8ba9-de0febb46258</stEvt:instanceID>
                  <stEvt:when>2020-10-09T21:53:10-07:00</stEvt:when>
                  <stEvt:softwareAgent>Adobe Audition 13.0 (Windows)</stEvt:softwareAgent>
                  <stEvt:changed>/metadata</stEvt:changed>
               </rdf:li>
               <rdf:li rdf:parseType="Resource">
                  <stEvt:action>saved</stEvt:action>
                  <stEvt:instanceID>xmp.iid:5ec86995-480f-f04e-84ac-5ae3a6708939</stEvt:instanceID>
                  <stEvt:when>2020-10-09T21:53:10-07:00</stEvt:when>
                  <stEvt:softwareAgent>Adobe Audition 13.0 (Windows)</stEvt:softwareAgent>
                  <stEvt:changed>/</stEvt:changed>
               </rdf:li>
               <rdf:li rdf:parseType="Resource">
                  <stEvt:action>saved</stEvt:action>
                  <stEvt:instanceID>xmp.iid:d8c85c53-c719-834c-bbd2-34fd5cd01c67</stEvt:instanceID>
                  <stEvt:when>2020-10-09T21:54:35-07:00</stEvt:when>
                  <stEvt:softwareAgent>Adobe Audition 13.0 (Windows)</stEvt:softwareAgent>
                  <stEvt:changed>/metadata</stEvt:changed>
               </rdf:li>
               <rdf:li rdf:parseType="Resource">
                  <stEvt:action>saved</stEvt:action>
                  <stEvt:instanceID>xmp.iid:fe0af4d8-dc0b-a44c-b811-caeffcabca76</stEvt:instanceID>
                  <stEvt:when>2020-10-09T21:54:35-07:00</stEvt:when>
                  <stEvt:softwareAgent>Adobe Audition 13.0 (Windows)</stEvt:softwareAgent>
                  <stEvt:changed>/</stEvt:changed>
               </rdf:li>
               <rdf:li rdf:parseType="Resource">
                  <stEvt:action>saved</stEvt:action>
                  <stEvt:instanceID>xmp.iid:a822b50a-974b-b849-9a8d-cba3c5326d20</stEvt:instanceID>
                  <stEvt:when>2020-10-09T21:55:44-07:00</stEvt:when>
                  <stEvt:softwareAgent>Adobe Audition 13.0 (Windows)</stEvt:softwareAgent>
                  <stEvt:changed>/metadata</stEvt:changed>
               </rdf:li>
               <rdf:li rdf:parseType="Resource">
                  <stEvt:action>saved</stEvt:action>
                  <stEvt:instanceID>xmp.iid:0552e668-a3a9-4448-bf70-05f3cd289cba</stEvt:instanceID>
                  <stEvt:when>2020-10-09T21:55:44-07:00</stEvt:when>
                  <stEvt:softwareAgent>Adobe Audition 13.0 (Windows)</stEvt:softwareAgent>
                  <stEvt:changed>/</stEvt:changed>
               </rdf:li>
               <rdf:li rdf:parseType="Resource">
                  <stEvt:action>saved</stEvt:action>
                  <stEvt:instanceID>xmp.iid:a001f506-d2ba-3440-9683-83f8902b3ca3</stEvt:instanceID>
                  <stEvt:when>2020-10-09T21:57:10-07:00</stEvt:when>
                  <stEvt:softwareAgent>Adobe Audition 13.0 (Windows)</stEvt:softwareAgent>
                  <stEvt:changed>/metadata</stEvt:changed>
               </rdf:li>
               <rdf:li rdf:parseType="Resource">
                  <stEvt:action>saved</stEvt:action>
                  <stEvt:instanceID>xmp.iid:79363897-aa74-884b-af2a-0881f8c4844d</stEvt:instanceID>
                  <stEvt:when>2020-10-09T21:57:10-07:00</stEvt:when>
                  <stEvt:softwareAgent>Adobe Audition 13.0 (Windows)</stEvt:softwareAgent>
                  <stEvt:changed>/</stEvt:changed>
               </rdf:li>
               <rdf:li rdf:parseType="Resource">
                  <stEvt:action>saved</stEvt:action>
                  <stEvt:instanceID>xmp.iid:dab78a98-8709-2f4f-95d7-eed644c44a1e</stEvt:instanceID>
                  <stEvt:when>2020-10-09T21:58:10-07:00</stEvt:when>
                  <stEvt:softwareAgent>Adobe Audition 13.0 (Windows)</stEvt:softwareAgent>
                  <stEvt:changed>/metadata</stEvt:changed>
               </rdf:li>
               <rdf:li rdf:parseType="Resource">
                  <stEvt:action>saved</stEvt:action>
                  <stEvt:instanceID>xmp.iid:e9c9f462-7284-0d44-8e38-288264e3ee85</stEvt:instanceID>
                  <stEvt:when>2020-10-09T21:58:10-07:00</stEvt:when>
                  <stEvt:softwareAgent>Adobe Audition 13.0 (Windows)</stEvt:softwareAgent>
                  <stEvt:changed>/</stEvt:changed>
               </rdf:li>
               <rdf:li rdf:parseType="Resource">
                  <stEvt:action>saved</stEvt:action>
                  <stEvt:instanceID>xmp.iid:0bd325de-6611-9f49-802a-89b2d3861dec</stEvt:instanceID>
                  <stEvt:when>2020-10-09T21:58:13-07:00</stEvt:when>
                  <stEvt:softwareAgent>Adobe Audition 13.0 (Windows)</stEvt:softwareAgent>
                  <stEvt:changed>/metadata</stEvt:changed>
               </rdf:li>
               <rdf:li rdf:parseType="Resource">
                  <stEvt:action>saved</stEvt:action>
                  <stEvt:instanceID>xmp.iid:e2f82147-2df9-8746-b6c8-b924c51ff0c4</stEvt:instanceID>
                  <stEvt:when>2020-10-09T21:58:13-07:00</stEvt:when>
                  <stEvt:softwareAgent>Adobe Audition 13.0 (Windows)</stEvt:softwareAgent>
                  <stEvt:changed>/</stEvt:changed>
               </rdf:li>
               <rdf:li rdf:parseType="Resource">
                  <stEvt:action>saved</stEvt:action>
                  <stEvt:instanceID>xmp.iid:f7caef22-1dd5-0343-8479-76f6fd8c0073</stEvt:instanceID>
                  <stEvt:when>2020-10-09T22:05:01-07:00</stEvt:when>
                  <stEvt:softwareAgent>Adobe Audition 13.0 (Windows)</stEvt:softwareAgent>
                  <stEvt:changed>/metadata</stEvt:changed>
               </rdf:li>
               <rdf:li rdf:parseType="Resource">
                  <stEvt:action>saved</stEvt:action>
                  <stEvt:instanceID>xmp.iid:936e63bb-e599-4e43-96b3-1d4c42e413ea</stEvt:instanceID>
                  <stEvt:when>2020-10-09T22:05:01-07:00</stEvt:when>
                  <stEvt:softwareAgent>Adobe Audition 13.0 (Windows)</stEvt:softwareAgent>
                  <stEvt:changed>/</stEvt:changed>
               </rdf:li>
               <rdf:li rdf:parseType="Resource">
                  <stEvt:action>saved</stEvt:action>
                  <stEvt:instanceID>xmp.iid:778ecd63-e86c-f44c-a272-1ec6d159d6fb</stEvt:instanceID>
                  <stEvt:when>2020-10-09T22:10:01-07:00</stEvt:when>
                  <stEvt:softwareAgent>Adobe Audition 13.0 (Windows)</stEvt:softwareAgent>
                  <stEvt:changed>/metadata</stEvt:changed>
               </rdf:li>
               <rdf:li rdf:parseType="Resource">
                  <stEvt:action>saved</stEvt:action>
                  <stEvt:instanceID>xmp.iid:8de65b67-e93e-da4a-9952-6a9825f91eb6</stEvt:instanceID>
                  <stEvt:when>2020-10-09T22:10:01-07:00</stEvt:when>
                  <stEvt:softwareAgent>Adobe Audition 13.0 (Windows)</stEvt:softwareAgent>
                  <stEvt:changed>/</stEvt:changed>
               </rdf:li>
               <rdf:li rdf:parseType="Resource">
                  <stEvt:action>saved</stEvt:action>
                  <stEvt:instanceID>xmp.iid:626c917e-ce40-ff4e-a72f-3e149519b062</stEvt:instanceID>
                  <stEvt:when>2020-10-09T22:12-07:00</stEvt:when>
                  <stEvt:softwareAgent>Adobe Audition 13.0 (Windows)</stEvt:softwareAgent>
                  <stEvt:changed>/metadata</stEvt:changed>
               </rdf:li>
               <rdf:li rdf:parseType="Resource">
                  <stEvt:action>saved</stEvt:action>
                  <stEvt:instanceID>xmp.iid:b17dfc56-2010-1d4b-b47f-ce36d3412d4d</stEvt:instanceID>
                  <stEvt:when>2020-10-09T22:12-07:00</stEvt:when>
                  <stEvt:softwareAgent>Adobe Audition 13.0 (Windows)</stEvt:softwareAgent>
                  <stEvt:changed>/</stEvt:changed>
               </rdf:li>
               <rdf:li rdf:parseType="Resource">
                  <stEvt:action>saved</stEvt:action>
                  <stEvt:instanceID>xmp.iid:797f8f59-a8df-484a-b594-134569e71d18</stEvt:instanceID>
                  <stEvt:when>2020-10-09T22:12:14-07:00</stEvt:when>
                  <stEvt:softwareAgent>Adobe Audition 13.0 (Windows)</stEvt:softwareAgent>
                  <stEvt:changed>/metadata</stEvt:changed>
               </rdf:li>
               <rdf:li rdf:parseType="Resource">
                  <stEvt:action>saved</stEvt:action>
                  <stEvt:instanceID>xmp.iid:503ae7e2-beae-db46-85d0-f7a7d767c870</stEvt:instanceID>
                  <stEvt:when>2020-10-09T22:12:14-07:00</stEvt:when>
                  <stEvt:softwareAgent>Adobe Audition 13.0 (Windows)</stEvt:softwareAgent>
                  <stEvt:changed>/</stEvt:changed>
               </rdf:li>
               <rdf:li rdf:parseType="Resource">
                  <stEvt:action>saved</stEvt:action>
                  <stEvt:instanceID>xmp.iid:bb5b5125-2c52-0346-9bcb-4fbfac45adc5</stEvt:instanceID>
                  <stEvt:when>2020-10-09T22:12:54-07:00</stEvt:when>
                  <stEvt:softwareAgent>Adobe Audition 13.0 (Windows)</stEvt:softwareAgent>
                  <stEvt:changed>/metadata</stEvt:changed>
               </rdf:li>
               <rdf:li rdf:parseType="Resource">
                  <stEvt:action>saved</stEvt:action>
                  <stEvt:instanceID>xmp.iid:ebfe7e93-75f8-6f4b-9897-8ef3aca8c24f</stEvt:instanceID>
                  <stEvt:when>2020-10-09T22:12:54-07:00</stEvt:when>
                  <stEvt:softwareAgent>Adobe Audition 13.0 (Windows)</stEvt:softwareAgent>
                  <stEvt:changed>/</stEvt:changed>
               </rdf:li>
               <rdf:li rdf:parseType="Resource">
                  <stEvt:action>saved</stEvt:action>
                  <stEvt:instanceID>xmp.iid:dc7c8625-aa90-0a44-b1ff-1ca45b6239ab</stEvt:instanceID>
                  <stEvt:when>2020-10-09T22:14:37-07:00</stEvt:when>
                  <stEvt:softwareAgent>Adobe Audition 13.0 (Windows)</stEvt:softwareAgent>
                  <stEvt:changed>/metadata</stEvt:changed>
               </rdf:li>
               <rdf:li rdf:parseType="Resource">
                  <stEvt:action>saved</stEvt:action>
                  <stEvt:instanceID>xmp.iid:66eec615-a11e-094e-8e7e-84b43319ec35</stEvt:instanceID>
                  <stEvt:when>2020-10-09T22:14:37-07:00</stEvt:when>
                  <stEvt:softwareAgent>Adobe Audition 13.0 (Windows)</stEvt:softwareAgent>
                  <stEvt:changed>/</stEvt:changed>
               </rdf:li>
               <rdf:li rdf:parseType="Resource">
                  <stEvt:action>saved</stEvt:action>
                  <stEvt:instanceID>xmp.iid:1f3853ea-34f1-2c4c-99e7-1bd503fe9312</stEvt:instanceID>
                  <stEvt:when>2020-10-09T22:22:48-07:00</stEvt:when>
                  <stEvt:softwareAgent>Adobe Audition 13.0 (Windows)</stEvt:softwareAgent>
                  <stEvt:changed>/metadata</stEvt:changed>
               </rdf:li>
               <rdf:li rdf:parseType="Resource">
                  <stEvt:action>saved</stEvt:action>
                  <stEvt:instanceID>xmp.iid:1dd1b384-6488-c34a-b076-3cdb12131092</stEvt:instanceID>
                  <stEvt:when>2020-10-09T22:22:48-07:00</stEvt:when>
                  <stEvt:softwareAgent>Adobe Audition 13.0 (Windows)</stEvt:softwareAgent>
                  <stEvt:changed>/</stEvt:changed>
               </rdf:li>
               <rdf:li rdf:parseType="Resource">
                  <stEvt:action>saved</stEvt:action>
                  <stEvt:instanceID>xmp.iid:3beb210f-783e-544f-ad39-cdd7051841f0</stEvt:instanceID>
                  <stEvt:when>2020-10-09T22:36:31-07:00</stEvt:when>
                  <stEvt:softwareAgent>Adobe Audition 13.0 (Windows)</stEvt:softwareAgent>
                  <stEvt:changed>/metadata</stEvt:changed>
               </rdf:li>
               <rdf:li rdf:parseType="Resource">
                  <stEvt:action>saved</stEvt:action>
                  <stEvt:instanceID>xmp.iid:d522be17-e3c7-2340-b8bf-a486c7132cb5</stEvt:instanceID>
                  <stEvt:when>2020-10-09T22:36:31-07:00</stEvt:when>
                  <stEvt:softwareAgent>Adobe Audition 13.0 (Windows)</stEvt:softwareAgent>
                  <stEvt:changed>/</stEvt:changed>
               </rdf:li>
               <rdf:li rdf:parseType="Resource">
                  <stEvt:action>saved</stEvt:action>
                  <stEvt:instanceID>xmp.iid:4be27167-73fe-8b4c-b9d9-1fd14e0fdee0</stEvt:instanceID>
                  <stEvt:when>2020-10-09T22:39:44-07:00</stEvt:when>
                  <stEvt:softwareAgent>Adobe Audition 13.0 (Windows)</stEvt:softwareAgent>
                  <stEvt:changed>/metadata</stEvt:changed>
               </rdf:li>
               <rdf:li rdf:parseType="Resource">
                  <stEvt:action>saved</stEvt:action>
                  <stEvt:instanceID>xmp.iid:1aeb67e4-ef70-c742-ad59-56eac1f98899</stEvt:instanceID>
                  <stEvt:when>2020-10-09T22:39:44-07:00</stEvt:when>
                  <stEvt:softwareAgent>Adobe Audition 13.0 (Windows)</stEvt:softwareAgent>
                  <stEvt:changed>/</stEvt:changed>
               </rdf:li>
               <rdf:li rdf:parseType="Resource">
                  <stEvt:action>saved</stEvt:action>
                  <stEvt:instanceID>xmp.iid:c25f97f5-7c6b-194a-aac9-dac2147e94df</stEvt:instanceID>
                  <stEvt:when>2020-10-09T22:42:38-07:00</stEvt:when>
                  <stEvt:softwareAgent>Adobe Audition 13.0 (Windows)</stEvt:softwareAgent>
                  <stEvt:changed>/metadata</stEvt:changed>
               </rdf:li>
               <rdf:li rdf:parseType="Resource">
                  <stEvt:action>saved</stEvt:action>
                  <stEvt:instanceID>xmp.iid:1cebd94f-4c6d-ea4b-9061-a0b4321de195</stEvt:instanceID>
                  <stEvt:when>2020-10-09T22:42:38-07:00</stEvt:when>
                  <stEvt:softwareAgent>Adobe Audition 13.0 (Windows)</stEvt:softwareAgent>
                  <stEvt:changed>/</stEvt:changed>
               </rdf:li>
               <rdf:li rdf:parseType="Resource">
                  <stEvt:action>saved</stEvt:action>
                  <stEvt:instanceID>xmp.iid:bf4e40de-48ce-de41-980b-135b766e96f0</stEvt:instanceID>
                  <stEvt:when>2020-10-09T22:44:45-07:00</stEvt:when>
                  <stEvt:softwareAgent>Adobe Audition 13.0 (Windows)</stEvt:softwareAgent>
                  <stEvt:changed>/metadata</stEvt:changed>
               </rdf:li>
               <rdf:li rdf:parseType="Resource">
                  <stEvt:action>saved</stEvt:action>
                  <stEvt:instanceID>xmp.iid:a426695a-aa2a-c84f-9098-e11547bb257e</stEvt:instanceID>
                  <stEvt:when>2020-10-09T22:44:45-07:00</stEvt:when>
                  <stEvt:softwareAgent>Adobe Audition 13.0 (Windows)</stEvt:softwareAgent>
                  <stEvt:changed>/</stEvt:changed>
               </rdf:li>
               <rdf:li rdf:parseType="Resource">
                  <stEvt:action>saved</stEvt:action>
                  <stEvt:instanceID>xmp.iid:0704e0df-4098-0344-89fb-e51c10b7fc54</stEvt:instanceID>
                  <stEvt:when>2020-10-09T22:54:29-07:00</stEvt:when>
                  <stEvt:softwareAgent>Adobe Audition 13.0 (Windows)</stEvt:softwareAgent>
                  <stEvt:changed>/metadata</stEvt:changed>
               </rdf:li>
               <rdf:li rdf:parseType="Resource">
                  <stEvt:action>saved</stEvt:action>
                  <stEvt:instanceID>xmp.iid:b42875ed-7b06-7a4d-a271-e8388d6f4b15</stEvt:instanceID>
                  <stEvt:when>2020-10-09T22:54:29-07:00</stEvt:when>
                  <stEvt:softwareAgent>Adobe Audition 13.0 (Windows)</stEvt:softwareAgent>
                  <stEvt:changed>/</stEvt:changed>
               </rdf:li>
               <rdf:li rdf:parseType="Resource">
                  <stEvt:action>saved</stEvt:action>
                  <stEvt:instanceID>xmp.iid:ffaedd6f-3f5e-0b4b-b3ff-35456876b348</stEvt:instanceID>
                  <stEvt:when>2020-10-09T23:06-07:00</stEvt:when>
                  <stEvt:softwareAgent>Adobe Audition 13.0 (Windows)</stEvt:softwareAgent>
                  <stEvt:changed>/metadata</stEvt:changed>
               </rdf:li>
               <rdf:li rdf:parseType="Resource">
                  <stEvt:action>saved</stEvt:action>
                  <stEvt:instanceID>xmp.iid:73234a8d-d4ac-5a44-bfd7-b7fe13b13405</stEvt:instanceID>
                  <stEvt:when>2020-10-09T23:06-07:00</stEvt:when>
                  <stEvt:softwareAgent>Adobe Audition 13.0 (Windows)</stEvt:softwareAgent>
                  <stEvt:changed>/</stEvt:changed>
               </rdf:li>
               <rdf:li rdf:parseType="Resource">
                  <stEvt:action>saved</stEvt:action>
                  <stEvt:instanceID>xmp.iid:b4b3bd9a-e631-f044-a274-7a0723025b44</stEvt:instanceID>
                  <stEvt:when>2020-10-09T23:06:06-07:00</stEvt:when>
                  <stEvt:softwareAgent>Adobe Audition 13.0 (Windows)</stEvt:softwareAgent>
                  <stEvt:changed>/metadata</stEvt:changed>
               </rdf:li>
               <rdf:li rdf:parseType="Resource">
                  <stEvt:action>saved</stEvt:action>
                  <stEvt:instanceID>xmp.iid:546fad38-5c59-154c-a8d8-733a4971f83c</stEvt:instanceID>
                  <stEvt:when>2020-10-09T23:06:06-07:00</stEvt:when>
                  <stEvt:softwareAgent>Adobe Audition 13.0 (Windows)</stEvt:softwareAgent>
                  <stEvt:changed>/</stEvt:changed>
               </rdf:li>
               <rdf:li rdf:parseType="Resource">
                  <stEvt:action>saved</stEvt:action>
                  <stEvt:instanceID>xmp.iid:718a1113-d4dd-ac49-a5aa-dd7b5fa03ec2</stEvt:instanceID>
                  <stEvt:when>2020-10-09T23:15:51-07:00</stEvt:when>
                  <stEvt:softwareAgent>Adobe Audition 13.0 (Windows)</stEvt:softwareAgent>
                  <stEvt:changed>/metadata</stEvt:changed>
               </rdf:li>
               <rdf:li rdf:parseType="Resource">
                  <stEvt:action>saved</stEvt:action>
                  <stEvt:instanceID>xmp.iid:468686d4-a968-574a-ab04-b29386751934</stEvt:instanceID>
                  <stEvt:when>2020-10-09T23:15:51-07:00</stEvt:when>
                  <stEvt:softwareAgent>Adobe Audition 13.0 (Windows)</stEvt:softwareAgent>
                  <stEvt:changed>/</stEvt:changed>
               </rdf:li>
               <rdf:li rdf:parseType="Resource">
                  <stEvt:action>saved</stEvt:action>
                  <stEvt:instanceID>xmp.iid:979a4bad-9f98-ea4a-bb9c-8de115d64c31</stEvt:instanceID>
                  <stEvt:when>2020-10-09T23:17:40-07:00</stEvt:when>
                  <stEvt:softwareAgent>Adobe Audition 13.0 (Windows)</stEvt:softwareAgent>
                  <stEvt:changed>/metadata</stEvt:changed>
               </rdf:li>
               <rdf:li rdf:parseType="Resource">
                  <stEvt:action>saved</stEvt:action>
                  <stEvt:instanceID>xmp.iid:84d68745-31b5-7d4c-91af-62a74aed4756</stEvt:instanceID>
                  <stEvt:when>2020-10-09T23:17:40-07:00</stEvt:when>
                  <stEvt:softwareAgent>Adobe Audition 13.0 (Windows)</stEvt:softwareAgent>
                  <stEvt:changed>/</stEvt:changed>
               </rdf:li>
               <rdf:li rdf:parseType="Resource">
                  <stEvt:action>saved</stEvt:action>
                  <stEvt:instanceID>xmp.iid:f14c02d2-9687-f842-8411-fb427d67b1b5</stEvt:instanceID>
                  <stEvt:when>2020-10-09T23:25:36-07:00</stEvt:when>
                  <stEvt:softwareAgent>Adobe Audition 13.0 (Windows)</stEvt:softwareAgent>
                  <stEvt:changed>/metadata</stEvt:changed>
               </rdf:li>
               <rdf:li rdf:parseType="Resource">
                  <stEvt:action>saved</stEvt:action>
                  <stEvt:instanceID>xmp.iid:b0ad08e2-c97a-e64a-92b9-b0a9d2f7f362</stEvt:instanceID>
                  <stEvt:when>2020-10-09T23:25:36-07:00</stEvt:when>
                  <stEvt:softwareAgent>Adobe Audition 13.0 (Windows)</stEvt:softwareAgent>
                  <stEvt:changed>/</stEvt:changed>
               </rdf:li>
               <rdf:li rdf:parseType="Resource">
                  <stEvt:action>saved</stEvt:action>
                  <stEvt:instanceID>xmp.iid:52cf34ff-cc5b-564d-8445-5856f883dd79</stEvt:instanceID>
                  <stEvt:when>2020-10-09T23:27:01-07:00</stEvt:when>
                  <stEvt:softwareAgent>Adobe Audition 13.0 (Windows)</stEvt:softwareAgent>
                  <stEvt:changed>/metadata</stEvt:changed>
               </rdf:li>
               <rdf:li rdf:parseType="Resource">
                  <stEvt:action>saved</stEvt:action>
                  <stEvt:instanceID>xmp.iid:3cc4d8bc-6272-f54c-93d7-7c00ffb26a26</stEvt:instanceID>
                  <stEvt:when>2020-10-09T23:27:01-07:00</stEvt:when>
                  <stEvt:softwareAgent>Adobe Audition 13.0 (Windows)</stEvt:softwareAgent>
                  <stEvt:changed>/</stEvt:changed>
               </rdf:li>
               <rdf:li rdf:parseType="Resource">
                  <stEvt:action>saved</stEvt:action>
                  <stEvt:instanceID>xmp.iid:28ee0504-d2cb-9841-84db-bfe65b9d43fe</stEvt:instanceID>
                  <stEvt:when>2020-10-09T23:29:56-07:00</stEvt:when>
                  <stEvt:softwareAgent>Adobe Audition 13.0 (Windows)</stEvt:softwareAgent>
                  <stEvt:changed>/metadata</stEvt:changed>
               </rdf:li>
               <rdf:li rdf:parseType="Resource">
                  <stEvt:action>saved</stEvt:action>
                  <stEvt:instanceID>xmp.iid:2438ef87-1d2a-1246-8e09-0a84f30f634d</stEvt:instanceID>
                  <stEvt:when>2020-10-09T23:29:56-07:00</stEvt:when>
                  <stEvt:softwareAgent>Adobe Audition 13.0 (Windows)</stEvt:softwareAgent>
                  <stEvt:changed>/</stEvt:changed>
               </rdf:li>
               <rdf:li rdf:parseType="Resource">
                  <stEvt:action>saved</stEvt:action>
                  <stEvt:instanceID>xmp.iid:e7d2f5d5-6f54-3244-8e10-b6034162f412</stEvt:instanceID>
                  <stEvt:when>2020-10-09T23:30:58-07:00</stEvt:when>
                  <stEvt:softwareAgent>Adobe Audition 13.0 (Windows)</stEvt:softwareAgent>
                  <stEvt:changed>/metadata</stEvt:changed>
               </rdf:li>
               <rdf:li rdf:parseType="Resource">
                  <stEvt:action>saved</stEvt:action>
                  <stEvt:instanceID>xmp.iid:54804788-5f88-3243-b64f-d63b7cbc69fd</stEvt:instanceID>
                  <stEvt:when>2020-10-09T23:30:58-07:00</stEvt:when>
                  <stEvt:softwareAgent>Adobe Audition 13.0 (Windows)</stEvt:softwareAgent>
                  <stEvt:changed>/</stEvt:changed>
               </rdf:li>
               <rdf:li rdf:parseType="Resource">
                  <stEvt:action>saved</stEvt:action>
                  <stEvt:instanceID>xmp.iid:cad3468c-5b3b-3b46-b379-8e083e968910</stEvt:instanceID>
                  <stEvt:when>2020-10-09T23:31:29-07:00</stEvt:when>
                  <stEvt:softwareAgent>Adobe Audition 13.0 (Windows)</stEvt:softwareAgent>
                  <stEvt:changed>/metadata</stEvt:changed>
               </rdf:li>
               <rdf:li rdf:parseType="Resource">
                  <stEvt:action>saved</stEvt:action>
                  <stEvt:instanceID>xmp.iid:0d4a4daa-617e-c247-a5e7-6cfc2767cf26</stEvt:instanceID>
                  <stEvt:when>2020-10-09T23:31:29-07:00</stEvt:when>
                  <stEvt:softwareAgent>Adobe Audition 13.0 (Windows)</stEvt:softwareAgent>
                  <stEvt:changed>/</stEvt:changed>
               </rdf:li>
               <rdf:li rdf:parseType="Resource">
                  <stEvt:action>saved</stEvt:action>
                  <stEvt:instanceID>xmp.iid:f8fb9346-e41c-0041-8a1d-f1cb5a369ba6</stEvt:instanceID>
                  <stEvt:when>2020-10-09T23:33:16-07:00</stEvt:when>
                  <stEvt:softwareAgent>Adobe Audition 13.0 (Windows)</stEvt:softwareAgent>
                  <stEvt:changed>/metadata</stEvt:changed>
               </rdf:li>
               <rdf:li rdf:parseType="Resource">
                  <stEvt:action>saved</stEvt:action>
                  <stEvt:instanceID>xmp.iid:038f4458-bc6f-e744-8b82-faad19e83948</stEvt:instanceID>
                  <stEvt:when>2020-10-09T23:33:16-07:00</stEvt:when>
                  <stEvt:softwareAgent>Adobe Audition 13.0 (Windows)</stEvt:softwareAgent>
                  <stEvt:changed>/</stEvt:changed>
               </rdf:li>
               <rdf:li rdf:parseType="Resource">
                  <stEvt:action>saved</stEvt:action>
                  <stEvt:instanceID>xmp.iid:a664f30d-27b1-0b4e-a3a5-f8339aa1767c</stEvt:instanceID>
                  <stEvt:when>2020-10-09T23:45:29-07:00</stEvt:when>
                  <stEvt:softwareAgent>Adobe Audition 13.0 (Windows)</stEvt:softwareAgent>
                  <stEvt:changed>/metadata</stEvt:changed>
               </rdf:li>
               <rdf:li rdf:parseType="Resource">
                  <stEvt:action>saved</stEvt:action>
                  <stEvt:instanceID>xmp.iid:50cdb347-b09d-1349-8f9e-8e13d3d6a4be</stEvt:instanceID>
                  <stEvt:when>2020-10-09T23:45:29-07:00</stEvt:when>
                  <stEvt:softwareAgent>Adobe Audition 13.0 (Windows)</stEvt:softwareAgent>
                  <stEvt:changed>/</stEvt:changed>
               </rdf:li>
               <rdf:li rdf:parseType="Resource">
                  <stEvt:action>saved</stEvt:action>
                  <stEvt:instanceID>xmp.iid:3011bcea-447c-2c4e-825f-740b7d289335</stEvt:instanceID>
                  <stEvt:when>2020-10-09T23:47:57-07:00</stEvt:when>
                  <stEvt:softwareAgent>Adobe Audition 13.0 (Windows)</stEvt:softwareAgent>
                  <stEvt:changed>/metadata</stEvt:changed>
               </rdf:li>
               <rdf:li rdf:parseType="Resource">
                  <stEvt:action>saved</stEvt:action>
                  <stEvt:instanceID>xmp.iid:08cdd88a-4c9e-e24f-a05b-7c19ced92390</stEvt:instanceID>
                  <stEvt:when>2020-10-09T23:47:57-07:00</stEvt:when>
                  <stEvt:softwareAgent>Adobe Audition 13.0 (Windows)</stEvt:softwareAgent>
                  <stEvt:changed>/</stEvt:changed>
               </rdf:li>
               <rdf:li rdf:parseType="Resource">
                  <stEvt:action>saved</stEvt:action>
                  <stEvt:instanceID>xmp.iid:bbd70895-bcef-0a47-a67b-e3b3f3c774d2</stEvt:instanceID>
                  <stEvt:when>2020-10-09T23:48:43-07:00</stEvt:when>
                  <stEvt:softwareAgent>Adobe Audition 13.0 (Windows)</stEvt:softwareAgent>
                  <stEvt:changed>/metadata</stEvt:changed>
               </rdf:li>
               <rdf:li rdf:parseType="Resource">
                  <stEvt:action>saved</stEvt:action>
                  <stEvt:instanceID>xmp.iid:af2ea03c-39d0-2f46-b809-423cc6178d20</stEvt:instanceID>
                  <stEvt:when>2020-10-09T23:48:43-07:00</stEvt:when>
                  <stEvt:softwareAgent>Adobe Audition 13.0 (Windows)</stEvt:softwareAgent>
                  <stEvt:changed>/</stEvt:changed>
               </rdf:li>
               <rdf:li rdf:parseType="Resource">
                  <stEvt:action>saved</stEvt:action>
                  <stEvt:instanceID>xmp.iid:3b25824c-c386-6b49-921c-d7c75dc97b80</stEvt:instanceID>
                  <stEvt:when>2020-10-10T00:04:54-07:00</stEvt:when>
                  <stEvt:softwareAgent>Adobe Audition 13.0 (Windows)</stEvt:softwareAgent>
                  <stEvt:changed>/metadata</stEvt:changed>
               </rdf:li>
               <rdf:li rdf:parseType="Resource">
                  <stEvt:action>saved</stEvt:action>
                  <stEvt:instanceID>xmp.iid:84d61906-38d3-7349-b565-c437ecca9dcf</stEvt:instanceID>
                  <stEvt:when>2020-10-10T00:04:54-07:00</stEvt:when>
                  <stEvt:softwareAgent>Adobe Audition 13.0 (Windows)</stEvt:softwareAgent>
                  <stEvt:changed>/</stEvt:changed>
               </rdf:li>
               <rdf:li rdf:parseType="Resource">
                  <stEvt:action>saved</stEvt:action>
                  <stEvt:instanceID>xmp.iid:2622e5b2-1b96-df4e-be10-3b9f9047a236</stEvt:instanceID>
                  <stEvt:when>2020-10-10T00:08:51-07:00</stEvt:when>
                  <stEvt:softwareAgent>Adobe Audition 13.0 (Windows)</stEvt:softwareAgent>
                  <stEvt:changed>/metadata</stEvt:changed>
               </rdf:li>
               <rdf:li rdf:parseType="Resource">
                  <stEvt:action>saved</stEvt:action>
                  <stEvt:instanceID>xmp.iid:782b3809-c7ab-964d-86da-89b23eff58e5</stEvt:instanceID>
                  <stEvt:when>2020-10-10T00:08:51-07:00</stEvt:when>
                  <stEvt:softwareAgent>Adobe Audition 13.0 (Windows)</stEvt:softwareAgent>
                  <stEvt:changed>/</stEvt:changed>
               </rdf:li>
               <rdf:li rdf:parseType="Resource">
                  <stEvt:action>saved</stEvt:action>
                  <stEvt:instanceID>xmp.iid:46446577-32ba-8b4d-8fc5-c054c25f6c25</stEvt:instanceID>
                  <stEvt:when>2020-10-10T00:14:32-07:00</stEvt:when>
                  <stEvt:softwareAgent>Adobe Audition 13.0 (Windows)</stEvt:softwareAgent>
                  <stEvt:changed>/metadata</stEvt:changed>
               </rdf:li>
               <rdf:li rdf:parseType="Resource">
                  <stEvt:action>saved</stEvt:action>
                  <stEvt:instanceID>xmp.iid:1a3fdd6d-e43e-b242-94bb-26a9bcf89d07</stEvt:instanceID>
                  <stEvt:when>2020-10-10T00:14:32-07:00</stEvt:when>
                  <stEvt:softwareAgent>Adobe Audition 13.0 (Windows)</stEvt:softwareAgent>
                  <stEvt:changed>/</stEvt:changed>
               </rdf:li>
               <rdf:li rdf:parseType="Resource">
                  <stEvt:action>saved</stEvt:action>
                  <stEvt:instanceID>xmp.iid:37660cfe-280f-0c48-bd5f-24c0218e1121</stEvt:instanceID>
                  <stEvt:when>2020-10-10T00:14:39-07:00</stEvt:when>
                  <stEvt:softwareAgent>Adobe Audition 13.0 (Windows)</stEvt:softwareAgent>
                  <stEvt:changed>/metadata</stEvt:changed>
               </rdf:li>
               <rdf:li rdf:parseType="Resource">
                  <stEvt:action>saved</stEvt:action>
                  <stEvt:instanceID>xmp.iid:baaed27b-a6fb-ea42-948c-e6bd96bbdff9</stEvt:instanceID>
                  <stEvt:when>2020-10-10T00:14:39-07:00</stEvt:when>
                  <stEvt:softwareAgent>Adobe Audition 13.0 (Windows)</stEvt:softwareAgent>
                  <stEvt:changed>/</stEvt:changed>
               </rdf:li>
               <rdf:li rdf:parseType="Resource">
                  <stEvt:action>saved</stEvt:action>
                  <stEvt:instanceID>xmp.iid:118df85a-1b46-f547-9bab-2bb6df0c1a9c</stEvt:instanceID>
                  <stEvt:when>2020-10-10T00:16:18-07:00</stEvt:when>
                  <stEvt:softwareAgent>Adobe Audition 13.0 (Windows)</stEvt:softwareAgent>
                  <stEvt:changed>/metadata</stEvt:changed>
               </rdf:li>
               <rdf:li rdf:parseType="Resource">
                  <stEvt:action>saved</stEvt:action>
                  <stEvt:instanceID>xmp.iid:1d78cc91-0de7-474c-9c84-43830bccbe67</stEvt:instanceID>
                  <stEvt:when>2020-10-10T00:16:18-07:00</stEvt:when>
                  <stEvt:softwareAgent>Adobe Audition 13.0 (Windows)</stEvt:softwareAgent>
                  <stEvt:changed>/</stEvt:changed>
               </rdf:li>
               <rdf:li rdf:parseType="Resource">
                  <stEvt:action>saved</stEvt:action>
                  <stEvt:instanceID>xmp.iid:579ae3d6-3fdc-8149-91d6-43f96061f2db</stEvt:instanceID>
                  <stEvt:when>2020-10-10T11:37:21-07:00</stEvt:when>
                  <stEvt:softwareAgent>Adobe Audition 13.0 (Windows)</stEvt:softwareAgent>
                  <stEvt:changed>/metadata</stEvt:changed>
               </rdf:li>
               <rdf:li rdf:parseType="Resource">
                  <stEvt:action>saved</stEvt:action>
                  <stEvt:instanceID>xmp.iid:2bceb1b9-118b-944f-b45c-31bb860a3a16</stEvt:instanceID>
                  <stEvt:when>2020-10-10T11:37:21-07:00</stEvt:when>
                  <stEvt:softwareAgent>Adobe Audition 13.0 (Windows)</stEvt:softwareAgent>
                  <stEvt:changed>/</stEvt:changed>
               </rdf:li>
            </rdf:Seq>
         </xmpMM:History>
         <dc:format>application/xml</dc:format>
         <AEScart:Version>0101</AEScart:Version>
         <AEScart:PostTimer>
            <rdf:Seq>
               <rdf:li rdf:parseType="Resource">
                  <AEScart:Usage>EOD </AEScart:Usage>
                  <AEScart:Value>4253538</AEScart:Value>
               </rdf:li>
               <rdf:li rdf:parseType="Resource">
                  <AEScart:Usage/>
                  <AEScart:Value>4294967295</AEScart:Value>
               </rdf:li>
               <rdf:li rdf:parseType="Resource">
                  <AEScart:Usage/>
                  <AEScart:Value>4294967295</AEScart:Value>
               </rdf:li>
               <rdf:li rdf:parseType="Resource">
                  <AEScart:Usage/>
                  <AEScart:Value>4294967295</AEScart:Value>
               </rdf:li>
               <rdf:li rdf:parseType="Resource">
                  <AEScart:Usage/>
                  <AEScart:Value>4294967295</AEScart:Value>
               </rdf:li>
               <rdf:li rdf:parseType="Resource">
                  <AEScart:Usage/>
                  <AEScart:Value>4294967295</AEScart:Value>
               </rdf:li>
               <rdf:li rdf:parseType="Resource">
                  <AEScart:Usage/>
                  <AEScart:Value>4294967295</AEScart:Value>
               </rdf:li>
               <rdf:li rdf:parseType="Resource">
                  <AEScart:Usage/>
                  <AEScart:Value>4294967295</AEScart:Value>
               </rdf:li>
            </rdf:Seq>
         </AEScart:PostTimer>
         <xmpDM:Tracks>
            <rdf:Bag>
               <rdf:li rdf:parseType="Resource">
                  <xmpDM:trackName>CuePoint Markers</xmpDM:trackName>
                  <xmpDM:trackType>Cue</xmpDM:trackType>
                  <xmpDM:frameRate>f48000</xmpDM:frameRate>
                  <xmpDM:markers>
                     <rdf:Seq>
                        <rdf:li rdf:parseType="Resource">
                           <xmpDM:startTime>566181</xmpDM:startTime>
                           <xmpDM:name>标记 04</xmpDM:name>
                           <xmpDM:cuePointParams>
                              <rdf:Seq>
                                 <rdf:li rdf:parseType="Resource">
                                    <xmpDM:key>marker_guid</xmpDM:key>
                                    <xmpDM:value>xmp:id:227095cd-deb3-3f47-a168-b30263254f56</xmpDM:value>
                                 </rdf:li>
                              </rdf:Seq>
                           </xmpDM:cuePointParams>
                           <xmpDM:guid>xmp:id:227095cd-deb3-3f47-a168-b30263254f56</xmpDM:guid>
                        </rdf:li>
                        <rdf:li rdf:parseType="Resource">
                           <xmpDM:startTime>596887</xmpDM:startTime>
                           <xmpDM:name>标记 05</xmpDM:name>
                           <xmpDM:cuePointParams>
                              <rdf:Seq>
                                 <rdf:li rdf:parseType="Resource">
                                    <xmpDM:key>marker_guid</xmpDM:key>
                                    <xmpDM:value>xmp:id:a3e2e9ae-7bea-fb44-b3a4-f5004c5087fb</xmpDM:value>
                                 </rdf:li>
                              </rdf:Seq>
                           </xmpDM:cuePointParams>
                           <xmpDM:guid>xmp:id:a3e2e9ae-7bea-fb44-b3a4-f5004c5087fb</xmpDM:guid>
                        </rdf:li>
                        <rdf:li rdf:parseType="Resource">
                           <xmpDM:startTime>615742</xmpDM:startTime>
                           <xmpDM:name>标记 03</xmpDM:name>
                           <xmpDM:cuePointParams>
                              <rdf:Seq>
                                 <rdf:li rdf:parseType="Resource">
                                    <xmpDM:key>marker_guid</xmpDM:key>
                                    <xmpDM:value>xmp:id:d3378dfd-742b-0a4e-ab12-4b267a0d4956</xmpDM:value>
                                 </rdf:li>
                              </rdf:Seq>
                           </xmpDM:cuePointParams>
                           <xmpDM:guid>xmp:id:d3378dfd-742b-0a4e-ab12-4b267a0d4956</xmpDM:guid>
                        </rdf:li>
                        <rdf:li rdf:parseType="Resource">
                           <xmpDM:startTime>1215968</xmpDM:startTime>
                           <xmpDM:name>标记 02</xmpDM:name>
                           <xmpDM:cuePointParams>
                              <rdf:Seq>
                                 <rdf:li rdf:parseType="Resource">
                                    <xmpDM:key>marker_guid</xmpDM:key>
                                    <xmpDM:value>xmp:id:5a959575-439a-1c4f-bc64-316fda7bda18</xmpDM:value>
                                 </rdf:li>
                              </rdf:Seq>
                           </xmpDM:cuePointParams>
                           <xmpDM:guid>xmp:id:5a959575-439a-1c4f-bc64-316fda7bda18</xmpDM:guid>
                        </rdf:li>
                        <rdf:li rdf:parseType="Resource">
                           <xmpDM:startTime>2797714</xmpDM:startTime>
                           <xmpDM:name>标记 01</xmpDM:name>
                           <xmpDM:cuePointParams>
                              <rdf:Seq>
                                 <rdf:li rdf:parseType="Resource">
                                    <xmpDM:key>marker_guid</xmpDM:key>
                                    <xmpDM:value>xmp:id:9d46897a-51a6-c441-90d4-a4dba5088a73</xmpDM:value>
                                 </rdf:li>
                              </rdf:Seq>
                           </xmpDM:cuePointParams>
                           <xmpDM:guid>xmp:id:9d46897a-51a6-c441-90d4-a4dba5088a73</xmpDM:guid>
                        </rdf:li>
                     </rdf:Seq>
                  </xmpDM:markers>
               </rdf:li>
               <rdf:li rdf:parseType="Resource">
                  <xmpDM:trackName>CD Track Markers</xmpDM:trackName>
                  <xmpDM:trackType>Track</xmpDM:trackType>
                  <xmpDM:frameRate>f48000</xmpDM:frameRate>
               </rdf:li>
               <rdf:li rdf:parseType="Resource">
                  <xmpDM:trackName>Subclip Markers</xmpDM:trackName>
                  <xmpDM:trackType>InOut</xmpDM:trackType>
                  <xmpDM:frameRate>f48000</xmpDM:frameRate>
               </rdf:li>
            </rdf:Bag>
         </xmpDM:Tracks>
      </rdf:Description>
   </rdf:RDF>
</x:xmpmeta>
                                                                                                    
                                                                                                    
                                                                                                    
                                                                                                    
                                                                                                    
                                                                                                    
                                                                                                    
                                                                                                    
                                                                                                    
                                                                                                    
                                                                                                    
                                                                                                    
                                                                                                    
                                                                                                    
                                                                                                    
                                                                                                    
                                                                                                    
                                                                                                    
                                                                                                    
                                                                                                    
                           
<?xpacket end="w"?>]]></xmpMetadata>
    <clipGroups/>
    <metronome enabled="false" pattern="downBeat upBeat " soundSet="sticks">
      <metronomeTrack automationLaneOpenState="false" id="40000" index="0" select="false" visible="false">
        <trackParameters trackHeight="77" trackHue="-1" trackMinimized="false">
          <name>节拍器</name>
        </trackParameters>
        <trackAudioParameters audioChannelType="mono" automationMode="1" monitoring="false" recordArmed="false" solo="false" soloSafe="true">
          <trackOutput outputID="10000" type="trackID"/>
          <trackInput inputID="-1"/>
          <component componentGuid="ca0262bb-8e47-4a60-bb71-a9d499f5126f" componentID="Audition.Fader" id="trackFader" name="volume" powered="true">
            <parameter index="0" name="volume" parameterValue="0.50118720531463623046875"/>
            <parameter index="1" name="static gain" parameterValue="1"/>
          </component>
          <component componentGuid="b9efef57-b515-492b-8739-5cd1265973a2" componentID="Audition.Mute" id="trackMute" name="Mute" powered="true">
            <parameter index="0" parameterValue="0"/>
            <parameter index="1" name="mute" parameterValue="0"/>
          </component>
          <component componentGuid="c78d5479-33fb-4e4b-8b77-665118adc953" componentID="Audition.StereoPanner" id="trackPan" name="StereoPanner" powered="true">
            <parameter index="0" name="声像" parameterValue="0"/>
          </component>
          <component componentGuid="86aed167-89ce-4b14-b792-02ad5d622efe" componentID="Audition.EQ" id="trackEQ" name="EQ" powered="false">
            <parameter index="0" name="下限频率" parameterValue="0.000834028352983295917510986328125"/>
            <parameter index="1" name="下限增益" parameterValue="0.5"/>
            <parameter index="2" name="上限频率" parameterValue="0.74979150295257568359375"/>
            <parameter index="3" name="上限频率增益" parameterValue="0.5"/>
            <parameter index="4" name="EQ 频段 1 中置频率" parameterValue="0.00125104258768260478973388671875"/>
            <parameter index="5" name="EQ 频段 1 Q" parameterValue="0.000199989997781813144683837890625"/>
            <parameter index="6" name="EQ 频段 1 增益" parameterValue="0.5"/>
            <parameter index="7" name="EQ 频段 1 启用" parameterValue="1"/>
            <parameter index="8" name="EQ 频段 2 中置频率" parameterValue="0.0075062550604343414306640625"/>
            <parameter index="9" name="EQ 频段 2 Q" parameterValue="0.000199989997781813144683837890625"/>
            <parameter index="10" name="EQ 频段 2 增益" parameterValue="0.5"/>
            <parameter index="11" name="EQ 频段 2 启用" parameterValue="1"/>
            <parameter index="12" name="EQ 频段 3 中置频率" parameterValue="0.0325271077454090118408203125"/>
            <parameter index="13" name="EQ 频段 3 Q" parameterValue="0.000199989997781813144683837890625"/>
            <parameter index="14" name="EQ 频段 3 增益" parameterValue="0.5"/>
            <parameter index="15" name="EQ 频段 3 启用" parameterValue="1"/>
            <parameter index="16" name="EQ 频段 4 中置频率" parameterValue="0.13261051476001739501953125"/>
            <parameter index="17" name="EQ 频段 4 Q" parameterValue="0.000199989997781813144683837890625"/>
            <parameter index="18" name="EQ 频段 4 增益" parameterValue="0.5"/>
            <parameter index="19" name="EQ 频段 4 启用" parameterValue="1"/>
            <parameter index="20" name="EQ 频段 5 中置频率" parameterValue="0.532944142818450927734375"/>
            <parameter index="21" name="EQ 频段 5 Q" parameterValue="0.000199989997781813144683837890625"/>
            <parameter index="22" name="EQ 频段 5 增益" parameterValue="0.5"/>
            <parameter index="23" name="EQ 频段 5 启用" parameterValue="1"/>
            <parameter index="24" name="主控增益" parameterValue="0.666666686534881591796875"/>
            <parameter index="25" name="恒定 Q" parameterValue="1"/>
            <parameter index="26" name="下限滤镜顺序" parameterValue="0"/>
            <parameter index="27" name="上限频率滤镜顺序" parameterValue="0"/>
            <parameter index="28" name="超静音模式" parameterValue="0"/>
            <parameter index="29" name="下限启用" parameterValue="1"/>
            <parameter index="30" name="上限频率启用" parameterValue="1"/>
            <parameter index="31" name="原始采样率" parameterValue="0.25"/>
            <parameter index="32" name="EQ 频段 1 频带宽" parameterValue="0.002499990165233612060546875"/>
            <parameter index="33" name="EQ 频段 2 频段宽度" parameterValue="0.0099999904632568359375"/>
            <parameter index="34" name="EQ 频段 3 频段宽度" parameterValue="0.0399999916553497314453125"/>
            <parameter index="35" name="EQ 频段 4 频段宽度" parameterValue="0.15999998152256011962890625"/>
            <parameter index="36" name="EQ 频段 5 频段宽度" parameterValue="0.63999998569488525390625"/>
            <parameter index="37" name="高通滤波启用" parameterValue="0"/>
            <parameter index="38" name="高通切除频率" parameterValue="0"/>
            <parameter index="39" name="高通斜率" parameterValue="0.4000000059604644775390625"/>
            <parameter index="40" name="低通滤波启用" parameterValue="0"/>
            <parameter index="41" name="低通切除频率" parameterValue="0.833194315433502197265625"/>
            <parameter index="42" name="低通斜率" parameterValue="0.4000000059604644775390625"/>
            <parameter index="43" name="不使用" parameterValue="0"/>
            <parameter index="44" name="下限图示范围" parameterValue="1"/>
          </component>
        </trackAudioParameters>
        <editParameter parameterIndex="0" slotIndex="4294967280"/>
      </metronomeTrack>
    </metronome>
    <properties>
      <property key="EssentialSoundConfigurations">[{"Guid":"a8b40e3e-13e7-4c1f-b382-96058f1f691d","Name":"$$$/app/Presets/DefaultPresetName=(Default)","PresetData":{"ModeID":"ambience","Models":{"model_ducking":{},"model_loudness":{"DefaultLoudness":{"type":"float","value":-30},"LoudnessStandard":{"type":"std::uint32_t","value":0},"MaxLoudness":{"type":"float","value":-12},"MinLoudness":{"type":"float","value":-42}},"model_soundeffects":{"ReverbPresets":{"type":"tree::any","value":{"$$$/app/Presets/EssentialSound/ReverbPreset/LargeRoomAmbience=Large Room Ambience":{"type":"array::float","value":[0.051507499068975449,0.32432401180267334,0.29292899370193481,0.30000001192092896,0.20000000298023224,0,0.14285700023174286,0.40000000596046448,0.5,0.69999998807907104,0.30000001192092896,0.25125628709793091,0.03125]},"$$$/app/Presets/EssentialSound/ReverbPreset/OutsideAmbience=Outside Ambience":{"type":"array::float","value":[0.091708503663539886,0.043893899768590927,1,0.5,0.20000000298023224,0.80000001192092896,0.18367299437522888,1,0.5,0,0.80000001192092896,0.25125628709793091,0.03125]},"$$$/app/Presets/EssentialSound/ReverbPreset/RoomAmbience=Room Ambience":{"type":"array::float","value":[0.057788901031017303,0.44944900274276733,0.49494898319244385,0.89999997615814209,0.10000000149011612,0.15000000596046448,0.081632703542709351,0.40000000596046448,0.5,0.80000001192092896,0.20000000298023224,0.25125628709793091,0.03125]},"$$$/app/Presets/EssentialSound/ReverbPreset/WindEffect=Wind Effect":{"type":"array::float","value":[0.19597999751567841,0.6896899938583374,0.69696998596191406,0.25,0.5,0.5,0.23469400405883789,0.51999998092651367,0.5,0.75,0.25,0.25125628709793091,0.03125]}}}},"model_stereowidth":{},"model_volume":{"MaxGain":{"type":"float","value":15},"MinGain":{"type":"float","value":-60}}},"Version":1},"Type":"1c19ca71-c24c-49cd-8dd5-2cc46018507a","Version":1},{"Guid":"58dc27a8-6a2a-480c-bd0c-4b45fff346a6","Name":"$$$/app/Presets/DefaultPresetName=(Default)","PresetData":{"ModeID":"dialog","Models":{"model_clarity":{"EQPresets":{"type":"tree::any","value":{"$$$/app/Presets/EssentialSound/EQPreset/BackgroundVoice=Background Voice":{"type":"array::float","value":[0.12099699676036835,0.5,0.39240506291389465,0,0.5,0.5,0.5,0.5,0.5,0.47827938199043274,0.45772689580917358,0.45778733491897583,0.47946760058403015,0.5,0]},"$$$/app/Presets/EssentialSound/EQPreset/Intercom=Intercom":{"type":"array::float","value":[0.19432899355888367,0.5,1,0,0.071499988436698914,0.071499988436698914,0.071499988436698914,0.40238627791404724,0.48571401834487915,0.5,0.55155748128890991,0.59602576494216919,0.22246670722961426,0.071499988436698914,0]},"$$$/app/Presets/EssentialSound/EQPreset/LockedInTheTrunk=Locked in the Trunk":{"type":"array::float","value":[0.12099699676036835,0.5,0.79746836423873901,0,0.5,0.5,0.5,0.5,0.5,0.32846158742904663,0.15721426904201508,0.15721426904201508,0.15721426904201508,0.15721426904201508,0]},"$$$/app/Presets/EssentialSound/EQPreset/OldRadio=Old Radio":{"type":"array::float","value":[0.12099699676036835,0.5,0.79746836423873901,0,0.15721426904201508,0.15721426904201508,0.15721426904201508,0.28442040085792542,0.48315632343292236,0.36498492956161499,0.52853888273239136,0.43511500954627991,0.27154684066772461,0.15721426904201508,0]},"$$$/app/Presets/EssentialSound/EQPreset/OnTheTelephone=On the Telephone":{"type":"array::float","value":[0.12099699676036835,0.5,0.39240506291389465,0,0.32864287495613098,0.32864287495613098,0.32864287495613098,0.32864287495613098,0.48571401834487915,0.53071397542953491,0.53071397542953491,0.48357096314430237,0.32864287495613098,0.32864287495613098,0]},"$$$/app/Presets/EssentialSound/EQPreset/OutsideOfTheRoom=Outside of the Room":{"type":"array::float","value":[0.12099699676036835,0.5,0.79746836423873901,0,0.42539370059967041,0.47865453362464905,0.5,0.5,0.48571401834487915,0.40073278546333313,0.25656309723854065,0.15721426904201508,0.15721426904201508,0.15721426904201508,0]},"$$$/app/Presets/EssentialSound/EQPreset/PodcastVoice=Podcast Voice":{"type":"array::float","value":[0.12099699676036835,0.5,0.39240506291389465,0,0.5,0.5,0.5,0.51789408922195435,0.50770342350006104,0.5,0.51789408922195435,0.528114914894104,0.5102812647819519,0.5,0]},"$$$/app/Presets/EssentialSound/EQPreset/SubtleBoostFemale=Subtle Boost (Female)":{"type":"array::float","value":[0.096553400158882141,0.5,0.29113924503326416,0,0.5,0.5,0.5,0.5,0.5,0.51933407783508301,0.54642897844314575,0.52706766128540039,0.5,0.5,0]},"$$$/app/Presets/EssentialSound/EQPreset/SubtleBoostMale=Subtle Boost (Male)":{"type":"array::float","value":[0.096553400158882141,0.5,0.29113924503326416,0,0.5,0.5,0.5,0.5,0.5,0.5135338306427002,0.54642897844314575,0.51933407783508301,0.5,0.5,0]},"$$$/app/Presets/EssentialSound/EQPreset/ThatPublicRadioSound=That Public Radio Sound":{"type":"array::float","value":[0.12099699676036835,0.5,0.79746836423873901,0,0.15721426904201508,0.15721426904201508,0.15721426904201508,0.36334344744682312,0.49468311667442322,0.5,0.5,0.5,0.5,0.5,0]},"$$$/app/Presets/EssentialSound/EQPreset/VocalPresence=Vocal Presence":{"type":"array::float","value":[0.096553400158882141,0.5,0.32489451766014099,0,0.3572143018245697,0.3572143018245697,0.46428570151329041,0.47857141494750977,0.4763694703578949,0.49570354819297791,0.55924957990646362,0.56523394584655762,0.50859290361404419,0.46992480754852295,0]}}}},"model_loudness":{"DefaultLoudness":{"type":"float","value":-23},"LoudnessStandard":{"type":"std::uint32_t","value":0},"MaxLoudness":{"type":"float","value":-12},"MinLoudness":{"type":"float","value":-42}},"model_restoration":{"ReduceNoiseMaxSetting":{"type":"array::float","value":[1,0,0,0,0]},"ReduceNoiseMinSetting":{"type":"array::float","value":[0,0,0,0,0]},"ReduceReverbMaxSetting":{"type":"array::float","value":[1,0,0,0,0]},"ReduceReverbMinSetting":{"type":"array::float","value":[0,0,0,0,0]},"ReduceRumbleMaxSetting":{"type":"array::float","value":[1,9.9641019914997742e-06,0.375,0,0,0.00083333335351198912,1,0,1,0.0390625,0.00083408987848088145,0,0.0041666668839752674,0.00022554649331141263,0.0046875001862645149,0.75,0.0052083334885537624,0.75,1,0.75,0.0040520834736526012,0.75,0.0042629167437553406,0.00022554649331141263,0.0064883334562182426,0.00022554649331141263,0.006866666954010725,0.75,0.0071704164147377014,0.00022554649331141263,0.01041458360850811,0.00022554649331141263,0.010900000110268593,0.75,0.011407917365431786,0.00022554649331141263,0.015606249682605267,0.00022554649331141263,0.016333334147930145,0.75,0.017094582319259644,0.00022554649331141263,0.026243748143315315,0.00022554649331141263,0.0274666678160429,0.75,0.028746666386723518,0.00022554649331141263,0.041658751666545868,0.00022554649331141263,0.043600000441074371,0.75,0.045631669461727142,0.00022554649331141263,0.062424581497907639,0.00022554649331141263,0.065333336591720581,0.75,0.068377502262592316,0.00022554649331141263,0.10497540980577469,0.00022554649331141263,0.1098666712641716,0.75,0.11498583108186722,0.00022554649331141263,0.16663584113121033,0.00022554649331141263,0.17440000176429749,0.75,0.18252624571323395,0.00022554649331141263,0.91874998807907104,0.00022554649331141263,1,0.00022554649331141263,0,0,0,0,0,0,0,0,0,0,0,0,0,0,0,0,0,0,0,0,0,0,0,0,0,0,0,0,0,0,0,0,0,0,0,0,0,0,0,0,0,0,0,0,0,0,0,0,0,0,0,0,0,0,0,0,0,0,0,0,0,0,0,0,0,0,0,0,0,0,0,0,0,0,0,0,0,0,0,0,0,0,0,0,0,0,0,0,0,0,0,0,0,0,0,0,0,0,0,0,0,0,0,0,0,0,0,0,0,0,0,0,0,0,0,0,0,0,0,0,0,0,0,0,0,0,0,0,0,0,0,0,0,0,0,0,0,0,0,0,0,0,0,0,0,0,0,0,0,0,0,0,0,0,0,0,0,0,0,0,0,0,0,0,0,0,0,0,0,0,0,0,0,0,0,0,0,0,0,0,0,0,0,0,0,0,0,0,0,0]},"ReduceRumbleMinSetting":{"type":"array::float","value":[1,9.9641019914997742e-06,0.375,0,0,0.00083333335351198912,1,0,1,0.0390625,0.00083408987848088145,0.75,0.0041666668839752674,0.75,0.0046875001862645149,0.75,0.0052083334885537624,0.75,1,0.75,0.91874998807907104,0.61237245798110962,1,0.61237245798110962,0,0,0,0,0,0,0,0,0,0,0,0,0,0,0,0,0,0,0,0,0,0,0,0,0,0,0,0,0,0,0,0,0,0,0,0,0,0,0,0,0,0,0,0,0,0,0,0,0,0,0,0,0,0,0,0,0,0,0,0,0,0,0,0,0,0,0,0,0,0,0,0,0,0,0,0,0,0,0,0,0,0,0,0,0,0,0,0,0,0,0,0,0,0,0,0,0,0,0,0,0,0,0,0,0,0,0,0,0,0,0,0,0,0,0,0,0,0,0,0,0,0,0,0,0,0,0,0,0,0,0,0,0,0,0,0,0,0,0,0,0,0,0,0,0,0,0,0,0,0,0,0,0,0,0,0,0,0,0,0,0,0,0,0,0,0,0,0,0,0,0,0,0,0,0,0,0,0,0,0,0,0,0,0,0,0,0,0,0,0,0,0,0,0,0,0,0,0,0,0,0,0,0,0,0,0,0,0,0,0,0,0,0,0,0,0,0,0,0,0,0,0,0,0,0,0,0,0,0,0,0,0,0,0,0,0,0,0,0,0,0,0]},"ReduceSibilanceMaxSetting":{"type":"array::float","value":[0.5,0.19983997941017151,0.18367347121238708,0.26086956262588501,0.52702701091766357,0,1,0,0,0,0,0.75,1,1,0.40000000596046448]},"ReduceSibilanceMinSetting":{"type":"array::float","value":[0.875,0.19983997941017151,0.18367347121238708,0.19130434095859528,0.25675675272941589,0,1,0,0,0,0,0.75,1,1,0.40000000596046448]}},"model_soundeffects":{"ReverbPresets":{"type":"tree::any","value":{"$$$/app/Presets/EssentialSound/ReverbPreset/Auditorium=Auditorium":{"type":"array::float","value":[0.013047545216977596,0.15895412862300873,1,0.89999997615814209,0,0.52007436752319336,0.41663265228271484,0.46000000834465027,0.5,0.73000001907348633,0.15999999642372131,0.75376886129379272,0.03125]},"$$$/app/Presets/EssentialSound/ReverbPreset/Church=Church":{"type":"array::float","value":[0.032663315534591675,0.39939939975738525,0.79797977209091187,0.25,0.5,0.5,0.2297959178686142,0.72000002861022949,0.5,0.62999999523162842,0.87999999523162842,0.25125628709793091,0.03125]},"$$$/app/Presets/EssentialSound/ReverbPreset/LargeReflectiveRoom=Large Reflective Room":{"type":"array::float","value":[0.0074449013918638229,0.098988421261310577,0.79890537261962891,0.89999997615814209,0.10000000149011612,0.40110713243484497,0.060284845530986786,0.27522978186607361,0.5,0.73000001907348633,0.31999999284744263,0.25125628709793091,0.03125]},"$$$/app/Presets/EssentialSound/ReverbPreset/OutsideTheClub=Outside the Club":{"type":"array::float","value":[0.020615793764591217,0.050136558711528778,0.69696998596191406,0.25,0.094355784356594086,0.22242647409439087,0.1071428582072258,0.2800000011920929,0.5,0.73000001907348633,0.46000000834465027,0.25125628709793091,0.03125]},"$$$/app/Presets/EssentialSound/ReverbPreset/SmallDryRoom=Small Dry Room":{"type":"array::float","value":[0.24623115360736847,0.69975000619888306,0.29292899370193481,0.40000000596046448,0.20000000298023224,0.40000000596046448,0.039285715669393539,0.10000000149011612,0.5,1,0.5,0.75376886129379272,0.03125]},"$$$/app/Presets/EssentialSound/ReverbPreset/ThickenVoice=Thicken Voice":{"type":"array::float","value":[0.19597999751567841,0.23931467533111572,0.69696998596191406,0.25,0.5,0.53999996185302734,0.020408162847161293,0.20945435762405396,0.5,1,0.34999999403953552,0.25125628709793091,0.03125]},"$$$/app/Presets/EssentialSound/ReverbPreset/WarmRoom=Warm Room":{"type":"array::float","value":[0.020100502297282219,0.074074074625968933,0.49494948983192444,0.40000000596046448,0.74960309267044067,0.40000000596046448,0.1239795908331871,0.67000001668930054,0.5,0.85000002384185791,0.56000000238418579,0.25125628709793091,0.03125]},"$$$/app/Presets/EssentialSound/ReverbPreset/WarmVoice=Warm Voice":{"type":"array::float","value":[0.19597989320755005,0.89989989995956421,0,0.40000000596046448,0.20000000298023224,0.40000000596046448,0.10204081982374191,0.090000003576278687,0.5,1,0.30000001192092896,0.25125628709793091,0.03125]}}}},"model_volume":{"MaxGain":{"type":"float","value":15},"MinGain":{"type":"float","value":-60}}},"Version":1},"Type":"1c19ca71-c24c-49cd-8dd5-2cc46018507a","Version":1},{"Guid":"353811fa-4179-435e-8e5e-23028ba15a7a","Name":"$$$/app/Presets/DefaultPresetName=(Default)","PresetData":{"ModeID":"generic","Models":{"model_volume":{"MaxGain":{"type":"float","value":15},"MinGain":{"type":"float","value":-60}}},"Version":1},"Type":"1c19ca71-c24c-49cd-8dd5-2cc46018507a","Version":1},{"Guid":"31ba96a6-5d3e-4d89-b1e1-1dbe3c055d0c","Name":"$$$/app/Presets/DefaultPresetName=(Default)","PresetData":{"ModeID":"music","Models":{"model_ducking":{},"model_duration":{},"model_loudness":{"DefaultLoudness":{"type":"float","value":-25},"LoudnessStandard":{"type":"std::uint32_t","value":0},"MaxLoudness":{"type":"float","value":-12},"MinLoudness":{"type":"float","value":-42}},"model_volume":{"MaxGain":{"type":"float","value":15},"MinGain":{"type":"float","value":-60}}},"Version":1},"Type":"1c19ca71-c24c-49cd-8dd5-2cc46018507a","Version":1},{"Guid":"cea63332-1adc-44a9-a6eb-5490f965859b","Name":"$$$/app/Presets/DefaultPresetName=(Default)","PresetData":{"ModeID":"sfx","Models":{"model_loudness":{"DefaultLoudness":{"type":"float","value":-21},"LoudnessStandard":{"type":"std::uint32_t","value":0},"MaxLoudness":{"type":"float","value":-12},"MinLoudness":{"type":"float","value":-42}},"model_pan":{},"model_soundeffects":{"ReverbPresets":{"type":"tree::any","value":{"$$$/app/Presets/EssentialSound/ReverbPreset/HeavyReverb=Heavy Reverb":{"type":"array::float","value":[0.13316600024700165,0.29929900169372559,1,0.95999997854232788,0.85000002384185791,0.5,0.51530599594116211,0.30000001192092896,0.5,0.5,0.5,0.25125628709793091,0.0625]},"$$$/app/Presets/EssentialSound/ReverbPreset/LightReverb=Light Reverb":{"type":"array::float","value":[0.095477402210235596,0.29929900169372559,0.090909101068973541,1,1,0.80000001192092896,0.22449000179767609,0.60000002384185791,0.5,0.69999998807907104,0.30000001192092896,0.25125628709793091,0.0625]},"$$$/app/Presets/EssentialSound/ReverbPreset/OutsideReverb=Outside Reverb":{"type":"array::float","value":[0.091708503663539886,0.043893899768590927,1,0.5,0.20000000298023224,0.80000001192092896,0.18367299437522888,1,0.5,0,0.80000001192092896,0.25125628709793091,0.0625]},"$$$/app/Presets/EssentialSound/ReverbPreset/RoomReverb=Room Reverb":{"type":"array::float","value":[0.057788901031017303,0.44944900274276733,0.49494898319244385,0.89999997615814209,0.10000000149011612,0.15000000596046448,0.081632703542709351,0.40000000596046448,0.5,0.80000001192092896,0.20000000298023224,0.25125628709793091,0.0625]}}}},"model_volume":{"MaxGain":{"type":"float","value":15},"MinGain":{"type":"float","value":-60}}},"Version":1},"Type":"1c19ca71-c24c-49cd-8dd5-2cc46018507a","Version":1}]</property>
    </properties>
  </session>

  <files>
    <file absolutePath="K:\workshop\mv\JohnRyanPolka\audio\鼓.wav" id="0" importerPrivateSettings="Compression:0:0;LargeFileSupport:0:0;SampleType:0:40;" mediaHandler="AmioWav" relativePath="../鼓.wav"/>
    <file absolutePath="K:\workshop\mv\JohnRyanPolka\audio\吉他1.wav" id="1" importerPrivateSettings="Compression:0:0;LargeFileSupport:0:0;SampleType:0:40;" mediaHandler="AmioWav" relativePath="../吉他1.wav"/>
    <file absolutePath="K:\workshop\mv\JohnRyanPolka\audio\手风琴.wav" id="2" importerPrivateSettings="Compression:0:0;LargeFileSupport:0:0;SampleType:0:40;" mediaHandler="AmioWav" relativePath="../手风琴.wav"/>
    <file absolutePath="K:\workshop\mv\JohnRyanPolka\audio\小提琴.wav" id="3" importerPrivateSettings="Compression:0:0;LargeFileSupport:0:0;SampleType:0:1;" mediaHandler="AmioWav" relativePath="../小提琴.wav"/>
    <file absolutePath="K:\workshop\mv\JohnRyanPolka\audio\小提琴_solo.wav" id="4" importerPrivateSettings="Compression:0:0;LargeFileSupport:0:0;SampleType:0:1;" mediaHandler="AmioWav" relativePath="../小提琴_solo.wav"/>
    <file absolutePath="K:\workshop\mv\JohnRyanPolka\audio\吉他solo1.wav" id="5" importerPrivateSettings="Compression:0:0;LargeFileSupport:0:0;SampleType:0:1;" mediaHandler="AmioWav" relativePath="../吉他solo1.wav"/>
    <file absolutePath="K:\workshop\mv\JohnRyanPolka\audio\吉他solo2.wav" id="6" importerPrivateSettings="Compression:0:0;LargeFileSupport:0:0;SampleType:0:1;" mediaHandler="AmioWav" relativePath="../吉他solo2.wav"/>
    <file absolutePath="K:\workshop\mv\JohnRyanPolka\audio\未命名混音项目 2\Conformed Files\鼓solo_1 48000 1.wav" id="7" importerPrivateSettings="Compression:0:0;LargeFileSupport:0:0;SampleType:0:1;" mediaHandler="AmioWav" relativePath="Conformed Files/鼓solo_1 48000 1.wav"/>
    <file absolutePath="K:\workshop\mv\JohnRyanPolka\audio\未命名混音项目 2\Conformed Files\手风琴solo_1 48000 1.wav" id="8" importerPrivateSettings="Compression:0:0;LargeFileSupport:0:0;SampleType:0:1;" mediaHandler="AmioWav" relativePath="Conformed Files/手风琴solo_1 48000 1.wav"/>
  </files>

  <audioDevice inputID="CB7F9FFD-A33B-48B2-8BC0-437D94F37142" outputID="CB7F9FFD-A33B-48B2-8BC0-437D94F37142">
    <inputPort id="1" name="默认立体声输入"/>
    <inputPort id="2" name="[01M] UR242 Input 1"/>
    <inputPort id="3" name="[02M] UR242 Input 2"/>
    <inputPort id="4" name="[03M] UR242 Input 3"/>
    <inputPort id="5" name="[04M] UR242 Input 4"/>
    <inputPort id="6" name="[01S] UR242 Input 1"/>
    <inputPort id="7" name="[03S] UR242 Input 3"/>
    <outputPort id="1" name="默认输出"/>
    <outputPort id="2" name="[01M] UR242 Mix L"/>
    <outputPort id="3" name="[02M] UR242 Mix R"/>
    <outputPort id="4" name="[03M] UR242 FX Bus L"/>
    <outputPort id="5" name="[04M] UR242 FX Bus R"/>
    <outputPort id="6" name="默认立体声输出"/>
    <outputPort id="7" name="[01S] UR242 Mix L"/>
    <outputPort id="8" name="[03S] UR242 FX Bus L"/>
    <outputPort id="9" name="默认环绕声输出"/>
  </audioDevice>

</sesx>
